<svg width="64" height="64" viewBox="0 0 64 64" fill="none" xmlns="http://www.w3.org/2000/svg">
<path d="M57 23.0005H31" stroke="#00A19C" stroke-width="2" stroke-miterlimit="10"/>
<path d="M33 16.0005H55" stroke="#00A19C" stroke-width="2" stroke-miterlimit="10"/>
<path d="M33 30.0005H55" stroke="#00A19C" stroke-width="2" stroke-miterlimit="10"/>
<path d="M44 10.0005V36.0005" stroke="#00A19C" stroke-width="2" stroke-miterlimit="10"/>
<path d="M13 16.0005C16.3137 16.0005 19 13.3142 19 10.0005C19 6.68678 16.3137 4.00049 13 4.00049C9.68629 4.00049 7 6.68678 7 10.0005C7 13.3142 9.68629 16.0005 13 16.0005Z" stroke="#00A19C" stroke-width="2" stroke-miterlimit="10"/>
<path d="M40 4.00049H38" stroke="#00A19C" stroke-width="2" stroke-miterlimit="10"/>
<path d="M36 4.00049H34" stroke="#00A19C" stroke-width="2" stroke-miterlimit="10"/>
<path d="M32 4.00049H30" stroke="#00A19C" stroke-width="2" stroke-miterlimit="10"/>
<path d="M0 60.0005H63V4.00049H42" stroke="#00A19C" stroke-width="2" stroke-miterlimit="10"/>
<path d="M20 16.0005C22.76 16.0005 25 18.2405 25 21.0005V57.0005" stroke="#00A19C" stroke-width="2" stroke-miterlimit="10"/>
<path d="M20 54.0005H0" stroke="#00A19C" stroke-width="2" stroke-miterlimit="10"/>
<path d="M20 50.0005H0" stroke="#00A19C" stroke-width="2" stroke-miterlimit="10"/>
<path d="M20 46.0005H0" stroke="#00A19C" stroke-width="2" stroke-miterlimit="10"/>
<path d="M20 42.0005H0" stroke="#00A19C" stroke-width="2" stroke-miterlimit="10"/>
<path d="M44 36.0005C51.1797 36.0005 57 30.1802 57 23.0005C57 15.8208 51.1797 10.0005 44 10.0005C36.8203 10.0005 31 15.8208 31 23.0005C31 30.1802 36.8203 36.0005 44 36.0005Z" stroke="#00A19C" stroke-width="2" stroke-miterlimit="10"/>
<path d="M44 36.0005C47.866 36.0005 51 30.1802 51 23.0005C51 15.8208 47.866 10.0005 44 10.0005C40.134 10.0005 37 15.8208 37 23.0005C37 30.1802 40.134 36.0005 44 36.0005Z" stroke="#00A19C" stroke-width="2" stroke-miterlimit="10"/>
<path d="M13 21.0005V23.0005" stroke="#00A19C" stroke-width="2" stroke-miterlimit="10"/>
<path d="M13 25.0005V27.0005" stroke="#00A19C" stroke-width="2" stroke-miterlimit="10"/>
<path d="M13 16.0005H6C3.24 16.0005 1 18.2405 1 21.0005V36.0005H20" stroke="#00A19C" stroke-width="2" stroke-miterlimit="10"/>
<path d="M32 54.0005H34" stroke="#00A19C" stroke-width="2" stroke-miterlimit="10"/>
<path d="M36 54.0005H38" stroke="#00A19C" stroke-width="2" stroke-miterlimit="10"/>
<path d="M34 50.0005H36" stroke="#00A19C" stroke-width="2" stroke-miterlimit="10"/>
<path d="M30 50.0005H32" stroke="#00A19C" stroke-width="2" stroke-miterlimit="10"/>
<path d="M32 46.0005H34" stroke="#00A19C" stroke-width="2" stroke-miterlimit="10"/>
<path d="M42 50.0005H44" stroke="#00A19C" stroke-width="2" stroke-miterlimit="10"/>
<path d="M36 46.0005H38" stroke="#00A19C" stroke-width="2" stroke-miterlimit="10"/>
<path d="M40 46.0005H42" stroke="#00A19C" stroke-width="2" stroke-miterlimit="10"/>
<path d="M44 46.0005H46" stroke="#00A19C" stroke-width="2" stroke-miterlimit="10"/>
<path d="M46 42.0005H48" stroke="#00A19C" stroke-width="2" stroke-miterlimit="10"/>
<path d="M42 42.0005H44" stroke="#00A19C" stroke-width="2" stroke-miterlimit="10"/>
<path d="M46 50.0005H48" stroke="#00A19C" stroke-width="2" stroke-miterlimit="10"/>
<path d="M50 42.0005H52" stroke="#00A19C" stroke-width="2" stroke-miterlimit="10"/>
<path d="M54 42.0005H56" stroke="#00A19C" stroke-width="2" stroke-miterlimit="10"/>
<path d="M52 46.0005H54" stroke="#00A19C" stroke-width="2" stroke-miterlimit="10"/>
<path d="M56 46.0005H58" stroke="#00A19C" stroke-width="2" stroke-miterlimit="10"/>
<path d="M56 54.0005H58" stroke="#00A19C" stroke-width="2" stroke-miterlimit="10"/>
<path d="M50 50.0005H52" stroke="#00A19C" stroke-width="2" stroke-miterlimit="10"/>
<path d="M54 50.0005H56" stroke="#00A19C" stroke-width="2" stroke-miterlimit="10"/>
<path d="M44 54.0005H46" stroke="#00A19C" stroke-width="2" stroke-miterlimit="10"/>
<path d="M48 54.0005H50" stroke="#00A19C" stroke-width="2" stroke-miterlimit="10"/>
<path d="M30 42.0005H32" stroke="#00A19C" stroke-width="2" stroke-miterlimit="10"/>
<path d="M34 42.0005H36" stroke="#00A19C" stroke-width="2" stroke-miterlimit="10"/>
<path d="M38 42.0005H40" stroke="#00A19C" stroke-width="2" stroke-miterlimit="10"/>
</svg>
