<svg width="65" height="64" viewBox="0 0 65 64" fill="none" xmlns="http://www.w3.org/2000/svg">
<g clip-path="url(#clip0_2112_30669)">
<path d="M59.6667 59.0005H5.66669L1.66669 55.0005V53.0005H25.6667L27.6667 55.0005H37.6667L39.6667 53.0005H63.6667V55.0005L59.6667 59.0005Z" stroke="#00A19C" stroke-width="2" stroke-miterlimit="10"/>
<path d="M9.66669 13.0005H8.66669C7.00669 13.0005 5.66669 14.3405 5.66669 16.0005V50.0005" stroke="#00A19C" stroke-width="2" stroke-miterlimit="10"/>
<path d="M59.6667 50.0005V16.0005C59.6667 14.3405 58.3267 13.0005 56.6667 13.0005H55.6667" stroke="#00A19C" stroke-width="2" stroke-miterlimit="10"/>
<path d="M52.6667 41.0005H35.6667L33.6667 43.0005H31.6667L29.6667 41.0005H12.6667V5.00049H29.6667L31.6667 7.00049H33.6667L35.6667 5.00049H52.6667V41.0005Z" stroke="#00A19C" stroke-width="2" stroke-miterlimit="10"/>
<path d="M32.6667 7.00049V43.0005" stroke="#00A19C" stroke-width="2" stroke-miterlimit="10"/>
<path d="M15.6667 23.0005H29.6667" stroke="#00A19C" stroke-width="2" stroke-miterlimit="10"/>
<path d="M15.6667 27.0005H29.6667" stroke="#00A19C" stroke-width="2" stroke-miterlimit="10"/>
<path d="M15.6667 31.0005H29.6667" stroke="#00A19C" stroke-width="2" stroke-miterlimit="10"/>
<path d="M15.6667 35.0005H29.6667" stroke="#00A19C" stroke-width="2" stroke-miterlimit="10"/>
<path d="M35.6667 27.0005H49.6667" stroke="#00A19C" stroke-width="2" stroke-miterlimit="10"/>
<path d="M35.6667 31.0005H49.6667" stroke="#00A19C" stroke-width="2" stroke-miterlimit="10"/>
<path d="M35.6667 35.0005H49.6667" stroke="#00A19C" stroke-width="2" stroke-miterlimit="10"/>
<path d="M35.6667 11.0005H49.6667" stroke="#00A19C" stroke-width="2" stroke-miterlimit="10"/>
<path d="M35.6667 15.0005H49.6667" stroke="#00A19C" stroke-width="2" stroke-miterlimit="10"/>
<path d="M41.6667 21.0005H43.6667" stroke="#00A19C" stroke-width="2" stroke-miterlimit="10"/>
<path d="M37.6667 21.0005H39.6667" stroke="#00A19C" stroke-width="2" stroke-miterlimit="10"/>
<path d="M45.6667 21.0005H47.6667" stroke="#00A19C" stroke-width="2" stroke-miterlimit="10"/>
<path d="M28.6667 11.0005H16.6667V19.0005H28.6667V11.0005Z" stroke="#00A19C" stroke-width="2" stroke-miterlimit="10"/>
<path d="M43.6667 47.0005H59.6667" stroke="#00A19C" stroke-width="2" stroke-miterlimit="10"/>
<path d="M5.66669 47.0005H21.6667" stroke="#00A19C" stroke-width="2" stroke-miterlimit="10"/>
<path d="M31.6667 47.0005H33.6667" stroke="#00A19C" stroke-width="2" stroke-miterlimit="10"/>
<path d="M27.6667 47.0005H29.6667" stroke="#00A19C" stroke-width="2" stroke-miterlimit="10"/>
<path d="M23.6667 47.0005H25.6667" stroke="#00A19C" stroke-width="2" stroke-miterlimit="10"/>
<path d="M35.6667 47.0005H37.6667" stroke="#00A19C" stroke-width="2" stroke-miterlimit="10"/>
<path d="M39.6667 47.0005H41.6667" stroke="#00A19C" stroke-width="2" stroke-miterlimit="10"/>
</g>
<defs>
<clipPath id="clip0_2112_30669">
<rect width="64" height="64" fill="white" transform="translate(0.666687 0.000488281)"/>
</clipPath>
</defs>
</svg>
