<svg width="40" height="115" viewBox="0 0 40 115" fill="none" xmlns="http://www.w3.org/2000/svg">
<g clip-path="url(#clip0_2104_51523)">
<line y1="-0.5" x2="152.735" y2="-0.5" transform="matrix(0.866025 0.500001 -0.499999 0.866026 -46 103.562)" stroke="#C3E86C"/>
<line y1="-0.5" x2="152.735" y2="-0.5" transform="matrix(0.866025 0.500001 -0.499999 0.866026 -46 91.5625)" stroke="#C3E86C"/>
<line y1="-0.5" x2="152.735" y2="-0.5" transform="matrix(0.866025 0.500001 -0.499999 0.866026 -46 79.563)" stroke="#C3E86C"/>
<line y1="-0.5" x2="152.735" y2="-0.5" transform="matrix(0.866025 0.500001 -0.499999 0.866026 -46 67.5625)" stroke="#C3E86C"/>
<line y1="-0.5" x2="152.735" y2="-0.5" transform="matrix(0.866025 0.500001 -0.499999 0.866026 -46 55.5625)" stroke="#C3E86C"/>
<line y1="-0.5" x2="152.735" y2="-0.5" transform="matrix(0.866025 0.500001 -0.499999 0.866026 -46 43.5625)" stroke="#C3E86C"/>
<line y1="-0.5" x2="152.735" y2="-0.5" transform="matrix(0.866025 0.500001 -0.499999 0.866026 -46 31.5625)" stroke="#C3E86C"/>
<line y1="-0.5" x2="152.735" y2="-0.5" transform="matrix(0.866025 0.500001 -0.499999 0.866026 -46 19.5627)" stroke="#C3E86C"/>
<line y1="-0.5" x2="152.735" y2="-0.5" transform="matrix(0.866025 0.500001 -0.499999 0.866026 -46 7.56274)" stroke="#C3E86C"/>
<line y1="-0.5" x2="152.735" y2="-0.5" transform="matrix(0.866025 0.500001 -0.499999 0.866026 -46 -4.43726)" stroke="#C3E86C"/>
<line y1="-0.5" x2="152.735" y2="-0.5" transform="matrix(0.866025 0.500001 -0.499999 0.866026 -46 -16.4373)" stroke="#C3E86C"/>
<line y1="-0.5" x2="152.735" y2="-0.5" transform="matrix(0.866025 0.500001 -0.499999 0.866026 -46 -28.4373)" stroke="#C3E86C"/>
<line y1="-0.5" x2="152.735" y2="-0.5" transform="matrix(0.866025 0.500001 -0.499999 0.866026 -46 -40.4373)" stroke="#C3E86C"/>
<line y1="-0.5" x2="152.735" y2="-0.5" transform="matrix(0.866025 0.500001 -0.499999 0.866026 -46 -52.437)" stroke="#C3E86C"/>
<line y1="-0.5" x2="152.735" y2="-0.5" transform="matrix(0.866025 0.500001 -0.499999 0.866026 -46 -64.437)" stroke="#C3E86C"/>
</g>
<defs>
<clipPath id="clip0_2104_51523">
<rect width="114" height="40" fill="white" transform="translate(0 114.563) rotate(-90)"/>
</clipPath>
</defs>
</svg>
