<svg width="335" height="9" viewBox="0 0 335 9" fill="none" xmlns="http://www.w3.org/2000/svg">
<g clip-path="url(#clip0_2225_23625)">
<line y1="-0.5" x2="152.735" y2="-0.5" transform="matrix(-0.500001 0.866025 -0.866026 -0.499999 2.00012 -61.8955)" stroke="#C3E86C"/>
<line y1="-0.5" x2="152.735" y2="-0.5" transform="matrix(-0.500001 0.866025 -0.866026 -0.499999 14 -61.8955)" stroke="#C3E86C"/>
<line y1="-0.5" x2="152.735" y2="-0.5" transform="matrix(-0.500001 0.866025 -0.866026 -0.499999 26 -61.8955)" stroke="#C3E86C"/>
<line y1="-0.5" x2="152.735" y2="-0.5" transform="matrix(-0.500001 0.866025 -0.866026 -0.499999 38.0005 -61.8955)" stroke="#C3E86C"/>
<line y1="-0.5" x2="152.735" y2="-0.5" transform="matrix(-0.500001 0.866025 -0.866026 -0.499999 50 -61.8955)" stroke="#C3E86C"/>
<line y1="-0.5" x2="152.735" y2="-0.5" transform="matrix(-0.500001 0.866025 -0.866026 -0.499999 62.0005 -61.8955)" stroke="#C3E86C"/>
<line y1="-0.5" x2="152.735" y2="-0.5" transform="matrix(-0.500001 0.866025 -0.866026 -0.499999 74 -61.8955)" stroke="#C3E86C"/>
<line y1="-0.5" x2="152.735" y2="-0.5" transform="matrix(-0.500001 0.866025 -0.866026 -0.499999 86.0004 -61.8955)" stroke="#C3E86C"/>
<line y1="-0.5" x2="152.735" y2="-0.5" transform="matrix(-0.500001 0.866025 -0.866026 -0.499999 98.0004 -61.8955)" stroke="#C3E86C"/>
<line y1="-0.5" x2="152.735" y2="-0.5" transform="matrix(-0.500001 0.866025 -0.866026 -0.499999 110 -61.8955)" stroke="#C3E86C"/>
<line y1="-0.5" x2="152.735" y2="-0.5" transform="matrix(-0.500001 0.866025 -0.866026 -0.499999 122 -61.8955)" stroke="#C3E86C"/>
<line y1="-0.5" x2="152.735" y2="-0.5" transform="matrix(-0.500001 0.866025 -0.866026 -0.499999 134 -61.8955)" stroke="#C3E86C"/>
<line y1="-0.5" x2="152.735" y2="-0.5" transform="matrix(-0.500001 0.866025 -0.866026 -0.499999 146 -61.8955)" stroke="#C3E86C"/>
<line y1="-0.5" x2="152.735" y2="-0.5" transform="matrix(-0.500001 0.866025 -0.866026 -0.499999 158 -61.8955)" stroke="#C3E86C"/>
<line y1="-0.5" x2="152.735" y2="-0.5" transform="matrix(-0.500001 0.866025 -0.866026 -0.499999 170 -61.8955)" stroke="#C3E86C"/>
<line y1="-0.5" x2="152.735" y2="-0.5" transform="matrix(-0.500001 0.866025 -0.866026 -0.499999 182 -61.8955)" stroke="#C3E86C"/>
<line y1="-0.5" x2="152.735" y2="-0.5" transform="matrix(-0.500001 0.866025 -0.866026 -0.499999 194 -61.8955)" stroke="#C3E86C"/>
<line y1="-0.5" x2="152.735" y2="-0.5" transform="matrix(-0.500001 0.866025 -0.866026 -0.499999 206 -61.8955)" stroke="#C3E86C"/>
<line y1="-0.5" x2="152.735" y2="-0.5" transform="matrix(-0.500001 0.866025 -0.866026 -0.499999 218 -61.8955)" stroke="#C3E86C"/>
<line y1="-0.5" x2="152.735" y2="-0.5" transform="matrix(-0.500001 0.866025 -0.866026 -0.499999 230 -61.8955)" stroke="#C3E86C"/>
<line y1="-0.5" x2="152.735" y2="-0.5" transform="matrix(-0.500001 0.866025 -0.866026 -0.499999 242 -61.8955)" stroke="#C3E86C"/>
<line y1="-0.5" x2="152.735" y2="-0.5" transform="matrix(-0.500001 0.866025 -0.866026 -0.499999 254 -61.8955)" stroke="#C3E86C"/>
<line y1="-0.5" x2="152.735" y2="-0.5" transform="matrix(-0.500001 0.866025 -0.866026 -0.499999 266 -61.8955)" stroke="#C3E86C"/>
<line y1="-0.5" x2="152.735" y2="-0.5" transform="matrix(-0.500001 0.866025 -0.866026 -0.499999 278 -61.8955)" stroke="#C3E86C"/>
<line y1="-0.5" x2="152.735" y2="-0.5" transform="matrix(-0.500001 0.866025 -0.866026 -0.499999 290 -61.8955)" stroke="#C3E86C"/>
<line y1="-0.5" x2="152.735" y2="-0.5" transform="matrix(-0.500001 0.866025 -0.866026 -0.499999 302 -61.8955)" stroke="#C3E86C"/>
<line y1="-0.5" x2="152.735" y2="-0.5" transform="matrix(-0.500001 0.866025 -0.866026 -0.499999 314 -61.8955)" stroke="#C3E86C"/>
<line y1="-0.5" x2="152.735" y2="-0.5" transform="matrix(-0.500001 0.866025 -0.866026 -0.499999 326 -61.8955)" stroke="#C3E86C"/>
<line y1="-0.5" x2="152.735" y2="-0.5" transform="matrix(-0.500001 0.866025 -0.866026 -0.499999 338 -61.8955)" stroke="#C3E86C"/>
<line y1="-0.5" x2="152.735" y2="-0.5" transform="matrix(-0.500001 0.866025 -0.866026 -0.499999 350 -61.8955)" stroke="#C3E86C"/>
<line y1="-0.5" x2="152.735" y2="-0.5" transform="matrix(-0.500001 0.866025 -0.866026 -0.499999 362 -61.8955)" stroke="#C3E86C"/>
<line y1="-0.5" x2="152.735" y2="-0.5" transform="matrix(-0.500001 0.866025 -0.866026 -0.499999 374 -61.8955)" stroke="#C3E86C"/>
<line y1="-0.5" x2="152.735" y2="-0.5" transform="matrix(-0.500001 0.866025 -0.866026 -0.499999 386 -61.8955)" stroke="#C3E86C"/>
<line y1="-0.5" x2="152.735" y2="-0.5" transform="matrix(-0.500001 0.866025 -0.866026 -0.499999 398 -61.8955)" stroke="#C3E86C"/>
<line y1="-0.5" x2="152.735" y2="-0.5" transform="matrix(-0.500001 0.866025 -0.866026 -0.499999 410 -61.8955)" stroke="#C3E86C"/>
</g>
<defs>
<clipPath id="clip0_2225_23625">
<rect width="335" height="8" fill="white" transform="translate(0 0.104492)"/>
</clipPath>
</defs>
</svg>
