<svg width="335" height="146" viewBox="0 0 335 146" fill="none" xmlns="http://www.w3.org/2000/svg">
<path d="M319.739 0.333496L304.488 26.6499L319.739 53.0346L335 26.6499L319.739 0.333496Z" fill="#002554"/>
<path opacity="0.3" d="M319.739 0.333496L304.488 26.6499L319.739 53.0346L335 26.6499L319.739 0.333496Z" fill="white"/>
<path d="M66.5374 0.333496L51.2861 26.6499L66.5374 53.0346H319.739L304.488 26.6499L319.739 0.333496H66.5374Z" fill="#002554"/>
<path d="M15.2512 0.333496L0 26.6499L15.2512 53.0346H66.5473L51.2863 26.6499L66.5473 0.333496H15.2512Z" fill="#C3E86C"/>
<path opacity="0.2" d="M304.556 26.6889H0L15.3098 0.333496H319.778L304.556 26.6889Z" fill="white"/>
<circle cx="8" cy="104.035" r="8" fill="#C3E86C"/>
<path d="M32.568 107.789L32.918 109.035H33.758V103.771H29.376V104.891H32.568C32.5867 105.348 32.526 105.777 32.386 106.179C32.246 106.571 32.036 106.916 31.756 107.215C31.4853 107.504 31.1493 107.733 30.748 107.901C30.3467 108.069 29.8847 108.153 29.362 108.153C28.802 108.153 28.3073 108.045 27.878 107.831C27.458 107.607 27.1033 107.313 26.814 106.949C26.5247 106.575 26.3053 106.151 26.156 105.675C26.0067 105.189 25.932 104.685 25.932 104.163C25.932 103.631 25.9973 103.113 26.128 102.609C26.2587 102.095 26.4593 101.643 26.73 101.251C27.01 100.849 27.3647 100.527 27.794 100.285C28.2327 100.042 28.7553 99.9207 29.362 99.9207C29.7353 99.9207 30.0853 99.9673 30.412 100.061C30.748 100.145 31.0467 100.275 31.308 100.453C31.5693 100.63 31.7887 100.859 31.966 101.139C32.1433 101.409 32.2647 101.736 32.33 102.119H33.66C33.5667 101.531 33.3893 101.031 33.128 100.621C32.876 100.201 32.5587 99.8553 32.176 99.5847C31.8027 99.314 31.3733 99.118 30.888 98.9967C30.412 98.866 29.9033 98.8007 29.362 98.8007C28.5687 98.8007 27.8733 98.95 27.276 99.2487C26.688 99.538 26.1933 99.93 25.792 100.425C25.4 100.919 25.1013 101.498 24.896 102.161C24.7 102.814 24.602 103.505 24.602 104.233C24.602 104.886 24.7093 105.516 24.924 106.123C25.1387 106.729 25.4513 107.266 25.862 107.733C26.2727 108.199 26.772 108.573 27.36 108.853C27.948 109.123 28.6153 109.259 29.362 109.259C29.95 109.259 30.5333 109.147 31.112 108.923C31.6907 108.689 32.176 108.311 32.568 107.789ZM40.545 104.723H36.387C36.4057 104.443 36.4664 104.181 36.569 103.939C36.6717 103.687 36.8117 103.467 36.989 103.281C37.1664 103.094 37.3764 102.949 37.619 102.847C37.871 102.735 38.151 102.679 38.459 102.679C38.7577 102.679 39.0284 102.735 39.271 102.847C39.523 102.949 39.7377 103.094 39.915 103.281C40.1017 103.458 40.2464 103.673 40.349 103.925C40.461 104.177 40.5264 104.443 40.545 104.723ZM41.693 106.739H40.517C40.4144 107.215 40.1997 107.569 39.873 107.803C39.5557 108.036 39.145 108.153 38.641 108.153C38.249 108.153 37.9084 108.087 37.619 107.957C37.3297 107.826 37.0917 107.653 36.905 107.439C36.7184 107.215 36.583 106.963 36.499 106.683C36.415 106.393 36.3777 106.09 36.387 105.773H41.805C41.8237 105.334 41.7817 104.872 41.679 104.387C41.5857 103.901 41.4084 103.453 41.147 103.043C40.895 102.632 40.5544 102.296 40.125 102.035C39.705 101.764 39.173 101.629 38.529 101.629C38.0344 101.629 37.577 101.722 37.157 101.909C36.7464 102.095 36.387 102.357 36.079 102.693C35.7804 103.029 35.547 103.425 35.379 103.883C35.211 104.34 35.127 104.844 35.127 105.395C35.1457 105.945 35.225 106.454 35.365 106.921C35.5144 107.387 35.7337 107.789 36.023 108.125C36.3124 108.461 36.667 108.722 37.087 108.909C37.5164 109.095 38.0204 109.189 38.599 109.189C39.4204 109.189 40.1017 108.983 40.643 108.573C41.1844 108.162 41.5344 107.551 41.693 106.739ZM43.0386 101.797V109.035H44.2286V104.947C44.2286 104.62 44.2706 104.321 44.3546 104.051C44.4479 103.771 44.5832 103.528 44.7606 103.323C44.9379 103.117 45.1572 102.959 45.4186 102.847C45.6892 102.735 46.0066 102.679 46.3706 102.679C46.8279 102.679 47.1872 102.809 47.4486 103.071C47.7099 103.332 47.8406 103.687 47.8406 104.135V109.035H49.0306V104.275C49.0306 103.883 48.9886 103.528 48.9046 103.211C48.8299 102.884 48.6946 102.604 48.4986 102.371C48.3026 102.137 48.0459 101.955 47.7286 101.825C47.4112 101.694 47.0146 101.629 46.5386 101.629C45.4652 101.629 44.6812 102.067 44.1866 102.945H44.1586V101.797H43.0386ZM55.8439 104.723H51.6859C51.7045 104.443 51.7652 104.181 51.8679 103.939C51.9705 103.687 52.1105 103.467 52.2879 103.281C52.4652 103.094 52.6752 102.949 52.9179 102.847C53.1699 102.735 53.4499 102.679 53.7579 102.679C54.0565 102.679 54.3272 102.735 54.5699 102.847C54.8219 102.949 55.0365 103.094 55.2139 103.281C55.4005 103.458 55.5452 103.673 55.6479 103.925C55.7599 104.177 55.8252 104.443 55.8439 104.723ZM56.9919 106.739H55.8159C55.7132 107.215 55.4985 107.569 55.1719 107.803C54.8545 108.036 54.4439 108.153 53.9399 108.153C53.5479 108.153 53.2072 108.087 52.9179 107.957C52.6285 107.826 52.3905 107.653 52.2039 107.439C52.0172 107.215 51.8819 106.963 51.7979 106.683C51.7139 106.393 51.6765 106.09 51.6859 105.773H57.1039C57.1225 105.334 57.0805 104.872 56.9779 104.387C56.8845 103.901 56.7072 103.453 56.4459 103.043C56.1939 102.632 55.8532 102.296 55.4239 102.035C55.0039 101.764 54.4719 101.629 53.8279 101.629C53.3332 101.629 52.8759 101.722 52.4559 101.909C52.0452 102.095 51.6859 102.357 51.3779 102.693C51.0792 103.029 50.8459 103.425 50.6779 103.883C50.5099 104.34 50.4259 104.844 50.4259 105.395C50.4445 105.945 50.5239 106.454 50.6639 106.921C50.8132 107.387 51.0325 107.789 51.3219 108.125C51.6112 108.461 51.9659 108.722 52.3859 108.909C52.8152 109.095 53.3192 109.189 53.8979 109.189C54.7192 109.189 55.4005 108.983 55.9419 108.573C56.4832 108.162 56.8332 107.551 56.9919 106.739ZM58.2954 101.797V109.035H59.4854V105.815C59.4854 105.348 59.5321 104.937 59.6254 104.583C59.7187 104.219 59.8681 103.911 60.0734 103.659C60.2787 103.407 60.5494 103.215 60.8854 103.085C61.2214 102.954 61.6274 102.889 62.1034 102.889V101.629C61.4594 101.61 60.9274 101.741 60.5074 102.021C60.0874 102.301 59.7327 102.735 59.4434 103.323H59.4154V101.797H58.2954ZM69.4115 109.007C69.2062 109.128 68.9215 109.189 68.5575 109.189C68.2495 109.189 68.0022 109.105 67.8155 108.937C67.6382 108.759 67.5495 108.475 67.5495 108.083C67.2228 108.475 66.8402 108.759 66.4015 108.937C65.9722 109.105 65.5055 109.189 65.0015 109.189C64.6748 109.189 64.3622 109.151 64.0635 109.077C63.7742 109.002 63.5222 108.885 63.3075 108.727C63.0928 108.568 62.9202 108.363 62.7895 108.111C62.6682 107.849 62.6075 107.537 62.6075 107.173C62.6075 106.762 62.6775 106.426 62.8175 106.165C62.9575 105.903 63.1395 105.693 63.3635 105.535C63.5968 105.367 63.8582 105.241 64.1475 105.157C64.4462 105.073 64.7495 105.003 65.0575 104.947C65.3842 104.881 65.6922 104.835 65.9815 104.807C66.2802 104.769 66.5415 104.723 66.7655 104.667C66.9895 104.601 67.1668 104.513 67.2975 104.401C67.4282 104.279 67.4935 104.107 67.4935 103.883C67.4935 103.621 67.4422 103.411 67.3395 103.253C67.2462 103.094 67.1202 102.973 66.9615 102.889C66.8122 102.805 66.6395 102.749 66.4435 102.721C66.2568 102.693 66.0702 102.679 65.8835 102.679C65.3795 102.679 64.9595 102.777 64.6235 102.973C64.2875 103.159 64.1055 103.519 64.0775 104.051H62.8875C62.9062 103.603 62.9995 103.225 63.1675 102.917C63.3355 102.609 63.5595 102.361 63.8395 102.175C64.1195 101.979 64.4368 101.839 64.7915 101.755C65.1555 101.671 65.5428 101.629 65.9535 101.629C66.2802 101.629 66.6022 101.652 66.9195 101.699C67.2462 101.745 67.5402 101.843 67.8015 101.993C68.0628 102.133 68.2728 102.333 68.4315 102.595C68.5902 102.856 68.6695 103.197 68.6695 103.617V107.341C68.6695 107.621 68.6835 107.826 68.7115 107.957C68.7488 108.087 68.8608 108.153 69.0475 108.153C69.1502 108.153 69.2715 108.129 69.4115 108.083V109.007ZM67.4795 105.297C67.3302 105.409 67.1342 105.493 66.8915 105.549C66.6488 105.595 66.3922 105.637 66.1215 105.675C65.8602 105.703 65.5942 105.74 65.3235 105.787C65.0528 105.824 64.8102 105.889 64.5955 105.983C64.3808 106.076 64.2035 106.211 64.0635 106.389C63.9328 106.557 63.8675 106.79 63.8675 107.089C63.8675 107.285 63.9048 107.453 63.9795 107.593C64.0635 107.723 64.1662 107.831 64.2875 107.915C64.4182 107.999 64.5675 108.059 64.7355 108.097C64.9035 108.134 65.0808 108.153 65.2675 108.153C65.6595 108.153 65.9955 108.101 66.2755 107.999C66.5555 107.887 66.7842 107.751 66.9615 107.593C67.1388 107.425 67.2695 107.247 67.3535 107.061C67.4375 106.865 67.4795 106.683 67.4795 106.515V105.297ZM70.589 99.0387V109.035H71.779V99.0387H70.589ZM77.771 99.0387V109.035H79.101V99.0387H77.771ZM81.1421 101.797V109.035H82.3321V104.947C82.3321 104.62 82.3741 104.321 82.4581 104.051C82.5514 103.771 82.6868 103.528 82.8641 103.323C83.0414 103.117 83.2608 102.959 83.5221 102.847C83.7928 102.735 84.1101 102.679 84.4741 102.679C84.9314 102.679 85.2908 102.809 85.5521 103.071C85.8134 103.332 85.9441 103.687 85.9441 104.135V109.035H87.1341V104.275C87.1341 103.883 87.0921 103.528 87.0081 103.211C86.9334 102.884 86.7981 102.604 86.6021 102.371C86.4061 102.137 86.1494 101.955 85.8321 101.825C85.5148 101.694 85.1181 101.629 84.6421 101.629C83.5688 101.629 82.7848 102.067 82.2901 102.945H82.2621V101.797H81.1421ZM89.4114 102.847V109.035H90.6014V102.847H92.0014V101.797H90.6014V100.789C90.6014 100.471 90.6807 100.257 90.8394 100.145C90.9981 100.033 91.2221 99.9767 91.5114 99.9767C91.6141 99.9767 91.7261 99.986 91.8474 100.005C91.9687 100.014 92.0807 100.037 92.1834 100.075V99.0387C92.0714 99.0013 91.9407 98.9733 91.7914 98.9547C91.6514 98.936 91.5254 98.9267 91.4134 98.9267C90.7601 98.9267 90.2607 99.0807 89.9154 99.3887C89.5794 99.6873 89.4114 100.131 89.4114 100.719V101.797H88.1934V102.847H89.4114ZM93.932 105.423C93.932 104.984 93.988 104.597 94.1 104.261C94.2213 103.915 94.3846 103.626 94.59 103.393C94.7953 103.159 95.0333 102.982 95.304 102.861C95.584 102.739 95.878 102.679 96.186 102.679C96.494 102.679 96.7833 102.739 97.054 102.861C97.334 102.982 97.5766 103.159 97.782 103.393C97.9873 103.626 98.146 103.915 98.258 104.261C98.3793 104.597 98.44 104.984 98.44 105.423C98.44 105.861 98.3793 106.253 98.258 106.599C98.146 106.935 97.9873 107.219 97.782 107.453C97.5766 107.677 97.334 107.849 97.054 107.971C96.7833 108.092 96.494 108.153 96.186 108.153C95.878 108.153 95.584 108.092 95.304 107.971C95.0333 107.849 94.7953 107.677 94.59 107.453C94.3846 107.219 94.2213 106.935 94.1 106.599C93.988 106.253 93.932 105.861 93.932 105.423ZM92.672 105.423C92.672 105.955 92.7466 106.449 92.896 106.907C93.0453 107.364 93.2693 107.765 93.568 108.111C93.8666 108.447 94.2353 108.713 94.674 108.909C95.1126 109.095 95.6166 109.189 96.186 109.189C96.7646 109.189 97.2686 109.095 97.698 108.909C98.1366 108.713 98.5053 108.447 98.804 108.111C99.1026 107.765 99.3266 107.364 99.476 106.907C99.6253 106.449 99.7 105.955 99.7 105.423C99.7 104.891 99.6253 104.396 99.476 103.939C99.3266 103.472 99.1026 103.071 98.804 102.735C98.5053 102.389 98.1366 102.119 97.698 101.923C97.2686 101.727 96.7646 101.629 96.186 101.629C95.6166 101.629 95.1126 101.727 94.674 101.923C94.2353 102.119 93.8666 102.389 93.568 102.735C93.2693 103.071 93.0453 103.472 92.896 103.939C92.7466 104.396 92.672 104.891 92.672 105.423ZM101.061 101.797V109.035H102.251V105.815C102.251 105.348 102.298 104.937 102.391 104.583C102.484 104.219 102.634 103.911 102.839 103.659C103.044 103.407 103.315 103.215 103.651 103.085C103.987 102.954 104.393 102.889 104.869 102.889V101.629C104.225 101.61 103.693 101.741 103.273 102.021C102.853 102.301 102.498 102.735 102.209 103.323H102.181V101.797H101.061ZM105.765 101.797V109.035H106.955V104.527C106.955 104.387 106.988 104.214 107.053 104.009C107.128 103.794 107.24 103.589 107.389 103.393C107.548 103.197 107.748 103.029 107.991 102.889C108.243 102.749 108.542 102.679 108.887 102.679C109.158 102.679 109.377 102.721 109.545 102.805C109.722 102.879 109.862 102.991 109.965 103.141C110.068 103.281 110.138 103.449 110.175 103.645C110.222 103.841 110.245 104.055 110.245 104.289V109.035H111.435V104.527C111.435 103.967 111.603 103.519 111.939 103.183C112.275 102.847 112.737 102.679 113.325 102.679C113.614 102.679 113.848 102.721 114.025 102.805C114.212 102.889 114.356 103.005 114.459 103.155C114.562 103.295 114.632 103.463 114.669 103.659C114.706 103.855 114.725 104.065 114.725 104.289V109.035H115.915V103.729C115.915 103.355 115.854 103.038 115.733 102.777C115.621 102.506 115.458 102.287 115.243 102.119C115.038 101.951 114.786 101.829 114.487 101.755C114.198 101.671 113.871 101.629 113.507 101.629C113.031 101.629 112.592 101.736 112.191 101.951C111.799 102.165 111.482 102.469 111.239 102.861C111.09 102.413 110.833 102.095 110.469 101.909C110.105 101.722 109.699 101.629 109.251 101.629C108.234 101.629 107.454 102.039 106.913 102.861H106.885V101.797H105.765ZM124.113 109.007C123.907 109.128 123.623 109.189 123.259 109.189C122.951 109.189 122.703 109.105 122.517 108.937C122.339 108.759 122.251 108.475 122.251 108.083C121.924 108.475 121.541 108.759 121.103 108.937C120.673 109.105 120.207 109.189 119.703 109.189C119.376 109.189 119.063 109.151 118.765 109.077C118.475 109.002 118.223 108.885 118.009 108.727C117.794 108.568 117.621 108.363 117.491 108.111C117.369 107.849 117.309 107.537 117.309 107.173C117.309 106.762 117.379 106.426 117.519 106.165C117.659 105.903 117.841 105.693 118.065 105.535C118.298 105.367 118.559 105.241 118.849 105.157C119.147 105.073 119.451 105.003 119.759 104.947C120.085 104.881 120.393 104.835 120.683 104.807C120.981 104.769 121.243 104.723 121.467 104.667C121.691 104.601 121.868 104.513 121.999 104.401C122.129 104.279 122.195 104.107 122.195 103.883C122.195 103.621 122.143 103.411 122.041 103.253C121.947 103.094 121.821 102.973 121.663 102.889C121.513 102.805 121.341 102.749 121.145 102.721C120.958 102.693 120.771 102.679 120.585 102.679C120.081 102.679 119.661 102.777 119.325 102.973C118.989 103.159 118.807 103.519 118.779 104.051H117.589C117.607 103.603 117.701 103.225 117.869 102.917C118.037 102.609 118.261 102.361 118.541 102.175C118.821 101.979 119.138 101.839 119.493 101.755C119.857 101.671 120.244 101.629 120.655 101.629C120.981 101.629 121.303 101.652 121.621 101.699C121.947 101.745 122.241 101.843 122.503 101.993C122.764 102.133 122.974 102.333 123.133 102.595C123.291 102.856 123.371 103.197 123.371 103.617V107.341C123.371 107.621 123.385 107.826 123.413 107.957C123.45 108.087 123.562 108.153 123.749 108.153C123.851 108.153 123.973 108.129 124.113 108.083V109.007ZM122.181 105.297C122.031 105.409 121.835 105.493 121.593 105.549C121.35 105.595 121.093 105.637 120.823 105.675C120.561 105.703 120.295 105.74 120.025 105.787C119.754 105.824 119.511 105.889 119.297 105.983C119.082 106.076 118.905 106.211 118.765 106.389C118.634 106.557 118.569 106.79 118.569 107.089C118.569 107.285 118.606 107.453 118.681 107.593C118.765 107.723 118.867 107.831 118.989 107.915C119.119 107.999 119.269 108.059 119.437 108.097C119.605 108.134 119.782 108.153 119.969 108.153C120.361 108.153 120.697 108.101 120.977 107.999C121.257 107.887 121.485 107.751 121.663 107.593C121.84 107.425 121.971 107.247 122.055 107.061C122.139 106.865 122.181 106.683 122.181 106.515V105.297ZM126.872 101.797V99.6267H125.682V101.797H124.45V102.847H125.682V107.453C125.682 107.789 125.715 108.059 125.78 108.265C125.846 108.47 125.944 108.629 126.074 108.741C126.214 108.853 126.392 108.932 126.606 108.979C126.83 109.016 127.096 109.035 127.404 109.035H128.314V107.985H127.768C127.582 107.985 127.428 107.98 127.306 107.971C127.194 107.952 127.106 107.919 127.04 107.873C126.975 107.826 126.928 107.761 126.9 107.677C126.882 107.593 126.872 107.481 126.872 107.341V102.847H128.314V101.797H126.872ZM130.896 100.495V99.0387H129.706V100.495H130.896ZM129.706 101.797V109.035H130.896V101.797H129.706ZM133.608 105.423C133.608 104.984 133.664 104.597 133.776 104.261C133.897 103.915 134.06 103.626 134.266 103.393C134.471 103.159 134.709 102.982 134.98 102.861C135.26 102.739 135.554 102.679 135.862 102.679C136.17 102.679 136.459 102.739 136.73 102.861C137.01 102.982 137.252 103.159 137.458 103.393C137.663 103.626 137.822 103.915 137.934 104.261C138.055 104.597 138.116 104.984 138.116 105.423C138.116 105.861 138.055 106.253 137.934 106.599C137.822 106.935 137.663 107.219 137.458 107.453C137.252 107.677 137.01 107.849 136.73 107.971C136.459 108.092 136.17 108.153 135.862 108.153C135.554 108.153 135.26 108.092 134.98 107.971C134.709 107.849 134.471 107.677 134.266 107.453C134.06 107.219 133.897 106.935 133.776 106.599C133.664 106.253 133.608 105.861 133.608 105.423ZM132.348 105.423C132.348 105.955 132.422 106.449 132.572 106.907C132.721 107.364 132.945 107.765 133.244 108.111C133.542 108.447 133.911 108.713 134.35 108.909C134.788 109.095 135.292 109.189 135.862 109.189C136.44 109.189 136.944 109.095 137.374 108.909C137.812 108.713 138.181 108.447 138.48 108.111C138.778 107.765 139.002 107.364 139.152 106.907C139.301 106.449 139.376 105.955 139.376 105.423C139.376 104.891 139.301 104.396 139.152 103.939C139.002 103.472 138.778 103.071 138.48 102.735C138.181 102.389 137.812 102.119 137.374 101.923C136.944 101.727 136.44 101.629 135.862 101.629C135.292 101.629 134.788 101.727 134.35 101.923C133.911 102.119 133.542 102.389 133.244 102.735C132.945 103.071 132.721 103.472 132.572 103.939C132.422 104.396 132.348 104.891 132.348 105.423ZM140.779 101.797V109.035H141.969V104.947C141.969 104.62 142.011 104.321 142.095 104.051C142.188 103.771 142.323 103.528 142.501 103.323C142.678 103.117 142.897 102.959 143.159 102.847C143.429 102.735 143.747 102.679 144.111 102.679C144.568 102.679 144.927 102.809 145.189 103.071C145.45 103.332 145.581 103.687 145.581 104.135V109.035H146.771V104.275C146.771 103.883 146.729 103.528 146.645 103.211C146.57 102.884 146.435 102.604 146.239 102.371C146.043 102.137 145.786 101.955 145.469 101.825C145.151 101.694 144.755 101.629 144.279 101.629C143.205 101.629 142.421 102.067 141.927 102.945H141.899V101.797H140.779Z" fill="#727372"/>
<path d="M183.78 109.351V108.105C183.146 107.955 182.609 107.671 182.17 107.251C181.732 106.831 181.41 106.317 181.204 105.711L182.73 105.151C182.922 105.585 183.188 105.942 183.528 106.222C183.874 106.497 184.266 106.635 184.704 106.635C185.152 106.635 185.512 106.52 185.782 106.292C186.053 106.058 186.188 105.725 186.188 105.291C186.188 104.978 186.1 104.717 185.922 104.507C185.745 104.297 185.512 104.117 185.222 103.968C184.938 103.818 184.63 103.681 184.298 103.555C183.976 103.433 183.654 103.298 183.332 103.149C183.01 102.995 182.716 102.81 182.45 102.596C182.184 102.376 181.97 102.108 181.806 101.791C181.648 101.469 181.568 101.077 181.568 100.615C181.568 100.027 181.757 99.5017 182.135 99.0397C182.518 98.573 183.066 98.2767 183.78 98.1507V97.0307H185.404V98.1647C185.964 98.2907 186.419 98.5333 186.769 98.8927C187.119 99.2473 187.364 99.6627 187.504 100.139L186.006 100.643C185.894 100.367 185.712 100.132 185.46 99.9357C185.208 99.735 184.882 99.6347 184.48 99.6347C184.102 99.6347 183.804 99.721 183.584 99.8937C183.37 100.066 183.262 100.307 183.262 100.615C183.262 100.862 183.342 101.07 183.5 101.238C183.659 101.406 183.871 101.553 184.137 101.679C184.403 101.805 184.695 101.926 185.012 102.043C185.344 102.164 185.677 102.306 186.013 102.47C186.354 102.628 186.664 102.829 186.944 103.072C187.229 103.31 187.458 103.608 187.63 103.968C187.808 104.327 187.896 104.763 187.896 105.277C187.896 105.813 187.787 106.282 187.567 106.684C187.348 107.08 187.049 107.402 186.671 107.65C186.298 107.892 185.876 108.053 185.404 108.133V109.351H183.78ZM189.887 108.035C189.887 107.33 189.974 106.712 190.146 106.18C190.319 105.643 190.555 105.174 190.853 104.773C191.157 104.367 191.502 104.01 191.889 103.702C192.281 103.394 192.692 103.116 193.121 102.869C193.397 102.71 193.653 102.54 193.891 102.358C194.129 102.176 194.321 101.973 194.465 101.749C194.615 101.52 194.689 101.259 194.689 100.965C194.689 100.559 194.563 100.237 194.311 99.9987C194.059 99.756 193.719 99.6347 193.289 99.6347C192.837 99.6347 192.461 99.7443 192.162 99.9637C191.868 100.183 191.647 100.479 191.497 100.853L190.013 100.181C190.177 99.7607 190.417 99.392 190.734 99.0747C191.052 98.7573 191.425 98.51 191.854 98.3327C192.288 98.1553 192.757 98.0667 193.261 98.0667C193.915 98.0667 194.472 98.1927 194.934 98.4447C195.401 98.692 195.756 99.0327 195.998 99.4667C196.246 99.896 196.369 100.381 196.369 100.923C196.369 101.52 196.257 102.017 196.033 102.414C195.809 102.806 195.506 103.146 195.123 103.436C194.741 103.725 194.311 104.007 193.835 104.283C193.495 104.479 193.187 104.686 192.911 104.906C192.636 105.125 192.405 105.363 192.218 105.62C192.032 105.872 191.903 106.145 191.833 106.439H196.453V108.035H189.887ZM201.356 110.639L200.642 110.177C200.81 109.999 200.992 109.736 201.188 109.386C201.389 109.036 201.51 108.637 201.552 108.189C201.31 108.133 201.111 108.018 200.957 107.846C200.803 107.673 200.726 107.447 200.726 107.167C200.726 106.821 200.836 106.548 201.055 106.348C201.279 106.147 201.534 106.047 201.818 106.047C202.136 106.047 202.406 106.159 202.63 106.383C202.854 106.607 202.966 106.947 202.966 107.405C202.966 107.904 202.88 108.368 202.707 108.798C202.539 109.227 202.332 109.6 202.084 109.918C201.837 110.235 201.594 110.475 201.356 110.639ZM209.129 108.035C209.129 106.915 209.234 105.862 209.444 104.878C209.654 103.893 209.985 102.948 210.438 102.043C210.895 101.133 211.495 100.232 212.237 99.3407L212.671 99.8027H207.099V98.2347H213.763V99.6487C213.189 100.279 212.708 100.967 212.321 101.714C211.938 102.456 211.635 103.212 211.411 103.982C211.187 104.747 211.026 105.48 210.928 106.18C210.83 106.875 210.781 107.493 210.781 108.035H209.129ZM218.736 108.203C218.251 108.203 217.814 108.151 217.427 108.049C217.044 107.946 216.711 107.818 216.426 107.664C216.146 107.505 215.917 107.344 215.74 107.181L216.65 105.893C216.902 106.079 217.187 106.25 217.504 106.404C217.821 106.558 218.232 106.635 218.736 106.635C219.123 106.635 219.464 106.56 219.758 106.411C220.052 106.257 220.281 106.042 220.444 105.767C220.612 105.487 220.696 105.16 220.696 104.787C220.696 104.46 220.638 104.173 220.521 103.926C220.404 103.678 220.232 103.485 220.003 103.345C219.779 103.205 219.506 103.135 219.184 103.135C218.815 103.135 218.503 103.207 218.246 103.352C217.989 103.492 217.765 103.667 217.574 103.877L216.048 103.205L216.44 98.2347H221.788V99.8167H217.952L217.728 102.001C217.938 101.865 218.174 101.758 218.435 101.679C218.696 101.595 218.983 101.553 219.296 101.553C219.959 101.553 220.519 101.697 220.976 101.987C221.433 102.276 221.781 102.666 222.019 103.156C222.257 103.641 222.376 104.18 222.376 104.773C222.376 105.277 222.287 105.739 222.11 106.159C221.933 106.579 221.681 106.94 221.354 107.244C221.032 107.547 220.649 107.783 220.206 107.951C219.763 108.119 219.273 108.203 218.736 108.203ZM227.685 108.203C226.999 108.203 226.427 108.056 225.97 107.762C225.513 107.463 225.151 107.069 224.885 106.579C224.619 106.084 224.428 105.538 224.311 104.941C224.199 104.343 224.143 103.741 224.143 103.135C224.143 102.668 224.176 102.197 224.241 101.721C224.311 101.24 224.425 100.783 224.584 100.349C224.747 99.9147 224.964 99.525 225.235 99.1797C225.506 98.8343 225.842 98.5637 226.243 98.3677C226.649 98.167 227.13 98.0667 227.685 98.0667C228.376 98.0667 228.95 98.2137 229.407 98.5077C229.864 98.8017 230.226 99.196 230.492 99.6907C230.763 100.181 230.954 100.724 231.066 101.322C231.183 101.919 231.241 102.523 231.241 103.135C231.241 103.601 231.206 104.075 231.136 104.556C231.066 105.032 230.949 105.487 230.786 105.921C230.627 106.355 230.41 106.744 230.135 107.09C229.864 107.435 229.526 107.708 229.12 107.909C228.719 108.105 228.24 108.203 227.685 108.203ZM227.685 106.635C228.058 106.635 228.366 106.534 228.609 106.334C228.852 106.128 229.041 105.855 229.176 105.515C229.316 105.174 229.414 104.798 229.47 104.388C229.531 103.972 229.561 103.555 229.561 103.135C229.561 102.701 229.531 102.276 229.47 101.861C229.409 101.445 229.309 101.07 229.169 100.734C229.029 100.398 228.838 100.132 228.595 99.9357C228.352 99.735 228.049 99.6347 227.685 99.6347C227.316 99.6347 227.008 99.7373 226.761 99.9427C226.518 100.143 226.327 100.414 226.187 100.755C226.052 101.095 225.954 101.473 225.893 101.889C225.837 102.299 225.809 102.715 225.809 103.135C225.809 103.569 225.837 103.993 225.893 104.409C225.954 104.824 226.054 105.2 226.194 105.536C226.334 105.872 226.525 106.14 226.768 106.341C227.011 106.537 227.316 106.635 227.685 106.635ZM227.685 104.129C227.405 104.129 227.172 104.033 226.985 103.842C226.798 103.65 226.705 103.415 226.705 103.135C226.705 102.859 226.798 102.628 226.985 102.442C227.172 102.25 227.405 102.155 227.685 102.155C227.965 102.155 228.201 102.25 228.392 102.442C228.583 102.628 228.679 102.859 228.679 103.135C228.679 103.415 228.583 103.65 228.392 103.842C228.201 104.033 227.965 104.129 227.685 104.129Z" fill="#242D38"/>
<circle cx="8" cy="134.035" r="8" fill="#002554"/>
<path d="M26.422 133.827V130.159H29.026C29.782 130.159 30.3327 130.317 30.678 130.635C31.0327 130.943 31.21 131.395 31.21 131.993C31.21 132.59 31.0327 133.047 30.678 133.365C30.3327 133.682 29.782 133.836 29.026 133.827H26.422ZM25.092 129.039V139.035H26.422V134.947H29.474C30.482 134.956 31.2427 134.699 31.756 134.177C32.2787 133.654 32.54 132.926 32.54 131.993C32.54 131.059 32.2787 130.336 31.756 129.823C31.2427 129.3 30.482 129.039 29.474 129.039H25.092ZM39.0001 134.723H34.8421C34.8608 134.443 34.9215 134.181 35.0241 133.939C35.1268 133.687 35.2668 133.467 35.4441 133.281C35.6215 133.094 35.8315 132.949 36.0741 132.847C36.3261 132.735 36.6061 132.679 36.9141 132.679C37.2128 132.679 37.4835 132.735 37.7261 132.847C37.9781 132.949 38.1928 133.094 38.3701 133.281C38.5568 133.458 38.7015 133.673 38.8041 133.925C38.9161 134.177 38.9815 134.443 39.0001 134.723ZM40.1481 136.739H38.9721C38.8695 137.215 38.6548 137.569 38.3281 137.803C38.0108 138.036 37.6001 138.153 37.0961 138.153C36.7041 138.153 36.3635 138.087 36.0741 137.957C35.7848 137.826 35.5468 137.653 35.3601 137.439C35.1735 137.215 35.0381 136.963 34.9541 136.683C34.8701 136.393 34.8328 136.09 34.8421 135.773H40.2601C40.2788 135.334 40.2368 134.872 40.1341 134.387C40.0408 133.901 39.8635 133.453 39.6021 133.043C39.3501 132.632 39.0095 132.296 38.5801 132.035C38.1601 131.764 37.6281 131.629 36.9841 131.629C36.4895 131.629 36.0321 131.722 35.6121 131.909C35.2015 132.095 34.8421 132.357 34.5341 132.693C34.2355 133.029 34.0021 133.425 33.8341 133.883C33.6661 134.34 33.5821 134.844 33.5821 135.395C33.6008 135.945 33.6801 136.454 33.8201 136.921C33.9695 137.387 34.1888 137.789 34.4781 138.125C34.7675 138.461 35.1221 138.722 35.5421 138.909C35.9715 139.095 36.4755 139.189 37.0541 139.189C37.8755 139.189 38.5568 138.983 39.0981 138.573C39.6395 138.162 39.9895 137.551 40.1481 136.739ZM41.4517 131.797V139.035H42.6417V135.815C42.6417 135.348 42.6883 134.937 42.7817 134.583C42.875 134.219 43.0243 133.911 43.2297 133.659C43.435 133.407 43.7057 133.215 44.0417 133.085C44.3777 132.954 44.7837 132.889 45.2597 132.889V131.629C44.6157 131.61 44.0837 131.741 43.6637 132.021C43.2437 132.301 42.889 132.735 42.5997 133.323H42.5717V131.797H41.4517ZM46.8838 136.753H45.6938C45.7124 137.201 45.8058 137.583 45.9738 137.901C46.1418 138.209 46.3658 138.461 46.6458 138.657C46.9258 138.843 47.2478 138.979 47.6118 139.063C47.9758 139.147 48.3584 139.189 48.7598 139.189C49.1238 139.189 49.4878 139.151 49.8518 139.077C50.2251 139.011 50.5564 138.89 50.8458 138.713C51.1444 138.535 51.3824 138.302 51.5598 138.013C51.7464 137.723 51.8398 137.359 51.8398 136.921C51.8398 136.575 51.7698 136.286 51.6298 136.053C51.4991 135.819 51.3218 135.628 51.0978 135.479C50.8831 135.32 50.6311 135.194 50.3418 135.101C50.0618 135.007 49.7724 134.928 49.4738 134.863C49.1938 134.797 48.9138 134.737 48.6338 134.681C48.3538 134.615 48.1018 134.541 47.8778 134.457C47.6538 134.363 47.4671 134.251 47.3178 134.121C47.1778 133.981 47.1078 133.808 47.1078 133.603C47.1078 133.416 47.1544 133.267 47.2478 133.155C47.3411 133.033 47.4624 132.94 47.6118 132.875C47.7611 132.8 47.9244 132.749 48.1018 132.721C48.2884 132.693 48.4704 132.679 48.6478 132.679C48.8438 132.679 49.0351 132.702 49.2218 132.749C49.4178 132.786 49.5951 132.851 49.7538 132.945C49.9124 133.038 50.0431 133.164 50.1458 133.323C50.2484 133.472 50.3091 133.663 50.3278 133.897H51.5178C51.4898 133.458 51.3964 133.094 51.2378 132.805C51.0791 132.506 50.8644 132.273 50.5938 132.105C50.3324 131.927 50.0291 131.806 49.6838 131.741C49.3384 131.666 48.9604 131.629 48.5498 131.629C48.2324 131.629 47.9104 131.671 47.5838 131.755C47.2664 131.829 46.9771 131.951 46.7158 132.119C46.4638 132.277 46.2538 132.487 46.0858 132.749C45.9271 133.01 45.8478 133.323 45.8478 133.687C45.8478 134.153 45.9644 134.517 46.1978 134.779C46.4311 135.04 46.7204 135.245 47.0658 135.395C47.4204 135.535 47.8031 135.647 48.2138 135.731C48.6244 135.805 49.0024 135.894 49.3478 135.997C49.7024 136.09 49.9964 136.216 50.2298 136.375C50.4631 136.533 50.5798 136.767 50.5798 137.075C50.5798 137.299 50.5238 137.485 50.4118 137.635C50.2998 137.775 50.1551 137.882 49.9778 137.957C49.8098 138.031 49.6231 138.083 49.4178 138.111C49.2124 138.139 49.0164 138.153 48.8298 138.153C48.5871 138.153 48.3491 138.129 48.1158 138.083C47.8918 138.036 47.6864 137.961 47.4998 137.859C47.3224 137.747 47.1778 137.602 47.0658 137.425C46.9538 137.238 46.8931 137.014 46.8838 136.753ZM54.0238 135.423C54.0238 134.984 54.0798 134.597 54.1918 134.261C54.3131 133.915 54.4764 133.626 54.6818 133.393C54.8871 133.159 55.1251 132.982 55.3958 132.861C55.6758 132.739 55.9698 132.679 56.2778 132.679C56.5858 132.679 56.8751 132.739 57.1458 132.861C57.4258 132.982 57.6684 133.159 57.8738 133.393C58.0791 133.626 58.2378 133.915 58.3498 134.261C58.4711 134.597 58.5318 134.984 58.5318 135.423C58.5318 135.861 58.4711 136.253 58.3498 136.599C58.2378 136.935 58.0791 137.219 57.8738 137.453C57.6684 137.677 57.4258 137.849 57.1458 137.971C56.8751 138.092 56.5858 138.153 56.2778 138.153C55.9698 138.153 55.6758 138.092 55.3958 137.971C55.1251 137.849 54.8871 137.677 54.6818 137.453C54.4764 137.219 54.3131 136.935 54.1918 136.599C54.0798 136.253 54.0238 135.861 54.0238 135.423ZM52.7638 135.423C52.7638 135.955 52.8384 136.449 52.9878 136.907C53.1371 137.364 53.3611 137.765 53.6598 138.111C53.9584 138.447 54.3271 138.713 54.7658 138.909C55.2044 139.095 55.7084 139.189 56.2778 139.189C56.8564 139.189 57.3604 139.095 57.7898 138.909C58.2284 138.713 58.5971 138.447 58.8958 138.111C59.1944 137.765 59.4184 137.364 59.5678 136.907C59.7171 136.449 59.7918 135.955 59.7918 135.423C59.7918 134.891 59.7171 134.396 59.5678 133.939C59.4184 133.472 59.1944 133.071 58.8958 132.735C58.5971 132.389 58.2284 132.119 57.7898 131.923C57.3604 131.727 56.8564 131.629 56.2778 131.629C55.7084 131.629 55.2044 131.727 54.7658 131.923C54.3271 132.119 53.9584 132.389 53.6598 132.735C53.3611 133.071 53.1371 133.472 52.9878 133.939C52.8384 134.396 52.7638 134.891 52.7638 135.423ZM61.1948 131.797V139.035H62.3848V134.947C62.3848 134.62 62.4268 134.321 62.5108 134.051C62.6042 133.771 62.7395 133.528 62.9168 133.323C63.0942 133.117 63.3135 132.959 63.5748 132.847C63.8455 132.735 64.1628 132.679 64.5268 132.679C64.9842 132.679 65.3435 132.809 65.6048 133.071C65.8662 133.332 65.9968 133.687 65.9968 134.135V139.035H67.1868V134.275C67.1868 133.883 67.1448 133.528 67.0608 133.211C66.9862 132.884 66.8508 132.604 66.6548 132.371C66.4588 132.137 66.2022 131.955 65.8848 131.825C65.5675 131.694 65.1708 131.629 64.6948 131.629C63.6215 131.629 62.8375 132.067 62.3428 132.945H62.3148V131.797H61.1948ZM75.3861 139.007C75.1808 139.128 74.8961 139.189 74.5321 139.189C74.2241 139.189 73.9768 139.105 73.7901 138.937C73.6128 138.759 73.5241 138.475 73.5241 138.083C73.1975 138.475 72.8148 138.759 72.3761 138.937C71.9468 139.105 71.4801 139.189 70.9761 139.189C70.6495 139.189 70.3368 139.151 70.0381 139.077C69.7488 139.002 69.4968 138.885 69.2821 138.727C69.0675 138.568 68.8948 138.363 68.7641 138.111C68.6428 137.849 68.5821 137.537 68.5821 137.173C68.5821 136.762 68.6521 136.426 68.7921 136.165C68.9321 135.903 69.1141 135.693 69.3381 135.535C69.5715 135.367 69.8328 135.241 70.1221 135.157C70.4208 135.073 70.7241 135.003 71.0321 134.947C71.3588 134.881 71.6668 134.835 71.9561 134.807C72.2548 134.769 72.5161 134.723 72.7401 134.667C72.9641 134.601 73.1415 134.513 73.2721 134.401C73.4028 134.279 73.4681 134.107 73.4681 133.883C73.4681 133.621 73.4168 133.411 73.3141 133.253C73.2208 133.094 73.0948 132.973 72.9361 132.889C72.7868 132.805 72.6141 132.749 72.4181 132.721C72.2315 132.693 72.0448 132.679 71.8581 132.679C71.3541 132.679 70.9341 132.777 70.5981 132.973C70.2621 133.159 70.0801 133.519 70.0521 134.051H68.8621C68.8808 133.603 68.9741 133.225 69.1421 132.917C69.3101 132.609 69.5341 132.361 69.8141 132.175C70.0941 131.979 70.4115 131.839 70.7661 131.755C71.1301 131.671 71.5175 131.629 71.9281 131.629C72.2548 131.629 72.5768 131.652 72.8941 131.699C73.2208 131.745 73.5148 131.843 73.7761 131.993C74.0375 132.133 74.2475 132.333 74.4061 132.595C74.5648 132.856 74.6441 133.197 74.6441 133.617V137.341C74.6441 137.621 74.6581 137.826 74.6861 137.957C74.7235 138.087 74.8355 138.153 75.0221 138.153C75.1248 138.153 75.2461 138.129 75.3861 138.083V139.007ZM73.4541 135.297C73.3048 135.409 73.1088 135.493 72.8661 135.549C72.6235 135.595 72.3668 135.637 72.0961 135.675C71.8348 135.703 71.5688 135.74 71.2981 135.787C71.0275 135.824 70.7848 135.889 70.5701 135.983C70.3555 136.076 70.1781 136.211 70.0381 136.389C69.9075 136.557 69.8421 136.79 69.8421 137.089C69.8421 137.285 69.8795 137.453 69.9541 137.593C70.0381 137.723 70.1408 137.831 70.2621 137.915C70.3928 137.999 70.5421 138.059 70.7101 138.097C70.8781 138.134 71.0555 138.153 71.2421 138.153C71.6341 138.153 71.9701 138.101 72.2501 137.999C72.5301 137.887 72.7588 137.751 72.9361 137.593C73.1135 137.425 73.2441 137.247 73.3281 137.061C73.4121 136.865 73.4541 136.683 73.4541 136.515V135.297ZM76.5637 129.039V139.035H77.7537V129.039H76.5637ZM83.7457 129.039V139.035H85.0757V129.039H83.7457ZM87.1167 131.797V139.035H88.3067V134.947C88.3067 134.62 88.3487 134.321 88.4327 134.051C88.526 133.771 88.6614 133.528 88.8387 133.323C89.016 133.117 89.2354 132.959 89.4967 132.847C89.7674 132.735 90.0847 132.679 90.4487 132.679C90.906 132.679 91.2654 132.809 91.5267 133.071C91.788 133.332 91.9187 133.687 91.9187 134.135V139.035H93.1087V134.275C93.1087 133.883 93.0667 133.528 92.9827 133.211C92.908 132.884 92.7727 132.604 92.5767 132.371C92.3807 132.137 92.124 131.955 91.8067 131.825C91.4894 131.694 91.0927 131.629 90.6167 131.629C89.5434 131.629 88.7594 132.067 88.2647 132.945H88.2367V131.797H87.1167ZM95.386 132.847V139.035H96.576V132.847H97.976V131.797H96.576V130.789C96.576 130.471 96.6553 130.257 96.814 130.145C96.9727 130.033 97.1967 129.977 97.486 129.977C97.5887 129.977 97.7007 129.986 97.822 130.005C97.9433 130.014 98.0553 130.037 98.158 130.075V129.039C98.046 129.001 97.9153 128.973 97.766 128.955C97.626 128.936 97.5 128.927 97.388 128.927C96.7347 128.927 96.2353 129.081 95.89 129.389C95.554 129.687 95.386 130.131 95.386 130.719V131.797H94.168V132.847H95.386ZM99.9066 135.423C99.9066 134.984 99.9626 134.597 100.075 134.261C100.196 133.915 100.359 133.626 100.565 133.393C100.77 133.159 101.008 132.982 101.279 132.861C101.559 132.739 101.853 132.679 102.161 132.679C102.469 132.679 102.758 132.739 103.029 132.861C103.309 132.982 103.551 133.159 103.757 133.393C103.962 133.626 104.121 133.915 104.233 134.261C104.354 134.597 104.415 134.984 104.415 135.423C104.415 135.861 104.354 136.253 104.233 136.599C104.121 136.935 103.962 137.219 103.757 137.453C103.551 137.677 103.309 137.849 103.029 137.971C102.758 138.092 102.469 138.153 102.161 138.153C101.853 138.153 101.559 138.092 101.279 137.971C101.008 137.849 100.77 137.677 100.565 137.453C100.359 137.219 100.196 136.935 100.075 136.599C99.9626 136.253 99.9066 135.861 99.9066 135.423ZM98.6466 135.423C98.6466 135.955 98.7212 136.449 98.8706 136.907C99.0199 137.364 99.2439 137.765 99.5426 138.111C99.8412 138.447 100.21 138.713 100.649 138.909C101.087 139.095 101.591 139.189 102.161 139.189C102.739 139.189 103.243 139.095 103.673 138.909C104.111 138.713 104.48 138.447 104.779 138.111C105.077 137.765 105.301 137.364 105.451 136.907C105.6 136.449 105.675 135.955 105.675 135.423C105.675 134.891 105.6 134.396 105.451 133.939C105.301 133.472 105.077 133.071 104.779 132.735C104.48 132.389 104.111 132.119 103.673 131.923C103.243 131.727 102.739 131.629 102.161 131.629C101.591 131.629 101.087 131.727 100.649 131.923C100.21 132.119 99.8412 132.389 99.5426 132.735C99.2439 133.071 99.0199 133.472 98.8706 133.939C98.7212 134.396 98.6466 134.891 98.6466 135.423ZM107.036 131.797V139.035H108.226V135.815C108.226 135.348 108.272 134.937 108.366 134.583C108.459 134.219 108.608 133.911 108.814 133.659C109.019 133.407 109.29 133.215 109.626 133.085C109.962 132.954 110.368 132.889 110.844 132.889V131.629C110.2 131.61 109.668 131.741 109.248 132.021C108.828 132.301 108.473 132.735 108.184 133.323H108.156V131.797H107.036ZM111.74 131.797V139.035H112.93V134.527C112.93 134.387 112.962 134.214 113.028 134.009C113.102 133.794 113.214 133.589 113.364 133.393C113.522 133.197 113.723 133.029 113.966 132.889C114.218 132.749 114.516 132.679 114.862 132.679C115.132 132.679 115.352 132.721 115.52 132.805C115.697 132.879 115.837 132.991 115.94 133.141C116.042 133.281 116.112 133.449 116.15 133.645C116.196 133.841 116.22 134.055 116.22 134.289V139.035H117.41V134.527C117.41 133.967 117.578 133.519 117.914 133.183C118.25 132.847 118.712 132.679 119.3 132.679C119.589 132.679 119.822 132.721 120 132.805C120.186 132.889 120.331 133.005 120.434 133.155C120.536 133.295 120.606 133.463 120.644 133.659C120.681 133.855 120.7 134.065 120.7 134.289V139.035H121.89V133.729C121.89 133.355 121.829 133.038 121.708 132.777C121.596 132.506 121.432 132.287 121.218 132.119C121.012 131.951 120.76 131.829 120.462 131.755C120.172 131.671 119.846 131.629 119.482 131.629C119.006 131.629 118.567 131.736 118.166 131.951C117.774 132.165 117.456 132.469 117.214 132.861C117.064 132.413 116.808 132.095 116.444 131.909C116.08 131.722 115.674 131.629 115.226 131.629C114.208 131.629 113.429 132.039 112.888 132.861H112.86V131.797H111.74ZM130.087 139.007C129.882 139.128 129.597 139.189 129.233 139.189C128.925 139.189 128.678 139.105 128.491 138.937C128.314 138.759 128.225 138.475 128.225 138.083C127.899 138.475 127.516 138.759 127.077 138.937C126.648 139.105 126.181 139.189 125.677 139.189C125.351 139.189 125.038 139.151 124.739 139.077C124.45 139.002 124.198 138.885 123.983 138.727C123.769 138.568 123.596 138.363 123.465 138.111C123.344 137.849 123.283 137.537 123.283 137.173C123.283 136.762 123.353 136.426 123.493 136.165C123.633 135.903 123.815 135.693 124.039 135.535C124.273 135.367 124.534 135.241 124.823 135.157C125.122 135.073 125.425 135.003 125.733 134.947C126.06 134.881 126.368 134.835 126.657 134.807C126.956 134.769 127.217 134.723 127.441 134.667C127.665 134.601 127.843 134.513 127.973 134.401C128.104 134.279 128.169 134.107 128.169 133.883C128.169 133.621 128.118 133.411 128.015 133.253C127.922 133.094 127.796 132.973 127.637 132.889C127.488 132.805 127.315 132.749 127.119 132.721C126.933 132.693 126.746 132.679 126.559 132.679C126.055 132.679 125.635 132.777 125.299 132.973C124.963 133.159 124.781 133.519 124.753 134.051H123.563C123.582 133.603 123.675 133.225 123.843 132.917C124.011 132.609 124.235 132.361 124.515 132.175C124.795 131.979 125.113 131.839 125.467 131.755C125.831 131.671 126.219 131.629 126.629 131.629C126.956 131.629 127.278 131.652 127.595 131.699C127.922 131.745 128.216 131.843 128.477 131.993C128.739 132.133 128.949 132.333 129.107 132.595C129.266 132.856 129.345 133.197 129.345 133.617V137.341C129.345 137.621 129.359 137.826 129.387 137.957C129.425 138.087 129.537 138.153 129.723 138.153C129.826 138.153 129.947 138.129 130.087 138.083V139.007ZM128.155 135.297C128.006 135.409 127.81 135.493 127.567 135.549C127.325 135.595 127.068 135.637 126.797 135.675C126.536 135.703 126.27 135.74 125.999 135.787C125.729 135.824 125.486 135.889 125.271 135.983C125.057 136.076 124.879 136.211 124.739 136.389C124.609 136.557 124.543 136.79 124.543 137.089C124.543 137.285 124.581 137.453 124.655 137.593C124.739 137.723 124.842 137.831 124.963 137.915C125.094 137.999 125.243 138.059 125.411 138.097C125.579 138.134 125.757 138.153 125.943 138.153C126.335 138.153 126.671 138.101 126.951 137.999C127.231 137.887 127.46 137.751 127.637 137.593C127.815 137.425 127.945 137.247 128.029 137.061C128.113 136.865 128.155 136.683 128.155 136.515V135.297ZM132.847 131.797V129.627H131.657V131.797H130.425V132.847H131.657V137.453C131.657 137.789 131.689 138.059 131.755 138.265C131.82 138.47 131.918 138.629 132.049 138.741C132.189 138.853 132.366 138.932 132.581 138.979C132.805 139.016 133.071 139.035 133.379 139.035H134.289V137.985H133.743C133.556 137.985 133.402 137.98 133.281 137.971C133.169 137.952 133.08 137.919 133.015 137.873C132.949 137.826 132.903 137.761 132.875 137.677C132.856 137.593 132.847 137.481 132.847 137.341V132.847H134.289V131.797H132.847ZM136.871 130.495V129.039H135.681V130.495H136.871ZM135.681 131.797V139.035H136.871V131.797H135.681ZM139.582 135.423C139.582 134.984 139.638 134.597 139.75 134.261C139.872 133.915 140.035 133.626 140.24 133.393C140.446 133.159 140.684 132.982 140.954 132.861C141.234 132.739 141.528 132.679 141.836 132.679C142.144 132.679 142.434 132.739 142.704 132.861C142.984 132.982 143.227 133.159 143.432 133.393C143.638 133.626 143.796 133.915 143.908 134.261C144.03 134.597 144.09 134.984 144.09 135.423C144.09 135.861 144.03 136.253 143.908 136.599C143.796 136.935 143.638 137.219 143.432 137.453C143.227 137.677 142.984 137.849 142.704 137.971C142.434 138.092 142.144 138.153 141.836 138.153C141.528 138.153 141.234 138.092 140.954 137.971C140.684 137.849 140.446 137.677 140.24 137.453C140.035 137.219 139.872 136.935 139.75 136.599C139.638 136.253 139.582 135.861 139.582 135.423ZM138.322 135.423C138.322 135.955 138.397 136.449 138.546 136.907C138.696 137.364 138.92 137.765 139.218 138.111C139.517 138.447 139.886 138.713 140.324 138.909C140.763 139.095 141.267 139.189 141.836 139.189C142.415 139.189 142.919 139.095 143.348 138.909C143.787 138.713 144.156 138.447 144.454 138.111C144.753 137.765 144.977 137.364 145.126 136.907C145.276 136.449 145.35 135.955 145.35 135.423C145.35 134.891 145.276 134.396 145.126 133.939C144.977 133.472 144.753 133.071 144.454 132.735C144.156 132.389 143.787 132.119 143.348 131.923C142.919 131.727 142.415 131.629 141.836 131.629C141.267 131.629 140.763 131.727 140.324 131.923C139.886 132.119 139.517 132.389 139.218 132.735C138.92 133.071 138.696 133.472 138.546 133.939C138.397 134.396 138.322 134.891 138.322 135.423ZM146.753 131.797V139.035H147.943V134.947C147.943 134.62 147.985 134.321 148.069 134.051C148.163 133.771 148.298 133.528 148.475 133.323C148.653 133.117 148.872 132.959 149.133 132.847C149.404 132.735 149.721 132.679 150.085 132.679C150.543 132.679 150.902 132.809 151.163 133.071C151.425 133.332 151.555 133.687 151.555 134.135V139.035H152.745V134.275C152.745 133.883 152.703 133.528 152.619 133.211C152.545 132.884 152.409 132.604 152.213 132.371C152.017 132.137 151.761 131.955 151.443 131.825C151.126 131.694 150.729 131.629 150.253 131.629C149.18 131.629 148.396 132.067 147.901 132.945H147.873V131.797H146.753Z" fill="#727372"/>
<path d="M175.153 139.351V138.105C174.519 137.955 173.982 137.671 173.543 137.251C173.105 136.831 172.783 136.317 172.577 135.711L174.103 135.151C174.295 135.585 174.561 135.942 174.901 136.222C175.247 136.497 175.639 136.635 176.077 136.635C176.525 136.635 176.885 136.52 177.155 136.292C177.426 136.058 177.561 135.725 177.561 135.291C177.561 134.978 177.473 134.717 177.295 134.507C177.118 134.297 176.885 134.117 176.595 133.968C176.311 133.818 176.003 133.681 175.671 133.555C175.349 133.433 175.027 133.298 174.705 133.149C174.383 132.995 174.089 132.81 173.823 132.596C173.557 132.376 173.343 132.108 173.179 131.791C173.021 131.469 172.941 131.077 172.941 130.615C172.941 130.027 173.13 129.502 173.508 129.04C173.891 128.573 174.439 128.277 175.153 128.151V127.031H176.777V128.165C177.337 128.291 177.792 128.533 178.142 128.893C178.492 129.247 178.737 129.663 178.877 130.139L177.379 130.643C177.267 130.367 177.085 130.132 176.833 129.936C176.581 129.735 176.255 129.635 175.853 129.635C175.475 129.635 175.177 129.721 174.957 129.894C174.743 130.066 174.635 130.307 174.635 130.615C174.635 130.862 174.715 131.07 174.873 131.238C175.032 131.406 175.244 131.553 175.51 131.679C175.776 131.805 176.068 131.926 176.385 132.043C176.717 132.164 177.05 132.306 177.386 132.47C177.727 132.628 178.037 132.829 178.317 133.072C178.602 133.31 178.831 133.608 179.003 133.968C179.181 134.327 179.269 134.763 179.269 135.277C179.269 135.813 179.16 136.282 178.94 136.684C178.721 137.08 178.422 137.402 178.044 137.65C177.671 137.892 177.249 138.053 176.777 138.133V139.351H175.153ZM183.738 138.035V130.349L181.61 130.923V129.355L185.404 128.221V138.035H183.738ZM181.302 138.035V136.439H187.798V138.035H181.302ZM191.315 138.203V136.663C191.824 136.607 192.312 136.469 192.778 136.25C193.245 136.026 193.651 135.708 193.996 135.298C194.346 134.882 194.596 134.357 194.745 133.723C194.559 133.909 194.309 134.063 193.996 134.185C193.688 134.306 193.331 134.367 192.925 134.367C192.309 134.367 191.759 134.238 191.273 133.982C190.793 133.72 190.412 133.356 190.132 132.89C189.857 132.423 189.719 131.875 189.719 131.245C189.719 130.61 189.869 130.055 190.167 129.579C190.466 129.103 190.877 128.732 191.399 128.466C191.922 128.2 192.519 128.067 193.191 128.067C193.98 128.067 194.626 128.232 195.13 128.564C195.639 128.895 196.015 129.348 196.257 129.922C196.5 130.491 196.621 131.137 196.621 131.861C196.621 132.743 196.509 133.557 196.285 134.304C196.061 135.046 195.728 135.697 195.284 136.257C194.841 136.817 194.288 137.265 193.625 137.601C192.963 137.937 192.193 138.137 191.315 138.203ZM193.163 132.827C193.527 132.827 193.845 132.761 194.115 132.631C194.386 132.5 194.596 132.313 194.745 132.071C194.895 131.828 194.969 131.539 194.969 131.203C194.969 130.89 194.892 130.615 194.738 130.377C194.589 130.134 194.379 129.945 194.108 129.81C193.842 129.674 193.532 129.607 193.177 129.607C192.809 129.607 192.489 129.674 192.218 129.81C191.948 129.945 191.738 130.134 191.588 130.377C191.444 130.615 191.371 130.89 191.371 131.203C191.371 131.707 191.532 132.103 191.854 132.393C192.176 132.682 192.613 132.827 193.163 132.827ZM201.356 140.639L200.642 140.177C200.81 139.999 200.992 139.736 201.188 139.386C201.389 139.036 201.51 138.637 201.552 138.189C201.31 138.133 201.111 138.018 200.957 137.846C200.803 137.673 200.726 137.447 200.726 137.167C200.726 136.821 200.836 136.548 201.055 136.348C201.279 136.147 201.534 136.047 201.818 136.047C202.136 136.047 202.406 136.159 202.63 136.383C202.854 136.607 202.966 136.947 202.966 137.405C202.966 137.904 202.88 138.368 202.707 138.798C202.539 139.227 202.332 139.6 202.084 139.918C201.837 140.235 201.594 140.475 201.356 140.639ZM210.459 138.203C209.68 138.203 209.026 138.037 208.499 137.706C207.976 137.37 207.582 136.917 207.316 136.348C207.05 135.778 206.917 135.137 206.917 134.423C206.917 133.653 207.031 132.922 207.26 132.232C207.489 131.536 207.834 130.906 208.296 130.342C208.763 129.772 209.348 129.292 210.053 128.9C210.758 128.508 211.584 128.23 212.531 128.067V129.607C212.027 129.705 211.535 129.877 211.054 130.125C210.578 130.372 210.158 130.692 209.794 131.084C209.43 131.471 209.166 131.926 209.003 132.449C209.194 132.271 209.435 132.127 209.724 132.015C210.018 131.903 210.356 131.847 210.739 131.847C211.36 131.847 211.91 131.984 212.391 132.26C212.876 132.535 213.257 132.913 213.532 133.394C213.807 133.87 213.945 134.409 213.945 135.011C213.945 135.636 213.793 136.189 213.49 136.67C213.191 137.15 212.778 137.526 212.251 137.797C211.728 138.067 211.131 138.203 210.459 138.203ZM210.459 136.635C210.814 136.635 211.129 136.569 211.404 136.439C211.679 136.308 211.896 136.124 212.055 135.886C212.214 135.648 212.293 135.365 212.293 135.039C212.293 134.539 212.123 134.143 211.782 133.849C211.441 133.55 211 133.401 210.459 133.401C210.1 133.401 209.78 133.471 209.5 133.611C209.225 133.746 209.008 133.937 208.849 134.185C208.69 134.427 208.611 134.712 208.611 135.039C208.611 135.365 208.69 135.648 208.849 135.886C209.012 136.124 209.232 136.308 209.507 136.439C209.787 136.569 210.104 136.635 210.459 136.635ZM219.058 138.203C218.493 138.203 217.992 138.107 217.553 137.916C217.119 137.724 216.748 137.456 216.44 137.111C216.132 136.765 215.889 136.364 215.712 135.907L217.21 135.291C217.434 135.767 217.705 136.11 218.022 136.32C218.344 136.53 218.703 136.635 219.1 136.635C219.408 136.635 219.686 136.581 219.933 136.474C220.18 136.362 220.376 136.201 220.521 135.991C220.666 135.776 220.738 135.515 220.738 135.207C220.738 134.787 220.6 134.437 220.325 134.157C220.054 133.877 219.632 133.737 219.058 133.737H218.176V132.155H219.016C219.431 132.155 219.763 132.04 220.01 131.812C220.262 131.583 220.388 131.277 220.388 130.895C220.388 130.521 220.269 130.218 220.031 129.985C219.793 129.751 219.473 129.635 219.072 129.635C218.806 129.635 218.575 129.684 218.379 129.782C218.183 129.88 218.015 130.008 217.875 130.167C217.735 130.325 217.616 130.498 217.518 130.685L216.02 130.111C216.188 129.719 216.414 129.369 216.699 129.061C216.988 128.753 217.331 128.51 217.728 128.333C218.125 128.155 218.573 128.067 219.072 128.067C219.655 128.067 220.171 128.183 220.619 128.417C221.067 128.645 221.417 128.96 221.669 129.362C221.926 129.763 222.054 130.218 222.054 130.727C222.054 131.189 221.947 131.602 221.732 131.966C221.517 132.33 221.223 132.621 220.85 132.841C221.298 133.013 221.671 133.303 221.97 133.709C222.269 134.115 222.418 134.609 222.418 135.193C222.418 135.818 222.273 136.357 221.984 136.81C221.699 137.258 221.303 137.603 220.794 137.846C220.29 138.084 219.711 138.203 219.058 138.203ZM226.873 138.035V130.349L224.745 130.923V129.355L228.539 128.221V138.035H226.873ZM224.437 138.035V136.439H230.933V138.035H224.437Z" fill="#242D38"/>
<path d="M281.64 109.035V97.7947H277.64V95.0347H288.53V97.7947H284.52V109.035H281.64ZM294.958 109.275C293.838 109.275 292.884 109.065 292.098 108.645C291.311 108.218 290.674 107.655 290.188 106.955C289.708 106.248 289.354 105.468 289.128 104.615C288.908 103.761 288.798 102.901 288.798 102.035C288.798 101.168 288.908 100.308 289.128 99.4547C289.354 98.6013 289.708 97.8247 290.188 97.1247C290.674 96.418 291.311 95.8547 292.098 95.4347C292.884 95.008 293.838 94.7947 294.958 94.7947C296.091 94.7947 297.048 95.008 297.828 95.4347C298.608 95.8547 299.238 96.418 299.718 97.1247C300.204 97.8247 300.558 98.6013 300.778 99.4547C300.998 100.308 301.108 101.168 301.108 102.035C301.108 102.901 300.998 103.761 300.778 104.615C300.558 105.468 300.204 106.248 299.718 106.955C299.238 107.655 298.608 108.218 297.828 108.645C297.048 109.065 296.091 109.275 294.958 109.275ZM294.958 106.495C295.544 106.495 296.038 106.358 296.438 106.085C296.844 105.811 297.171 105.451 297.418 105.005C297.664 104.551 297.844 104.065 297.958 103.545C298.071 103.025 298.128 102.521 298.128 102.035C298.128 101.515 298.074 100.991 297.968 100.465C297.861 99.938 297.684 99.4547 297.438 99.0147C297.198 98.5747 296.874 98.2213 296.468 97.9547C296.061 97.688 295.558 97.5547 294.958 97.5547C294.358 97.5547 293.854 97.6947 293.448 97.9747C293.041 98.248 292.714 98.608 292.468 99.0547C292.221 99.5013 292.044 99.988 291.938 100.515C291.831 101.041 291.778 101.548 291.778 102.035C291.778 102.548 291.831 103.068 291.938 103.595C292.051 104.115 292.231 104.595 292.478 105.035C292.731 105.475 293.061 105.828 293.468 106.095C293.874 106.361 294.371 106.495 294.958 106.495ZM305.382 109.035V97.7947H301.382V95.0347H312.272V97.7947H308.262V109.035H305.382ZM310.3 109.035L315.76 95.0347H318.5L323.97 109.035H320.84L319.77 106.225H314.48L313.43 109.035H310.3ZM315.44 103.575H318.8L317.53 100.305C317.49 100.205 317.443 100.091 317.39 99.9647C317.337 99.8313 317.287 99.698 317.24 99.5647C317.193 99.4313 317.153 99.3113 317.12 99.2047C317.087 99.3113 317.047 99.4313 317 99.5647C316.953 99.698 316.903 99.8313 316.85 99.9647C316.797 100.091 316.75 100.205 316.71 100.305L315.44 103.575ZM324.873 109.035V95.0347H327.753V106.255H334.483V109.035H324.873Z" fill="#337975"/>
<path d="M278.153 139.351V138.105C277.519 137.955 276.982 137.671 276.543 137.251C276.105 136.831 275.783 136.317 275.577 135.711L277.103 135.151C277.295 135.585 277.561 135.942 277.901 136.222C278.247 136.497 278.639 136.635 279.077 136.635C279.525 136.635 279.885 136.52 280.155 136.292C280.426 136.058 280.561 135.725 280.561 135.291C280.561 134.978 280.473 134.717 280.295 134.507C280.118 134.297 279.885 134.117 279.595 133.968C279.311 133.818 279.003 133.681 278.671 133.555C278.349 133.433 278.027 133.298 277.705 133.149C277.383 132.995 277.089 132.81 276.823 132.596C276.557 132.376 276.343 132.108 276.179 131.791C276.021 131.469 275.941 131.077 275.941 130.615C275.941 130.027 276.13 129.502 276.508 129.04C276.891 128.573 277.439 128.277 278.153 128.151V127.031H279.777V128.165C280.337 128.291 280.792 128.533 281.142 128.893C281.492 129.247 281.737 129.663 281.877 130.139L280.379 130.643C280.267 130.367 280.085 130.132 279.833 129.936C279.581 129.735 279.255 129.635 278.853 129.635C278.475 129.635 278.177 129.721 277.957 129.894C277.743 130.066 277.635 130.307 277.635 130.615C277.635 130.862 277.715 131.07 277.873 131.238C278.032 131.406 278.244 131.553 278.51 131.679C278.776 131.805 279.068 131.926 279.385 132.043C279.717 132.164 280.05 132.306 280.386 132.47C280.727 132.628 281.037 132.829 281.317 133.072C281.602 133.31 281.831 133.608 282.003 133.968C282.181 134.327 282.269 134.763 282.269 135.277C282.269 135.813 282.16 136.282 281.94 136.684C281.721 137.08 281.422 137.402 281.044 137.65C280.671 137.892 280.249 138.053 279.777 138.133V139.351H278.153ZM284.26 138.035C284.26 137.33 284.347 136.712 284.519 136.18C284.692 135.643 284.928 135.174 285.226 134.773C285.53 134.367 285.875 134.01 286.262 133.702C286.654 133.394 287.065 133.116 287.494 132.869C287.77 132.71 288.026 132.54 288.264 132.358C288.502 132.176 288.694 131.973 288.838 131.749C288.988 131.52 289.062 131.259 289.062 130.965C289.062 130.559 288.936 130.237 288.684 129.999C288.432 129.756 288.092 129.635 287.662 129.635C287.21 129.635 286.834 129.744 286.535 129.964C286.241 130.183 286.02 130.479 285.87 130.853L284.386 130.181C284.55 129.761 284.79 129.392 285.107 129.075C285.425 128.757 285.798 128.51 286.227 128.333C286.661 128.155 287.13 128.067 287.634 128.067C288.288 128.067 288.845 128.193 289.307 128.445C289.774 128.692 290.129 129.033 290.371 129.467C290.619 129.896 290.742 130.381 290.742 130.923C290.742 131.52 290.63 132.017 290.406 132.414C290.182 132.806 289.879 133.146 289.496 133.436C289.114 133.725 288.684 134.007 288.208 134.283C287.868 134.479 287.56 134.686 287.284 134.906C287.009 135.125 286.778 135.363 286.591 135.62C286.405 135.872 286.276 136.145 286.206 136.439H290.826V138.035H284.26ZM292.887 138.035C292.887 137.33 292.974 136.712 293.146 136.18C293.319 135.643 293.555 135.174 293.853 134.773C294.157 134.367 294.502 134.01 294.889 133.702C295.281 133.394 295.692 133.116 296.121 132.869C296.397 132.71 296.653 132.54 296.891 132.358C297.129 132.176 297.321 131.973 297.465 131.749C297.615 131.52 297.689 131.259 297.689 130.965C297.689 130.559 297.563 130.237 297.311 129.999C297.059 129.756 296.719 129.635 296.289 129.635C295.837 129.635 295.461 129.744 295.162 129.964C294.868 130.183 294.647 130.479 294.497 130.853L293.013 130.181C293.177 129.761 293.417 129.392 293.734 129.075C294.052 128.757 294.425 128.51 294.854 128.333C295.288 128.155 295.757 128.067 296.261 128.067C296.915 128.067 297.472 128.193 297.934 128.445C298.401 128.692 298.756 129.033 298.998 129.467C299.246 129.896 299.369 130.381 299.369 130.923C299.369 131.52 299.257 132.017 299.033 132.414C298.809 132.806 298.506 133.146 298.123 133.436C297.741 133.725 297.311 134.007 296.835 134.283C296.495 134.479 296.187 134.686 295.911 134.906C295.636 135.125 295.405 135.363 295.218 135.62C295.032 135.872 294.903 136.145 294.833 136.439H299.453V138.035H292.887ZM304.356 140.639L303.642 140.177C303.81 139.999 303.992 139.736 304.188 139.386C304.389 139.036 304.51 138.637 304.552 138.189C304.31 138.133 304.111 138.018 303.957 137.846C303.803 137.673 303.726 137.447 303.726 137.167C303.726 136.821 303.836 136.548 304.055 136.348C304.279 136.147 304.534 136.047 304.818 136.047C305.136 136.047 305.406 136.159 305.63 136.383C305.854 136.607 305.966 136.947 305.966 137.405C305.966 137.904 305.88 138.368 305.707 138.798C305.539 139.227 305.332 139.6 305.084 139.918C304.837 140.235 304.594 140.475 304.356 140.639ZM313.431 138.203C312.866 138.203 312.365 138.107 311.926 137.916C311.492 137.724 311.121 137.456 310.813 137.111C310.505 136.765 310.262 136.364 310.085 135.907L311.583 135.291C311.807 135.767 312.078 136.11 312.395 136.32C312.717 136.53 313.076 136.635 313.473 136.635C313.781 136.635 314.059 136.581 314.306 136.474C314.553 136.362 314.749 136.201 314.894 135.991C315.039 135.776 315.111 135.515 315.111 135.207C315.111 134.787 314.973 134.437 314.698 134.157C314.427 133.877 314.005 133.737 313.431 133.737H312.549V132.155H313.389C313.804 132.155 314.136 132.04 314.383 131.812C314.635 131.583 314.761 131.277 314.761 130.895C314.761 130.521 314.642 130.218 314.404 129.985C314.166 129.751 313.846 129.635 313.445 129.635C313.179 129.635 312.948 129.684 312.752 129.782C312.556 129.88 312.388 130.008 312.248 130.167C312.108 130.325 311.989 130.498 311.891 130.685L310.393 130.111C310.561 129.719 310.787 129.369 311.072 129.061C311.361 128.753 311.704 128.51 312.101 128.333C312.498 128.155 312.946 128.067 313.445 128.067C314.028 128.067 314.544 128.183 314.992 128.417C315.44 128.645 315.79 128.96 316.042 129.362C316.299 129.763 316.427 130.218 316.427 130.727C316.427 131.189 316.32 131.602 316.105 131.966C315.89 132.33 315.596 132.621 315.223 132.841C315.671 133.013 316.044 133.303 316.343 133.709C316.642 134.115 316.791 134.609 316.791 135.193C316.791 135.818 316.646 136.357 316.357 136.81C316.072 137.258 315.676 137.603 315.167 137.846C314.663 138.084 314.084 138.203 313.431 138.203ZM322.044 138.203C321.33 138.203 320.707 138.072 320.175 137.811C319.648 137.549 319.237 137.188 318.943 136.726C318.649 136.264 318.502 135.729 318.502 135.123C318.502 134.549 318.661 134.049 318.978 133.625C319.295 133.195 319.72 132.873 320.252 132.659C319.888 132.481 319.573 132.222 319.307 131.882C319.041 131.536 318.908 131.123 318.908 130.643C318.908 130.148 319.036 129.707 319.293 129.32C319.55 128.932 319.911 128.627 320.378 128.403C320.849 128.179 321.405 128.067 322.044 128.067C322.688 128.067 323.246 128.179 323.717 128.403C324.193 128.627 324.559 128.932 324.816 129.32C325.077 129.707 325.208 130.148 325.208 130.643C325.208 131.119 325.073 131.529 324.802 131.875C324.536 132.22 324.214 132.477 323.836 132.645C324.363 132.859 324.79 133.184 325.117 133.618C325.448 134.052 325.614 134.553 325.614 135.123C325.614 135.729 325.467 136.264 325.173 136.726C324.879 137.188 324.464 137.549 323.927 137.811C323.395 138.072 322.767 138.203 322.044 138.203ZM322.044 136.705C322.59 136.705 323.04 136.555 323.395 136.257C323.754 135.953 323.934 135.557 323.934 135.067C323.934 134.759 323.852 134.483 323.689 134.241C323.53 133.993 323.309 133.8 323.024 133.66C322.739 133.515 322.413 133.443 322.044 133.443C321.671 133.443 321.342 133.515 321.057 133.66C320.777 133.8 320.558 133.993 320.399 134.241C320.245 134.483 320.168 134.759 320.168 135.067C320.168 135.557 320.343 135.953 320.693 136.257C321.043 136.555 321.493 136.705 322.044 136.705ZM322.044 131.973C322.501 131.973 322.868 131.858 323.143 131.63C323.418 131.396 323.556 131.109 323.556 130.769C323.556 130.405 323.414 130.111 323.129 129.887C322.849 129.663 322.487 129.551 322.044 129.551C321.596 129.551 321.237 129.663 320.966 129.887C320.695 130.111 320.56 130.405 320.56 130.769C320.56 131.109 320.693 131.396 320.959 131.63C321.23 131.858 321.591 131.973 322.044 131.973ZM329.873 138.035V130.349L327.745 130.923V129.355L331.539 128.221V138.035H329.873ZM327.437 138.035V136.439H333.933V138.035H327.437Z" fill="#337975"/>
</svg>
