<svg width="64" height="64" viewBox="0 0 64 64" fill="none" xmlns="http://www.w3.org/2000/svg">
<path d="M19 35.5C19 39 17.04 42 14 42C10.96 42 9 39 9 35.5C9 32 10 30 14 30C18 30 19 32 19 35.5Z" stroke="#00A19C" stroke-width="2" stroke-miterlimit="10"/>
<path d="M17 41L23 45V47C23 48.66 22 50 21 50H7C6 50 5 48.66 5 47V45L11 41" stroke="#00A19C" stroke-width="2" stroke-miterlimit="10"/>
<path d="M27 52C27 53.1 26.1 54 25 54H20L24 62L8 54H3C1.9 54 1 53.1 1 52V28C1 26.9 1.9 26 3 26H25C26.1 26 27 26.9 27 28V52Z" stroke="#00A19C" stroke-width="2" stroke-linejoin="round"/>
<path d="M55 25.5C55 29 53.04 32 50 32C46.96 32 45 29 45 25.5C45 22 46 20 50 20C54 20 55 22 55 25.5Z" stroke="#00A19C" stroke-width="2" stroke-miterlimit="10"/>
<path d="M53 31L59 35V37C59 38.66 58 40 57 40H43C42 40 41 38.66 41 37V35L47 31" stroke="#00A19C" stroke-width="2" stroke-miterlimit="10"/>
<path d="M44 16H61C62.1 16 63 16.9 63 18V42C63 43.1 62.1 44 61 44H56L40 52L44 44H39C37.9 44 37 43.1 37 42V33" stroke="#00A19C" stroke-width="2" stroke-linejoin="round"/>
<path d="M33 11.5C33 15 31.04 18 28 18C24.96 18 23 15 23 11.5C23 8 24 6 28 6C32 6 33 8 33 11.5Z" stroke="#00A19C" stroke-width="2" stroke-miterlimit="10"/>
<path d="M19 23V21L25 17" stroke="#00A19C" stroke-width="2" stroke-miterlimit="10"/>
<path d="M31 17L37 21V23C37 24.66 36 26 35 26H30" stroke="#00A19C" stroke-width="2" stroke-miterlimit="10"/>
<path d="M15 23V4C15 2.9 15.9 2 17 2H39C40.1 2 41 2.9 41 4V28C41 29.1 40.1 30 39 30H34L30 36" stroke="#00A19C" stroke-width="2" stroke-linejoin="round"/>
<path d="M39 58H41" stroke="#00A19C" stroke-width="2" stroke-linejoin="round"/>
<path d="M35 58H37" stroke="#00A19C" stroke-width="2" stroke-linejoin="round"/>
<path d="M31 58H33" stroke="#00A19C" stroke-width="2" stroke-linejoin="round"/>
<path d="M43 58H45" stroke="#00A19C" stroke-width="2" stroke-linejoin="round"/>
</svg>
