<svg width="64" height="65" viewBox="0 0 64 65" fill="none" xmlns="http://www.w3.org/2000/svg">
<g clip-path="url(#clip0_2106_52776)">
<path d="M14 40.2295V63.2295" stroke="#00A19C" stroke-width="2" stroke-linejoin="round"/>
<path d="M14 16.2295V18.2295" stroke="#00A19C" stroke-width="2" stroke-linejoin="round"/>
<path d="M8 42.2295V63.2295" stroke="#00A19C" stroke-width="2" stroke-linejoin="round"/>
<path d="M20 37.2295V63.2295" stroke="#00A19C" stroke-width="2" stroke-linejoin="round"/>
<path d="M14 9.22949C16.2091 9.22949 18 7.43863 18 5.22949C18 3.02035 16.2091 1.22949 14 1.22949C11.7909 1.22949 10 3.02035 10 5.22949C10 7.43863 11.7909 9.22949 14 9.22949Z" stroke="#00A19C" stroke-width="2" stroke-linejoin="round"/>
<path d="M8 33.2295H18" stroke="#00A19C" stroke-width="2" stroke-linejoin="round"/>
<path d="M32 40.2295V63.2295" stroke="#00A19C" stroke-width="2" stroke-linejoin="round"/>
<path d="M32 16.2295V18.2295" stroke="#00A19C" stroke-width="2" stroke-linejoin="round"/>
<path d="M32 20.2295V22.2295" stroke="#00A19C" stroke-width="2" stroke-linejoin="round"/>
<path d="M38 37.2295V63.2295" stroke="#00A19C" stroke-width="2" stroke-linejoin="round"/>
<path d="M26 37.2295V63.2295" stroke="#00A19C" stroke-width="2" stroke-linejoin="round"/>
<path d="M32 9.22949C34.2091 9.22949 36 7.43863 36 5.22949C36 3.02035 34.2091 1.22949 32 1.22949C29.7909 1.22949 28 3.02035 28 5.22949C28 7.43863 29.7909 9.22949 32 9.22949Z" stroke="#00A19C" stroke-width="2" stroke-linejoin="round"/>
<path d="M39 33.2295H25" stroke="#00A19C" stroke-width="2" stroke-linejoin="round"/>
<path d="M8 37.2295H21V21.2295C21 19.5695 22.34 18.2295 24 18.2295" stroke="#00A19C" stroke-width="2" stroke-linejoin="round"/>
<path d="M50 40.2295V63.2295" stroke="#00A19C" stroke-width="2" stroke-linejoin="round"/>
<path d="M50 16.2295V18.2295" stroke="#00A19C" stroke-width="2" stroke-linejoin="round"/>
<path d="M56 42.2295V63.2295" stroke="#00A19C" stroke-width="2" stroke-linejoin="round"/>
<path d="M44 37.2295V63.2295" stroke="#00A19C" stroke-width="2" stroke-linejoin="round"/>
<path d="M50 9.22949C52.2091 9.22949 54 7.43863 54 5.22949C54 3.02035 52.2091 1.22949 50 1.22949C47.7909 1.22949 46 3.02035 46 5.22949C46 7.43863 47.7909 9.22949 50 9.22949Z" stroke="#00A19C" stroke-width="2" stroke-linejoin="round"/>
<path d="M56 33.2295H46" stroke="#00A19C" stroke-width="2" stroke-linejoin="round"/>
<path d="M56 21.2295V39.2295H61V17.2295C61 15.0195 59.21 13.2295 57 13.2295H7C4.79 13.2295 3 15.0195 3 17.2295V39.2295H8V21.2295" stroke="#00A19C" stroke-width="2" stroke-linejoin="round"/>
<path d="M56 37.2295H43V21.2295C43 19.5695 41.66 18.2295 40 18.2295" stroke="#00A19C" stroke-width="2" stroke-linejoin="round"/>
<path d="M21 22.2295H22C23.66 22.2295 25 23.5695 25 25.2295V37.2295H39V25.2295C39 23.5695 40.34 22.2295 42 22.2295H43" stroke="#00A19C" stroke-width="2" stroke-linejoin="round"/>
<path d="M2 63.2295H62" stroke="#00A19C" stroke-width="2" stroke-linejoin="round"/>
</g>
<defs>
<clipPath id="clip0_2106_52776">
<rect width="64" height="64" fill="white" transform="translate(0 0.229492)"/>
</clipPath>
</defs>
</svg>
