<svg width="316" height="48" viewBox="0 0 316 48" fill="none" xmlns="http://www.w3.org/2000/svg">
<g clip-path="url(#clip0_2112_33914)">
<line y1="-0.5" x2="152.735" y2="-0.5" transform="matrix(0.500001 0.866025 0.866026 -0.499999 312 -42)" stroke="#242D38"/>
<line y1="-0.5" x2="152.735" y2="-0.5" transform="matrix(0.500001 0.866025 0.866026 -0.499999 300 -42)" stroke="#242D38"/>
<line y1="-0.5" x2="152.735" y2="-0.5" transform="matrix(0.500001 0.866025 0.866026 -0.499999 288 -42)" stroke="#242D38"/>
<line y1="-0.5" x2="152.735" y2="-0.5" transform="matrix(0.500001 0.866025 0.866026 -0.499999 276 -42)" stroke="#242D38"/>
<line y1="-0.5" x2="152.735" y2="-0.5" transform="matrix(0.500001 0.866025 0.866026 -0.499999 264 -42)" stroke="#242D38"/>
<line y1="-0.5" x2="152.735" y2="-0.5" transform="matrix(0.500001 0.866025 0.866026 -0.499999 252 -42)" stroke="#242D38"/>
<line y1="-0.5" x2="152.735" y2="-0.5" transform="matrix(0.500001 0.866025 0.866026 -0.499999 240 -42)" stroke="#242D38"/>
<line y1="-0.5" x2="152.735" y2="-0.5" transform="matrix(0.500001 0.866025 0.866026 -0.499999 228 -42)" stroke="#242D38"/>
<line y1="-0.5" x2="152.735" y2="-0.5" transform="matrix(0.500001 0.866025 0.866026 -0.499999 216 -42)" stroke="#242D38"/>
<line y1="-0.5" x2="152.735" y2="-0.5" transform="matrix(0.500001 0.866025 0.866026 -0.499999 204 -42)" stroke="#242D38"/>
<line y1="-0.5" x2="152.735" y2="-0.5" transform="matrix(0.500001 0.866025 0.866026 -0.499999 192 -42)" stroke="#242D38"/>
<line y1="-0.5" x2="152.735" y2="-0.5" transform="matrix(0.500001 0.866025 0.866026 -0.499999 180 -42)" stroke="#242D38"/>
<line y1="-0.5" x2="152.735" y2="-0.5" transform="matrix(0.500001 0.866025 0.866026 -0.499999 168 -42)" stroke="#242D38"/>
<line y1="-0.5" x2="152.735" y2="-0.5" transform="matrix(0.500001 0.866025 0.866026 -0.499999 156 -42)" stroke="#242D38"/>
<line y1="-0.5" x2="152.735" y2="-0.5" transform="matrix(0.500001 0.866025 0.866026 -0.499999 144 -42)" stroke="#242D38"/>
<line y1="-0.5" x2="152.735" y2="-0.5" transform="matrix(0.500001 0.866025 0.866026 -0.499999 132 -42)" stroke="#242D38"/>
<line y1="-0.5" x2="152.735" y2="-0.5" transform="matrix(0.500001 0.866025 0.866026 -0.499999 120 -42)" stroke="#242D38"/>
<line y1="-0.5" x2="152.735" y2="-0.5" transform="matrix(0.500001 0.866025 0.866026 -0.499999 108 -42)" stroke="#242D38"/>
<line y1="-0.5" x2="152.735" y2="-0.5" transform="matrix(0.500001 0.866025 0.866026 -0.499999 96.0001 -42)" stroke="#242D38"/>
<line y1="-0.5" x2="152.735" y2="-0.5" transform="matrix(0.500001 0.866025 0.866026 -0.499999 84.0001 -42)" stroke="#242D38"/>
<line y1="-0.5" x2="152.735" y2="-0.5" transform="matrix(0.500001 0.866025 0.866026 -0.499999 72.0001 -42)" stroke="#242D38"/>
<line y1="-0.5" x2="152.735" y2="-0.5" transform="matrix(0.500001 0.866025 0.866026 -0.499999 60.0001 -42)" stroke="#242D38"/>
<line y1="-0.5" x2="152.735" y2="-0.5" transform="matrix(0.500001 0.866025 0.866026 -0.499999 48.0002 -42)" stroke="#242D38"/>
<line y1="-0.5" x2="152.735" y2="-0.5" transform="matrix(0.500001 0.866025 0.866026 -0.499999 36.0002 -42)" stroke="#242D38"/>
<line y1="-0.5" x2="152.735" y2="-0.5" transform="matrix(0.500001 0.866025 0.866026 -0.499999 23.9998 -42)" stroke="#242D38"/>
<line y1="-0.5" x2="152.735" y2="-0.5" transform="matrix(0.500001 0.866025 0.866026 -0.499999 11.9998 -42)" stroke="#242D38"/>
<line y1="-0.5" x2="152.735" y2="-0.5" transform="matrix(0.500001 0.866025 0.866026 -0.499999 -0.000244141 -42)" stroke="#242D38"/>
<line y1="-0.5" x2="152.735" y2="-0.5" transform="matrix(0.500001 0.866025 0.866026 -0.499999 -12.0002 -42)" stroke="#242D38"/>
<line y1="-0.5" x2="152.735" y2="-0.5" transform="matrix(0.500001 0.866025 0.866026 -0.499999 -24.0001 -42)" stroke="#242D38"/>
<line y1="-0.5" x2="152.735" y2="-0.5" transform="matrix(0.500001 0.866025 0.866026 -0.499999 -36.0001 -42)" stroke="#242D38"/>
<line y1="-0.5" x2="152.735" y2="-0.5" transform="matrix(0.500001 0.866025 0.866026 -0.499999 -48 -42)" stroke="#242D38"/>
<line y1="-0.5" x2="152.735" y2="-0.5" transform="matrix(0.500001 0.866025 0.866026 -0.499999 -60 -42)" stroke="#242D38"/>
<line y1="-0.5" x2="152.735" y2="-0.5" transform="matrix(0.500001 0.866025 0.866026 -0.499999 -71.9999 -42)" stroke="#242D38"/>
</g>
<defs>
<clipPath id="clip0_2112_33914">
<rect width="316" height="48" fill="white" transform="matrix(-1 0 0 1 316 0)"/>
</clipPath>
</defs>
</svg>
