<svg width="65" height="64" viewBox="0 0 65 64" fill="none" xmlns="http://www.w3.org/2000/svg">
<g clip-path="url(#clip0_2112_30648)">
<path d="M15.3333 7.00049H51.3333" stroke="#00A19C" stroke-width="2" stroke-linejoin="round"/>
<path d="M15.3333 57.0005H51.3333" stroke="#00A19C" stroke-width="2" stroke-linejoin="round"/>
<path d="M15.3333 30.0005V58.0005C15.3333 60.7605 17.5733 63.0005 20.3333 63.0005H46.3333C49.0933 63.0005 51.3333 60.7605 51.3333 58.0005V48.0005" stroke="#00A19C" stroke-width="2" stroke-linejoin="round"/>
<path d="M51.3333 20.0005V6.00049C51.3333 3.24049 49.0933 1.00049 46.3333 1.00049H20.3333C17.5733 1.00049 15.3333 3.24049 15.3333 6.00049V10.0005" stroke="#00A19C" stroke-width="2" stroke-linejoin="round"/>
<path d="M51.3333 34.0005V26.0005" stroke="#00A19C" stroke-width="2" stroke-linejoin="round"/>
<path d="M21.3333 21.0005H6.33334L1.33334 26.0005V13.0005H21.3333V21.0005Z" stroke="#00A19C" stroke-width="2" stroke-linejoin="round"/>
<path d="M63.3333 45.0005H35.3333V37.0005H58.3333L63.3333 32.0005V45.0005Z" stroke="#00A19C" stroke-width="2" stroke-linejoin="round"/>
<path d="M6.33334 17.0005H8.33334" stroke="#00A19C" stroke-width="2" stroke-linejoin="round"/>
<path d="M10.3333 17.0005H12.3333" stroke="#00A19C" stroke-width="2" stroke-linejoin="round"/>
<path d="M14.3333 17.0005H16.3333" stroke="#00A19C" stroke-width="2" stroke-linejoin="round"/>
<path d="M40.3333 41.0005H52.3333" stroke="#00A19C" stroke-width="2" stroke-linejoin="round"/>
<path d="M54.3333 41.0005H58.3333" stroke="#00A19C" stroke-width="2" stroke-linejoin="round"/>
<path d="M23.3333 49.0005H19.3333V53.0005H23.3333V49.0005Z" stroke="#00A19C" stroke-width="2" stroke-linejoin="round"/>
<path d="M31.3333 49.0005H27.3333V53.0005H31.3333V49.0005Z" stroke="#00A19C" stroke-width="2" stroke-linejoin="round"/>
<path d="M39.3333 49.0005H35.3333V53.0005H39.3333V49.0005Z" stroke="#00A19C" stroke-width="2" stroke-linejoin="round"/>
<path d="M47.3333 49.0005H43.3333V53.0005H47.3333V49.0005Z" stroke="#00A19C" stroke-width="2" stroke-linejoin="round"/>
<path d="M33.3333 33.0005C36.6471 33.0005 39.3333 30.3142 39.3333 27.0005C39.3333 23.6868 36.6471 21.0005 33.3333 21.0005C30.0196 21.0005 27.3333 23.6868 27.3333 27.0005C27.3333 30.3142 30.0196 33.0005 33.3333 33.0005Z" stroke="#00A19C" stroke-width="2" stroke-linejoin="round"/>
<path d="M32.3333 41.0005H19.3333V30.0005" stroke="#00A19C" stroke-width="2" stroke-linejoin="round"/>
<path d="M47.3333 26.0005V34.0005" stroke="#00A19C" stroke-width="2" stroke-linejoin="round"/>
<path d="M24.3333 13.0005H47.3333V20.0005" stroke="#00A19C" stroke-width="2" stroke-linejoin="round"/>
<path d="M18.3333 45.0005H20.3333" stroke="#00A19C" stroke-width="2" stroke-linejoin="round"/>
<path d="M22.3333 45.0005H24.3333" stroke="#00A19C" stroke-width="2" stroke-linejoin="round"/>
<path d="M26.3333 45.0005H28.3333" stroke="#00A19C" stroke-width="2" stroke-linejoin="round"/>
<path d="M30.3333 45.0005H32.3333" stroke="#00A19C" stroke-width="2" stroke-linejoin="round"/>
<path d="M42.3333 23.0005H64.3333" stroke="#00A19C" stroke-width="2" stroke-linejoin="round"/>
<path d="M64.3333 17.0005H54.3333" stroke="#00A19C" stroke-width="2" stroke-linejoin="round"/>
<path d="M64.3333 13.0005H54.3333" stroke="#00A19C" stroke-width="2" stroke-linejoin="round"/>
<path d="M7.33334 38.0005V29.0005C7.33334 27.9005 8.23334 27.0005 9.33334 27.0005H24.3333" stroke="#00A19C" stroke-width="2" stroke-linejoin="round"/>
<path d="M7.33334 49.0005C9.54248 49.0005 11.3333 47.2096 11.3333 45.0005C11.3333 42.7913 9.54248 41.0005 7.33334 41.0005C5.1242 41.0005 3.33334 42.7913 3.33334 45.0005C3.33334 47.2096 5.1242 49.0005 7.33334 49.0005Z" stroke="#00A19C" stroke-width="2" stroke-linejoin="round"/>
<path d="M44.3333 27.0005H42.3333" stroke="#00A19C" stroke-width="2" stroke-linejoin="round"/>
<path d="M24.3333 38.0005H22.3333" stroke="#00A19C" stroke-width="2" stroke-linejoin="round"/>
<path d="M26.3333 17.0005H24.3333" stroke="#00A19C" stroke-width="2" stroke-linejoin="round"/>
<path d="M4.33334 53.0005H6.33334" stroke="#00A19C" stroke-width="2" stroke-linejoin="round"/>
<path d="M8.33334 53.0005H10.3333" stroke="#00A19C" stroke-width="2" stroke-linejoin="round"/>
</g>
<defs>
<clipPath id="clip0_2112_30648">
<rect width="64" height="64" fill="white" transform="translate(0.333344 0.000488281)"/>
</clipPath>
</defs>
</svg>
