<svg width="65" height="64" viewBox="0 0 65 64" fill="none" xmlns="http://www.w3.org/2000/svg">
<g clip-path="url(#clip0_2112_30711)">
<path d="M13.6667 64.0005V56.0005" stroke="#00A19C" stroke-width="2" stroke-miterlimit="10"/>
<path d="M51.6667 64.0005V56.0005" stroke="#00A19C" stroke-width="2" stroke-miterlimit="10"/>
<path d="M64.6667 41.0005H62.6667" stroke="#00A19C" stroke-width="2" stroke-miterlimit="10"/>
<path d="M56.6667 33.0005H54.6667" stroke="#00A19C" stroke-width="2" stroke-miterlimit="10"/>
<path d="M52.6667 37.0005H50.6667" stroke="#00A19C" stroke-width="2" stroke-miterlimit="10"/>
<path d="M60.6667 37.0005H58.6667" stroke="#00A19C" stroke-width="2" stroke-miterlimit="10"/>
<path d="M64.6667 37.0005H62.6667" stroke="#00A19C" stroke-width="2" stroke-miterlimit="10"/>
<path d="M64.6667 29.0005H62.6667" stroke="#00A19C" stroke-width="2" stroke-miterlimit="10"/>
<path d="M64.6667 25.0005H62.6667" stroke="#00A19C" stroke-width="2" stroke-miterlimit="10"/>
<path d="M56.6667 25.0005H54.6667" stroke="#00A19C" stroke-width="2" stroke-miterlimit="10"/>
<path d="M60.6667 21.0005H58.6667" stroke="#00A19C" stroke-width="2" stroke-miterlimit="10"/>
<path d="M60.6667 17.0005H58.6667" stroke="#00A19C" stroke-width="2" stroke-miterlimit="10"/>
<path d="M56.6667 13.0005H54.6667" stroke="#00A19C" stroke-width="2" stroke-miterlimit="10"/>
<path d="M60.6667 5.00049H58.6667" stroke="#00A19C" stroke-width="2" stroke-miterlimit="10"/>
<path d="M52.6667 9.00049H50.6667" stroke="#00A19C" stroke-width="2" stroke-miterlimit="10"/>
<path d="M64.6667 17.0005H62.6667" stroke="#00A19C" stroke-width="2" stroke-miterlimit="10"/>
<path d="M60.6667 13.0005H58.6667" stroke="#00A19C" stroke-width="2" stroke-miterlimit="10"/>
<path d="M4.66669 29.0005H6.66669" stroke="#00A19C" stroke-width="2" stroke-miterlimit="10"/>
<path d="M8.66669 29.0005H10.6667" stroke="#00A19C" stroke-width="2" stroke-miterlimit="10"/>
<path d="M8.66669 33.0005H10.6667" stroke="#00A19C" stroke-width="2" stroke-miterlimit="10"/>
<path d="M4.66669 37.0005H6.66669" stroke="#00A19C" stroke-width="2" stroke-miterlimit="10"/>
<path d="M0.666687 41.0005H2.66669" stroke="#00A19C" stroke-width="2" stroke-miterlimit="10"/>
<path d="M12.6667 37.0005H14.6667" stroke="#00A19C" stroke-width="2" stroke-miterlimit="10"/>
<path d="M0.666687 33.0005H2.66669" stroke="#00A19C" stroke-width="2" stroke-miterlimit="10"/>
<path d="M0.666687 25.0005H2.66669" stroke="#00A19C" stroke-width="2" stroke-miterlimit="10"/>
<path d="M8.66669 21.0005H10.6667" stroke="#00A19C" stroke-width="2" stroke-miterlimit="10"/>
<path d="M8.66669 17.0005H10.6667" stroke="#00A19C" stroke-width="2" stroke-miterlimit="10"/>
<path d="M0.666687 5.00049H2.66669" stroke="#00A19C" stroke-width="2" stroke-miterlimit="10"/>
<path d="M12.6667 5.00049H14.6667" stroke="#00A19C" stroke-width="2" stroke-miterlimit="10"/>
<path d="M16.6667 1.00049H18.6667" stroke="#00A19C" stroke-width="2" stroke-miterlimit="10"/>
<path d="M4.66669 1.00049H6.66669" stroke="#00A19C" stroke-width="2" stroke-miterlimit="10"/>
<path d="M4.66669 5.00049H6.66669" stroke="#00A19C" stroke-width="2" stroke-miterlimit="10"/>
<path d="M62.6667 9.00049H64.6667" stroke="#00A19C" stroke-width="2" stroke-miterlimit="10"/>
<path d="M58.6667 1.00049H60.6667" stroke="#00A19C" stroke-width="2" stroke-miterlimit="10"/>
<path d="M50.6667 1.00049H52.6667" stroke="#00A19C" stroke-width="2" stroke-miterlimit="10"/>
<path d="M46.6667 1.00049H48.6667" stroke="#00A19C" stroke-width="2" stroke-miterlimit="10"/>
<path d="M4.66669 25.0005H6.66669" stroke="#00A19C" stroke-width="2" stroke-miterlimit="10"/>
<path d="M0.666687 17.0005H2.66669" stroke="#00A19C" stroke-width="2" stroke-miterlimit="10"/>
<path d="M0.666687 13.0005H2.66669" stroke="#00A19C" stroke-width="2" stroke-miterlimit="10"/>
<path d="M12.6667 9.00049H14.6667" stroke="#00A19C" stroke-width="2" stroke-miterlimit="10"/>
<path d="M8.66669 9.00049H10.6667" stroke="#00A19C" stroke-width="2" stroke-miterlimit="10"/>
<path d="M28.6667 29.0005H36.6667" stroke="#00A19C" stroke-width="2" stroke-miterlimit="10"/>
<path d="M41.6667 17.0005H33.6667L30.6667 24.0005V25.0005H35.6667" stroke="#00A19C" stroke-width="2" stroke-miterlimit="10"/>
<path d="M29.6667 17.0005H23.6667" stroke="#00A19C" stroke-width="2" stroke-miterlimit="10"/>
<path d="M35.6667 13.0005H37.6667" stroke="#00A19C" stroke-width="2" stroke-miterlimit="10"/>
<path d="M39.6667 13.0005H41.6667" stroke="#00A19C" stroke-width="2" stroke-miterlimit="10"/>
<path d="M42.6667 38.0005L58.6667 47.0005C58.6667 47.0005 63.6667 49.0005 63.6667 54.0005V64.0005" stroke="#00A19C" stroke-width="2" stroke-miterlimit="10"/>
<path d="M1.66669 64.0005V53.0005C1.66669 48.0005 6.66669 46.0005 6.66669 46.0005L22.6667 38.0005" stroke="#00A19C" stroke-width="2" stroke-miterlimit="10"/>
<path d="M27.6667 41.9505C21.2767 39.1905 16.6667 31.3005 16.6667 22.0005C16.6667 10.4005 23.8267 1.00049 32.6667 1.00049C41.5067 1.00049 48.6667 10.4005 48.6667 22.0005C48.6667 31.3605 44.0067 39.2905 37.5567 42.0005" stroke="#00A19C" stroke-width="2" stroke-miterlimit="10"/>
<path d="M44.6667 22.0005C44.6667 34.0005 32.6667 39.0005 32.6667 39.0005C32.6667 39.0005 20.6667 34.0005 20.6667 22.0005" stroke="#00A19C" stroke-width="2" stroke-miterlimit="10"/>
<path d="M22.6667 39.0005V57.0005" stroke="#00A19C" stroke-width="2" stroke-miterlimit="10"/>
<path d="M22.6667 58.0005C23.219 58.0005 23.6667 57.5528 23.6667 57.0005C23.6667 56.4482 23.219 56.0005 22.6667 56.0005C22.1144 56.0005 21.6667 56.4482 21.6667 57.0005C21.6667 57.5528 22.1144 58.0005 22.6667 58.0005Z" stroke="#00A19C" stroke-width="2" stroke-miterlimit="10"/>
<path d="M42.6667 39.0005V57.0005" stroke="#00A19C" stroke-width="2" stroke-miterlimit="10"/>
<path d="M42.6667 58.0005C43.219 58.0005 43.6667 57.5528 43.6667 57.0005C43.6667 56.4482 43.219 56.0005 42.6667 56.0005C42.1144 56.0005 41.6667 56.4482 41.6667 57.0005C41.6667 57.5528 42.1144 58.0005 42.6667 58.0005Z" stroke="#00A19C" stroke-width="2" stroke-miterlimit="10"/>
<path d="M32.6667 43.0005V64.0005" stroke="#00A19C" stroke-width="2" stroke-miterlimit="10"/>
</g>
<defs>
<clipPath id="clip0_2112_30711">
<rect width="64" height="64" fill="white" transform="translate(0.666687 0.000488281)"/>
</clipPath>
</defs>
</svg>
