<svg width="335" height="146" viewBox="0 0 335 146" fill="none" xmlns="http://www.w3.org/2000/svg">
<path d="M319.739 0.333496L304.488 26.6499L319.739 53.0346L335 26.6499L319.739 0.333496Z" fill="#002554"/>
<path opacity="0.3" d="M319.739 0.333496L304.488 26.6499L319.739 53.0346L335 26.6499L319.739 0.333496Z" fill="white"/>
<path d="M66.5374 0.333496L51.2861 26.6499L66.5374 53.0346H319.739L304.488 26.6499L319.739 0.333496H66.5374Z" fill="#002554"/>
<path d="M15.2512 0.333496L0 26.6499L15.2512 53.0346H66.5473L51.2863 26.6499L66.5473 0.333496H15.2512Z" fill="#C3E86C"/>
<path opacity="0.2" d="M304.556 26.6889H0L15.3098 0.333496H319.778L304.556 26.6889Z" fill="white"/>
<circle cx="8" cy="104.035" r="8" fill="#C3E86C"/>
<path d="M24.858 100.181H28.554C29.302 100.181 29.885 100.368 30.303 100.731C30.721 101.105 30.93 101.6 30.941 102.238C30.941 102.722 30.831 103.14 30.611 103.492C30.391 103.855 30.05 104.097 29.577 104.229V104.251C29.797 104.295 29.984 104.372 30.127 104.471C30.27 104.581 30.38 104.702 30.468 104.845C30.556 104.988 30.611 105.142 30.655 105.318C30.699 105.494 30.732 105.681 30.754 105.868C30.765 106.066 30.776 106.253 30.787 106.451C30.787 106.649 30.809 106.847 30.842 107.034C30.864 107.232 30.908 107.408 30.963 107.584C31.018 107.76 31.106 107.903 31.216 108.035H30.05C29.973 107.958 29.918 107.848 29.896 107.705C29.874 107.573 29.852 107.419 29.852 107.243C29.841 107.067 29.83 106.88 29.83 106.682C29.819 106.484 29.797 106.297 29.764 106.099C29.731 105.912 29.698 105.736 29.654 105.56C29.61 105.384 29.533 105.241 29.445 105.109C29.346 104.977 29.225 104.878 29.071 104.801C28.917 104.724 28.708 104.68 28.455 104.68H25.903V108.035H24.858V100.181ZM28.081 103.8C28.323 103.8 28.554 103.789 28.774 103.745C28.994 103.712 29.181 103.646 29.346 103.536C29.511 103.426 29.643 103.283 29.742 103.107C29.841 102.931 29.896 102.689 29.896 102.403C29.896 102.007 29.786 101.688 29.566 101.435C29.346 101.193 28.983 101.061 28.499 101.061H25.903V103.8H28.081ZM36.1833 104.647C36.1613 104.427 36.1173 104.218 36.0293 104.02C35.9413 103.822 35.8313 103.657 35.6883 103.514C35.5453 103.371 35.3803 103.261 35.1823 103.173C34.9843 103.085 34.7753 103.052 34.5443 103.041C34.3023 103.041 34.0823 103.085 33.8843 103.173C33.6863 103.261 33.5213 103.371 33.3893 103.514C33.2463 103.668 33.1363 103.833 33.0593 104.031C32.9713 104.229 32.9273 104.427 32.9163 104.647H36.1833ZM37.0853 106.231C36.9533 106.869 36.6783 107.353 36.2603 107.672C35.8313 108.002 35.2923 108.156 34.6543 108.156C34.1923 108.156 33.7963 108.09 33.4663 107.936C33.1363 107.793 32.8503 107.584 32.6303 107.32C32.3993 107.056 32.2233 106.748 32.1133 106.374C32.0033 106.011 31.9373 105.615 31.9263 105.175C31.9263 104.746 31.9923 104.35 32.1243 103.987C32.2563 103.635 32.4323 103.316 32.6743 103.052C32.9163 102.788 33.1913 102.59 33.5213 102.436C33.8513 102.293 34.2033 102.227 34.5993 102.216C35.1053 102.216 35.5233 102.326 35.8533 102.535C36.1833 102.744 36.4583 103.008 36.6563 103.327C36.8543 103.657 36.9973 104.009 37.0743 104.383C37.1513 104.768 37.1843 105.131 37.1733 105.472H32.9163C32.9053 105.725 32.9383 105.967 33.0043 106.187C33.0703 106.407 33.1693 106.605 33.3233 106.781C33.4663 106.957 33.6533 107.089 33.8843 107.188C34.1043 107.298 34.3793 107.342 34.6873 107.342C35.0833 107.342 35.4023 107.254 35.6553 107.067C35.9083 106.891 36.0733 106.605 36.1613 106.231H37.0853ZM38.1425 102.348H39.0225V103.25H39.0445C39.4295 102.568 40.0455 102.216 40.8925 102.216C41.2665 102.216 41.5745 102.271 41.8275 102.37C42.0695 102.48 42.2785 102.623 42.4325 102.799C42.5755 102.986 42.6855 103.206 42.7515 103.459C42.8175 103.712 42.8395 103.987 42.8505 104.295V108.035H41.9155V104.185C41.9155 103.833 41.8055 103.558 41.6075 103.349C41.3985 103.151 41.1125 103.052 40.7605 103.041C40.4745 103.041 40.2215 103.085 40.0125 103.173C39.8035 103.261 39.6275 103.393 39.4955 103.547C39.3525 103.712 39.2425 103.899 39.1765 104.119C39.1105 104.339 39.0775 104.57 39.0775 104.823V108.035H38.1425V102.348ZM44.8268 106.242C44.8268 106.451 44.8818 106.627 44.9698 106.77C45.0578 106.913 45.1678 107.023 45.3108 107.111C45.4538 107.199 45.6188 107.254 45.7948 107.287C45.9708 107.331 46.1578 107.342 46.3558 107.342C46.4988 107.342 46.6528 107.331 46.8178 107.309C46.9718 107.287 47.1258 107.254 47.2578 107.188C47.3898 107.133 47.5108 107.045 47.5988 106.935C47.6868 106.825 47.7308 106.671 47.7308 106.495C47.7308 106.253 47.6318 106.077 47.4558 105.945C47.2688 105.824 47.0378 105.725 46.7628 105.648C46.4878 105.571 46.1908 105.505 45.8718 105.439C45.5418 105.373 45.2448 105.285 44.9698 105.175C44.6948 105.065 44.4638 104.9 44.2878 104.691C44.1008 104.493 44.0128 104.207 44.0128 103.833C44.0128 103.547 44.0678 103.305 44.1998 103.096C44.3318 102.898 44.4968 102.733 44.6948 102.601C44.8928 102.469 45.1238 102.381 45.3768 102.315C45.6298 102.249 45.8828 102.216 46.1358 102.216C46.4548 102.216 46.7518 102.249 47.0268 102.304C47.2908 102.359 47.5328 102.458 47.7418 102.59C47.9508 102.722 48.1158 102.909 48.2478 103.14C48.3688 103.371 48.4458 103.657 48.4678 103.998H47.5328C47.5108 103.822 47.4668 103.668 47.3898 103.547C47.3018 103.426 47.2028 103.327 47.0818 103.25C46.9498 103.184 46.8178 103.129 46.6638 103.096C46.5098 103.063 46.3668 103.041 46.2128 103.041C46.0698 103.041 45.9268 103.052 45.7838 103.074C45.6408 103.096 45.5088 103.14 45.3988 103.195C45.2778 103.25 45.1788 103.327 45.1128 103.415C45.0358 103.503 45.0028 103.624 45.0028 103.767C45.0028 103.932 45.0578 104.064 45.1678 104.174C45.2778 104.284 45.4318 104.372 45.6078 104.438C45.7838 104.504 45.9818 104.57 46.2018 104.614C46.4218 104.658 46.6418 104.713 46.8618 104.757C47.0928 104.812 47.3238 104.878 47.5438 104.944C47.7638 105.021 47.9618 105.12 48.1378 105.241C48.3138 105.362 48.4458 105.516 48.5558 105.692C48.6658 105.879 48.7098 106.11 48.7208 106.374C48.7208 106.726 48.6438 107.012 48.5008 107.232C48.3578 107.463 48.1708 107.65 47.9398 107.782C47.7088 107.925 47.4448 108.024 47.1588 108.079C46.8728 108.134 46.5868 108.156 46.3008 108.156C45.9818 108.156 45.6848 108.123 45.3988 108.057C45.1128 107.991 44.8598 107.892 44.6398 107.738C44.4198 107.584 44.2438 107.386 44.1118 107.144C43.9798 106.902 43.9028 106.594 43.8918 106.242H44.8268ZM53.7038 104.647C53.6818 104.427 53.6378 104.218 53.5498 104.02C53.4618 103.822 53.3518 103.657 53.2088 103.514C53.0658 103.371 52.9008 103.261 52.7028 103.173C52.5048 103.085 52.2958 103.052 52.0648 103.041C51.8228 103.041 51.6028 103.085 51.4048 103.173C51.2068 103.261 51.0418 103.371 50.9098 103.514C50.7668 103.668 50.6568 103.833 50.5798 104.031C50.4918 104.229 50.4478 104.427 50.4368 104.647H53.7038ZM54.6058 106.231C54.4738 106.869 54.1988 107.353 53.7808 107.672C53.3518 108.002 52.8128 108.156 52.1748 108.156C51.7128 108.156 51.3168 108.09 50.9868 107.936C50.6568 107.793 50.3708 107.584 50.1508 107.32C49.9198 107.056 49.7438 106.748 49.6338 106.374C49.5238 106.011 49.4578 105.615 49.4468 105.175C49.4468 104.746 49.5128 104.35 49.6448 103.987C49.7768 103.635 49.9528 103.316 50.1948 103.052C50.4368 102.788 50.7118 102.59 51.0418 102.436C51.3718 102.293 51.7238 102.227 52.1198 102.216C52.6258 102.216 53.0438 102.326 53.3738 102.535C53.7038 102.744 53.9788 103.008 54.1768 103.327C54.3748 103.657 54.5178 104.009 54.5948 104.383C54.6718 104.768 54.7048 105.131 54.6938 105.472H50.4368C50.4258 105.725 50.4588 105.967 50.5248 106.187C50.5908 106.407 50.6898 106.605 50.8438 106.781C50.9868 106.957 51.1738 107.089 51.4048 107.188C51.6248 107.298 51.8998 107.342 52.2078 107.342C52.6038 107.342 52.9228 107.254 53.1758 107.067C53.4288 106.891 53.5938 106.605 53.6818 106.231H54.6058ZM56.653 101.325H55.718V100.181H56.653V101.325ZM55.718 102.348H56.653V108.035H55.718V102.348ZM63.0075 107.551C63.0075 108.486 62.7875 109.179 62.3695 109.641C61.9405 110.103 61.2695 110.334 60.3675 110.334C60.1035 110.334 59.8285 110.312 59.5535 110.246C59.2785 110.191 59.0255 110.092 58.8055 109.96C58.5855 109.828 58.3985 109.663 58.2555 109.443C58.1015 109.234 58.0245 108.97 58.0135 108.662H58.9485C58.9485 108.838 59.0035 108.981 59.1025 109.091C59.2015 109.212 59.3225 109.311 59.4655 109.377C59.6085 109.454 59.7625 109.509 59.9385 109.542C60.1035 109.575 60.2685 109.586 60.4225 109.586C60.7305 109.586 60.9835 109.542 61.2035 109.432C61.4125 109.322 61.5885 109.179 61.7315 108.992C61.8635 108.805 61.9625 108.574 62.0285 108.31C62.0945 108.046 62.1165 107.76 62.1275 107.441V107.067H62.1055C61.9405 107.419 61.6985 107.683 61.3685 107.848C61.0385 108.013 60.6975 108.09 60.3345 108.09C59.9055 108.09 59.5315 108.013 59.2235 107.859C58.9045 107.705 58.6405 107.507 58.4315 107.243C58.2115 106.979 58.0575 106.682 57.9475 106.33C57.8375 105.978 57.7935 105.615 57.7935 105.219C57.7935 104.889 57.8375 104.537 57.9255 104.185C58.0135 103.833 58.1565 103.503 58.3655 103.217C58.5635 102.931 58.8385 102.689 59.1795 102.502C59.5095 102.315 59.9275 102.216 60.4225 102.216C60.7745 102.216 61.1045 102.304 61.4125 102.458C61.7095 102.612 61.9405 102.854 62.1165 103.162H62.1275V102.348H63.0075V107.551ZM60.3895 107.276C60.6975 107.276 60.9505 107.221 61.1705 107.089C61.3905 106.957 61.5665 106.792 61.6985 106.583C61.8195 106.374 61.9185 106.132 61.9845 105.868C62.0505 105.604 62.0725 105.34 62.0835 105.076C62.0835 104.834 62.0505 104.581 61.9955 104.339C61.9295 104.097 61.8415 103.888 61.7095 103.69C61.5775 103.492 61.4125 103.338 61.2145 103.217C61.0055 103.107 60.7525 103.052 60.4665 103.041C60.1585 103.041 59.9055 103.107 59.6965 103.217C59.4765 103.327 59.3005 103.481 59.1685 103.668C59.0365 103.866 58.9375 104.086 58.8715 104.328C58.8055 104.581 58.7835 104.845 58.7835 105.109C58.7835 105.373 58.8055 105.626 58.8605 105.879C58.9045 106.143 58.9925 106.374 59.1245 106.583C59.2455 106.792 59.4105 106.957 59.6195 107.089C59.8175 107.221 60.0815 107.276 60.3895 107.276ZM64.4179 102.348H65.2979V103.25H65.3199C65.7049 102.568 66.3209 102.216 67.1679 102.216C67.5419 102.216 67.8499 102.271 68.1029 102.37C68.3449 102.48 68.5539 102.623 68.7079 102.799C68.8509 102.986 68.9609 103.206 69.0269 103.459C69.0929 103.712 69.1149 103.987 69.1259 104.295V108.035H68.1909V104.185C68.1909 103.833 68.0809 103.558 67.8829 103.349C67.6739 103.151 67.3879 103.052 67.0359 103.041C66.7499 103.041 66.4969 103.085 66.2879 103.173C66.0789 103.261 65.9029 103.393 65.7709 103.547C65.6279 103.712 65.5179 103.899 65.4519 104.119C65.3859 104.339 65.3529 104.57 65.3529 104.823V108.035H64.4179V102.348ZM74.4792 104.647C74.4572 104.427 74.4132 104.218 74.3252 104.02C74.2372 103.822 74.1272 103.657 73.9842 103.514C73.8412 103.371 73.6762 103.261 73.4782 103.173C73.2802 103.085 73.0712 103.052 72.8402 103.041C72.5982 103.041 72.3782 103.085 72.1802 103.173C71.9822 103.261 71.8172 103.371 71.6852 103.514C71.5422 103.668 71.4322 103.833 71.3552 104.031C71.2672 104.229 71.2232 104.427 71.2122 104.647H74.4792ZM75.3812 106.231C75.2492 106.869 74.9742 107.353 74.5562 107.672C74.1272 108.002 73.5882 108.156 72.9502 108.156C72.4882 108.156 72.0922 108.09 71.7622 107.936C71.4322 107.793 71.1462 107.584 70.9262 107.32C70.6952 107.056 70.5192 106.748 70.4092 106.374C70.2992 106.011 70.2332 105.615 70.2222 105.175C70.2222 104.746 70.2882 104.35 70.4202 103.987C70.5522 103.635 70.7282 103.316 70.9702 103.052C71.2122 102.788 71.4872 102.59 71.8172 102.436C72.1472 102.293 72.4992 102.227 72.8952 102.216C73.4012 102.216 73.8192 102.326 74.1492 102.535C74.4792 102.744 74.7542 103.008 74.9522 103.327C75.1502 103.657 75.2932 104.009 75.3702 104.383C75.4472 104.768 75.4802 105.131 75.4692 105.472H71.2122C71.2012 105.725 71.2342 105.967 71.3002 106.187C71.3662 106.407 71.4652 106.605 71.6192 106.781C71.7622 106.957 71.9492 107.089 72.1802 107.188C72.4002 107.298 72.6752 107.342 72.9832 107.342C73.3792 107.342 73.6982 107.254 73.9512 107.067C74.2042 106.891 74.3692 106.605 74.4572 106.231H75.3812ZM76.4384 102.348H77.3184V103.184H77.3404C77.7584 102.546 78.3744 102.216 79.1774 102.216C79.5294 102.216 79.8484 102.293 80.1344 102.436C80.4204 102.59 80.6184 102.832 80.7394 103.184C80.9264 102.876 81.1794 102.645 81.4874 102.469C81.7954 102.304 82.1364 102.227 82.5214 102.216C82.8074 102.216 83.0604 102.249 83.2914 102.315C83.5224 102.381 83.7204 102.469 83.8854 102.601C84.0504 102.733 84.1824 102.909 84.2704 103.118C84.3584 103.327 84.4024 103.58 84.4134 103.866V108.035H83.4784V104.306C83.4784 104.13 83.4564 103.965 83.4344 103.811C83.4014 103.657 83.3464 103.525 83.2694 103.415C83.1814 103.305 83.0714 103.206 82.9284 103.14C82.7854 103.074 82.5984 103.041 82.3784 103.041C81.9164 103.041 81.5534 103.173 81.2894 103.437C81.0254 103.701 80.8934 104.053 80.8934 104.493V108.035H79.9584V104.306C79.9584 104.13 79.9364 103.954 79.9034 103.8C79.8704 103.646 79.8154 103.514 79.7384 103.404C79.6504 103.294 79.5404 103.206 79.4084 103.14C79.2764 103.074 79.1004 103.052 78.8914 103.041C78.6164 103.041 78.3854 103.096 78.1874 103.206C77.9894 103.316 77.8354 103.448 77.7144 103.602C77.5934 103.756 77.5054 103.921 77.4504 104.086C77.3954 104.251 77.3734 104.383 77.3734 104.493V108.035H76.4384V102.348ZM89.7653 104.647C89.7433 104.427 89.6993 104.218 89.6113 104.02C89.5233 103.822 89.4133 103.657 89.2703 103.514C89.1273 103.371 88.9623 103.261 88.7643 103.173C88.5663 103.085 88.3573 103.052 88.1263 103.041C87.8843 103.041 87.6643 103.085 87.4663 103.173C87.2683 103.261 87.1033 103.371 86.9713 103.514C86.8283 103.668 86.7183 103.833 86.6413 104.031C86.5533 104.229 86.5093 104.427 86.4983 104.647H89.7653ZM90.6673 106.231C90.5353 106.869 90.2603 107.353 89.8423 107.672C89.4133 108.002 88.8743 108.156 88.2363 108.156C87.7743 108.156 87.3783 108.09 87.0483 107.936C86.7183 107.793 86.4323 107.584 86.2123 107.32C85.9813 107.056 85.8053 106.748 85.6953 106.374C85.5853 106.011 85.5193 105.615 85.5083 105.175C85.5083 104.746 85.5743 104.35 85.7063 103.987C85.8383 103.635 86.0143 103.316 86.2563 103.052C86.4983 102.788 86.7733 102.59 87.1033 102.436C87.4333 102.293 87.7853 102.227 88.1813 102.216C88.6873 102.216 89.1053 102.326 89.4353 102.535C89.7653 102.744 90.0403 103.008 90.2383 103.327C90.4363 103.657 90.5793 104.009 90.6563 104.383C90.7333 104.768 90.7663 105.131 90.7553 105.472H86.4983C86.4873 105.725 86.5203 105.967 86.5863 106.187C86.6523 106.407 86.7513 106.605 86.9053 106.781C87.0483 106.957 87.2353 107.089 87.4663 107.188C87.6863 107.298 87.9613 107.342 88.2693 107.342C88.6653 107.342 88.9843 107.254 89.2373 107.067C89.4903 106.891 89.6553 106.605 89.7433 106.231H90.6673ZM91.7245 102.348H92.6045V103.25H92.6265C93.0115 102.568 93.6275 102.216 94.4745 102.216C94.8485 102.216 95.1565 102.271 95.4095 102.37C95.6515 102.48 95.8605 102.623 96.0145 102.799C96.1575 102.986 96.2675 103.206 96.3335 103.459C96.3995 103.712 96.4215 103.987 96.4325 104.295V108.035H95.4975V104.185C95.4975 103.833 95.3875 103.558 95.1895 103.349C94.9805 103.151 94.6945 103.052 94.3425 103.041C94.0565 103.041 93.8035 103.085 93.5945 103.173C93.3855 103.261 93.2095 103.393 93.0775 103.547C92.9345 103.712 92.8245 103.899 92.7585 104.119C92.6925 104.339 92.6595 104.57 92.6595 104.823V108.035H91.7245V102.348ZM99.1348 102.348H100.268V103.173H99.1348V106.704C99.1348 106.814 99.1348 106.902 99.1568 106.968C99.1788 107.034 99.2118 107.089 99.2668 107.122C99.3108 107.166 99.3878 107.188 99.4758 107.199C99.5638 107.21 99.6848 107.21 99.8388 107.21H100.268V108.035H99.5528C99.3108 108.035 99.1018 108.024 98.9258 107.991C98.7498 107.958 98.6178 107.892 98.5078 107.804C98.3978 107.716 98.3208 107.595 98.2768 107.43C98.2218 107.276 98.1998 107.056 98.1998 106.792V103.173H97.2318V102.348H98.1998V100.643H99.1348V102.348ZM101.879 106.242C101.879 106.451 101.934 106.627 102.022 106.77C102.11 106.913 102.22 107.023 102.363 107.111C102.506 107.199 102.671 107.254 102.847 107.287C103.023 107.331 103.21 107.342 103.408 107.342C103.551 107.342 103.705 107.331 103.87 107.309C104.024 107.287 104.178 107.254 104.31 107.188C104.442 107.133 104.563 107.045 104.651 106.935C104.739 106.825 104.783 106.671 104.783 106.495C104.783 106.253 104.684 106.077 104.508 105.945C104.321 105.824 104.09 105.725 103.815 105.648C103.54 105.571 103.243 105.505 102.924 105.439C102.594 105.373 102.297 105.285 102.022 105.175C101.747 105.065 101.516 104.9 101.34 104.691C101.153 104.493 101.065 104.207 101.065 103.833C101.065 103.547 101.12 103.305 101.252 103.096C101.384 102.898 101.549 102.733 101.747 102.601C101.945 102.469 102.176 102.381 102.429 102.315C102.682 102.249 102.935 102.216 103.188 102.216C103.507 102.216 103.804 102.249 104.079 102.304C104.343 102.359 104.585 102.458 104.794 102.59C105.003 102.722 105.168 102.909 105.3 103.14C105.421 103.371 105.498 103.657 105.52 103.998H104.585C104.563 103.822 104.519 103.668 104.442 103.547C104.354 103.426 104.255 103.327 104.134 103.25C104.002 103.184 103.87 103.129 103.716 103.096C103.562 103.063 103.419 103.041 103.265 103.041C103.122 103.041 102.979 103.052 102.836 103.074C102.693 103.096 102.561 103.14 102.451 103.195C102.33 103.25 102.231 103.327 102.165 103.415C102.088 103.503 102.055 103.624 102.055 103.767C102.055 103.932 102.11 104.064 102.22 104.174C102.33 104.284 102.484 104.372 102.66 104.438C102.836 104.504 103.034 104.57 103.254 104.614C103.474 104.658 103.694 104.713 103.914 104.757C104.145 104.812 104.376 104.878 104.596 104.944C104.816 105.021 105.014 105.12 105.19 105.241C105.366 105.362 105.498 105.516 105.608 105.692C105.718 105.879 105.762 106.11 105.773 106.374C105.773 106.726 105.696 107.012 105.553 107.232C105.41 107.463 105.223 107.65 104.992 107.782C104.761 107.925 104.497 108.024 104.211 108.079C103.925 108.134 103.639 108.156 103.353 108.156C103.034 108.156 102.737 108.123 102.451 108.057C102.165 107.991 101.912 107.892 101.692 107.738C101.472 107.584 101.296 107.386 101.164 107.144C101.032 106.902 100.955 106.594 100.944 106.242H101.879ZM114.774 107.551C114.774 108.486 114.554 109.179 114.136 109.641C113.707 110.103 113.036 110.334 112.134 110.334C111.87 110.334 111.595 110.312 111.32 110.246C111.045 110.191 110.792 110.092 110.572 109.96C110.352 109.828 110.165 109.663 110.022 109.443C109.868 109.234 109.791 108.97 109.78 108.662H110.715C110.715 108.838 110.77 108.981 110.869 109.091C110.968 109.212 111.089 109.311 111.232 109.377C111.375 109.454 111.529 109.509 111.705 109.542C111.87 109.575 112.035 109.586 112.189 109.586C112.497 109.586 112.75 109.542 112.97 109.432C113.179 109.322 113.355 109.179 113.498 108.992C113.63 108.805 113.729 108.574 113.795 108.31C113.861 108.046 113.883 107.76 113.894 107.441V107.067H113.872C113.707 107.419 113.465 107.683 113.135 107.848C112.805 108.013 112.464 108.09 112.101 108.09C111.672 108.09 111.298 108.013 110.99 107.859C110.671 107.705 110.407 107.507 110.198 107.243C109.978 106.979 109.824 106.682 109.714 106.33C109.604 105.978 109.56 105.615 109.56 105.219C109.56 104.889 109.604 104.537 109.692 104.185C109.78 103.833 109.923 103.503 110.132 103.217C110.33 102.931 110.605 102.689 110.946 102.502C111.276 102.315 111.694 102.216 112.189 102.216C112.541 102.216 112.871 102.304 113.179 102.458C113.476 102.612 113.707 102.854 113.883 103.162H113.894V102.348H114.774V107.551ZM112.156 107.276C112.464 107.276 112.717 107.221 112.937 107.089C113.157 106.957 113.333 106.792 113.465 106.583C113.586 106.374 113.685 106.132 113.751 105.868C113.817 105.604 113.839 105.34 113.85 105.076C113.85 104.834 113.817 104.581 113.762 104.339C113.696 104.097 113.608 103.888 113.476 103.69C113.344 103.492 113.179 103.338 112.981 103.217C112.772 103.107 112.519 103.052 112.233 103.041C111.925 103.041 111.672 103.107 111.463 103.217C111.243 103.327 111.067 103.481 110.935 103.668C110.803 103.866 110.704 104.086 110.638 104.328C110.572 104.581 110.55 104.845 110.55 105.109C110.55 105.373 110.572 105.626 110.627 105.879C110.671 106.143 110.759 106.374 110.891 106.583C111.012 106.792 111.177 106.957 111.386 107.089C111.584 107.221 111.848 107.276 112.156 107.276ZM118.714 99.9937H119.913L118.472 101.567H117.768L118.714 99.9937ZM120.133 104.647C120.111 104.427 120.067 104.218 119.979 104.02C119.891 103.822 119.781 103.657 119.638 103.514C119.495 103.371 119.33 103.261 119.132 103.173C118.934 103.085 118.725 103.052 118.494 103.041C118.252 103.041 118.032 103.085 117.834 103.173C117.636 103.261 117.471 103.371 117.339 103.514C117.196 103.668 117.086 103.833 117.009 104.031C116.921 104.229 116.877 104.427 116.866 104.647H120.133ZM121.035 106.231C120.903 106.869 120.628 107.353 120.21 107.672C119.781 108.002 119.242 108.156 118.604 108.156C118.142 108.156 117.746 108.09 117.416 107.936C117.086 107.793 116.8 107.584 116.58 107.32C116.349 107.056 116.173 106.748 116.063 106.374C115.953 106.011 115.887 105.615 115.876 105.175C115.876 104.746 115.942 104.35 116.074 103.987C116.206 103.635 116.382 103.316 116.624 103.052C116.866 102.788 117.141 102.59 117.471 102.436C117.801 102.293 118.153 102.227 118.549 102.216C119.055 102.216 119.473 102.326 119.803 102.535C120.133 102.744 120.408 103.008 120.606 103.327C120.804 103.657 120.947 104.009 121.024 104.383C121.101 104.768 121.134 105.131 121.123 105.472H116.866C116.855 105.725 116.888 105.967 116.954 106.187C117.02 106.407 117.119 106.605 117.273 106.781C117.416 106.957 117.603 107.089 117.834 107.188C118.054 107.298 118.329 107.342 118.637 107.342C119.033 107.342 119.352 107.254 119.605 107.067C119.858 106.891 120.023 106.605 120.111 106.231H121.035ZM122.093 102.348H122.973V103.25H122.995C123.38 102.568 123.996 102.216 124.843 102.216C125.217 102.216 125.525 102.271 125.778 102.37C126.02 102.48 126.229 102.623 126.383 102.799C126.526 102.986 126.636 103.206 126.702 103.459C126.768 103.712 126.79 103.987 126.801 104.295V108.035H125.866V104.185C125.866 103.833 125.756 103.558 125.558 103.349C125.349 103.151 125.063 103.052 124.711 103.041C124.425 103.041 124.172 103.085 123.963 103.173C123.754 103.261 123.578 103.393 123.446 103.547C123.303 103.712 123.193 103.899 123.127 104.119C123.061 104.339 123.028 104.57 123.028 104.823V108.035H122.093V102.348ZM130.735 99.9937H131.934L130.493 101.567H129.789L130.735 99.9937ZM132.154 104.647C132.132 104.427 132.088 104.218 132 104.02C131.912 103.822 131.802 103.657 131.659 103.514C131.516 103.371 131.351 103.261 131.153 103.173C130.955 103.085 130.746 103.052 130.515 103.041C130.273 103.041 130.053 103.085 129.855 103.173C129.657 103.261 129.492 103.371 129.36 103.514C129.217 103.668 129.107 103.833 129.03 104.031C128.942 104.229 128.898 104.427 128.887 104.647H132.154ZM133.056 106.231C132.924 106.869 132.649 107.353 132.231 107.672C131.802 108.002 131.263 108.156 130.625 108.156C130.163 108.156 129.767 108.09 129.437 107.936C129.107 107.793 128.821 107.584 128.601 107.32C128.37 107.056 128.194 106.748 128.084 106.374C127.974 106.011 127.908 105.615 127.897 105.175C127.897 104.746 127.963 104.35 128.095 103.987C128.227 103.635 128.403 103.316 128.645 103.052C128.887 102.788 129.162 102.59 129.492 102.436C129.822 102.293 130.174 102.227 130.57 102.216C131.076 102.216 131.494 102.326 131.824 102.535C132.154 102.744 132.429 103.008 132.627 103.327C132.825 103.657 132.968 104.009 133.045 104.383C133.122 104.768 133.155 105.131 133.144 105.472H128.887C128.876 105.725 128.909 105.967 128.975 106.187C129.041 106.407 129.14 106.605 129.294 106.781C129.437 106.957 129.624 107.089 129.855 107.188C130.075 107.298 130.35 107.342 130.658 107.342C131.054 107.342 131.373 107.254 131.626 107.067C131.879 106.891 132.044 106.605 132.132 106.231H133.056ZM134.08 102.348H134.96V103.547H134.982C135.202 103.085 135.488 102.744 135.818 102.524C136.148 102.304 136.566 102.205 137.072 102.216V103.206C136.698 103.206 136.379 103.261 136.115 103.36C135.851 103.47 135.631 103.613 135.477 103.811C135.312 104.009 135.191 104.251 135.125 104.537C135.048 104.823 135.015 105.142 135.015 105.505V108.035H134.08V102.348ZM142.814 108.013C142.649 108.112 142.429 108.156 142.143 108.156C141.901 108.156 141.703 108.09 141.56 107.958C141.417 107.826 141.351 107.595 141.351 107.287C141.087 107.595 140.79 107.826 140.449 107.958C140.108 108.09 139.745 108.156 139.349 108.156C139.085 108.156 138.843 108.134 138.623 108.079C138.392 108.024 138.194 107.936 138.018 107.804C137.842 107.672 137.71 107.507 137.611 107.309C137.512 107.111 137.468 106.858 137.468 106.572C137.468 106.253 137.523 105.989 137.633 105.78C137.743 105.582 137.886 105.417 138.062 105.285C138.238 105.153 138.447 105.054 138.678 104.988C138.909 104.922 139.151 104.867 139.393 104.823C139.646 104.779 139.888 104.735 140.119 104.713C140.35 104.691 140.559 104.647 140.735 104.603C140.911 104.559 141.043 104.482 141.153 104.394C141.252 104.306 141.307 104.163 141.307 103.987C141.307 103.789 141.263 103.624 141.186 103.492C141.109 103.371 141.01 103.272 140.889 103.206C140.768 103.14 140.636 103.096 140.482 103.074C140.328 103.052 140.185 103.041 140.042 103.041C139.646 103.041 139.316 103.118 139.052 103.272C138.788 103.426 138.645 103.701 138.623 104.119H137.688C137.699 103.767 137.776 103.47 137.908 103.228C138.04 102.986 138.216 102.799 138.436 102.645C138.656 102.491 138.909 102.392 139.195 102.315C139.481 102.249 139.778 102.216 140.097 102.216C140.35 102.216 140.603 102.238 140.856 102.271C141.109 102.315 141.34 102.392 141.549 102.502C141.747 102.612 141.912 102.777 142.044 102.975C142.165 103.184 142.231 103.448 142.231 103.778V106.704C142.231 106.924 142.242 107.089 142.264 107.188C142.286 107.298 142.374 107.342 142.528 107.342C142.605 107.342 142.704 107.331 142.814 107.287V108.013ZM141.296 105.098C141.175 105.186 141.021 105.252 140.834 105.296C140.636 105.34 140.438 105.373 140.229 105.395C140.02 105.417 139.811 105.45 139.602 105.483C139.382 105.516 139.195 105.571 139.03 105.637C138.854 105.714 138.722 105.824 138.612 105.956C138.502 106.088 138.458 106.275 138.458 106.506C138.458 106.66 138.48 106.792 138.546 106.902C138.612 107.012 138.689 107.089 138.788 107.155C138.887 107.221 139.008 107.276 139.14 107.298C139.272 107.331 139.415 107.342 139.558 107.342C139.866 107.342 140.13 107.309 140.35 107.221C140.57 107.133 140.746 107.034 140.889 106.902C141.021 106.77 141.12 106.638 141.197 106.484C141.263 106.33 141.296 106.187 141.296 106.055V105.098ZM148.392 108.035H147.512V107.133H147.49C147.292 107.485 147.039 107.749 146.731 107.914C146.423 108.079 146.06 108.156 145.642 108.156C145.268 108.156 144.949 108.112 144.707 108.013C144.454 107.914 144.256 107.771 144.102 107.584C143.948 107.408 143.838 107.188 143.772 106.935C143.706 106.682 143.684 106.396 143.684 106.088V102.348H144.619V106.198C144.619 106.55 144.718 106.836 144.927 107.034C145.125 107.243 145.411 107.342 145.774 107.342C146.06 107.342 146.302 107.298 146.511 107.21C146.72 107.122 146.896 107.001 147.039 106.836C147.171 106.682 147.281 106.495 147.347 106.275C147.413 106.055 147.457 105.824 147.457 105.56V102.348H148.392V108.035ZM151.326 105.043L149.346 102.348H150.545L151.909 104.339L153.328 102.348H154.45L152.492 104.966L154.692 108.035H153.493L151.909 105.681L150.325 108.035H149.192L151.326 105.043Z" fill="#727372"/>
<path d="M196.78 109.351V108.105C196.146 107.955 195.609 107.671 195.17 107.251C194.732 106.831 194.41 106.317 194.204 105.711L195.73 105.151C195.922 105.585 196.188 105.942 196.528 106.222C196.874 106.497 197.266 106.635 197.704 106.635C198.152 106.635 198.512 106.52 198.782 106.292C199.053 106.058 199.188 105.725 199.188 105.291C199.188 104.978 199.1 104.717 198.922 104.507C198.745 104.297 198.512 104.117 198.222 103.968C197.938 103.818 197.63 103.681 197.298 103.555C196.976 103.433 196.654 103.298 196.332 103.149C196.01 102.995 195.716 102.81 195.45 102.596C195.184 102.376 194.97 102.108 194.806 101.791C194.648 101.469 194.568 101.077 194.568 100.615C194.568 100.027 194.757 99.5017 195.135 99.0397C195.518 98.573 196.066 98.2767 196.78 98.1507V97.0307H198.404V98.1647C198.964 98.2907 199.419 98.5333 199.769 98.8927C200.119 99.2473 200.364 99.6627 200.504 100.139L199.006 100.643C198.894 100.367 198.712 100.132 198.46 99.9357C198.208 99.735 197.882 99.6347 197.48 99.6347C197.102 99.6347 196.804 99.721 196.584 99.8937C196.37 100.066 196.262 100.307 196.262 100.615C196.262 100.862 196.342 101.07 196.5 101.238C196.659 101.406 196.871 101.553 197.137 101.679C197.403 101.805 197.695 101.926 198.012 102.043C198.344 102.164 198.677 102.306 199.013 102.47C199.354 102.628 199.664 102.829 199.944 103.072C200.229 103.31 200.458 103.608 200.63 103.968C200.808 104.327 200.896 104.763 200.896 105.277C200.896 105.813 200.787 106.282 200.567 106.684C200.348 107.08 200.049 107.402 199.671 107.65C199.298 107.892 198.876 108.053 198.404 108.133V109.351H196.78ZM202.887 108.035C202.887 107.33 202.974 106.712 203.146 106.18C203.319 105.643 203.555 105.174 203.853 104.773C204.157 104.367 204.502 104.01 204.889 103.702C205.281 103.394 205.692 103.116 206.121 102.869C206.397 102.71 206.653 102.54 206.891 102.358C207.129 102.176 207.321 101.973 207.465 101.749C207.615 101.52 207.689 101.259 207.689 100.965C207.689 100.559 207.563 100.237 207.311 99.9987C207.059 99.756 206.719 99.6347 206.289 99.6347C205.837 99.6347 205.461 99.7443 205.162 99.9637C204.868 100.183 204.647 100.479 204.497 100.853L203.013 100.181C203.177 99.7607 203.417 99.392 203.734 99.0747C204.052 98.7573 204.425 98.51 204.854 98.3327C205.288 98.1553 205.757 98.0667 206.261 98.0667C206.915 98.0667 207.472 98.1927 207.934 98.4447C208.401 98.692 208.756 99.0327 208.998 99.4667C209.246 99.896 209.369 100.381 209.369 100.923C209.369 101.52 209.257 102.017 209.033 102.414C208.809 102.806 208.506 103.146 208.123 103.436C207.741 103.725 207.311 104.007 206.835 104.283C206.495 104.479 206.187 104.686 205.911 104.906C205.636 105.125 205.405 105.363 205.218 105.62C205.032 105.872 204.903 106.145 204.833 106.439H209.453V108.035H202.887ZM222.129 108.035C222.129 106.915 222.234 105.862 222.444 104.878C222.654 103.893 222.985 102.948 223.438 102.043C223.895 101.133 224.495 100.232 225.237 99.3407L225.671 99.8027H220.099V98.2347H226.763V99.6487C226.189 100.279 225.708 100.967 225.321 101.714C224.938 102.456 224.635 103.212 224.411 103.982C224.187 104.747 224.026 105.48 223.928 106.18C223.83 106.875 223.781 107.493 223.781 108.035H222.129ZM231.736 108.203C231.251 108.203 230.814 108.151 230.427 108.049C230.044 107.946 229.711 107.818 229.426 107.664C229.146 107.505 228.917 107.344 228.74 107.181L229.65 105.893C229.902 106.079 230.187 106.25 230.504 106.404C230.821 106.558 231.232 106.635 231.736 106.635C232.123 106.635 232.464 106.56 232.758 106.411C233.052 106.257 233.281 106.042 233.444 105.767C233.612 105.487 233.696 105.16 233.696 104.787C233.696 104.46 233.638 104.173 233.521 103.926C233.404 103.678 233.232 103.485 233.003 103.345C232.779 103.205 232.506 103.135 232.184 103.135C231.815 103.135 231.503 103.207 231.246 103.352C230.989 103.492 230.765 103.667 230.574 103.877L229.048 103.205L229.44 98.2347H234.788V99.8167H230.952L230.728 102.001C230.938 101.865 231.174 101.758 231.435 101.679C231.696 101.595 231.983 101.553 232.296 101.553C232.959 101.553 233.519 101.697 233.976 101.987C234.433 102.276 234.781 102.666 235.019 103.156C235.257 103.641 235.376 104.18 235.376 104.773C235.376 105.277 235.287 105.739 235.11 106.159C234.933 106.579 234.681 106.94 234.354 107.244C234.032 107.547 233.649 107.783 233.206 107.951C232.763 108.119 232.273 108.203 231.736 108.203ZM240.685 108.203C239.999 108.203 239.427 108.056 238.97 107.762C238.513 107.463 238.151 107.069 237.885 106.579C237.619 106.084 237.428 105.538 237.311 104.941C237.199 104.343 237.143 103.741 237.143 103.135C237.143 102.668 237.176 102.197 237.241 101.721C237.311 101.24 237.425 100.783 237.584 100.349C237.747 99.9147 237.964 99.525 238.235 99.1797C238.506 98.8343 238.842 98.5637 239.243 98.3677C239.649 98.167 240.13 98.0667 240.685 98.0667C241.376 98.0667 241.95 98.2137 242.407 98.5077C242.864 98.8017 243.226 99.196 243.492 99.6907C243.763 100.181 243.954 100.724 244.066 101.322C244.183 101.919 244.241 102.523 244.241 103.135C244.241 103.601 244.206 104.075 244.136 104.556C244.066 105.032 243.949 105.487 243.786 105.921C243.627 106.355 243.41 106.744 243.135 107.09C242.864 107.435 242.526 107.708 242.12 107.909C241.719 108.105 241.24 108.203 240.685 108.203ZM240.685 106.635C241.058 106.635 241.366 106.534 241.609 106.334C241.852 106.128 242.041 105.855 242.176 105.515C242.316 105.174 242.414 104.798 242.47 104.388C242.531 103.972 242.561 103.555 242.561 103.135C242.561 102.701 242.531 102.276 242.47 101.861C242.409 101.445 242.309 101.07 242.169 100.734C242.029 100.398 241.838 100.132 241.595 99.9357C241.352 99.735 241.049 99.6347 240.685 99.6347C240.316 99.6347 240.008 99.7373 239.761 99.9427C239.518 100.143 239.327 100.414 239.187 100.755C239.052 101.095 238.954 101.473 238.893 101.889C238.837 102.299 238.809 102.715 238.809 103.135C238.809 103.569 238.837 103.993 238.893 104.409C238.954 104.824 239.054 105.2 239.194 105.536C239.334 105.872 239.525 106.14 239.768 106.341C240.011 106.537 240.316 106.635 240.685 106.635ZM240.685 104.129C240.405 104.129 240.172 104.033 239.985 103.842C239.798 103.65 239.705 103.415 239.705 103.135C239.705 102.859 239.798 102.628 239.985 102.442C240.172 102.25 240.405 102.155 240.685 102.155C240.965 102.155 241.201 102.25 241.392 102.442C241.583 102.628 241.679 102.859 241.679 103.135C241.679 103.415 241.583 103.65 241.392 103.842C241.201 104.033 240.965 104.129 240.685 104.129Z" fill="#242D38"/>
<circle cx="8" cy="134.035" r="8" fill="#002554"/>
<path d="M24.858 130.181H28.554C29.302 130.181 29.885 130.368 30.303 130.731C30.721 131.105 30.93 131.6 30.941 132.238C30.941 132.722 30.831 133.14 30.611 133.492C30.391 133.855 30.05 134.097 29.577 134.229V134.251C29.797 134.295 29.984 134.372 30.127 134.471C30.27 134.581 30.38 134.702 30.468 134.845C30.556 134.988 30.611 135.142 30.655 135.318C30.699 135.494 30.732 135.681 30.754 135.868C30.765 136.066 30.776 136.253 30.787 136.451C30.787 136.649 30.809 136.847 30.842 137.034C30.864 137.232 30.908 137.408 30.963 137.584C31.018 137.76 31.106 137.903 31.216 138.035H30.05C29.973 137.958 29.918 137.848 29.896 137.705C29.874 137.573 29.852 137.419 29.852 137.243C29.841 137.067 29.83 136.88 29.83 136.682C29.819 136.484 29.797 136.297 29.764 136.099C29.731 135.912 29.698 135.736 29.654 135.56C29.61 135.384 29.533 135.241 29.445 135.109C29.346 134.977 29.225 134.878 29.071 134.801C28.917 134.724 28.708 134.68 28.455 134.68H25.903V138.035H24.858V130.181ZM28.081 133.8C28.323 133.8 28.554 133.789 28.774 133.745C28.994 133.712 29.181 133.646 29.346 133.536C29.511 133.426 29.643 133.283 29.742 133.107C29.841 132.931 29.896 132.689 29.896 132.403C29.896 132.007 29.786 131.688 29.566 131.435C29.346 131.193 28.983 131.061 28.499 131.061H25.903V133.8H28.081ZM36.1833 134.647C36.1613 134.427 36.1173 134.218 36.0293 134.02C35.9413 133.822 35.8313 133.657 35.6883 133.514C35.5453 133.371 35.3803 133.261 35.1823 133.173C34.9843 133.085 34.7753 133.052 34.5443 133.041C34.3023 133.041 34.0823 133.085 33.8843 133.173C33.6863 133.261 33.5213 133.371 33.3893 133.514C33.2463 133.668 33.1363 133.833 33.0593 134.031C32.9713 134.229 32.9273 134.427 32.9163 134.647H36.1833ZM37.0853 136.231C36.9533 136.869 36.6783 137.353 36.2603 137.672C35.8313 138.002 35.2923 138.156 34.6543 138.156C34.1923 138.156 33.7963 138.09 33.4663 137.936C33.1363 137.793 32.8503 137.584 32.6303 137.32C32.3993 137.056 32.2233 136.748 32.1133 136.374C32.0033 136.011 31.9373 135.615 31.9263 135.175C31.9263 134.746 31.9923 134.35 32.1243 133.987C32.2563 133.635 32.4323 133.316 32.6743 133.052C32.9163 132.788 33.1913 132.59 33.5213 132.436C33.8513 132.293 34.2033 132.227 34.5993 132.216C35.1053 132.216 35.5233 132.326 35.8533 132.535C36.1833 132.744 36.4583 133.008 36.6563 133.327C36.8543 133.657 36.9973 134.009 37.0743 134.383C37.1513 134.768 37.1843 135.131 37.1733 135.472H32.9163C32.9053 135.725 32.9383 135.967 33.0043 136.187C33.0703 136.407 33.1693 136.605 33.3233 136.781C33.4663 136.957 33.6533 137.089 33.8843 137.188C34.1043 137.298 34.3793 137.342 34.6873 137.342C35.0833 137.342 35.4023 137.254 35.6553 137.067C35.9083 136.891 36.0733 136.605 36.1613 136.231H37.0853ZM38.1425 132.348H39.0225V133.25H39.0445C39.4295 132.568 40.0455 132.216 40.8925 132.216C41.2665 132.216 41.5745 132.271 41.8275 132.37C42.0695 132.48 42.2785 132.623 42.4325 132.799C42.5755 132.986 42.6855 133.206 42.7515 133.459C42.8175 133.712 42.8395 133.987 42.8505 134.295V138.035H41.9155V134.185C41.9155 133.833 41.8055 133.558 41.6075 133.349C41.3985 133.151 41.1125 133.052 40.7605 133.041C40.4745 133.041 40.2215 133.085 40.0125 133.173C39.8035 133.261 39.6275 133.393 39.4955 133.547C39.3525 133.712 39.2425 133.899 39.1765 134.119C39.1105 134.339 39.0775 134.57 39.0775 134.823V138.035H38.1425V132.348ZM44.8268 136.242C44.8268 136.451 44.8818 136.627 44.9698 136.77C45.0578 136.913 45.1678 137.023 45.3108 137.111C45.4538 137.199 45.6188 137.254 45.7948 137.287C45.9708 137.331 46.1578 137.342 46.3558 137.342C46.4988 137.342 46.6528 137.331 46.8178 137.309C46.9718 137.287 47.1258 137.254 47.2578 137.188C47.3898 137.133 47.5108 137.045 47.5988 136.935C47.6868 136.825 47.7308 136.671 47.7308 136.495C47.7308 136.253 47.6318 136.077 47.4558 135.945C47.2688 135.824 47.0378 135.725 46.7628 135.648C46.4878 135.571 46.1908 135.505 45.8718 135.439C45.5418 135.373 45.2448 135.285 44.9698 135.175C44.6948 135.065 44.4638 134.9 44.2878 134.691C44.1008 134.493 44.0128 134.207 44.0128 133.833C44.0128 133.547 44.0678 133.305 44.1998 133.096C44.3318 132.898 44.4968 132.733 44.6948 132.601C44.8928 132.469 45.1238 132.381 45.3768 132.315C45.6298 132.249 45.8828 132.216 46.1358 132.216C46.4548 132.216 46.7518 132.249 47.0268 132.304C47.2908 132.359 47.5328 132.458 47.7418 132.59C47.9508 132.722 48.1158 132.909 48.2478 133.14C48.3688 133.371 48.4458 133.657 48.4678 133.998H47.5328C47.5108 133.822 47.4668 133.668 47.3898 133.547C47.3018 133.426 47.2028 133.327 47.0818 133.25C46.9498 133.184 46.8178 133.129 46.6638 133.096C46.5098 133.063 46.3668 133.041 46.2128 133.041C46.0698 133.041 45.9268 133.052 45.7838 133.074C45.6408 133.096 45.5088 133.14 45.3988 133.195C45.2778 133.25 45.1788 133.327 45.1128 133.415C45.0358 133.503 45.0028 133.624 45.0028 133.767C45.0028 133.932 45.0578 134.064 45.1678 134.174C45.2778 134.284 45.4318 134.372 45.6078 134.438C45.7838 134.504 45.9818 134.57 46.2018 134.614C46.4218 134.658 46.6418 134.713 46.8618 134.757C47.0928 134.812 47.3238 134.878 47.5438 134.944C47.7638 135.021 47.9618 135.12 48.1378 135.241C48.3138 135.362 48.4458 135.516 48.5558 135.692C48.6658 135.879 48.7098 136.11 48.7208 136.374C48.7208 136.726 48.6438 137.012 48.5008 137.232C48.3578 137.463 48.1708 137.65 47.9398 137.782C47.7088 137.925 47.4448 138.024 47.1588 138.079C46.8728 138.134 46.5868 138.156 46.3008 138.156C45.9818 138.156 45.6848 138.123 45.3988 138.057C45.1128 137.991 44.8598 137.892 44.6398 137.738C44.4198 137.584 44.2438 137.386 44.1118 137.144C43.9798 136.902 43.9028 136.594 43.8918 136.242H44.8268ZM53.7038 134.647C53.6818 134.427 53.6378 134.218 53.5498 134.02C53.4618 133.822 53.3518 133.657 53.2088 133.514C53.0658 133.371 52.9008 133.261 52.7028 133.173C52.5048 133.085 52.2958 133.052 52.0648 133.041C51.8228 133.041 51.6028 133.085 51.4048 133.173C51.2068 133.261 51.0418 133.371 50.9098 133.514C50.7668 133.668 50.6568 133.833 50.5798 134.031C50.4918 134.229 50.4478 134.427 50.4368 134.647H53.7038ZM54.6058 136.231C54.4738 136.869 54.1988 137.353 53.7808 137.672C53.3518 138.002 52.8128 138.156 52.1748 138.156C51.7128 138.156 51.3168 138.09 50.9868 137.936C50.6568 137.793 50.3708 137.584 50.1508 137.32C49.9198 137.056 49.7438 136.748 49.6338 136.374C49.5238 136.011 49.4578 135.615 49.4468 135.175C49.4468 134.746 49.5128 134.35 49.6448 133.987C49.7768 133.635 49.9528 133.316 50.1948 133.052C50.4368 132.788 50.7118 132.59 51.0418 132.436C51.3718 132.293 51.7238 132.227 52.1198 132.216C52.6258 132.216 53.0438 132.326 53.3738 132.535C53.7038 132.744 53.9788 133.008 54.1768 133.327C54.3748 133.657 54.5178 134.009 54.5948 134.383C54.6718 134.768 54.7048 135.131 54.6938 135.472H50.4368C50.4258 135.725 50.4588 135.967 50.5248 136.187C50.5908 136.407 50.6898 136.605 50.8438 136.781C50.9868 136.957 51.1738 137.089 51.4048 137.188C51.6248 137.298 51.8998 137.342 52.2078 137.342C52.6038 137.342 52.9228 137.254 53.1758 137.067C53.4288 136.891 53.5938 136.605 53.6818 136.231H54.6058ZM56.653 131.325H55.718V130.181H56.653V131.325ZM55.718 132.348H56.653V138.035H55.718V132.348ZM63.0075 137.551C63.0075 138.486 62.7875 139.179 62.3695 139.641C61.9405 140.103 61.2695 140.334 60.3675 140.334C60.1035 140.334 59.8285 140.312 59.5535 140.246C59.2785 140.191 59.0255 140.092 58.8055 139.96C58.5855 139.828 58.3985 139.663 58.2555 139.443C58.1015 139.234 58.0245 138.97 58.0135 138.662H58.9485C58.9485 138.838 59.0035 138.981 59.1025 139.091C59.2015 139.212 59.3225 139.311 59.4655 139.377C59.6085 139.454 59.7625 139.509 59.9385 139.542C60.1035 139.575 60.2685 139.586 60.4225 139.586C60.7305 139.586 60.9835 139.542 61.2035 139.432C61.4125 139.322 61.5885 139.179 61.7315 138.992C61.8635 138.805 61.9625 138.574 62.0285 138.31C62.0945 138.046 62.1165 137.76 62.1275 137.441V137.067H62.1055C61.9405 137.419 61.6985 137.683 61.3685 137.848C61.0385 138.013 60.6975 138.09 60.3345 138.09C59.9055 138.09 59.5315 138.013 59.2235 137.859C58.9045 137.705 58.6405 137.507 58.4315 137.243C58.2115 136.979 58.0575 136.682 57.9475 136.33C57.8375 135.978 57.7935 135.615 57.7935 135.219C57.7935 134.889 57.8375 134.537 57.9255 134.185C58.0135 133.833 58.1565 133.503 58.3655 133.217C58.5635 132.931 58.8385 132.689 59.1795 132.502C59.5095 132.315 59.9275 132.216 60.4225 132.216C60.7745 132.216 61.1045 132.304 61.4125 132.458C61.7095 132.612 61.9405 132.854 62.1165 133.162H62.1275V132.348H63.0075V137.551ZM60.3895 137.276C60.6975 137.276 60.9505 137.221 61.1705 137.089C61.3905 136.957 61.5665 136.792 61.6985 136.583C61.8195 136.374 61.9185 136.132 61.9845 135.868C62.0505 135.604 62.0725 135.34 62.0835 135.076C62.0835 134.834 62.0505 134.581 61.9955 134.339C61.9295 134.097 61.8415 133.888 61.7095 133.69C61.5775 133.492 61.4125 133.338 61.2145 133.217C61.0055 133.107 60.7525 133.052 60.4665 133.041C60.1585 133.041 59.9055 133.107 59.6965 133.217C59.4765 133.327 59.3005 133.481 59.1685 133.668C59.0365 133.866 58.9375 134.086 58.8715 134.328C58.8055 134.581 58.7835 134.845 58.7835 135.109C58.7835 135.373 58.8055 135.626 58.8605 135.879C58.9045 136.143 58.9925 136.374 59.1245 136.583C59.2455 136.792 59.4105 136.957 59.6195 137.089C59.8175 137.221 60.0815 137.276 60.3895 137.276ZM64.4179 132.348H65.2979V133.25H65.3199C65.7049 132.568 66.3209 132.216 67.1679 132.216C67.5419 132.216 67.8499 132.271 68.1029 132.37C68.3449 132.48 68.5539 132.623 68.7079 132.799C68.8509 132.986 68.9609 133.206 69.0269 133.459C69.0929 133.712 69.1149 133.987 69.1259 134.295V138.035H68.1909V134.185C68.1909 133.833 68.0809 133.558 67.8829 133.349C67.6739 133.151 67.3879 133.052 67.0359 133.041C66.7499 133.041 66.4969 133.085 66.2879 133.173C66.0789 133.261 65.9029 133.393 65.7709 133.547C65.6279 133.712 65.5179 133.899 65.4519 134.119C65.3859 134.339 65.3529 134.57 65.3529 134.823V138.035H64.4179V132.348ZM74.4792 134.647C74.4572 134.427 74.4132 134.218 74.3252 134.02C74.2372 133.822 74.1272 133.657 73.9842 133.514C73.8412 133.371 73.6762 133.261 73.4782 133.173C73.2802 133.085 73.0712 133.052 72.8402 133.041C72.5982 133.041 72.3782 133.085 72.1802 133.173C71.9822 133.261 71.8172 133.371 71.6852 133.514C71.5422 133.668 71.4322 133.833 71.3552 134.031C71.2672 134.229 71.2232 134.427 71.2122 134.647H74.4792ZM75.3812 136.231C75.2492 136.869 74.9742 137.353 74.5562 137.672C74.1272 138.002 73.5882 138.156 72.9502 138.156C72.4882 138.156 72.0922 138.09 71.7622 137.936C71.4322 137.793 71.1462 137.584 70.9262 137.32C70.6952 137.056 70.5192 136.748 70.4092 136.374C70.2992 136.011 70.2332 135.615 70.2222 135.175C70.2222 134.746 70.2882 134.35 70.4202 133.987C70.5522 133.635 70.7282 133.316 70.9702 133.052C71.2122 132.788 71.4872 132.59 71.8172 132.436C72.1472 132.293 72.4992 132.227 72.8952 132.216C73.4012 132.216 73.8192 132.326 74.1492 132.535C74.4792 132.744 74.7542 133.008 74.9522 133.327C75.1502 133.657 75.2932 134.009 75.3702 134.383C75.4472 134.768 75.4802 135.131 75.4692 135.472H71.2122C71.2012 135.725 71.2342 135.967 71.3002 136.187C71.3662 136.407 71.4652 136.605 71.6192 136.781C71.7622 136.957 71.9492 137.089 72.1802 137.188C72.4002 137.298 72.6752 137.342 72.9832 137.342C73.3792 137.342 73.6982 137.254 73.9512 137.067C74.2042 136.891 74.3692 136.605 74.4572 136.231H75.3812ZM76.4384 132.348H77.3184V133.184H77.3404C77.7584 132.546 78.3744 132.216 79.1774 132.216C79.5294 132.216 79.8484 132.293 80.1344 132.436C80.4204 132.59 80.6184 132.832 80.7394 133.184C80.9264 132.876 81.1794 132.645 81.4874 132.469C81.7954 132.304 82.1364 132.227 82.5214 132.216C82.8074 132.216 83.0604 132.249 83.2914 132.315C83.5224 132.381 83.7204 132.469 83.8854 132.601C84.0504 132.733 84.1824 132.909 84.2704 133.118C84.3584 133.327 84.4024 133.58 84.4134 133.866V138.035H83.4784V134.306C83.4784 134.13 83.4564 133.965 83.4344 133.811C83.4014 133.657 83.3464 133.525 83.2694 133.415C83.1814 133.305 83.0714 133.206 82.9284 133.14C82.7854 133.074 82.5984 133.041 82.3784 133.041C81.9164 133.041 81.5534 133.173 81.2894 133.437C81.0254 133.701 80.8934 134.053 80.8934 134.493V138.035H79.9584V134.306C79.9584 134.13 79.9364 133.954 79.9034 133.8C79.8704 133.646 79.8154 133.514 79.7384 133.404C79.6504 133.294 79.5404 133.206 79.4084 133.14C79.2764 133.074 79.1004 133.052 78.8914 133.041C78.6164 133.041 78.3854 133.096 78.1874 133.206C77.9894 133.316 77.8354 133.448 77.7144 133.602C77.5934 133.756 77.5054 133.921 77.4504 134.086C77.3954 134.251 77.3734 134.383 77.3734 134.493V138.035H76.4384V132.348ZM89.7653 134.647C89.7433 134.427 89.6993 134.218 89.6113 134.02C89.5233 133.822 89.4133 133.657 89.2703 133.514C89.1273 133.371 88.9623 133.261 88.7643 133.173C88.5663 133.085 88.3573 133.052 88.1263 133.041C87.8843 133.041 87.6643 133.085 87.4663 133.173C87.2683 133.261 87.1033 133.371 86.9713 133.514C86.8283 133.668 86.7183 133.833 86.6413 134.031C86.5533 134.229 86.5093 134.427 86.4983 134.647H89.7653ZM90.6673 136.231C90.5353 136.869 90.2603 137.353 89.8423 137.672C89.4133 138.002 88.8743 138.156 88.2363 138.156C87.7743 138.156 87.3783 138.09 87.0483 137.936C86.7183 137.793 86.4323 137.584 86.2123 137.32C85.9813 137.056 85.8053 136.748 85.6953 136.374C85.5853 136.011 85.5193 135.615 85.5083 135.175C85.5083 134.746 85.5743 134.35 85.7063 133.987C85.8383 133.635 86.0143 133.316 86.2563 133.052C86.4983 132.788 86.7733 132.59 87.1033 132.436C87.4333 132.293 87.7853 132.227 88.1813 132.216C88.6873 132.216 89.1053 132.326 89.4353 132.535C89.7653 132.744 90.0403 133.008 90.2383 133.327C90.4363 133.657 90.5793 134.009 90.6563 134.383C90.7333 134.768 90.7663 135.131 90.7553 135.472H86.4983C86.4873 135.725 86.5203 135.967 86.5863 136.187C86.6523 136.407 86.7513 136.605 86.9053 136.781C87.0483 136.957 87.2353 137.089 87.4663 137.188C87.6863 137.298 87.9613 137.342 88.2693 137.342C88.6653 137.342 88.9843 137.254 89.2373 137.067C89.4903 136.891 89.6553 136.605 89.7433 136.231H90.6673ZM91.7245 132.348H92.6045V133.25H92.6265C93.0115 132.568 93.6275 132.216 94.4745 132.216C94.8485 132.216 95.1565 132.271 95.4095 132.37C95.6515 132.48 95.8605 132.623 96.0145 132.799C96.1575 132.986 96.2675 133.206 96.3335 133.459C96.3995 133.712 96.4215 133.987 96.4325 134.295V138.035H95.4975V134.185C95.4975 133.833 95.3875 133.558 95.1895 133.349C94.9805 133.151 94.6945 133.052 94.3425 133.041C94.0565 133.041 93.8035 133.085 93.5945 133.173C93.3855 133.261 93.2095 133.393 93.0775 133.547C92.9345 133.712 92.8245 133.899 92.7585 134.119C92.6925 134.339 92.6595 134.57 92.6595 134.823V138.035H91.7245V132.348ZM99.1348 132.348H100.268V133.173H99.1348V136.704C99.1348 136.814 99.1348 136.902 99.1568 136.968C99.1788 137.034 99.2118 137.089 99.2668 137.122C99.3108 137.166 99.3878 137.188 99.4758 137.199C99.5638 137.21 99.6848 137.21 99.8388 137.21H100.268V138.035H99.5528C99.3108 138.035 99.1018 138.024 98.9258 137.991C98.7498 137.958 98.6178 137.892 98.5078 137.804C98.3978 137.716 98.3208 137.595 98.2768 137.43C98.2218 137.276 98.1998 137.056 98.1998 136.792V133.173H97.2318V132.348H98.1998V130.643H99.1348V132.348ZM101.879 136.242C101.879 136.451 101.934 136.627 102.022 136.77C102.11 136.913 102.22 137.023 102.363 137.111C102.506 137.199 102.671 137.254 102.847 137.287C103.023 137.331 103.21 137.342 103.408 137.342C103.551 137.342 103.705 137.331 103.87 137.309C104.024 137.287 104.178 137.254 104.31 137.188C104.442 137.133 104.563 137.045 104.651 136.935C104.739 136.825 104.783 136.671 104.783 136.495C104.783 136.253 104.684 136.077 104.508 135.945C104.321 135.824 104.09 135.725 103.815 135.648C103.54 135.571 103.243 135.505 102.924 135.439C102.594 135.373 102.297 135.285 102.022 135.175C101.747 135.065 101.516 134.9 101.34 134.691C101.153 134.493 101.065 134.207 101.065 133.833C101.065 133.547 101.12 133.305 101.252 133.096C101.384 132.898 101.549 132.733 101.747 132.601C101.945 132.469 102.176 132.381 102.429 132.315C102.682 132.249 102.935 132.216 103.188 132.216C103.507 132.216 103.804 132.249 104.079 132.304C104.343 132.359 104.585 132.458 104.794 132.59C105.003 132.722 105.168 132.909 105.3 133.14C105.421 133.371 105.498 133.657 105.52 133.998H104.585C104.563 133.822 104.519 133.668 104.442 133.547C104.354 133.426 104.255 133.327 104.134 133.25C104.002 133.184 103.87 133.129 103.716 133.096C103.562 133.063 103.419 133.041 103.265 133.041C103.122 133.041 102.979 133.052 102.836 133.074C102.693 133.096 102.561 133.14 102.451 133.195C102.33 133.25 102.231 133.327 102.165 133.415C102.088 133.503 102.055 133.624 102.055 133.767C102.055 133.932 102.11 134.064 102.22 134.174C102.33 134.284 102.484 134.372 102.66 134.438C102.836 134.504 103.034 134.57 103.254 134.614C103.474 134.658 103.694 134.713 103.914 134.757C104.145 134.812 104.376 134.878 104.596 134.944C104.816 135.021 105.014 135.12 105.19 135.241C105.366 135.362 105.498 135.516 105.608 135.692C105.718 135.879 105.762 136.11 105.773 136.374C105.773 136.726 105.696 137.012 105.553 137.232C105.41 137.463 105.223 137.65 104.992 137.782C104.761 137.925 104.497 138.024 104.211 138.079C103.925 138.134 103.639 138.156 103.353 138.156C103.034 138.156 102.737 138.123 102.451 138.057C102.165 137.991 101.912 137.892 101.692 137.738C101.472 137.584 101.296 137.386 101.164 137.144C101.032 136.902 100.955 136.594 100.944 136.242H101.879ZM109.901 132.348H110.836V133.118H110.858C111.012 132.81 111.254 132.579 111.584 132.436C111.914 132.293 112.277 132.216 112.673 132.216C113.113 132.216 113.487 132.304 113.817 132.458C114.147 132.623 114.411 132.843 114.631 133.118C114.851 133.393 115.016 133.712 115.126 134.064C115.236 134.427 115.291 134.812 115.291 135.208C115.291 135.615 115.236 136 115.126 136.352C115.016 136.715 114.862 137.034 114.642 137.298C114.422 137.562 114.158 137.771 113.828 137.925C113.498 138.079 113.124 138.156 112.695 138.156C112.552 138.156 112.398 138.145 112.222 138.112C112.046 138.09 111.881 138.035 111.716 137.969C111.54 137.903 111.386 137.815 111.232 137.705C111.078 137.595 110.957 137.452 110.858 137.276H110.836V140.202H109.901V132.348ZM114.301 135.142C114.301 134.878 114.257 134.625 114.191 134.372C114.125 134.119 114.015 133.888 113.872 133.69C113.729 133.503 113.542 133.338 113.322 133.217C113.102 133.107 112.838 133.052 112.541 133.041C112.222 133.041 111.958 133.107 111.738 133.228C111.518 133.36 111.331 133.525 111.199 133.723C111.056 133.921 110.957 134.152 110.891 134.405C110.825 134.669 110.803 134.922 110.803 135.186C110.803 135.472 110.836 135.736 110.902 136C110.968 136.264 111.067 136.484 111.21 136.682C111.353 136.88 111.54 137.045 111.771 137.166C111.991 137.287 112.266 137.342 112.596 137.342C112.915 137.342 113.179 137.287 113.399 137.155C113.619 137.034 113.784 136.869 113.927 136.66C114.059 136.462 114.147 136.22 114.213 135.956C114.268 135.692 114.301 135.428 114.301 135.142ZM120.338 134.647C120.316 134.427 120.272 134.218 120.184 134.02C120.096 133.822 119.986 133.657 119.843 133.514C119.7 133.371 119.535 133.261 119.337 133.173C119.139 133.085 118.93 133.052 118.699 133.041C118.457 133.041 118.237 133.085 118.039 133.173C117.841 133.261 117.676 133.371 117.544 133.514C117.401 133.668 117.291 133.833 117.214 134.031C117.126 134.229 117.082 134.427 117.071 134.647H120.338ZM121.24 136.231C121.108 136.869 120.833 137.353 120.415 137.672C119.986 138.002 119.447 138.156 118.809 138.156C118.347 138.156 117.951 138.09 117.621 137.936C117.291 137.793 117.005 137.584 116.785 137.32C116.554 137.056 116.378 136.748 116.268 136.374C116.158 136.011 116.092 135.615 116.081 135.175C116.081 134.746 116.147 134.35 116.279 133.987C116.411 133.635 116.587 133.316 116.829 133.052C117.071 132.788 117.346 132.59 117.676 132.436C118.006 132.293 118.358 132.227 118.754 132.216C119.26 132.216 119.678 132.326 120.008 132.535C120.338 132.744 120.613 133.008 120.811 133.327C121.009 133.657 121.152 134.009 121.229 134.383C121.306 134.768 121.339 135.131 121.328 135.472H117.071C117.06 135.725 117.093 135.967 117.159 136.187C117.225 136.407 117.324 136.605 117.478 136.781C117.621 136.957 117.808 137.089 118.039 137.188C118.259 137.298 118.534 137.342 118.842 137.342C119.238 137.342 119.557 137.254 119.81 137.067C120.063 136.891 120.228 136.605 120.316 136.231H121.24ZM122.264 132.348H123.144V133.547H123.166C123.386 133.085 123.672 132.744 124.002 132.524C124.332 132.304 124.75 132.205 125.256 132.216V133.206C124.882 133.206 124.563 133.261 124.299 133.36C124.035 133.47 123.815 133.613 123.661 133.811C123.496 134.009 123.375 134.251 123.309 134.537C123.232 134.823 123.199 135.142 123.199 135.505V138.035H122.264V132.348ZM126.532 136.242C126.532 136.451 126.587 136.627 126.675 136.77C126.763 136.913 126.873 137.023 127.016 137.111C127.159 137.199 127.324 137.254 127.5 137.287C127.676 137.331 127.863 137.342 128.061 137.342C128.204 137.342 128.358 137.331 128.523 137.309C128.677 137.287 128.831 137.254 128.963 137.188C129.095 137.133 129.216 137.045 129.304 136.935C129.392 136.825 129.436 136.671 129.436 136.495C129.436 136.253 129.337 136.077 129.161 135.945C128.974 135.824 128.743 135.725 128.468 135.648C128.193 135.571 127.896 135.505 127.577 135.439C127.247 135.373 126.95 135.285 126.675 135.175C126.4 135.065 126.169 134.9 125.993 134.691C125.806 134.493 125.718 134.207 125.718 133.833C125.718 133.547 125.773 133.305 125.905 133.096C126.037 132.898 126.202 132.733 126.4 132.601C126.598 132.469 126.829 132.381 127.082 132.315C127.335 132.249 127.588 132.216 127.841 132.216C128.16 132.216 128.457 132.249 128.732 132.304C128.996 132.359 129.238 132.458 129.447 132.59C129.656 132.722 129.821 132.909 129.953 133.14C130.074 133.371 130.151 133.657 130.173 133.998H129.238C129.216 133.822 129.172 133.668 129.095 133.547C129.007 133.426 128.908 133.327 128.787 133.25C128.655 133.184 128.523 133.129 128.369 133.096C128.215 133.063 128.072 133.041 127.918 133.041C127.775 133.041 127.632 133.052 127.489 133.074C127.346 133.096 127.214 133.14 127.104 133.195C126.983 133.25 126.884 133.327 126.818 133.415C126.741 133.503 126.708 133.624 126.708 133.767C126.708 133.932 126.763 134.064 126.873 134.174C126.983 134.284 127.137 134.372 127.313 134.438C127.489 134.504 127.687 134.57 127.907 134.614C128.127 134.658 128.347 134.713 128.567 134.757C128.798 134.812 129.029 134.878 129.249 134.944C129.469 135.021 129.667 135.12 129.843 135.241C130.019 135.362 130.151 135.516 130.261 135.692C130.371 135.879 130.415 136.11 130.426 136.374C130.426 136.726 130.349 137.012 130.206 137.232C130.063 137.463 129.876 137.65 129.645 137.782C129.414 137.925 129.15 138.024 128.864 138.079C128.578 138.134 128.292 138.156 128.006 138.156C127.687 138.156 127.39 138.123 127.104 138.057C126.818 137.991 126.565 137.892 126.345 137.738C126.125 137.584 125.949 137.386 125.817 137.144C125.685 136.902 125.608 136.594 125.597 136.242H126.532ZM132.142 135.197C132.142 135.549 132.186 135.857 132.274 136.121C132.362 136.385 132.494 136.616 132.659 136.792C132.813 136.968 133 137.111 133.22 137.199C133.44 137.298 133.671 137.342 133.913 137.342C134.155 137.342 134.375 137.298 134.595 137.199C134.815 137.111 135.002 136.968 135.167 136.792C135.321 136.616 135.453 136.385 135.541 136.121C135.629 135.857 135.684 135.549 135.684 135.197C135.684 134.856 135.629 134.548 135.541 134.284C135.453 134.02 135.321 133.789 135.167 133.602C135.002 133.426 134.815 133.283 134.595 133.184C134.375 133.096 134.155 133.052 133.913 133.041C133.671 133.041 133.44 133.096 133.22 133.184C133 133.283 132.813 133.426 132.659 133.602C132.494 133.789 132.362 134.02 132.274 134.284C132.186 134.548 132.142 134.856 132.142 135.197ZM131.152 135.197C131.152 134.779 131.207 134.394 131.328 134.031C131.438 133.668 131.614 133.349 131.856 133.085C132.087 132.821 132.373 132.601 132.725 132.447C133.066 132.293 133.462 132.216 133.913 132.216C134.364 132.216 134.76 132.293 135.101 132.447C135.442 132.601 135.728 132.821 135.97 133.085C136.201 133.349 136.377 133.668 136.498 134.031C136.608 134.394 136.674 134.779 136.674 135.197C136.674 135.615 136.608 136.011 136.498 136.363C136.377 136.726 136.201 137.045 135.97 137.309C135.728 137.573 135.442 137.782 135.101 137.936C134.76 138.09 134.364 138.156 133.913 138.156C133.462 138.156 133.066 138.09 132.725 137.936C132.373 137.782 132.087 137.573 131.856 137.309C131.614 137.045 131.438 136.726 131.328 136.363C131.207 136.011 131.152 135.615 131.152 135.197ZM137.776 132.348H138.656V133.25H138.678C139.063 132.568 139.679 132.216 140.526 132.216C140.9 132.216 141.208 132.271 141.461 132.37C141.703 132.48 141.912 132.623 142.066 132.799C142.209 132.986 142.319 133.206 142.385 133.459C142.451 133.712 142.473 133.987 142.484 134.295V138.035H141.549V134.185C141.549 133.833 141.439 133.558 141.241 133.349C141.032 133.151 140.746 133.052 140.394 133.041C140.108 133.041 139.855 133.085 139.646 133.173C139.437 133.261 139.261 133.393 139.129 133.547C138.986 133.712 138.876 133.899 138.81 134.119C138.744 134.339 138.711 134.57 138.711 134.823V138.035H137.776V132.348ZM143.889 132.348H144.769V133.25H144.791C145.176 132.568 145.792 132.216 146.639 132.216C147.013 132.216 147.321 132.271 147.574 132.37C147.816 132.48 148.025 132.623 148.179 132.799C148.322 132.986 148.432 133.206 148.498 133.459C148.564 133.712 148.586 133.987 148.597 134.295V138.035H147.662V134.185C147.662 133.833 147.552 133.558 147.354 133.349C147.145 133.151 146.859 133.052 146.507 133.041C146.221 133.041 145.968 133.085 145.759 133.173C145.55 133.261 145.374 133.393 145.242 133.547C145.099 133.712 144.989 133.899 144.923 134.119C144.857 134.339 144.824 134.57 144.824 134.823V138.035H143.889V132.348ZM153.95 134.647C153.928 134.427 153.884 134.218 153.796 134.02C153.708 133.822 153.598 133.657 153.455 133.514C153.312 133.371 153.147 133.261 152.949 133.173C152.751 133.085 152.542 133.052 152.311 133.041C152.069 133.041 151.849 133.085 151.651 133.173C151.453 133.261 151.288 133.371 151.156 133.514C151.013 133.668 150.903 133.833 150.826 134.031C150.738 134.229 150.694 134.427 150.683 134.647H153.95ZM154.852 136.231C154.72 136.869 154.445 137.353 154.027 137.672C153.598 138.002 153.059 138.156 152.421 138.156C151.959 138.156 151.563 138.09 151.233 137.936C150.903 137.793 150.617 137.584 150.397 137.32C150.166 137.056 149.99 136.748 149.88 136.374C149.77 136.011 149.704 135.615 149.693 135.175C149.693 134.746 149.759 134.35 149.891 133.987C150.023 133.635 150.199 133.316 150.441 133.052C150.683 132.788 150.958 132.59 151.288 132.436C151.618 132.293 151.97 132.227 152.366 132.216C152.872 132.216 153.29 132.326 153.62 132.535C153.95 132.744 154.225 133.008 154.423 133.327C154.621 133.657 154.764 134.009 154.841 134.383C154.918 134.768 154.951 135.131 154.94 135.472H150.683C150.672 135.725 150.705 135.967 150.771 136.187C150.837 136.407 150.936 136.605 151.09 136.781C151.233 136.957 151.42 137.089 151.651 137.188C151.871 137.298 152.146 137.342 152.454 137.342C152.85 137.342 153.169 137.254 153.422 137.067C153.675 136.891 153.84 136.605 153.928 136.231H154.852ZM155.964 130.181H156.899V138.035H155.964V130.181ZM158.92 136.242C158.92 136.451 158.975 136.627 159.063 136.77C159.151 136.913 159.261 137.023 159.404 137.111C159.547 137.199 159.712 137.254 159.888 137.287C160.064 137.331 160.251 137.342 160.449 137.342C160.592 137.342 160.746 137.331 160.911 137.309C161.065 137.287 161.219 137.254 161.351 137.188C161.483 137.133 161.604 137.045 161.692 136.935C161.78 136.825 161.824 136.671 161.824 136.495C161.824 136.253 161.725 136.077 161.549 135.945C161.362 135.824 161.131 135.725 160.856 135.648C160.581 135.571 160.284 135.505 159.965 135.439C159.635 135.373 159.338 135.285 159.063 135.175C158.788 135.065 158.557 134.9 158.381 134.691C158.194 134.493 158.106 134.207 158.106 133.833C158.106 133.547 158.161 133.305 158.293 133.096C158.425 132.898 158.59 132.733 158.788 132.601C158.986 132.469 159.217 132.381 159.47 132.315C159.723 132.249 159.976 132.216 160.229 132.216C160.548 132.216 160.845 132.249 161.12 132.304C161.384 132.359 161.626 132.458 161.835 132.59C162.044 132.722 162.209 132.909 162.341 133.14C162.462 133.371 162.539 133.657 162.561 133.998H161.626C161.604 133.822 161.56 133.668 161.483 133.547C161.395 133.426 161.296 133.327 161.175 133.25C161.043 133.184 160.911 133.129 160.757 133.096C160.603 133.063 160.46 133.041 160.306 133.041C160.163 133.041 160.02 133.052 159.877 133.074C159.734 133.096 159.602 133.14 159.492 133.195C159.371 133.25 159.272 133.327 159.206 133.415C159.129 133.503 159.096 133.624 159.096 133.767C159.096 133.932 159.151 134.064 159.261 134.174C159.371 134.284 159.525 134.372 159.701 134.438C159.877 134.504 160.075 134.57 160.295 134.614C160.515 134.658 160.735 134.713 160.955 134.757C161.186 134.812 161.417 134.878 161.637 134.944C161.857 135.021 162.055 135.12 162.231 135.241C162.407 135.362 162.539 135.516 162.649 135.692C162.759 135.879 162.803 136.11 162.814 136.374C162.814 136.726 162.737 137.012 162.594 137.232C162.451 137.463 162.264 137.65 162.033 137.782C161.802 137.925 161.538 138.024 161.252 138.079C160.966 138.134 160.68 138.156 160.394 138.156C160.075 138.156 159.778 138.123 159.492 138.057C159.206 137.991 158.953 137.892 158.733 137.738C158.513 137.584 158.337 137.386 158.205 137.144C158.073 136.902 157.996 136.594 157.985 136.242H158.92Z" fill="#727372"/>
<path d="M187.153 139.351V138.105C186.519 137.955 185.982 137.671 185.543 137.251C185.105 136.831 184.783 136.317 184.577 135.711L186.103 135.151C186.295 135.585 186.561 135.942 186.901 136.222C187.247 136.497 187.639 136.635 188.077 136.635C188.525 136.635 188.885 136.52 189.155 136.292C189.426 136.058 189.561 135.725 189.561 135.291C189.561 134.978 189.473 134.717 189.295 134.507C189.118 134.297 188.885 134.117 188.595 133.968C188.311 133.818 188.003 133.681 187.671 133.555C187.349 133.433 187.027 133.298 186.705 133.149C186.383 132.995 186.089 132.81 185.823 132.596C185.557 132.376 185.343 132.108 185.179 131.791C185.021 131.469 184.941 131.077 184.941 130.615C184.941 130.027 185.13 129.502 185.508 129.04C185.891 128.573 186.439 128.277 187.153 128.151V127.031H188.777V128.165C189.337 128.291 189.792 128.533 190.142 128.893C190.492 129.247 190.737 129.663 190.877 130.139L189.379 130.643C189.267 130.367 189.085 130.132 188.833 129.936C188.581 129.735 188.255 129.635 187.853 129.635C187.475 129.635 187.177 129.721 186.957 129.894C186.743 130.066 186.635 130.307 186.635 130.615C186.635 130.862 186.715 131.07 186.873 131.238C187.032 131.406 187.244 131.553 187.51 131.679C187.776 131.805 188.068 131.926 188.385 132.043C188.717 132.164 189.05 132.306 189.386 132.47C189.727 132.628 190.037 132.829 190.317 133.072C190.602 133.31 190.831 133.608 191.003 133.968C191.181 134.327 191.269 134.763 191.269 135.277C191.269 135.813 191.16 136.282 190.94 136.684C190.721 137.08 190.422 137.402 190.044 137.65C189.671 137.892 189.249 138.053 188.777 138.133V139.351H187.153ZM195.738 138.035V130.349L193.61 130.923V129.355L197.404 128.221V138.035H195.738ZM193.302 138.035V136.439H199.798V138.035H193.302ZM203.315 138.203V136.663C203.824 136.607 204.312 136.469 204.778 136.25C205.245 136.026 205.651 135.708 205.996 135.298C206.346 134.882 206.596 134.357 206.745 133.723C206.559 133.909 206.309 134.063 205.996 134.185C205.688 134.306 205.331 134.367 204.925 134.367C204.309 134.367 203.759 134.238 203.273 133.982C202.793 133.72 202.412 133.356 202.132 132.89C201.857 132.423 201.719 131.875 201.719 131.245C201.719 130.61 201.869 130.055 202.167 129.579C202.466 129.103 202.877 128.732 203.399 128.466C203.922 128.2 204.519 128.067 205.191 128.067C205.98 128.067 206.626 128.232 207.13 128.564C207.639 128.895 208.015 129.348 208.257 129.922C208.5 130.491 208.621 131.137 208.621 131.861C208.621 132.743 208.509 133.557 208.285 134.304C208.061 135.046 207.728 135.697 207.284 136.257C206.841 136.817 206.288 137.265 205.625 137.601C204.963 137.937 204.193 138.137 203.315 138.203ZM205.163 132.827C205.527 132.827 205.845 132.761 206.115 132.631C206.386 132.5 206.596 132.313 206.745 132.071C206.895 131.828 206.969 131.539 206.969 131.203C206.969 130.89 206.892 130.615 206.738 130.377C206.589 130.134 206.379 129.945 206.108 129.81C205.842 129.674 205.532 129.607 205.177 129.607C204.809 129.607 204.489 129.674 204.218 129.81C203.948 129.945 203.738 130.134 203.588 130.377C203.444 130.615 203.371 130.89 203.371 131.203C203.371 131.707 203.532 132.103 203.854 132.393C204.176 132.682 204.613 132.827 205.163 132.827ZM222.459 138.203C221.68 138.203 221.026 138.037 220.499 137.706C219.976 137.37 219.582 136.917 219.316 136.348C219.05 135.778 218.917 135.137 218.917 134.423C218.917 133.653 219.031 132.922 219.26 132.232C219.489 131.536 219.834 130.906 220.296 130.342C220.763 129.772 221.348 129.292 222.053 128.9C222.758 128.508 223.584 128.23 224.531 128.067V129.607C224.027 129.705 223.535 129.877 223.054 130.125C222.578 130.372 222.158 130.692 221.794 131.084C221.43 131.471 221.166 131.926 221.003 132.449C221.194 132.271 221.435 132.127 221.724 132.015C222.018 131.903 222.356 131.847 222.739 131.847C223.36 131.847 223.91 131.984 224.391 132.26C224.876 132.535 225.257 132.913 225.532 133.394C225.807 133.87 225.945 134.409 225.945 135.011C225.945 135.636 225.793 136.189 225.49 136.67C225.191 137.15 224.778 137.526 224.251 137.797C223.728 138.067 223.131 138.203 222.459 138.203ZM222.459 136.635C222.814 136.635 223.129 136.569 223.404 136.439C223.679 136.308 223.896 136.124 224.055 135.886C224.214 135.648 224.293 135.365 224.293 135.039C224.293 134.539 224.123 134.143 223.782 133.849C223.441 133.55 223 133.401 222.459 133.401C222.1 133.401 221.78 133.471 221.5 133.611C221.225 133.746 221.008 133.937 220.849 134.185C220.69 134.427 220.611 134.712 220.611 135.039C220.611 135.365 220.69 135.648 220.849 135.886C221.012 136.124 221.232 136.308 221.507 136.439C221.787 136.569 222.104 136.635 222.459 136.635ZM231.058 138.203C230.493 138.203 229.992 138.107 229.553 137.916C229.119 137.724 228.748 137.456 228.44 137.111C228.132 136.765 227.889 136.364 227.712 135.907L229.21 135.291C229.434 135.767 229.705 136.11 230.022 136.32C230.344 136.53 230.703 136.635 231.1 136.635C231.408 136.635 231.686 136.581 231.933 136.474C232.18 136.362 232.376 136.201 232.521 135.991C232.666 135.776 232.738 135.515 232.738 135.207C232.738 134.787 232.6 134.437 232.325 134.157C232.054 133.877 231.632 133.737 231.058 133.737H230.176V132.155H231.016C231.431 132.155 231.763 132.04 232.01 131.812C232.262 131.583 232.388 131.277 232.388 130.895C232.388 130.521 232.269 130.218 232.031 129.985C231.793 129.751 231.473 129.635 231.072 129.635C230.806 129.635 230.575 129.684 230.379 129.782C230.183 129.88 230.015 130.008 229.875 130.167C229.735 130.325 229.616 130.498 229.518 130.685L228.02 130.111C228.188 129.719 228.414 129.369 228.699 129.061C228.988 128.753 229.331 128.51 229.728 128.333C230.125 128.155 230.573 128.067 231.072 128.067C231.655 128.067 232.171 128.183 232.619 128.417C233.067 128.645 233.417 128.96 233.669 129.362C233.926 129.763 234.054 130.218 234.054 130.727C234.054 131.189 233.947 131.602 233.732 131.966C233.517 132.33 233.223 132.621 232.85 132.841C233.298 133.013 233.671 133.303 233.97 133.709C234.269 134.115 234.418 134.609 234.418 135.193C234.418 135.818 234.273 136.357 233.984 136.81C233.699 137.258 233.303 137.603 232.794 137.846C232.29 138.084 231.711 138.203 231.058 138.203ZM238.873 138.035V130.349L236.745 130.923V129.355L240.539 128.221V138.035H238.873ZM236.437 138.035V136.439H242.933V138.035H236.437Z" fill="#242D38"/>
<path d="M281.64 109.035V97.7947H277.64V95.0347H288.53V97.7947H284.52V109.035H281.64ZM294.958 109.275C293.838 109.275 292.884 109.065 292.098 108.645C291.311 108.218 290.674 107.655 290.188 106.955C289.708 106.248 289.354 105.468 289.128 104.615C288.908 103.761 288.798 102.901 288.798 102.035C288.798 101.168 288.908 100.308 289.128 99.4547C289.354 98.6013 289.708 97.8247 290.188 97.1247C290.674 96.418 291.311 95.8547 292.098 95.4347C292.884 95.008 293.838 94.7947 294.958 94.7947C296.091 94.7947 297.048 95.008 297.828 95.4347C298.608 95.8547 299.238 96.418 299.718 97.1247C300.204 97.8247 300.558 98.6013 300.778 99.4547C300.998 100.308 301.108 101.168 301.108 102.035C301.108 102.901 300.998 103.761 300.778 104.615C300.558 105.468 300.204 106.248 299.718 106.955C299.238 107.655 298.608 108.218 297.828 108.645C297.048 109.065 296.091 109.275 294.958 109.275ZM294.958 106.495C295.544 106.495 296.038 106.358 296.438 106.085C296.844 105.811 297.171 105.451 297.418 105.005C297.664 104.551 297.844 104.065 297.958 103.545C298.071 103.025 298.128 102.521 298.128 102.035C298.128 101.515 298.074 100.991 297.968 100.465C297.861 99.938 297.684 99.4547 297.438 99.0147C297.198 98.5747 296.874 98.2213 296.468 97.9547C296.061 97.688 295.558 97.5547 294.958 97.5547C294.358 97.5547 293.854 97.6947 293.448 97.9747C293.041 98.248 292.714 98.608 292.468 99.0547C292.221 99.5013 292.044 99.988 291.938 100.515C291.831 101.041 291.778 101.548 291.778 102.035C291.778 102.548 291.831 103.068 291.938 103.595C292.051 104.115 292.231 104.595 292.478 105.035C292.731 105.475 293.061 105.828 293.468 106.095C293.874 106.361 294.371 106.495 294.958 106.495ZM305.382 109.035V97.7947H301.382V95.0347H312.272V97.7947H308.262V109.035H305.382ZM310.3 109.035L315.76 95.0347H318.5L323.97 109.035H320.84L319.77 106.225H314.48L313.43 109.035H310.3ZM315.44 103.575H318.8L317.53 100.305C317.49 100.205 317.443 100.091 317.39 99.9647C317.337 99.8313 317.287 99.698 317.24 99.5647C317.193 99.4313 317.153 99.3113 317.12 99.2047C317.087 99.3113 317.047 99.4313 317 99.5647C316.953 99.698 316.903 99.8313 316.85 99.9647C316.797 100.091 316.75 100.205 316.71 100.305L315.44 103.575ZM324.873 109.035V95.0347H327.753V106.255H334.483V109.035H324.873Z" fill="#337975"/>
<path d="M278.153 139.351V138.105C277.519 137.955 276.982 137.671 276.543 137.251C276.105 136.831 275.783 136.317 275.577 135.711L277.103 135.151C277.295 135.585 277.561 135.942 277.901 136.222C278.247 136.497 278.639 136.635 279.077 136.635C279.525 136.635 279.885 136.52 280.155 136.292C280.426 136.058 280.561 135.725 280.561 135.291C280.561 134.978 280.473 134.717 280.295 134.507C280.118 134.297 279.885 134.117 279.595 133.968C279.311 133.818 279.003 133.681 278.671 133.555C278.349 133.433 278.027 133.298 277.705 133.149C277.383 132.995 277.089 132.81 276.823 132.596C276.557 132.376 276.343 132.108 276.179 131.791C276.021 131.469 275.941 131.077 275.941 130.615C275.941 130.027 276.13 129.502 276.508 129.04C276.891 128.573 277.439 128.277 278.153 128.151V127.031H279.777V128.165C280.337 128.291 280.792 128.533 281.142 128.893C281.492 129.247 281.737 129.663 281.877 130.139L280.379 130.643C280.267 130.367 280.085 130.132 279.833 129.936C279.581 129.735 279.255 129.635 278.853 129.635C278.475 129.635 278.177 129.721 277.957 129.894C277.743 130.066 277.635 130.307 277.635 130.615C277.635 130.862 277.715 131.07 277.873 131.238C278.032 131.406 278.244 131.553 278.51 131.679C278.776 131.805 279.068 131.926 279.385 132.043C279.717 132.164 280.05 132.306 280.386 132.47C280.727 132.628 281.037 132.829 281.317 133.072C281.602 133.31 281.831 133.608 282.003 133.968C282.181 134.327 282.269 134.763 282.269 135.277C282.269 135.813 282.16 136.282 281.94 136.684C281.721 137.08 281.422 137.402 281.044 137.65C280.671 137.892 280.249 138.053 279.777 138.133V139.351H278.153ZM284.26 138.035C284.26 137.33 284.347 136.712 284.519 136.18C284.692 135.643 284.928 135.174 285.226 134.773C285.53 134.367 285.875 134.01 286.262 133.702C286.654 133.394 287.065 133.116 287.494 132.869C287.77 132.71 288.026 132.54 288.264 132.358C288.502 132.176 288.694 131.973 288.838 131.749C288.988 131.52 289.062 131.259 289.062 130.965C289.062 130.559 288.936 130.237 288.684 129.999C288.432 129.756 288.092 129.635 287.662 129.635C287.21 129.635 286.834 129.744 286.535 129.964C286.241 130.183 286.02 130.479 285.87 130.853L284.386 130.181C284.55 129.761 284.79 129.392 285.107 129.075C285.425 128.757 285.798 128.51 286.227 128.333C286.661 128.155 287.13 128.067 287.634 128.067C288.288 128.067 288.845 128.193 289.307 128.445C289.774 128.692 290.129 129.033 290.371 129.467C290.619 129.896 290.742 130.381 290.742 130.923C290.742 131.52 290.63 132.017 290.406 132.414C290.182 132.806 289.879 133.146 289.496 133.436C289.114 133.725 288.684 134.007 288.208 134.283C287.868 134.479 287.56 134.686 287.284 134.906C287.009 135.125 286.778 135.363 286.591 135.62C286.405 135.872 286.276 136.145 286.206 136.439H290.826V138.035H284.26ZM292.887 138.035C292.887 137.33 292.974 136.712 293.146 136.18C293.319 135.643 293.555 135.174 293.853 134.773C294.157 134.367 294.502 134.01 294.889 133.702C295.281 133.394 295.692 133.116 296.121 132.869C296.397 132.71 296.653 132.54 296.891 132.358C297.129 132.176 297.321 131.973 297.465 131.749C297.615 131.52 297.689 131.259 297.689 130.965C297.689 130.559 297.563 130.237 297.311 129.999C297.059 129.756 296.719 129.635 296.289 129.635C295.837 129.635 295.461 129.744 295.162 129.964C294.868 130.183 294.647 130.479 294.497 130.853L293.013 130.181C293.177 129.761 293.417 129.392 293.734 129.075C294.052 128.757 294.425 128.51 294.854 128.333C295.288 128.155 295.757 128.067 296.261 128.067C296.915 128.067 297.472 128.193 297.934 128.445C298.401 128.692 298.756 129.033 298.998 129.467C299.246 129.896 299.369 130.381 299.369 130.923C299.369 131.52 299.257 132.017 299.033 132.414C298.809 132.806 298.506 133.146 298.123 133.436C297.741 133.725 297.311 134.007 296.835 134.283C296.495 134.479 296.187 134.686 295.911 134.906C295.636 135.125 295.405 135.363 295.218 135.62C295.032 135.872 294.903 136.145 294.833 136.439H299.453V138.035H292.887ZM313.431 138.203C312.866 138.203 312.365 138.107 311.926 137.916C311.492 137.724 311.121 137.456 310.813 137.111C310.505 136.765 310.262 136.364 310.085 135.907L311.583 135.291C311.807 135.767 312.078 136.11 312.395 136.32C312.717 136.53 313.076 136.635 313.473 136.635C313.781 136.635 314.059 136.581 314.306 136.474C314.553 136.362 314.749 136.201 314.894 135.991C315.039 135.776 315.111 135.515 315.111 135.207C315.111 134.787 314.973 134.437 314.698 134.157C314.427 133.877 314.005 133.737 313.431 133.737H312.549V132.155H313.389C313.804 132.155 314.136 132.04 314.383 131.812C314.635 131.583 314.761 131.277 314.761 130.895C314.761 130.521 314.642 130.218 314.404 129.985C314.166 129.751 313.846 129.635 313.445 129.635C313.179 129.635 312.948 129.684 312.752 129.782C312.556 129.88 312.388 130.008 312.248 130.167C312.108 130.325 311.989 130.498 311.891 130.685L310.393 130.111C310.561 129.719 310.787 129.369 311.072 129.061C311.361 128.753 311.704 128.51 312.101 128.333C312.498 128.155 312.946 128.067 313.445 128.067C314.028 128.067 314.544 128.183 314.992 128.417C315.44 128.645 315.79 128.96 316.042 129.362C316.299 129.763 316.427 130.218 316.427 130.727C316.427 131.189 316.32 131.602 316.105 131.966C315.89 132.33 315.596 132.621 315.223 132.841C315.671 133.013 316.044 133.303 316.343 133.709C316.642 134.115 316.791 134.609 316.791 135.193C316.791 135.818 316.646 136.357 316.357 136.81C316.072 137.258 315.676 137.603 315.167 137.846C314.663 138.084 314.084 138.203 313.431 138.203ZM322.044 138.203C321.33 138.203 320.707 138.072 320.175 137.811C319.648 137.549 319.237 137.188 318.943 136.726C318.649 136.264 318.502 135.729 318.502 135.123C318.502 134.549 318.661 134.049 318.978 133.625C319.295 133.195 319.72 132.873 320.252 132.659C319.888 132.481 319.573 132.222 319.307 131.882C319.041 131.536 318.908 131.123 318.908 130.643C318.908 130.148 319.036 129.707 319.293 129.32C319.55 128.932 319.911 128.627 320.378 128.403C320.849 128.179 321.405 128.067 322.044 128.067C322.688 128.067 323.246 128.179 323.717 128.403C324.193 128.627 324.559 128.932 324.816 129.32C325.077 129.707 325.208 130.148 325.208 130.643C325.208 131.119 325.073 131.529 324.802 131.875C324.536 132.22 324.214 132.477 323.836 132.645C324.363 132.859 324.79 133.184 325.117 133.618C325.448 134.052 325.614 134.553 325.614 135.123C325.614 135.729 325.467 136.264 325.173 136.726C324.879 137.188 324.464 137.549 323.927 137.811C323.395 138.072 322.767 138.203 322.044 138.203ZM322.044 136.705C322.59 136.705 323.04 136.555 323.395 136.257C323.754 135.953 323.934 135.557 323.934 135.067C323.934 134.759 323.852 134.483 323.689 134.241C323.53 133.993 323.309 133.8 323.024 133.66C322.739 133.515 322.413 133.443 322.044 133.443C321.671 133.443 321.342 133.515 321.057 133.66C320.777 133.8 320.558 133.993 320.399 134.241C320.245 134.483 320.168 134.759 320.168 135.067C320.168 135.557 320.343 135.953 320.693 136.257C321.043 136.555 321.493 136.705 322.044 136.705ZM322.044 131.973C322.501 131.973 322.868 131.858 323.143 131.63C323.418 131.396 323.556 131.109 323.556 130.769C323.556 130.405 323.414 130.111 323.129 129.887C322.849 129.663 322.487 129.551 322.044 129.551C321.596 129.551 321.237 129.663 320.966 129.887C320.695 130.111 320.56 130.405 320.56 130.769C320.56 131.109 320.693 131.396 320.959 131.63C321.23 131.858 321.591 131.973 322.044 131.973ZM329.873 138.035V130.349L327.745 130.923V129.355L331.539 128.221V138.035H329.873ZM327.437 138.035V136.439H333.933V138.035H327.437Z" fill="#337975"/>
</svg>
