<?xml version="1.0" encoding="utf-8"?>
<!-- Generator: Adobe Illustrator 27.5.0, SVG Export Plug-In . SVG Version: 6.00 Build 0)  -->
<svg version="1.1" xmlns="http://www.w3.org/2000/svg" xmlns:xlink="http://www.w3.org/1999/xlink" x="0px" y="0px"
	 viewBox="0 0 849.8 222.9" style="enable-background:new 0 0 849.8 222.9;" xml:space="preserve">
<style type="text/css">
	.st0{fill:#252D39;}
</style>
<g id="Layer_1">
</g>
<g id="Layer_3">
</g>
<g id="Layer_2">
	<g>
		<g>
			<path class="st0" d="M169.9,149c-0.5,1.1-1.1,2-1.8,2.8c-0.7,0.8-1.6,1.4-2.7,1.8c-1,0.4-2.3,0.6-3.7,0.6c-1.9,0-3.5-0.5-4.8-1.4
				c-1.3-0.9-2.3-2.2-3.2-3.8c-0.8-1.6-1.4-3.5-1.8-5.7c-0.4-2.2-0.5-4.5-0.5-7c0-2.5,0.2-4.9,0.6-7.1c0.4-2.2,1-4.1,1.8-5.7
				c0.8-1.6,1.9-2.9,3.2-3.8c1.3-0.9,2.9-1.4,4.7-1.4c1.5,0,2.7,0.2,3.8,0.6c1,0.4,1.9,1,2.6,1.8c0.7,0.8,1.3,1.7,1.7,2.7
				c0.4,1,0.7,2.2,0.9,3.4l-4.9,1.2c-0.3-1.6-0.8-2.8-1.4-3.6c-0.6-0.8-1.5-1.2-2.9-1.2c-1.1,0-1.9,0.4-2.6,1.2
				c-0.7,0.8-1.2,1.8-1.6,3c-0.4,1.2-0.6,2.6-0.8,4.2c-0.1,1.5-0.2,3.1-0.2,4.6c0,1.6,0.1,3.2,0.3,4.7c0.2,1.6,0.5,3,0.9,4.2
				c0.4,1.2,1,2.2,1.7,3c0.7,0.8,1.6,1.1,2.7,1.1c1.2,0,2.1-0.4,2.7-1.2c0.6-0.8,1.2-2.2,1.7-4.1l4.5,1.4
				C170.7,146.7,170.4,147.9,169.9,149z"/>
			<path class="st0" d="M193.2,140.6c0,4.6-0.9,8-2.6,10.3s-4,3.4-6.9,3.4c-1.4,0-2.6-0.3-3.7-0.8c-1.1-0.5-2.1-1.4-2.9-2.5
				c-0.8-1.1-1.5-2.5-1.9-4.2c-0.4-1.7-0.7-3.7-0.7-6c0-4.6,0.8-8,2.5-10.3c1.7-2.3,4-3.4,6.9-3.4c1.4,0,2.7,0.3,3.8,0.8
				s2.1,1.4,2.9,2.5c0.8,1.1,1.4,2.5,1.9,4.2C193,136.3,193.2,138.3,193.2,140.6z M188.4,140.7c0-3-0.4-5.2-1.2-6.8
				c-0.8-1.5-1.9-2.3-3.4-2.3c-3,0-4.5,3-4.5,9c0,6,1.5,9,4.6,9c1.5,0,2.6-0.8,3.4-2.5C188,145.6,188.4,143.4,188.4,140.7z"/>
			<path class="st0" d="M220.7,153.7v-16c0-2.1-0.2-3.7-0.5-4.6s-1.1-1.4-2.2-1.4c-0.8,0-1.5,0.2-2.1,0.6c-0.7,0.4-1.2,1-1.7,1.8
				v19.7h-4.8v-16c0-2.1-0.2-3.7-0.5-4.6s-1.1-1.4-2.2-1.4c-0.8,0-1.5,0.2-2.1,0.6c-0.7,0.4-1.2,1-1.7,1.8v19.7H198v-26.1h4.8l0,1.8
				c0.5-0.7,1.2-1.2,2-1.7c0.8-0.5,1.8-0.7,2.9-0.7c1.3,0,2.4,0.2,3.2,0.7c0.8,0.5,1.5,1.2,2.1,2.1c0.9-1.1,1.9-1.8,2.9-2.2
				c1-0.4,2.1-0.6,3.2-0.6c1.3,0,2.4,0.2,3.2,0.6c0.8,0.4,1.5,1.1,2,1.9c0.5,0.8,0.8,1.9,1,3.2c0.2,1.3,0.3,2.8,0.3,4.5v16.3H220.7z
				"/>
			<path class="st0" d="M253.7,153.7v-16c0-2.1-0.2-3.7-0.5-4.6s-1.1-1.4-2.2-1.4c-0.8,0-1.5,0.2-2.1,0.6c-0.7,0.4-1.2,1-1.7,1.8
				v19.7h-4.8v-16c0-2.1-0.2-3.7-0.5-4.6s-1.1-1.4-2.2-1.4c-0.8,0-1.5,0.2-2.1,0.6c-0.7,0.4-1.2,1-1.7,1.8v19.7H231v-26.1h4.8l0,1.8
				c0.5-0.7,1.2-1.2,2-1.7c0.8-0.5,1.8-0.7,2.9-0.7c1.3,0,2.4,0.2,3.2,0.7c0.8,0.5,1.5,1.2,2.1,2.1c0.9-1.1,1.9-1.8,2.9-2.2
				c1-0.4,2.1-0.6,3.2-0.6c1.3,0,2.4,0.2,3.2,0.6c0.8,0.4,1.5,1.1,2,1.9c0.5,0.8,0.8,1.9,1,3.2c0.2,1.3,0.3,2.8,0.3,4.5v16.3H253.7z
				"/>
			<path class="st0" d="M269.6,120.6c0,0.8-0.3,1.5-0.9,2.1c-0.6,0.6-1.3,0.9-2.1,0.9c-0.8,0-1.5-0.3-2.1-0.9
				c-0.6-0.6-0.9-1.3-0.9-2.1c0-0.8,0.3-1.5,0.9-2.1c0.6-0.6,1.3-0.9,2.1-0.9c0.8,0,1.5,0.3,2.1,0.9
				C269.3,119.1,269.6,119.8,269.6,120.6z M264.3,153.7v-26.1h4.8v26.1H264.3z"/>
			<path class="st0" d="M289.6,146.6c0,2.5-0.7,4.4-2.2,5.7c-1.4,1.3-3.4,2-6,2c-1.4,0-2.8-0.3-4.2-0.8c-1.4-0.5-2.7-1.2-3.8-2.1
				l1.8-4c2.4,1.5,4.4,2.2,6.1,2.2c1.1,0,1.9-0.3,2.5-0.8c0.6-0.5,0.9-1.2,0.9-2.1c0-0.5-0.1-0.9-0.3-1.2c-0.2-0.4-0.5-0.7-0.9-1.1
				c-0.4-0.4-0.9-0.7-1.6-1.1c-0.6-0.4-1.4-0.9-2.3-1.4c-0.8-0.5-1.5-0.9-2.2-1.4c-0.7-0.5-1.3-1-1.7-1.6c-0.5-0.6-0.8-1.2-1.1-2
				c-0.3-0.8-0.4-1.7-0.4-2.7c0-2.3,0.7-4.1,2-5.3c1.3-1.3,3.2-1.9,5.5-1.9c1.3,0,2.6,0.2,3.8,0.7c1.2,0.4,2.3,1,3.3,1.8l-1.9,4
				c-0.9-0.6-1.7-1.1-2.7-1.4c-0.9-0.3-1.8-0.5-2.6-0.5c-0.9,0-1.5,0.2-2,0.6c-0.4,0.4-0.6,1-0.6,1.6c0,0.4,0.1,0.8,0.2,1.1
				c0.1,0.3,0.3,0.6,0.6,1c0.3,0.3,0.7,0.7,1.3,1.1c0.5,0.4,1.3,0.8,2.2,1.3c1,0.6,1.9,1.1,2.6,1.6c0.8,0.5,1.4,1.1,1.9,1.7
				c0.5,0.6,0.9,1.3,1.2,2.1C289.5,144.6,289.6,145.5,289.6,146.6z"/>
			<path class="st0" d="M308.6,146.6c0,2.5-0.7,4.4-2.2,5.7c-1.4,1.3-3.4,2-6,2c-1.4,0-2.8-0.3-4.2-0.8c-1.4-0.5-2.7-1.2-3.8-2.1
				l1.8-4c2.4,1.5,4.4,2.2,6.1,2.2c1.1,0,1.9-0.3,2.5-0.8c0.6-0.5,0.9-1.2,0.9-2.1c0-0.5-0.1-0.9-0.3-1.2c-0.2-0.4-0.5-0.7-0.9-1.1
				c-0.4-0.4-0.9-0.7-1.6-1.1c-0.6-0.4-1.4-0.9-2.3-1.4c-0.8-0.5-1.5-0.9-2.2-1.4c-0.7-0.5-1.3-1-1.7-1.6c-0.5-0.6-0.8-1.2-1.1-2
				c-0.3-0.8-0.4-1.7-0.4-2.7c0-2.3,0.7-4.1,2-5.3c1.3-1.3,3.2-1.9,5.5-1.9c1.3,0,2.6,0.2,3.8,0.7c1.2,0.4,2.3,1,3.3,1.8l-1.9,4
				c-0.9-0.6-1.7-1.1-2.7-1.4c-0.9-0.3-1.8-0.5-2.6-0.5c-0.9,0-1.5,0.2-2,0.6c-0.4,0.4-0.6,1-0.6,1.6c0,0.4,0.1,0.8,0.2,1.1
				c0.1,0.3,0.3,0.6,0.6,1c0.3,0.3,0.7,0.7,1.3,1.1c0.5,0.4,1.3,0.8,2.2,1.3c1,0.6,1.9,1.1,2.6,1.6c0.8,0.5,1.4,1.1,1.9,1.7
				c0.5,0.6,0.9,1.3,1.2,2.1C308.5,144.6,308.6,145.5,308.6,146.6z"/>
			<path class="st0" d="M324.3,153.7v-1.8c-0.7,0.8-1.4,1.3-2.3,1.7c-0.9,0.4-1.9,0.6-3.1,0.6c-1,0-1.9-0.2-2.7-0.5
				c-0.9-0.4-1.6-0.9-2.3-1.6c-0.6-0.7-1.2-1.6-1.5-2.7c-0.4-1.1-0.6-2.4-0.6-3.8c0-2.8,0.8-5,2.4-6.4c1.6-1.4,3.6-2.1,6.1-2.1
				c0.8,0,1.5,0.1,2.2,0.2c0.7,0.1,1.3,0.4,1.8,0.6v-2.5c0-1.3-0.2-2.2-0.7-2.8c-0.5-0.6-1.4-0.9-2.6-0.9c-0.8,0-1.6,0.1-2.4,0.4
				c-0.8,0.2-1.7,0.7-2.7,1.3l-2-3.6c1.2-0.8,2.4-1.4,3.7-1.8c1.3-0.4,2.6-0.6,3.8-0.6c1.4,0,2.6,0.1,3.6,0.4c1,0.3,1.8,0.7,2.5,1.3
				c0.6,0.6,1.1,1.4,1.4,2.4c0.3,1,0.4,2.2,0.4,3.7v18.8H324.3z M324.3,142.3c-0.6-0.4-1.1-0.6-1.7-0.8c-0.6-0.1-1.3-0.2-2.2-0.2
				c-1.1,0-2,0.3-2.7,1c-0.7,0.7-1,1.7-1,3.1c0,1.6,0.3,2.7,0.9,3.4c0.6,0.7,1.4,1.1,2.4,1.1c2,0,3.5-0.8,4.4-2.4V142.3z"/>
			<path class="st0" d="M340.3,120.6c0,0.8-0.3,1.5-0.9,2.1c-0.6,0.6-1.3,0.9-2.1,0.9c-0.8,0-1.5-0.3-2.1-0.9
				c-0.6-0.6-0.9-1.3-0.9-2.1c0-0.8,0.3-1.5,0.9-2.1c0.6-0.6,1.3-0.9,2.1-0.9c0.8,0,1.5,0.3,2.1,0.9
				C340,119.1,340.3,119.8,340.3,120.6z M335,153.7v-26.1h4.8v26.1H335z"/>
			<path class="st0" d="M357.5,132.7c-0.5-0.3-0.9-0.5-1.4-0.6c-0.5-0.1-1.1-0.2-1.9-0.2c-0.7,0-1.3,0.1-1.9,0.4
				c-0.6,0.3-1.2,0.8-1.8,1.6v19.7h-4.8v-26.1h4.8v1.8c0.5-0.7,1.2-1.2,2-1.7c0.8-0.4,1.7-0.7,2.6-0.7c0.8,0,1.5,0.1,2.1,0.2
				c0.6,0.2,1.1,0.4,1.5,0.6L357.5,132.7z"/>
			<path class="st0" d="M378.9,140.6c0,0.2,0,0.5,0,0.8c0,0.3,0,0.6,0,0.9h-13.6c0.2,2.6,0.7,4.5,1.5,5.6c0.9,1.2,2,1.8,3.4,1.8
				c1.1,0,2-0.1,2.6-0.4c0.6-0.3,1.3-0.8,2.1-1.5l2.9,3c-0.9,1-2,1.8-3.3,2.5c-1.3,0.7-2.8,1-4.5,1c-1.6,0-2.9-0.3-4.1-0.9
				c-1.2-0.6-2.2-1.5-3-2.7c-0.8-1.2-1.4-2.6-1.8-4.2c-0.4-1.7-0.6-3.5-0.6-5.6c0-2.3,0.2-4.3,0.7-6c0.4-1.7,1.1-3.1,1.9-4.3
				c0.8-1.1,1.8-2,2.9-2.6c1.1-0.6,2.4-0.9,3.8-0.9c1.3,0,2.5,0.3,3.6,0.8s2.1,1.4,2.9,2.5c0.8,1.1,1.5,2.5,1.9,4.2
				C378.6,136.3,378.9,138.3,378.9,140.6z M374,138.2c-0.1-2-0.5-3.5-1.2-4.8c-0.8-1.2-1.8-1.8-3.2-1.8c-2.5,0-4,2.2-4.4,6.6H374z"
				/>
			<path class="st0" d="M405.8,153.7v-1.8c-0.7,0.8-1.4,1.3-2.3,1.7c-0.9,0.4-1.9,0.6-3.1,0.6c-1,0-1.9-0.2-2.7-0.5
				c-0.9-0.4-1.6-0.9-2.3-1.6c-0.6-0.7-1.2-1.6-1.5-2.7c-0.4-1.1-0.6-2.4-0.6-3.8c0-2.8,0.8-5,2.4-6.4c1.6-1.4,3.6-2.1,6.1-2.1
				c0.8,0,1.5,0.1,2.2,0.2c0.7,0.1,1.3,0.4,1.8,0.6v-2.5c0-1.3-0.2-2.2-0.7-2.8c-0.5-0.6-1.4-0.9-2.6-0.9c-0.8,0-1.6,0.1-2.4,0.4
				c-0.8,0.2-1.7,0.7-2.7,1.3l-2-3.6c1.2-0.8,2.4-1.4,3.8-1.8c1.3-0.4,2.6-0.6,3.8-0.6c1.4,0,2.6,0.1,3.6,0.4c1,0.3,1.8,0.7,2.5,1.3
				c0.6,0.6,1.1,1.4,1.4,2.4c0.3,1,0.4,2.2,0.4,3.7v18.8H405.8z M401.1,124.1l-7.2-7.9h6.7l4.6,7.9H401.1z M405.8,142.3
				c-0.6-0.4-1.1-0.6-1.7-0.8c-0.6-0.1-1.3-0.2-2.2-0.2c-1.1,0-2,0.3-2.7,1c-0.7,0.7-1,1.7-1,3.1c0,1.6,0.3,2.7,0.9,3.4
				c0.6,0.7,1.4,1.1,2.4,1.1c2,0,3.5-0.8,4.4-2.4V142.3z"/>
			<path class="st0" d="M427.3,153.7V120l4.8-2.5v36.2H427.3z"/>
			<path class="st0" d="M441.5,130.8h-3.2l0.6-11.9h5.9L441.5,130.8z"/>
			<path class="st0" d="M455.6,120.6c0,0.8-0.3,1.5-0.9,2.1c-0.6,0.6-1.3,0.9-2.1,0.9c-0.8,0-1.5-0.3-2.1-0.9
				c-0.6-0.6-0.9-1.3-0.9-2.1c0-0.8,0.3-1.5,0.9-2.1c0.6-0.6,1.3-0.9,2.1-0.9c0.8,0,1.5,0.3,2.1,0.9
				C455.3,119.1,455.6,119.8,455.6,120.6z M450.3,153.7v-26.1h4.8v26.1H450.3z"/>
			<path class="st0" d="M472.8,153.7v-16c0-2.2-0.2-3.7-0.7-4.7c-0.5-0.9-1.3-1.4-2.5-1.4c-0.8,0-1.5,0.2-2.1,0.6
				c-0.7,0.4-1.2,1-1.7,1.8v19.7H461v-26.1h4.8l0,1.8c0.5-0.7,1.2-1.2,2.1-1.7c0.9-0.5,1.9-0.7,3-0.7c2.5,0,4.3,0.8,5.3,2.4
				c1,1.6,1.5,4.1,1.5,7.4v16.8H472.8z"/>
			<path class="st0" d="M491.7,121.8c-1.2,0-2,0.2-2.4,0.7c-0.4,0.5-0.6,1.2-0.6,2.1v3.1h4.3v4.5h-4.3v21.6h-4.8v-21.6h-2.6v-4.5
				h2.6v-3.7c0-2.2,0.6-3.7,1.7-4.8c1.1-1,2.5-1.5,4.2-1.5c1.6,0,2.9,0.2,3.9,0.5v3.9C493.1,121.9,492.4,121.8,491.7,121.8z"/>
			<path class="st0" d="M514.3,140.6c0,4.6-0.9,8-2.6,10.3c-1.7,2.3-4,3.4-6.9,3.4c-1.4,0-2.6-0.3-3.7-0.8c-1.1-0.5-2.1-1.4-2.9-2.5
				c-0.8-1.1-1.5-2.5-1.9-4.2s-0.7-3.7-0.7-6c0-4.6,0.8-8,2.5-10.3c1.7-2.3,4-3.4,6.9-3.4c1.4,0,2.7,0.3,3.8,0.8
				c1.1,0.6,2.1,1.4,2.9,2.5s1.4,2.5,1.9,4.2C514,136.3,514.3,138.3,514.3,140.6z M509.4,140.7c0-3-0.4-5.2-1.2-6.8
				c-0.8-1.5-1.9-2.3-3.4-2.3c-3,0-4.5,3-4.5,9c0,6,1.5,9,4.6,9c1.5,0,2.6-0.8,3.4-2.5C509.1,145.6,509.4,143.4,509.4,140.7z"/>
			<path class="st0" d="M530.9,132.7c-0.5-0.3-0.9-0.5-1.4-0.6c-0.5-0.1-1.1-0.2-1.9-0.2c-0.7,0-1.3,0.1-1.9,0.4
				c-0.6,0.3-1.2,0.8-1.8,1.6v19.7H519v-26.1h4.8v1.8c0.5-0.7,1.2-1.2,2-1.7c0.8-0.4,1.7-0.7,2.6-0.7c0.8,0,1.5,0.1,2.1,0.2
				c0.6,0.2,1.1,0.4,1.5,0.6L530.9,132.7z"/>
			<path class="st0" d="M558.5,153.7v-16c0-2.1-0.2-3.7-0.5-4.6c-0.3-0.9-1.1-1.4-2.2-1.4c-0.8,0-1.5,0.2-2.1,0.6
				c-0.7,0.4-1.2,1-1.7,1.8v19.7h-4.8v-16c0-2.1-0.2-3.7-0.5-4.6c-0.3-0.9-1.1-1.4-2.2-1.4c-0.8,0-1.5,0.2-2.1,0.6
				c-0.7,0.4-1.2,1-1.7,1.8v19.7h-4.8v-26.1h4.8l0,1.8c0.5-0.7,1.2-1.2,2-1.7c0.8-0.5,1.8-0.7,2.9-0.7c1.3,0,2.4,0.2,3.2,0.7
				c0.8,0.5,1.5,1.2,2.1,2.1c0.9-1.1,1.9-1.8,2.9-2.2c1-0.4,2.1-0.6,3.2-0.6c1.3,0,2.4,0.2,3.2,0.6c0.8,0.4,1.5,1.1,2,1.9
				c0.5,0.8,0.8,1.9,1,3.2c0.2,1.3,0.3,2.8,0.3,4.5v16.3H558.5z"/>
			<path class="st0" d="M579.9,153.7v-1.8c-0.7,0.8-1.4,1.3-2.3,1.7c-0.9,0.4-1.9,0.6-3.1,0.6c-1,0-1.9-0.2-2.7-0.5
				c-0.9-0.4-1.6-0.9-2.3-1.6c-0.6-0.7-1.2-1.6-1.5-2.7c-0.4-1.1-0.6-2.4-0.6-3.8c0-2.8,0.8-5,2.4-6.4c1.6-1.4,3.6-2.1,6.1-2.1
				c0.8,0,1.5,0.1,2.2,0.2c0.7,0.1,1.3,0.4,1.8,0.6v-2.5c0-1.3-0.2-2.2-0.7-2.8c-0.5-0.6-1.4-0.9-2.6-0.9c-0.8,0-1.6,0.1-2.4,0.4
				c-0.8,0.2-1.7,0.7-2.7,1.3l-2-3.6c1.2-0.8,2.4-1.4,3.8-1.8c1.3-0.4,2.6-0.6,3.8-0.6c1.4,0,2.6,0.1,3.6,0.4c1,0.3,1.8,0.7,2.5,1.3
				c0.6,0.6,1.1,1.4,1.4,2.4c0.3,1,0.4,2.2,0.4,3.7v18.8H579.9z M579.9,142.3c-0.6-0.4-1.1-0.6-1.7-0.8c-0.6-0.1-1.3-0.2-2.2-0.2
				c-1.1,0-2,0.3-2.7,1c-0.7,0.7-1,1.7-1,3.1c0,1.6,0.3,2.7,0.9,3.4c0.6,0.7,1.4,1.1,2.4,1.1c2,0,3.5-0.8,4.4-2.4V142.3z"/>
			<path class="st0" d="M600.7,153.1c-0.6,0.4-1.2,0.7-1.9,0.9s-1.5,0.3-2.4,0.3c-1.8,0-3.1-0.6-3.9-1.7c-0.8-1.2-1.2-2.8-1.2-4.9
				v-15.5h-2.8v-4.5h2.8V120l4.8-2.5v10.1h5v4.5h-5v15c0,0.9,0.2,1.6,0.5,2c0.3,0.4,0.8,0.6,1.5,0.6c0.6,0,1.2-0.1,1.7-0.3
				c0.5-0.2,1-0.5,1.3-0.7L600.7,153.1z"/>
			<path class="st0" d="M611.7,120.6c0,0.8-0.3,1.5-0.9,2.1c-0.6,0.6-1.3,0.9-2.1,0.9c-0.8,0-1.5-0.3-2.1-0.9
				c-0.6-0.6-0.9-1.3-0.9-2.1c0-0.8,0.3-1.5,0.9-2.1c0.6-0.6,1.3-0.9,2.1-0.9c0.8,0,1.5,0.3,2.1,0.9
				C611.4,119.1,611.7,119.8,611.7,120.6z M606.4,153.7v-26.1h4.8v26.1H606.4z"/>
			<path class="st0" d="M635,140.6c0,4.6-0.9,8-2.6,10.3c-1.7,2.3-4,3.4-6.9,3.4c-1.4,0-2.6-0.3-3.7-0.8c-1.1-0.5-2.1-1.4-2.9-2.5
				c-0.8-1.1-1.5-2.5-1.9-4.2c-0.4-1.7-0.7-3.7-0.7-6c0-4.6,0.8-8,2.5-10.3c1.7-2.3,4-3.4,6.9-3.4c1.4,0,2.7,0.3,3.8,0.8
				s2.1,1.4,2.9,2.5s1.4,2.5,1.9,4.2C634.7,136.3,635,138.3,635,140.6z M630.1,140.7c0-3-0.4-5.2-1.2-6.8c-0.8-1.5-1.9-2.3-3.4-2.3
				c-3,0-4.5,3-4.5,9c0,6,1.5,9,4.6,9c1.5,0,2.6-0.8,3.4-2.5C629.7,145.6,630.1,143.4,630.1,140.7z"/>
			<path class="st0" d="M651.6,153.7v-16c0-2.2-0.2-3.7-0.7-4.7c-0.5-0.9-1.3-1.4-2.5-1.4c-0.8,0-1.5,0.2-2.1,0.6
				c-0.7,0.4-1.2,1-1.7,1.8v19.7h-4.8v-26.1h4.8l0,1.8c0.5-0.7,1.2-1.2,2.1-1.7c0.9-0.5,1.9-0.7,3-0.7c2.5,0,4.3,0.8,5.3,2.4
				c1,1.6,1.5,4.1,1.5,7.4v16.8H651.6z"/>
			<path class="st0" d="M690.3,140.6c0,0.2,0,0.5,0,0.8c0,0.3,0,0.6,0,0.9h-13.6c0.2,2.6,0.7,4.5,1.5,5.6c0.9,1.2,2,1.8,3.4,1.8
				c1.1,0,2-0.1,2.6-0.4c0.6-0.3,1.3-0.8,2.1-1.5l2.9,3c-0.9,1-2,1.8-3.3,2.5c-1.3,0.7-2.8,1-4.5,1c-1.6,0-2.9-0.3-4.1-0.9
				c-1.2-0.6-2.2-1.5-3-2.7c-0.8-1.2-1.4-2.6-1.8-4.2c-0.4-1.7-0.6-3.5-0.6-5.6c0-2.3,0.2-4.3,0.7-6s1.1-3.1,1.9-4.3
				c0.8-1.1,1.8-2,2.9-2.6c1.1-0.6,2.4-0.9,3.8-0.9c1.3,0,2.5,0.3,3.6,0.8s2.1,1.4,2.9,2.5c0.8,1.1,1.5,2.5,1.9,4.2
				C690.1,136.3,690.3,138.3,690.3,140.6z M685.5,138.2c-0.1-2-0.5-3.5-1.2-4.8c-0.8-1.2-1.8-1.8-3.2-1.8c-2.5,0-4,2.2-4.4,6.6
				H685.5z"/>
			<path class="st0" d="M705.3,153.1c-0.6,0.4-1.2,0.7-1.9,0.9c-0.7,0.2-1.5,0.3-2.4,0.3c-1.8,0-3.1-0.6-3.9-1.7
				c-0.8-1.2-1.2-2.8-1.2-4.9v-15.5h-2.8v-4.5h2.8V120l4.8-2.5v10.1h5v4.5h-5v15c0,0.9,0.2,1.6,0.5,2c0.3,0.4,0.8,0.6,1.5,0.6
				c0.6,0,1.2-0.1,1.7-0.3c0.5-0.2,1-0.5,1.3-0.7L705.3,153.1z"/>
			<path class="st0" d="M732.9,153.7v-1.8c-0.7,0.8-1.4,1.3-2.3,1.7c-0.9,0.4-1.9,0.6-3.1,0.6c-1,0-1.9-0.2-2.7-0.5
				c-0.9-0.4-1.6-0.9-2.3-1.6c-0.6-0.7-1.2-1.6-1.5-2.7c-0.4-1.1-0.6-2.4-0.6-3.8c0-2.8,0.8-5,2.4-6.4c1.6-1.4,3.6-2.1,6.1-2.1
				c0.8,0,1.5,0.1,2.2,0.2c0.7,0.1,1.3,0.4,1.8,0.6v-2.5c0-1.3-0.2-2.2-0.7-2.8c-0.5-0.6-1.4-0.9-2.6-0.9c-0.8,0-1.6,0.1-2.4,0.4
				c-0.8,0.2-1.7,0.7-2.7,1.3l-2-3.6c1.2-0.8,2.4-1.4,3.8-1.8c1.3-0.4,2.6-0.6,3.8-0.6c1.4,0,2.6,0.1,3.6,0.4c1,0.3,1.8,0.7,2.5,1.3
				c0.6,0.6,1.1,1.4,1.4,2.4c0.3,1,0.4,2.2,0.4,3.7v18.8H732.9z M728.1,124.1l-7.2-7.9h6.7l4.6,7.9H728.1z M732.9,142.3
				c-0.6-0.4-1.1-0.6-1.7-0.8c-0.6-0.1-1.3-0.2-2.2-0.2c-1.1,0-2,0.3-2.7,1c-0.7,0.7-1,1.7-1,3.1c0,1.6,0.3,2.7,0.9,3.4
				c0.6,0.7,1.4,1.1,2.4,1.1c2,0,3.5-0.8,4.4-2.4V142.3z"/>
			<path class="st0" d="M754.4,153.7V120l4.8-2.5v36.2H754.4z"/>
			<path class="st0" d="M776.3,153.7v-1.8c-0.7,0.8-1.4,1.3-2.3,1.7c-0.9,0.4-1.9,0.6-3.1,0.6c-1,0-1.9-0.2-2.7-0.5
				c-0.9-0.4-1.6-0.9-2.3-1.6c-0.6-0.7-1.2-1.6-1.5-2.7c-0.4-1.1-0.6-2.4-0.6-3.8c0-2.8,0.8-5,2.4-6.4c1.6-1.4,3.6-2.1,6.1-2.1
				c0.8,0,1.5,0.1,2.2,0.2c0.7,0.1,1.3,0.4,1.8,0.6v-2.5c0-1.3-0.2-2.2-0.7-2.8c-0.5-0.6-1.4-0.9-2.6-0.9c-0.8,0-1.6,0.1-2.4,0.4
				c-0.8,0.2-1.7,0.7-2.7,1.3l-2-3.6c1.2-0.8,2.4-1.4,3.8-1.8c1.3-0.4,2.6-0.6,3.8-0.6c1.4,0,2.6,0.1,3.6,0.4c1,0.3,1.8,0.7,2.5,1.3
				c0.6,0.6,1.1,1.4,1.4,2.4c0.3,1,0.4,2.2,0.4,3.7v18.8H776.3z M776.3,142.3c-0.6-0.4-1.1-0.6-1.7-0.8c-0.6-0.1-1.3-0.2-2.2-0.2
				c-1.1,0-2,0.3-2.7,1c-0.7,0.7-1,1.7-1,3.1c0,1.6,0.3,2.7,0.9,3.4c0.6,0.7,1.4,1.1,2.4,1.1c2,0,3.5-0.8,4.4-2.4V142.3z"/>
			<path class="st0" d="M169.6,200.5c0,4.4-0.7,7.7-2.2,9.9c-1.4,2.3-3.4,3.4-6,3.4c-1.7,0-3.2-0.6-4.5-1.9v8.5l-4.8,2.5v-35.7h4.8
				l0,1.7c0.6-0.7,1.3-1.2,2-1.6c0.7-0.4,1.7-0.6,2.8-0.6c1.2,0,2.3,0.2,3.2,0.7c1,0.5,1.8,1.2,2.5,2.3c0.7,1.1,1.2,2.5,1.6,4.3
				C169.4,195.8,169.6,198,169.6,200.5z M164.8,200.8c0-3.4-0.3-5.9-1-7.4c-0.6-1.5-1.7-2.3-3-2.3c-0.8,0-1.5,0.2-2.2,0.7
				c-0.7,0.4-1.2,1-1.7,1.7V207c0.5,0.8,1.2,1.4,1.9,1.8c0.7,0.4,1.5,0.6,2.2,0.6c1.2,0,2.1-0.7,2.8-2
				C164.5,206.1,164.8,203.9,164.8,200.8z"/>
			<path class="st0" d="M186.2,192.3c-0.5-0.3-0.9-0.5-1.4-0.6c-0.5-0.1-1.1-0.2-1.9-0.2c-0.7,0-1.3,0.1-1.9,0.4
				c-0.6,0.3-1.2,0.8-1.8,1.6v19.7h-4.8v-26.1h4.8v1.8c0.5-0.7,1.2-1.2,2-1.7c0.8-0.4,1.7-0.7,2.6-0.7c0.8,0,1.5,0.1,2.1,0.2
				c0.6,0.2,1.1,0.4,1.5,0.6L186.2,192.3z"/>
			<path class="st0" d="M208,200.2c0,4.6-0.9,8-2.6,10.3c-1.7,2.3-4,3.4-6.9,3.4c-1.4,0-2.6-0.3-3.7-0.8c-1.1-0.5-2.1-1.4-2.9-2.5
				c-0.8-1.1-1.5-2.5-1.9-4.2c-0.4-1.7-0.7-3.7-0.7-6c0-4.6,0.8-8,2.5-10.3s4-3.4,6.9-3.4c1.4,0,2.7,0.3,3.8,0.8s2.1,1.4,2.9,2.5
				c0.8,1.1,1.4,2.5,1.9,4.2C207.7,195.9,208,197.9,208,200.2z M203.1,200.3c0-3-0.4-5.2-1.2-6.8c-0.8-1.5-1.9-2.3-3.4-2.3
				c-3,0-4.5,3-4.5,9c0,6,1.5,9,4.6,9c1.5,0,2.6-0.8,3.4-2.5C202.7,205.2,203.1,203,203.1,200.3z"/>
			<path class="st0" d="M223,212.7c-0.6,0.4-1.2,0.7-1.9,0.9c-0.7,0.2-1.5,0.3-2.4,0.3c-1.8,0-3.1-0.6-3.9-1.7
				c-0.8-1.2-1.2-2.8-1.2-4.9v-15.5h-2.8v-4.5h2.8v-7.6l4.8-2.5v10.1h5v4.5h-5v15c0,0.9,0.2,1.6,0.5,2c0.3,0.4,0.8,0.6,1.5,0.6
				c0.6,0,1.2-0.1,1.7-0.3c0.5-0.2,1-0.5,1.3-0.7L223,212.7z"/>
			<path class="st0" d="M245.3,200.2c0,0.2,0,0.5,0,0.8c0,0.3,0,0.6,0,0.9h-13.6c0.2,2.6,0.7,4.5,1.5,5.6c0.9,1.2,2,1.8,3.4,1.8
				c1.1,0,2-0.1,2.6-0.4c0.6-0.3,1.3-0.8,2.1-1.5l2.9,3c-0.9,1-2,1.8-3.3,2.5c-1.3,0.7-2.8,1-4.5,1c-1.6,0-2.9-0.3-4.1-0.9
				c-1.2-0.6-2.2-1.5-3-2.7c-0.8-1.2-1.4-2.6-1.8-4.2c-0.4-1.7-0.6-3.5-0.6-5.6c0-2.3,0.2-4.3,0.7-6c0.4-1.7,1.1-3.1,1.9-4.3
				s1.8-2,2.9-2.6c1.1-0.6,2.4-0.9,3.8-0.9c1.3,0,2.5,0.3,3.6,0.8c1.1,0.6,2.1,1.4,2.9,2.5c0.8,1.1,1.5,2.5,1.9,4.2
				C245.1,195.9,245.3,197.9,245.3,200.2z M240.5,197.8c-0.1-2-0.5-3.5-1.2-4.8c-0.8-1.2-1.8-1.8-3.2-1.8c-2.5,0-4,2.2-4.4,6.6
				H240.5z"/>
			<path class="st0" d="M262.9,212.6c-1.2,0.8-2.7,1.3-4.6,1.3c-2.7,0-4.9-1.1-6.6-3.3c-1.7-2.2-2.5-5.6-2.5-10.2
				c0-4.6,0.8-8,2.5-10.3c1.6-2.3,3.9-3.4,6.8-3.4c0.9,0,1.8,0.1,2.5,0.3c0.7,0.2,1.4,0.6,2,1c0.6,0.4,1.1,0.9,1.6,1.5
				c0.5,0.6,0.9,1.2,1.2,1.8l-3.4,3c-0.7-1.1-1.3-1.8-1.9-2.3c-0.6-0.5-1.3-0.7-2.2-0.7c-1.5,0-2.6,0.8-3.3,2.4
				c-0.7,1.6-1,3.8-1,6.7c0,2.8,0.3,5,1,6.6c0.7,1.6,1.8,2.4,3.4,2.4c0.8,0,1.5-0.2,2.1-0.7c0.6-0.4,1.2-1.2,1.9-2.2l3.4,2.8
				C265.1,210.6,264,211.7,262.9,212.6z"/>
			<path class="st0" d="M280.9,212.7c-0.6,0.4-1.2,0.7-1.9,0.9c-0.7,0.2-1.5,0.3-2.4,0.3c-1.8,0-3.1-0.6-3.9-1.7
				c-0.8-1.2-1.2-2.8-1.2-4.9v-15.5h-2.8v-4.5h2.8v-7.6l4.8-2.5v10.1h5v4.5h-5v15c0,0.9,0.2,1.6,0.5,2c0.3,0.4,0.8,0.6,1.5,0.6
				c0.6,0,1.2-0.1,1.7-0.3c0.5-0.2,1-0.5,1.3-0.7L280.9,212.7z"/>
			<path class="st0" d="M291.9,180.2c0,0.8-0.3,1.5-0.9,2.1c-0.6,0.6-1.3,0.9-2.1,0.9c-0.8,0-1.5-0.3-2.1-0.9
				c-0.6-0.6-0.9-1.3-0.9-2.1c0-0.8,0.3-1.5,0.9-2.1c0.6-0.6,1.3-0.9,2.1-0.9c0.8,0,1.5,0.3,2.1,0.9
				C291.6,178.7,291.9,179.4,291.9,180.2z M286.6,213.3v-26.1h4.8v26.1H286.6z"/>
			<path class="st0" d="M315.1,200.2c0,4.6-0.9,8-2.6,10.3c-1.7,2.3-4,3.4-6.9,3.4c-1.4,0-2.6-0.3-3.7-0.8c-1.1-0.5-2.1-1.4-2.9-2.5
				c-0.8-1.1-1.5-2.5-1.9-4.2c-0.4-1.7-0.7-3.7-0.7-6c0-4.6,0.8-8,2.5-10.3c1.7-2.3,4-3.4,6.9-3.4c1.4,0,2.7,0.3,3.8,0.8
				c1.1,0.6,2.1,1.4,2.9,2.5c0.8,1.1,1.4,2.5,1.9,4.2C314.9,195.9,315.1,197.9,315.1,200.2z M310.3,200.3c0-3-0.4-5.2-1.2-6.8
				c-0.8-1.5-1.9-2.3-3.4-2.3c-3,0-4.5,3-4.5,9c0,6,1.5,9,4.6,9c1.5,0,2.6-0.8,3.4-2.5C309.9,205.2,310.3,203,310.3,200.3z"/>
			<path class="st0" d="M331.8,213.3v-16c0-2.2-0.2-3.7-0.7-4.7c-0.5-0.9-1.3-1.4-2.5-1.4c-0.8,0-1.5,0.2-2.1,0.6
				c-0.7,0.4-1.2,1-1.7,1.8v19.7h-4.8v-26.1h4.8l0,1.8c0.5-0.7,1.2-1.2,2.1-1.7c0.9-0.5,1.9-0.7,3-0.7c2.5,0,4.3,0.8,5.3,2.4
				c1,1.6,1.5,4.1,1.5,7.4v16.8H331.8z"/>
			<path class="st0" d="M364.8,213.3v-1.7c-0.6,0.7-1.3,1.2-2,1.6c-0.7,0.4-1.7,0.6-2.8,0.6c-1.2,0-2.3-0.2-3.2-0.7
				c-1-0.5-1.8-1.2-2.5-2.3c-0.7-1.1-1.2-2.5-1.6-4.3c-0.4-1.8-0.6-3.9-0.6-6.5c0-4.4,0.7-7.7,2.2-9.9c1.4-2.3,3.5-3.4,6-3.4
				c1.8,0,3.3,0.6,4.5,1.9v-9l4.8-2.5v36.2H364.8z M364.8,193.5c-0.5-0.8-1.2-1.4-1.9-1.8c-0.7-0.4-1.5-0.6-2.2-0.6
				c-1.3,0-2.2,0.7-2.8,2c-0.6,1.3-0.9,3.5-0.9,6.6c0,3.4,0.3,5.9,1,7.4c0.6,1.5,1.7,2.3,3.1,2.3c0.8,0,1.5-0.2,2.2-0.7
				c0.7-0.4,1.2-1,1.7-1.7V193.5z"/>
			<path class="st0" d="M392.8,200.2c0,0.2,0,0.5,0,0.8c0,0.3,0,0.6,0,0.9h-13.6c0.2,2.6,0.7,4.5,1.5,5.6c0.9,1.2,2,1.8,3.4,1.8
				c1.1,0,2-0.1,2.6-0.4c0.6-0.3,1.3-0.8,2.1-1.5l2.9,3c-0.9,1-2,1.8-3.3,2.5c-1.3,0.7-2.8,1-4.5,1c-1.6,0-2.9-0.3-4.1-0.9
				c-1.2-0.6-2.2-1.5-3-2.7c-0.8-1.2-1.4-2.6-1.8-4.2c-0.4-1.7-0.6-3.5-0.6-5.6c0-2.3,0.2-4.3,0.7-6c0.4-1.7,1.1-3.1,1.9-4.3
				c0.8-1.1,1.8-2,2.9-2.6c1.1-0.6,2.4-0.9,3.8-0.9c1.3,0,2.5,0.3,3.6,0.8c1.1,0.6,2.1,1.4,2.9,2.5c0.8,1.1,1.5,2.5,1.9,4.2
				C392.5,195.9,392.8,197.9,392.8,200.2z M388,197.8c-0.1-2-0.5-3.5-1.2-4.8c-0.8-1.2-1.8-1.8-3.2-1.8c-2.5,0-4,2.2-4.4,6.6H388z"
				/>
			<path class="st0" d="M408.8,213.3v-33.7l4.8-2.5v36.2H408.8z"/>
			<path class="st0" d="M430.6,213.3v-1.8c-0.7,0.8-1.4,1.3-2.3,1.7c-0.9,0.4-1.9,0.6-3.1,0.6c-1,0-1.9-0.2-2.7-0.5
				c-0.9-0.4-1.6-0.9-2.3-1.6c-0.6-0.7-1.2-1.6-1.5-2.7c-0.4-1.1-0.6-2.4-0.6-3.8c0-2.8,0.8-5,2.4-6.4c1.6-1.4,3.6-2.1,6.1-2.1
				c0.8,0,1.5,0.1,2.2,0.2c0.7,0.1,1.3,0.4,1.8,0.6v-2.5c0-1.3-0.2-2.2-0.7-2.8c-0.5-0.6-1.4-0.9-2.6-0.9c-0.8,0-1.6,0.1-2.4,0.4
				c-0.8,0.2-1.7,0.7-2.7,1.3l-2-3.6c1.2-0.8,2.4-1.4,3.8-1.8c1.3-0.4,2.6-0.6,3.8-0.6c1.4,0,2.6,0.1,3.6,0.4c1,0.3,1.8,0.7,2.5,1.3
				s1.1,1.4,1.4,2.4c0.3,1,0.4,2.2,0.4,3.7v18.8H430.6z M430.6,201.9c-0.6-0.4-1.1-0.6-1.7-0.8c-0.6-0.1-1.3-0.2-2.2-0.2
				c-1.1,0-2,0.3-2.7,1c-0.7,0.7-1,1.7-1,3.1c0,1.6,0.3,2.7,0.9,3.4c0.6,0.7,1.4,1.1,2.4,1.1c2,0,3.5-0.8,4.4-2.4V201.9z"/>
			<path class="st0" d="M462.3,213.3h-5.5l-6.6-26.1h4.9l3.2,14.1c0.1,0.4,0.2,1,0.3,1.6s0.3,1.2,0.4,1.9c0.1,0.6,0.2,1.2,0.3,1.8
				c0.1,0.6,0.2,1,0.2,1.3c0-0.3,0.1-0.7,0.2-1.3c0.1-0.6,0.2-1.2,0.4-1.8s0.3-1.3,0.4-1.9c0.1-0.6,0.2-1.2,0.3-1.6l3-14h4.9
				L462.3,213.3z"/>
			<path class="st0" d="M478.2,180.2c0,0.8-0.3,1.5-0.9,2.1c-0.6,0.6-1.3,0.9-2.1,0.9c-0.8,0-1.5-0.3-2.1-0.9
				c-0.6-0.6-0.9-1.3-0.9-2.1c0-0.8,0.3-1.5,0.9-2.1c0.6-0.6,1.3-0.9,2.1-0.9c0.8,0,1.5,0.3,2.1,0.9
				C477.9,178.7,478.2,179.4,478.2,180.2z M472.8,213.3v-26.1h4.8v26.1H472.8z"/>
			<path class="st0" d="M501.1,200.2c0,0.2,0,0.5,0,0.8c0,0.3,0,0.6,0,0.9h-13.6c0.2,2.6,0.7,4.5,1.5,5.6c0.9,1.2,2,1.8,3.4,1.8
				c1.1,0,2-0.1,2.6-0.4c0.6-0.3,1.3-0.8,2.1-1.5l2.9,3c-0.9,1-2,1.8-3.3,2.5c-1.3,0.7-2.8,1-4.5,1c-1.6,0-2.9-0.3-4.1-0.9
				c-1.2-0.6-2.2-1.5-3-2.7c-0.8-1.2-1.4-2.6-1.8-4.2c-0.4-1.7-0.6-3.5-0.6-5.6c0-2.3,0.2-4.3,0.7-6c0.4-1.7,1.1-3.1,1.9-4.3
				c0.8-1.1,1.8-2,2.9-2.6c1.1-0.6,2.4-0.9,3.8-0.9c1.3,0,2.5,0.3,3.6,0.8c1.1,0.6,2.1,1.4,2.9,2.5c0.8,1.1,1.5,2.5,1.9,4.2
				C500.8,195.9,501.1,197.9,501.1,200.2z M496.2,197.8c-0.1-2-0.5-3.5-1.2-4.8c-0.8-1.2-1.8-1.8-3.2-1.8c-2.5,0-4,2.2-4.4,6.6
				H496.2z"/>
			<path class="st0" d="M534.3,200.5c0,4.4-0.7,7.7-2.2,9.9c-1.4,2.3-3.4,3.4-6,3.4c-1.7,0-3.2-0.6-4.5-1.9v8.5l-4.8,2.5v-35.7h4.8
				l0,1.7c0.6-0.7,1.3-1.2,2-1.6c0.7-0.4,1.7-0.6,2.8-0.6c1.2,0,2.3,0.2,3.2,0.7c1,0.5,1.8,1.2,2.5,2.3c0.7,1.1,1.2,2.5,1.6,4.3
				C534.1,195.8,534.3,198,534.3,200.5z M529.5,200.8c0-3.4-0.3-5.9-1-7.4c-0.6-1.5-1.7-2.3-3-2.3c-0.8,0-1.5,0.2-2.2,0.7
				c-0.7,0.4-1.2,1-1.7,1.7V207c0.5,0.8,1.2,1.4,1.9,1.8c0.7,0.4,1.5,0.6,2.2,0.6c1.2,0,2.1-0.7,2.8-2
				C529.1,206.1,529.5,203.9,529.5,200.8z"/>
			<path class="st0" d="M550.9,192.3c-0.5-0.3-0.9-0.5-1.4-0.6c-0.5-0.1-1.1-0.2-1.9-0.2c-0.7,0-1.3,0.1-1.9,0.4
				c-0.6,0.3-1.2,0.8-1.8,1.6v19.7H539v-26.1h4.8v1.8c0.5-0.7,1.2-1.2,2-1.7c0.8-0.4,1.7-0.7,2.6-0.7c0.8,0,1.5,0.1,2.1,0.2
				c0.6,0.2,1.1,0.4,1.5,0.6L550.9,192.3z"/>
			<path class="st0" d="M561.3,180.2c0,0.8-0.3,1.5-0.9,2.1c-0.6,0.6-1.3,0.9-2.1,0.9c-0.8,0-1.5-0.3-2.1-0.9
				c-0.6-0.6-0.9-1.3-0.9-2.1c0-0.8,0.3-1.5,0.9-2.1c0.6-0.6,1.3-0.9,2.1-0.9c0.8,0,1.5,0.3,2.1,0.9
				C561,178.7,561.3,179.4,561.3,180.2z M556,213.3v-26.1h4.8v26.1H556z"/>
			<path class="st0" d="M577,213.3h-5.5l-6.6-26.1h4.9l3.2,14.1c0.1,0.4,0.2,1,0.3,1.6s0.3,1.2,0.4,1.9c0.1,0.6,0.2,1.2,0.3,1.8
				c0.1,0.6,0.2,1,0.2,1.3c0-0.3,0.1-0.7,0.2-1.3c0.1-0.6,0.2-1.2,0.4-1.8s0.3-1.3,0.4-1.9s0.2-1.2,0.3-1.6l3-14h4.9L577,213.3z"/>
			<path class="st0" d="M604.9,200.2c0,0.2,0,0.5,0,0.8c0,0.3,0,0.6,0,0.9h-13.6c0.2,2.6,0.7,4.5,1.5,5.6c0.9,1.2,2,1.8,3.4,1.8
				c1.1,0,2-0.1,2.6-0.4c0.6-0.3,1.3-0.8,2.1-1.5l2.9,3c-0.9,1-2,1.8-3.3,2.5c-1.3,0.7-2.8,1-4.5,1c-1.6,0-2.9-0.3-4.1-0.9
				c-1.2-0.6-2.2-1.5-3-2.7c-0.8-1.2-1.4-2.6-1.8-4.2c-0.4-1.7-0.6-3.5-0.6-5.6c0-2.3,0.2-4.3,0.7-6c0.4-1.7,1.1-3.1,1.9-4.3
				c0.8-1.1,1.8-2,2.9-2.6c1.1-0.6,2.4-0.9,3.8-0.9c1.3,0,2.5,0.3,3.6,0.8s2.1,1.4,2.9,2.5c0.8,1.1,1.5,2.5,1.9,4.2
				C604.6,195.9,604.9,197.9,604.9,200.2z M600,197.8c-0.1-2-0.5-3.5-1.2-4.8c-0.8-1.2-1.8-1.8-3.2-1.8c-2.5,0-4,2.2-4.4,6.6H600z
				 M597.3,183.8h-4.1l4.6-7.9h6.7L597.3,183.8z"/>
			<path class="st0" d="M627.2,200.2c0,0.2,0,0.5,0,0.8c0,0.3,0,0.6,0,0.9h-13.6c0.2,2.6,0.7,4.5,1.5,5.6c0.9,1.2,2,1.8,3.4,1.8
				c1.1,0,2-0.1,2.6-0.4c0.6-0.3,1.3-0.8,2.1-1.5l2.9,3c-0.9,1-2,1.8-3.3,2.5c-1.3,0.7-2.8,1-4.5,1c-1.6,0-2.9-0.3-4.1-0.9
				c-1.2-0.6-2.2-1.5-3-2.7c-0.8-1.2-1.4-2.6-1.8-4.2c-0.4-1.7-0.6-3.5-0.6-5.6c0-2.3,0.2-4.3,0.7-6c0.4-1.7,1.1-3.1,1.9-4.3
				c0.8-1.1,1.8-2,2.9-2.6c1.1-0.6,2.4-0.9,3.8-0.9c1.3,0,2.5,0.3,3.6,0.8c1.1,0.6,2.1,1.4,2.9,2.5c0.8,1.1,1.5,2.5,1.9,4.2
				C627,195.9,627.2,197.9,627.2,200.2z M622.4,197.8c-0.1-2-0.5-3.5-1.2-4.8c-0.8-1.2-1.8-1.8-3.2-1.8c-2.5,0-4,2.2-4.4,6.6H622.4z
				"/>
			<path class="st0" d="M654.8,213.3v-1.7c-0.6,0.7-1.3,1.2-2,1.6c-0.7,0.4-1.7,0.6-2.8,0.6c-1.2,0-2.3-0.2-3.2-0.7
				s-1.8-1.2-2.5-2.3c-0.7-1.1-1.2-2.5-1.6-4.3c-0.4-1.8-0.6-3.9-0.6-6.5c0-4.4,0.7-7.7,2.2-9.9c1.4-2.3,3.5-3.4,6-3.4
				c1.8,0,3.3,0.6,4.5,1.9v-9l4.8-2.5v36.2H654.8z M654.8,193.5c-0.5-0.8-1.2-1.4-1.9-1.8s-1.5-0.6-2.2-0.6c-1.3,0-2.2,0.7-2.8,2
				c-0.6,1.3-0.9,3.5-0.9,6.6c0,3.4,0.3,5.9,1,7.4c0.6,1.5,1.7,2.3,3.1,2.3c0.8,0,1.5-0.2,2.2-0.7c0.7-0.4,1.2-1,1.7-1.7V193.5z"/>
			<path class="st0" d="M682.7,200.2c0,0.2,0,0.5,0,0.8c0,0.3,0,0.6,0,0.9h-13.6c0.2,2.6,0.7,4.5,1.5,5.6c0.9,1.2,2,1.8,3.4,1.8
				c1.1,0,2-0.1,2.6-0.4c0.6-0.3,1.3-0.8,2.1-1.5l2.9,3c-0.9,1-2,1.8-3.3,2.5c-1.3,0.7-2.8,1-4.5,1c-1.6,0-2.9-0.3-4.1-0.9
				c-1.2-0.6-2.2-1.5-3-2.7c-0.8-1.2-1.4-2.6-1.8-4.2c-0.4-1.7-0.6-3.5-0.6-5.6c0-2.3,0.2-4.3,0.7-6c0.4-1.7,1.1-3.1,1.9-4.3
				c0.8-1.1,1.8-2,2.9-2.6c1.1-0.6,2.4-0.9,3.8-0.9c1.3,0,2.5,0.3,3.6,0.8s2.1,1.4,2.9,2.5c0.8,1.1,1.5,2.5,1.9,4.2
				C682.5,195.9,682.7,197.9,682.7,200.2z M677.9,197.8c-0.1-2-0.5-3.5-1.2-4.8c-0.8-1.2-1.8-1.8-3.2-1.8c-2.5,0-4,2.2-4.4,6.6
				H677.9z"/>
			<path class="st0" d="M698.7,213.3v-33.7l4.8-2.5v36.2H698.7z"/>
			<path class="st0" d="M712.9,190.4h-3.2l0.6-11.9h5.9L712.9,190.4z"/>
			<path class="st0" d="M740.2,195.9c0,2.5-0.2,4.9-0.6,7.1c-0.4,2.2-1.1,4.1-1.9,5.7c-0.9,1.6-2,2.9-3.3,3.8
				c-1.3,0.9-2.9,1.4-4.7,1.4c-1.9,0-3.4-0.5-4.7-1.4c-1.3-0.9-2.4-2.2-3.2-3.8c-0.8-1.6-1.5-3.5-1.9-5.7s-0.6-4.5-0.6-7.1
				c0-2.5,0.2-4.9,0.6-7.1s1-4.1,1.9-5.7c0.9-1.6,1.9-2.9,3.3-3.8c1.3-0.9,2.9-1.4,4.7-1.4c1.8,0,3.4,0.5,4.7,1.4
				c1.3,0.9,2.4,2.2,3.3,3.8c0.8,1.6,1.5,3.5,1.9,5.7C740,191,740.2,193.4,740.2,195.9z M735.2,196c0-1.6-0.1-3.2-0.3-4.8
				c-0.2-1.6-0.5-3-1-4.2c-0.4-1.2-1-2.2-1.7-3c-0.7-0.8-1.6-1.1-2.7-1.1c-1.1,0-1.9,0.4-2.6,1.1c-0.7,0.7-1.2,1.7-1.7,3
				c-0.4,1.2-0.7,2.6-0.9,4.2c-0.2,1.6-0.2,3.1-0.2,4.8s0.1,3.2,0.3,4.8c0.2,1.6,0.5,3,0.9,4.2c0.4,1.2,1,2.2,1.7,3
				c0.7,0.8,1.6,1.1,2.7,1.1s1.9-0.4,2.6-1.1c0.7-0.7,1.3-1.7,1.7-3c0.4-1.2,0.7-2.6,0.9-4.2C735.2,199.2,735.2,197.6,735.2,196z"/>
			<path class="st0" d="M757.1,213.3v-16c0-2.2-0.2-3.7-0.7-4.7c-0.5-0.9-1.3-1.4-2.5-1.4c-0.8,0-1.5,0.2-2.1,0.6
				c-0.7,0.4-1.2,1-1.7,1.8v19.7h-4.8v-26.1h4.8l0,1.8c0.5-0.7,1.2-1.2,2.1-1.7c0.9-0.5,1.9-0.7,3-0.7c2.5,0,4.3,0.8,5.3,2.4
				c1,1.6,1.5,4.1,1.5,7.4v16.8H757.1z"/>
			<path class="st0" d="M777.8,212.7c-0.6,0.4-1.2,0.7-1.9,0.9c-0.7,0.2-1.5,0.3-2.4,0.3c-1.8,0-3.1-0.6-3.9-1.7
				c-0.8-1.2-1.2-2.8-1.2-4.9v-15.5h-2.8v-4.5h2.8v-7.6l4.8-2.5v10.1h5v4.5h-5v15c0,0.9,0.2,1.6,0.5,2c0.3,0.4,0.8,0.6,1.5,0.6
				c0.6,0,1.2-0.1,1.7-0.3c0.5-0.2,1-0.5,1.3-0.7L777.8,212.7z"/>
			<path class="st0" d="M793.9,213.3v-1.8c-0.7,0.8-1.4,1.3-2.3,1.7c-0.9,0.4-1.9,0.6-3.1,0.6c-1,0-1.9-0.2-2.7-0.5
				c-0.9-0.4-1.6-0.9-2.3-1.6c-0.6-0.7-1.2-1.6-1.5-2.7c-0.4-1.1-0.6-2.4-0.6-3.8c0-2.8,0.8-5,2.4-6.4c1.6-1.4,3.6-2.1,6.1-2.1
				c0.8,0,1.5,0.1,2.2,0.2c0.7,0.1,1.3,0.4,1.8,0.6v-2.5c0-1.3-0.2-2.2-0.7-2.8c-0.5-0.6-1.4-0.9-2.6-0.9c-0.8,0-1.6,0.1-2.4,0.4
				c-0.8,0.2-1.7,0.7-2.7,1.3l-2-3.6c1.2-0.8,2.4-1.4,3.8-1.8c1.3-0.4,2.6-0.6,3.8-0.6c1.4,0,2.6,0.1,3.6,0.4c1,0.3,1.8,0.7,2.5,1.3
				s1.1,1.4,1.4,2.4c0.3,1,0.4,2.2,0.4,3.7v18.8H793.9z M793.9,201.9c-0.6-0.4-1.1-0.6-1.7-0.8c-0.6-0.1-1.3-0.2-2.2-0.2
				c-1.1,0-2,0.3-2.7,1c-0.7,0.7-1,1.7-1,3.1c0,1.6,0.3,2.7,0.9,3.4c0.6,0.7,1.4,1.1,2.4,1.1c2,0,3.5-0.8,4.4-2.4V201.9z"/>
			<path class="st0" d="M816.2,192.3c-0.5-0.3-0.9-0.5-1.4-0.6c-0.5-0.1-1.1-0.2-1.9-0.2c-0.7,0-1.3,0.1-1.9,0.4
				c-0.6,0.3-1.2,0.8-1.8,1.6v19.7h-4.8v-26.1h4.8v1.8c0.5-0.7,1.2-1.2,2-1.7c0.8-0.4,1.7-0.7,2.6-0.7c0.8,0,1.5,0.1,2.1,0.2
				s1.1,0.4,1.5,0.6L816.2,192.3z"/>
			<path class="st0" d="M826.6,180.2c0,0.8-0.3,1.5-0.9,2.1c-0.6,0.6-1.3,0.9-2.1,0.9c-0.8,0-1.5-0.3-2.1-0.9
				c-0.6-0.6-0.9-1.3-0.9-2.1c0-0.8,0.3-1.5,0.9-2.1c0.6-0.6,1.3-0.9,2.1-0.9c0.8,0,1.5,0.3,2.1,0.9
				C826.3,178.7,826.6,179.4,826.6,180.2z M821.3,213.3v-26.1h4.8v26.1H821.3z"/>
			<path class="st0" d="M849.8,200.2c0,4.6-0.9,8-2.6,10.3c-1.7,2.3-4,3.4-6.9,3.4c-1.4,0-2.6-0.3-3.7-0.8c-1.1-0.5-2.1-1.4-2.9-2.5
				c-0.8-1.1-1.5-2.5-1.9-4.2s-0.7-3.7-0.7-6c0-4.6,0.8-8,2.5-10.3s4-3.4,6.9-3.4c1.4,0,2.7,0.3,3.8,0.8s2.1,1.4,2.9,2.5
				c0.8,1.1,1.4,2.5,1.9,4.2C849.6,195.9,849.8,197.9,849.8,200.2z M845,200.3c0-3-0.4-5.2-1.2-6.8c-0.8-1.5-1.9-2.3-3.4-2.3
				c-3,0-4.5,3-4.5,9c0,6,1.5,9,4.6,9c1.5,0,2.6-0.8,3.4-2.5C844.6,205.2,845,203,845,200.3z"/>
		</g>
		<g>
			<path class="st0" d="M0,220.5v-5.5h16.7V70.7H0.6l0.1-5.6L67,65.2l0.3,20.1c0,0-7.2-0.1-9,8.6c-0.9,4.3,0.6,7.5,2.5,10.1
				c1.9,2.6,4.3,3.2,4.3,3.2L59,138.9l7.9,0.1v76.1l16.9,0v5.5H0z"/>
			<path class="st0" d="M70.6,65.1l0.1,20.3c0,0,10.2,2.2,8.2,14.3c0,0-1.1,6.4-6.8,7.5l6.8,31.9h-8.6v19.6c0,0,11.7,1.7,25.6-4.5
				c9.8-4.3,22.7-11.4,28-30C123.9,124.2,138.1,68.5,70.6,65.1z"/>
			<path class="st0" d="M75.5,30.3c0,16.7-14.1,30.3-31.4,30.3c-17.4,0-31.4-13.5-31.4-30.3C12.6,13.5,26.7,0,44.1,0
				C61.4,0,75.5,13.5,75.5,30.3z"/>
		</g>
	</g>
</g>
</svg>
