<svg width="69" height="65" viewBox="0 0 69 65" fill="none" xmlns="http://www.w3.org/2000/svg">
<mask id="mask0_2205_21863" style="mask-type:alpha" maskUnits="userSpaceOnUse" x="0" y="0" width="69" height="65">
<path d="M48.6954 64.638L29.6582 32.5754L48.6954 0.638H68.8598L49.8226 32.5754L68.8598 64.638H48.6954ZM19.5134 64.638L0.476196 32.5754L19.5134 0.638H39.5526L20.5154 32.5754L39.5526 64.638H19.5134Z" fill="#002554"/>
</mask>
<g mask="url(#mask0_2205_21863)">
<line y1="-0.539848" x2="132.94" y2="-0.539848" transform="matrix(-0.511952 0.859014 -0.850177 -0.526496 0.37915 -14.3807)" stroke="#C3E86C" stroke-width="1.0797"/>
<line y1="-0.539848" x2="132.94" y2="-0.539848" transform="matrix(-0.511952 0.859014 -0.850177 -0.526496 4.9823 -14.2773)" stroke="#C3E86C" stroke-width="1.0797"/>
<line y1="-0.539848" x2="132.94" y2="-0.539848" transform="matrix(-0.511952 0.859014 -0.850177 -0.526496 9.58533 -14.174)" stroke="#C3E86C" stroke-width="1.0797"/>
<line y1="-0.539848" x2="132.94" y2="-0.539848" transform="matrix(-0.511952 0.859014 -0.850177 -0.526496 14.1882 -14.0706)" stroke="#C3E86C" stroke-width="1.0797"/>
<line y1="-0.539848" x2="132.94" y2="-0.539848" transform="matrix(-0.511952 0.859014 -0.850177 -0.526496 18.7914 -13.9672)" stroke="#C3E86C" stroke-width="1.0797"/>
<line y1="-0.539848" x2="132.94" y2="-0.539848" transform="matrix(-0.511952 0.859014 -0.850177 -0.526496 23.3943 -13.8638)" stroke="#C3E86C" stroke-width="1.0797"/>
<line y1="-0.539848" x2="132.94" y2="-0.539848" transform="matrix(-0.511952 0.859014 -0.850177 -0.526496 27.9973 -13.7604)" stroke="#C3E86C" stroke-width="1.0797"/>
<line y1="-0.539848" x2="132.94" y2="-0.539848" transform="matrix(-0.511952 0.859014 -0.850177 -0.526496 32.6003 -13.657)" stroke="#C3E86C" stroke-width="1.0797"/>
<line y1="-0.539848" x2="132.94" y2="-0.539848" transform="matrix(-0.511952 0.859014 -0.850177 -0.526496 37.2034 -13.5536)" stroke="#C3E86C" stroke-width="1.0797"/>
<line y1="-0.539848" x2="132.94" y2="-0.539848" transform="matrix(-0.511952 0.859014 -0.850177 -0.526496 41.8062 -13.4503)" stroke="#C3E86C" stroke-width="1.0797"/>
<line y1="-0.539848" x2="132.94" y2="-0.539848" transform="matrix(-0.511952 0.859014 -0.850177 -0.526496 46.4092 -13.3467)" stroke="#C3E86C" stroke-width="1.0797"/>
<line y1="-0.539848" x2="132.94" y2="-0.539848" transform="matrix(-0.511952 0.859014 -0.850177 -0.526496 51.0123 -13.2434)" stroke="#C3E86C" stroke-width="1.0797"/>
<line y1="-0.539848" x2="132.94" y2="-0.539848" transform="matrix(-0.511952 0.859014 -0.850177 -0.526496 55.6151 -13.14)" stroke="#C3E86C" stroke-width="1.0797"/>
<line y1="-0.539848" x2="132.94" y2="-0.539848" transform="matrix(-0.511952 0.859014 -0.850177 -0.526496 60.2181 -13.0366)" stroke="#C3E86C" stroke-width="1.0797"/>
<line y1="-0.539848" x2="132.94" y2="-0.539848" transform="matrix(-0.511952 0.859014 -0.850177 -0.526496 64.8212 -12.9333)" stroke="#C3E86C" stroke-width="1.0797"/>
<line y1="-0.539848" x2="132.94" y2="-0.539848" transform="matrix(-0.511952 0.859014 -0.850177 -0.526496 69.4242 -12.8298)" stroke="#C3E86C" stroke-width="1.0797"/>
<line y1="-0.539848" x2="132.94" y2="-0.539848" transform="matrix(-0.511952 0.859014 -0.850177 -0.526496 74.0272 -12.7264)" stroke="#C3E86C" stroke-width="1.0797"/>
<line y1="-0.539848" x2="132.94" y2="-0.539848" transform="matrix(-0.511952 0.859014 -0.850177 -0.526496 78.6301 -12.6231)" stroke="#C3E86C" stroke-width="1.0797"/>
<line y1="-0.539848" x2="132.94" y2="-0.539848" transform="matrix(-0.511952 0.859014 -0.850177 -0.526496 83.2332 -12.5197)" stroke="#C3E86C" stroke-width="1.0797"/>
<line y1="-0.539848" x2="132.94" y2="-0.539848" transform="matrix(-0.511952 0.859014 -0.850177 -0.526496 87.8362 -12.4163)" stroke="#C3E86C" stroke-width="1.0797"/>
<line y1="-0.539848" x2="132.94" y2="-0.539848" transform="matrix(-0.511952 0.859014 -0.850177 -0.526496 92.4392 -12.3129)" stroke="#C3E86C" stroke-width="1.0797"/>
<line y1="-0.539848" x2="132.94" y2="-0.539848" transform="matrix(-0.511952 0.859014 -0.850177 -0.526496 97.0422 -12.2095)" stroke="#C3E86C" stroke-width="1.0797"/>
<line y1="-0.539848" x2="132.94" y2="-0.539848" transform="matrix(-0.511952 0.859014 -0.850177 -0.526496 101.645 -12.1062)" stroke="#C3E86C" stroke-width="1.0797"/>
<line y1="-0.539848" x2="132.94" y2="-0.539848" transform="matrix(-0.511952 0.859014 -0.850177 -0.526496 106.248 -12.0028)" stroke="#C3E86C" stroke-width="1.0797"/>
<line y1="-0.539848" x2="132.94" y2="-0.539848" transform="matrix(-0.511952 0.859014 -0.850177 -0.526496 110.851 -11.8994)" stroke="#C3E86C" stroke-width="1.0797"/>
<line y1="-0.539848" x2="132.94" y2="-0.539848" transform="matrix(-0.511952 0.859014 -0.850177 -0.526496 115.454 -11.796)" stroke="#C3E86C" stroke-width="1.0797"/>
<line y1="-0.539848" x2="132.94" y2="-0.539848" transform="matrix(-0.511952 0.859014 -0.850177 -0.526496 120.057 -11.6926)" stroke="#C3E86C" stroke-width="1.0797"/>
<line y1="-0.539848" x2="132.94" y2="-0.539848" transform="matrix(-0.511952 0.859014 -0.850177 -0.526496 124.66 -11.5892)" stroke="#C3E86C" stroke-width="1.0797"/>
<line y1="-0.539848" x2="132.94" y2="-0.539848" transform="matrix(-0.511952 0.859014 -0.850177 -0.526496 129.263 -11.4858)" stroke="#C3E86C" stroke-width="1.0797"/>
<line y1="-0.539848" x2="132.94" y2="-0.539848" transform="matrix(-0.511952 0.859014 -0.850177 -0.526496 133.866 -11.3824)" stroke="#C3E86C" stroke-width="1.0797"/>
</g>
</svg>
