<?xml version="1.0" encoding="utf-8"?>
<!-- Generator: Adobe Illustrator 27.5.0, SVG Export Plug-In . SVG Version: 6.00 Build 0)  -->
<svg version="1.1" id="Layer_1" xmlns="http://www.w3.org/2000/svg" xmlns:xlink="http://www.w3.org/1999/xlink" x="0px" y="0px"
	 viewBox="0 0 676.4 225.9" style="enable-background:new 0 0 676.4 225.9;" xml:space="preserve">
<style type="text/css">
	.st0{fill:#FAC111;}
	.st1{fill:url(#SVGID_1_);}
	.st2{fill:url(#SVGID_00000082327230852819524230000009802630554267180728_);}
	.st3{fill:url(#SVGID_00000028299670537198553280000010684614760430465215_);}
	.st4{fill:url(#SVGID_00000047028423636502432700000005834915087621406338_);}
	.st5{fill:url(#SVGID_00000116915454586266053250000007149541966796514970_);}
	.st6{fill:url(#SVGID_00000016763429782178591490000001549118408524304037_);}
	.st7{fill:url(#SVGID_00000063631698101748426860000003156795530044115105_);}
	.st8{fill:url(#SVGID_00000067932650986134880820000012217244376872732320_);}
	.st9{fill:url(#SVGID_00000028324921662746209550000008503844729742939049_);}
	.st10{fill:url(#SVGID_00000051366959783816330260000004692283109068961457_);}
	.st11{fill:url(#SVGID_00000182498779533147627760000014225519731775601287_);}
	.st12{fill:url(#SVGID_00000170966339202140565510000016842612049481871798_);}
	.st13{fill:#6D6E70;}
</style>
<g>
	<g>
		<path class="st0" d="M113,58.4c-30.1,0-54.6,24.5-54.6,54.6c0,30.1,24.5,54.6,54.6,54.6c30.1,0,54.6-24.5,54.6-54.6
			C167.5,82.8,143,58.4,113,58.4z"/>
		<path class="st0" d="M224.2,132.5l-41.7-10.7c0.4-2.9,0.6-5.9,0.6-8.9c0-3-0.2-6-0.6-8.9l41.7-10.7l-42.8,4.2
			c-1.3-5.9-3.4-11.5-6.1-16.7l35.5-24.3L172,75c-3.2-5-7.1-9.6-11.4-13.6l25-35l-30.1,30.7c-4.7-3.6-9.9-6.6-15.4-8.9l11.5-41.4
			L133.8,46c-5.6-1.7-11.5-2.8-17.5-3.1L113,0l-3.3,42.9c-6.1,0.3-12,1.3-17.5,3.1L74.3,6.8l11.5,41.4c-5.5,2.3-10.7,5.3-15.4,8.9
			L40.4,26.4l25,35C61,65.4,57.2,70,54,75L15.2,56.5l35.5,24.3c-2.7,5.2-4.8,10.8-6.1,16.7L1.8,93.3L43.4,104
			c-0.4,2.9-0.6,5.9-0.6,8.9c0,3,0.2,6,0.6,8.9L1.8,132.5l42.8-4.2c1.3,5.9,3.4,11.5,6.1,16.7l-35.5,24.3L54,150.8
			c3.2,5,7.1,9.6,11.4,13.6l-25,35l30.1-30.7c4.7,3.6,9.9,6.6,15.4,8.9L74.3,219l17.8-39.1c5.6,1.7,11.5,2.8,17.5,3.1l3.3,42.9
			l3.3-42.9c6.1-0.3,12-1.3,17.5-3.1l17.8,39.1L140,177.6c5.5-2.3,10.7-5.3,15.4-8.9l30.1,30.7l-25-35c4.4-4,8.2-8.6,11.4-13.6
			l38.8,18.6l-35.5-24.3c2.7-5.2,4.8-10.8,6.1-16.7L224.2,132.5z M113,174.3c-33.8,0-61.4-27.5-61.4-61.4
			c0-33.8,27.5-61.4,61.4-61.4c33.8,0,61.4,27.5,61.4,61.4C174.3,146.8,146.8,174.3,113,174.3z"/>
	</g>
	<g>
		<polygon class="st0" points="137.6,2.6 125.2,40.7 126.1,0.6 		"/>
		<polygon class="st0" points="98.4,0.8 99.8,40.8 86.9,2.9 		"/>
		<polygon class="st0" points="60.9,12.5 75.9,49.7 50.9,18.4 		"/>
		<polygon class="st0" points="29.7,36.4 56.5,66.2 22.3,45.4 		"/>
		<polygon class="st0" points="8.6,69.5 43.9,88.3 4.6,80.5 		"/>
		<polygon class="st0" points="0,107.8 39.7,113.4 0.1,119.5 		"/>
		<polygon class="st0" points="5.1,146.8 44.2,138.4 9.1,157.7 		"/>
		<polygon class="st0" points="23.1,181.6 57.1,160.4 30.7,190.5 		"/>
		<polygon class="st0" points="52,208.2 76.7,176.6 62.2,214 		"/>
		<polygon class="st0" points="88.3,223.3 100.7,185.2 99.8,225.2 		"/>
		<polygon class="st0" points="127.5,225.1 126.1,185 139,223 		"/>
		<polygon class="st0" points="165,213.3 150,176.2 175.1,207.4 		"/>
		<polygon class="st0" points="196.2,189.5 169.4,159.7 203.6,180.5 		"/>
		<polygon class="st0" points="217.4,156.4 182,137.6 221.3,145.4 		"/>
		<polygon class="st0" points="225.9,118 186.3,112.5 225.9,106.4 		"/>
		<polygon class="st0" points="220.9,79.1 181.7,87.4 216.8,68.2 		"/>
		<polygon class="st0" points="202.8,44.2 168.8,65.5 195.2,35.4 		"/>
		<polygon class="st0" points="173.9,17.7 149.2,49.2 163.8,11.9 		"/>
	</g>
</g>
<g>
	<g>
		<linearGradient id="SVGID_1_" gradientUnits="userSpaceOnUse" x1="109.4497" y1="113.3236" x2="695.4566" y2="113.3236">
			<stop  offset="5.327789e-09" style="stop-color:#00A19B"/>
			<stop  offset="0.1086" style="stop-color:#5D8262"/>
			<stop  offset="0.2171" style="stop-color:#B4662E"/>
			<stop  offset="0.2932" style="stop-color:#EA540D"/>
			<stop  offset="0.33" style="stop-color:#FF4D00"/>
			<stop  offset="0.66" style="stop-color:#F18A00"/>
			<stop  offset="1" style="stop-color:#FFCD00"/>
		</linearGradient>
		<path class="st1" d="M119.7,80.6v12.8h8.5v11.2h-8.5v23.6c0,1.9,0.3,3.3,1.1,4.1c0.7,0.8,2.1,1.1,4.2,1.1c1.6,0,2.9-0.1,4-0.3
			v11.5c-2.9,0.9-5.9,1.4-9.1,1.4c-5.5,0-9.6-1.3-12.3-3.9c-2.6-2.6-4-6.6-4-11.9v-25.7H97V93.4h6.6V80.6H119.7z"/>
	</g>
	
		<linearGradient id="SVGID_00000177461242303918884170000014353426529817641916_" gradientUnits="userSpaceOnUse" x1="109.4497" y1="118.1495" x2="695.4566" y2="118.1495">
		<stop  offset="5.327789e-09" style="stop-color:#00A19B"/>
		<stop  offset="0.1086" style="stop-color:#5D8262"/>
		<stop  offset="0.2171" style="stop-color:#B4662E"/>
		<stop  offset="0.2932" style="stop-color:#EA540D"/>
		<stop  offset="0.33" style="stop-color:#FF4D00"/>
		<stop  offset="0.66" style="stop-color:#F18A00"/>
		<stop  offset="1" style="stop-color:#FFCD00"/>
	</linearGradient>
	<path style="fill:url(#SVGID_00000177461242303918884170000014353426529817641916_);" d="M165.8,107.4l-5.3-0.4
		c-5.1,0-8.3,1.6-9.7,4.8v32.7h-16.1V92.8h15.1l0.5,6.6c2.7-5.1,6.5-7.6,11.3-7.6c1.7,0,3.2,0.2,4.5,0.6L165.8,107.4z"/>
	
		<linearGradient id="SVGID_00000084502017920684191750000004703103848751383716_" gradientUnits="userSpaceOnUse" x1="109.4497" y1="118.6273" x2="695.4566" y2="118.6273">
		<stop  offset="5.327789e-09" style="stop-color:#00A19B"/>
		<stop  offset="0.1086" style="stop-color:#5D8262"/>
		<stop  offset="0.2171" style="stop-color:#B4662E"/>
		<stop  offset="0.2932" style="stop-color:#EA540D"/>
		<stop  offset="0.33" style="stop-color:#FF4D00"/>
		<stop  offset="0.66" style="stop-color:#F18A00"/>
		<stop  offset="1" style="stop-color:#FFCD00"/>
	</linearGradient>
	<path style="fill:url(#SVGID_00000084502017920684191750000004703103848751383716_);" d="M199.3,144.5c-0.6-1.1-1.1-2.6-1.5-4.6
		c-3,3.7-7.1,5.6-12.4,5.6c-4.9,0-9-1.5-12.4-4.4c-3.4-2.9-5.1-6.6-5.1-11.1c0-5.6,2.1-9.8,6.2-12.7c4.1-2.9,10.2-4.3,18.1-4.3h5
		v-2.7c0-4.8-2.1-7.2-6.2-7.2c-3.8,0-5.7,1.9-5.7,5.7h-16.1c0-5,2.1-9,6.4-12.2c4.3-3.1,9.7-4.7,16.3-4.7c6.6,0,11.8,1.6,15.6,4.8
		c3.8,3.2,5.8,7.6,5.9,13.2v22.9c0.1,4.7,0.8,8.4,2.2,10.9v0.8H199.3z M189.2,134c2,0,3.7-0.4,5-1.3c1.3-0.9,2.3-1.8,2.8-2.9v-8.3
		h-4.7c-5.6,0-8.4,2.5-8.4,7.5c0,1.5,0.5,2.7,1.5,3.6C186.4,133.5,187.7,134,189.2,134z"/>
	
		<linearGradient id="SVGID_00000176031342980452413890000016601881903648217266_" gradientUnits="userSpaceOnUse" x1="109.4497" y1="118.1495" x2="695.4566" y2="118.1495">
		<stop  offset="5.327789e-09" style="stop-color:#00A19B"/>
		<stop  offset="0.1086" style="stop-color:#5D8262"/>
		<stop  offset="0.2171" style="stop-color:#B4662E"/>
		<stop  offset="0.2932" style="stop-color:#EA540D"/>
		<stop  offset="0.33" style="stop-color:#FF4D00"/>
		<stop  offset="0.66" style="stop-color:#F18A00"/>
		<stop  offset="1" style="stop-color:#FFCD00"/>
	</linearGradient>
	<path style="fill:url(#SVGID_00000176031342980452413890000016601881903648217266_);" d="M236.9,92.8l0.5,6.1c3.6-4.7,8.5-7,14.8-7
		c5.4,0,9.4,1.6,12.1,4.8c2.7,3.2,4,8.1,4.1,14.5v33.3h-16.1v-32.6c0-2.6-0.5-4.5-1.6-5.8c-1.1-1.2-3-1.8-5.7-1.8
		c-3.2,0-5.5,1.2-7,3.7v36.5h-16.1V92.8H236.9z"/>
	
		<linearGradient id="SVGID_00000005982966381468420330000016077646917556502692_" gradientUnits="userSpaceOnUse" x1="109.4497" y1="118.6273" x2="695.4566" y2="118.6273">
		<stop  offset="5.327789e-09" style="stop-color:#00A19B"/>
		<stop  offset="0.1086" style="stop-color:#5D8262"/>
		<stop  offset="0.2171" style="stop-color:#B4662E"/>
		<stop  offset="0.2932" style="stop-color:#EA540D"/>
		<stop  offset="0.33" style="stop-color:#FF4D00"/>
		<stop  offset="0.66" style="stop-color:#F18A00"/>
		<stop  offset="1" style="stop-color:#FFCD00"/>
	</linearGradient>
	<path style="fill:url(#SVGID_00000005982966381468420330000016077646917556502692_);" d="M304.4,129.9c0-1.4-0.7-2.5-2.1-3.3
		c-1.4-0.8-4.2-1.7-8.2-2.6c-4-0.9-7.3-2.1-9.9-3.5c-2.6-1.4-4.6-3.2-6-5.3c-1.4-2.1-2.1-4.4-2.1-7.1c0-4.7,2-8.7,5.9-11.7
		c3.9-3.1,9-4.6,15.4-4.6c6.8,0,12.3,1.5,16.4,4.6c4.1,3.1,6.2,7.1,6.2,12.2h-16.1c0-4.1-2.2-6.2-6.5-6.2c-1.7,0-3.1,0.5-4.3,1.4
		c-1.1,0.9-1.7,2.1-1.7,3.5c0,1.4,0.7,2.6,2.1,3.5c1.4,0.9,3.6,1.6,6.7,2.2c3.1,0.6,5.8,1.3,8.1,2.1c7.8,2.7,11.7,7.5,11.7,14.4
		c0,4.7-2.1,8.6-6.3,11.5c-4.2,3-9.6,4.4-16.3,4.4c-4.4,0-8.4-0.8-11.8-2.4c-3.5-1.6-6.2-3.8-8.1-6.5c-1.9-2.7-2.9-5.6-2.9-8.6h15
		c0.1,2.4,0.9,4.1,2.4,5.2c1.5,1.1,3.5,1.6,5.9,1.6c2.2,0,3.8-0.4,4.9-1.3C303.8,132.5,304.4,131.4,304.4,129.9z"/>
	
		<linearGradient id="SVGID_00000026850543796866351510000014178946900367285656_" gradientUnits="userSpaceOnUse" x1="109.4497" y1="128.0856" x2="695.4566" y2="128.0856">
		<stop  offset="5.327789e-09" style="stop-color:#00A19B"/>
		<stop  offset="0.1086" style="stop-color:#5D8262"/>
		<stop  offset="0.2171" style="stop-color:#B4662E"/>
		<stop  offset="0.2932" style="stop-color:#EA540D"/>
		<stop  offset="0.33" style="stop-color:#FF4D00"/>
		<stop  offset="0.66" style="stop-color:#F18A00"/>
		<stop  offset="1" style="stop-color:#FFCD00"/>
	</linearGradient>
	<path style="fill:url(#SVGID_00000026850543796866351510000014178946900367285656_);" d="M375.4,119c0,8-1.8,14.4-5.4,19.2
		c-3.6,4.8-8.5,7.2-14.6,7.2c-4.7,0-8.6-1.7-11.7-5.2v24.1h-16.1V92.8h15l0.5,4.8c3.1-3.8,7.1-5.7,12.2-5.7c6.4,0,11.3,2.3,14.9,7
		c3.5,4.7,5.3,11.2,5.3,19.4V119z M359.3,118c0-9.2-2.7-13.8-8-13.8c-3.8,0-6.4,1.4-7.6,4.1v20.3c1.4,2.9,4,4.3,7.7,4.3
		c5.1,0,7.8-4.4,7.9-13.3V118z"/>
	
		<linearGradient id="SVGID_00000166645227434466453030000007661492261404477587_" gradientUnits="userSpaceOnUse" x1="109.4497" y1="118.6273" x2="695.4566" y2="118.6273">
		<stop  offset="5.327789e-09" style="stop-color:#00A19B"/>
		<stop  offset="0.1086" style="stop-color:#5D8262"/>
		<stop  offset="0.2171" style="stop-color:#B4662E"/>
		<stop  offset="0.2932" style="stop-color:#EA540D"/>
		<stop  offset="0.33" style="stop-color:#FF4D00"/>
		<stop  offset="0.66" style="stop-color:#F18A00"/>
		<stop  offset="1" style="stop-color:#FFCD00"/>
	</linearGradient>
	<path style="fill:url(#SVGID_00000166645227434466453030000007661492261404477587_);" d="M411.6,144.5c-0.6-1.1-1.1-2.6-1.5-4.6
		c-3,3.7-7.1,5.6-12.4,5.6c-4.9,0-9-1.5-12.4-4.4c-3.4-2.9-5.1-6.6-5.1-11.1c0-5.6,2.1-9.8,6.2-12.7s10.2-4.3,18.1-4.3h5v-2.7
		c0-4.8-2.1-7.2-6.2-7.2c-3.8,0-5.7,1.9-5.7,5.7h-16.1c0-5,2.1-9,6.4-12.2c4.3-3.1,9.7-4.7,16.3-4.7s11.8,1.6,15.6,4.8
		c3.8,3.2,5.8,7.6,5.9,13.2v22.9c0.1,4.7,0.8,8.4,2.2,10.9v0.8H411.6z M401.5,134c2,0,3.7-0.4,5-1.3c1.3-0.9,2.3-1.8,2.8-2.9v-8.3
		h-4.7c-5.6,0-8.4,2.5-8.4,7.5c0,1.5,0.5,2.7,1.5,3.6C398.7,133.5,400,134,401.5,134z"/>
	
		<linearGradient id="SVGID_00000035516871986652782960000011960075778356764581_" gradientUnits="userSpaceOnUse" x1="109.4497" y1="118.1495" x2="695.4566" y2="118.1495">
		<stop  offset="5.327789e-09" style="stop-color:#00A19B"/>
		<stop  offset="0.1086" style="stop-color:#5D8262"/>
		<stop  offset="0.2171" style="stop-color:#B4662E"/>
		<stop  offset="0.2932" style="stop-color:#EA540D"/>
		<stop  offset="0.33" style="stop-color:#FF4D00"/>
		<stop  offset="0.66" style="stop-color:#F18A00"/>
		<stop  offset="1" style="stop-color:#FFCD00"/>
	</linearGradient>
	<path style="fill:url(#SVGID_00000035516871986652782960000011960075778356764581_);" d="M465.7,107.4l-5.3-0.4
		c-5.1,0-8.3,1.6-9.7,4.8v32.7h-16.1V92.8h15.1l0.5,6.6c2.7-5.1,6.5-7.6,11.3-7.6c1.7,0,3.2,0.2,4.5,0.6L465.7,107.4z"/>
	
		<linearGradient id="SVGID_00000062166668385028105380000015993409492782865538_" gradientUnits="userSpaceOnUse" x1="109.4497" y1="118.6273" x2="695.4566" y2="118.6273">
		<stop  offset="5.327789e-09" style="stop-color:#00A19B"/>
		<stop  offset="0.1086" style="stop-color:#5D8262"/>
		<stop  offset="0.2171" style="stop-color:#B4662E"/>
		<stop  offset="0.2932" style="stop-color:#EA540D"/>
		<stop  offset="0.33" style="stop-color:#FF4D00"/>
		<stop  offset="0.66" style="stop-color:#F18A00"/>
		<stop  offset="1" style="stop-color:#FFCD00"/>
	</linearGradient>
	<path style="fill:url(#SVGID_00000062166668385028105380000015993409492782865538_);" d="M495.6,145.4c-7.9,0-14.3-2.4-19.3-7.1
		c-4.9-4.7-7.4-10.9-7.4-18.5v-1.3c0-5.3,1-10,2.9-14c2-4,4.8-7.2,8.6-9.4c3.8-2.2,8.2-3.3,13.4-3.3c7.3,0,13,2.3,17.2,6.8
		c4.2,4.5,6.3,10.8,6.3,18.8v6.3h-32c0.6,2.9,1.8,5.2,3.8,6.8c1.9,1.7,4.5,2.5,7.5,2.5c5.1,0,9.1-1.8,11.9-5.4l7.4,8.7
		c-2,2.8-4.8,5-8.5,6.6C503.8,144.6,499.8,145.4,495.6,145.4z M493.8,104.2c-4.7,0-7.5,3.1-8.4,9.4h16.2v-1.2c0.1-2.6-0.6-4.6-2-6
		C498.3,105,496.3,104.2,493.8,104.2z"/>
	
		<linearGradient id="SVGID_00000134213939746922598170000012032863370753179551_" gradientUnits="userSpaceOnUse" x1="109.4497" y1="118.1495" x2="695.4566" y2="118.1495">
		<stop  offset="5.327789e-09" style="stop-color:#00A19B"/>
		<stop  offset="0.1086" style="stop-color:#5D8262"/>
		<stop  offset="0.2171" style="stop-color:#B4662E"/>
		<stop  offset="0.2932" style="stop-color:#EA540D"/>
		<stop  offset="0.33" style="stop-color:#FF4D00"/>
		<stop  offset="0.66" style="stop-color:#F18A00"/>
		<stop  offset="1" style="stop-color:#FFCD00"/>
	</linearGradient>
	<path style="fill:url(#SVGID_00000134213939746922598170000012032863370753179551_);" d="M538.6,92.8l0.5,6.1c3.6-4.7,8.5-7,14.8-7
		c5.4,0,9.4,1.6,12.1,4.8c2.7,3.2,4,8.1,4.1,14.5v33.3h-16.1v-32.6c0-2.6-0.5-4.5-1.6-5.8c-1.1-1.2-3-1.8-5.7-1.8
		c-3.2,0-5.5,1.2-7,3.7v36.5h-16.1V92.8H538.6z"/>
	
		<linearGradient id="SVGID_00000171714802237574724960000018047008702865529731_" gradientUnits="userSpaceOnUse" x1="109.4497" y1="118.6273" x2="695.4566" y2="118.6273">
		<stop  offset="5.327789e-09" style="stop-color:#00A19B"/>
		<stop  offset="0.1086" style="stop-color:#5D8262"/>
		<stop  offset="0.2171" style="stop-color:#B4662E"/>
		<stop  offset="0.2932" style="stop-color:#EA540D"/>
		<stop  offset="0.33" style="stop-color:#FF4D00"/>
		<stop  offset="0.66" style="stop-color:#F18A00"/>
		<stop  offset="1" style="stop-color:#FFCD00"/>
	</linearGradient>
	<path style="fill:url(#SVGID_00000171714802237574724960000018047008702865529731_);" d="M600.9,133c2.3,0,4-0.6,5.3-1.8
		c1.2-1.2,1.8-2.9,1.8-5.1H623c0,5.7-2,10.3-6.1,13.9s-9.3,5.4-15.7,5.4c-7.5,0-13.4-2.4-17.8-7.1c-4.3-4.7-6.5-11.2-6.5-19.6v-0.7
		c0-5.2,1-9.8,2.9-13.8s4.7-7.1,8.3-9.2c3.6-2.1,7.9-3.2,12.9-3.2c6.7,0,12.1,1.9,16,5.6c3.9,3.7,5.9,8.8,5.9,15.1h-15.1
		c0-2.7-0.7-4.7-2-6.2s-3.1-2.1-5.3-2.1c-4.2,0-6.6,2.7-7.3,8c-0.2,1.7-0.3,4-0.3,7c0,5.2,0.6,8.8,1.9,10.8
		C596.2,132,598.1,133,600.9,133z"/>
	
		<linearGradient id="SVGID_00000008113609544838229870000017011362318452636814_" gradientUnits="userSpaceOnUse" x1="109.4497" y1="118.6273" x2="695.4566" y2="118.6273">
		<stop  offset="5.327789e-09" style="stop-color:#00A19B"/>
		<stop  offset="0.1086" style="stop-color:#5D8262"/>
		<stop  offset="0.2171" style="stop-color:#B4662E"/>
		<stop  offset="0.2932" style="stop-color:#EA540D"/>
		<stop  offset="0.33" style="stop-color:#FF4D00"/>
		<stop  offset="0.66" style="stop-color:#F18A00"/>
		<stop  offset="1" style="stop-color:#FFCD00"/>
	</linearGradient>
	<path style="fill:url(#SVGID_00000008113609544838229870000017011362318452636814_);" d="M654.6,145.4c-7.9,0-14.3-2.4-19.3-7.1
		c-4.9-4.7-7.4-10.9-7.4-18.5v-1.3c0-5.3,1-10,2.9-14c2-4,4.8-7.2,8.6-9.4c3.8-2.2,8.2-3.3,13.4-3.3c7.3,0,13,2.3,17.2,6.8
		c4.2,4.5,6.3,10.8,6.3,18.8v6.3h-32c0.6,2.9,1.8,5.2,3.8,6.8c1.9,1.7,4.5,2.5,7.5,2.5c5.1,0,9.1-1.8,11.9-5.4l7.4,8.7
		c-2,2.8-4.8,5-8.5,6.6C662.8,144.6,658.8,145.4,654.6,145.4z M652.8,104.2c-4.7,0-7.5,3.1-8.4,9.4h16.2v-1.2c0.1-2.6-0.6-4.6-2-6
		C657.3,105,655.3,104.2,652.8,104.2z"/>
</g>
<g>
	<path class="st13" d="M431,84.5V49.6h11.2c3.1,0,5.8,0.7,8.3,2.1c2.5,1.4,4.4,3.4,5.8,5.9c1.4,2.5,2.1,5.4,2.1,8.6v1.6
		c0,3.2-0.7,6.1-2,8.6c-1.3,2.5-3.2,4.5-5.7,5.9c-2.4,1.4-5.2,2.2-8.2,2.2H431z M439.5,56.1V78h2.9c2.4,0,4.3-0.9,5.6-2.6
		s1.9-4.3,1.9-7.7v-1.5c0-3.4-0.6-5.9-1.9-7.6s-3.2-2.6-5.7-2.6H439.5z"/>
	<path class="st13" d="M484.4,69.7h-13.2V78h15.6v6.5h-24V49.6h24.1v6.5h-15.7v7.4h13.2V69.7z M476.5,40.3h8.5l-6.7,7.5l-6.6,0
		L476.5,40.3z"/>
	<path class="st13" d="M512.2,70.6h-13.6v13.9h-8.4V49.6h23.3v6.5h-14.9v8h13.6V70.6z"/>
	<path class="st13" d="M526,84.5h-8.4V49.6h8.4V84.5z"/>
	<path class="st13" d="M544,84.5V49.6h11.2c3.1,0,5.9,0.7,8.3,2.1s4.4,3.4,5.8,5.9c1.4,2.5,2.1,5.4,2.1,8.6v1.6c0,3.2-0.7,6.1-2,8.6
		c-1.3,2.5-3.2,4.5-5.7,5.9s-5.2,2.2-8.2,2.2H544z M552.4,56.1V78h2.9c2.4,0,4.3-0.9,5.6-2.6c1.3-1.7,1.9-4.3,1.9-7.7v-1.5
		c0-3.4-0.6-5.9-1.9-7.6c-1.3-1.7-3.2-2.6-5.7-2.6H552.4z"/>
	<path class="st13" d="M597.3,69.7h-13.2V78h15.6v6.5h-24V49.6h24.1v6.5h-15.7v7.4h13.2V69.7z"/>
	<path class="st13" d="M623.8,78h14.6v6.5h-23V49.6h8.4V78z"/>
	<path class="st13" d="M662.2,78h-11.5l-2,6.5h-9l12.8-34.9h7.9l12.9,34.9h-9L662.2,78z M652.7,71.5h7.5l-3.8-12.1L652.7,71.5z"/>
</g>
</svg>
