<svg width="48" height="300" viewBox="0 0 48 300" fill="none" xmlns="http://www.w3.org/2000/svg">
<g clip-path="url(#clip0_2104_48191)">
<line y1="-0.5" x2="152.735" y2="-0.5" transform="matrix(-0.866025 -0.500001 0.499999 -0.866026 90 8)" stroke="#242D38"/>
<line y1="-0.5" x2="152.735" y2="-0.5" transform="matrix(-0.866025 -0.500001 0.499999 -0.866026 90 20.0005)" stroke="#242D38"/>
<line y1="-0.5" x2="152.735" y2="-0.5" transform="matrix(-0.866025 -0.500001 0.499999 -0.866026 90 32)" stroke="#242D38"/>
<line y1="-0.5" x2="152.735" y2="-0.5" transform="matrix(-0.866025 -0.500001 0.499999 -0.866026 90 44.0005)" stroke="#242D38"/>
<line y1="-0.5" x2="152.735" y2="-0.5" transform="matrix(-0.866025 -0.500001 0.499999 -0.866026 90 56)" stroke="#242D38"/>
<line y1="-0.5" x2="152.735" y2="-0.5" transform="matrix(-0.866025 -0.500001 0.499999 -0.866026 90 68.0005)" stroke="#242D38"/>
<line y1="-0.5" x2="152.735" y2="-0.5" transform="matrix(-0.866025 -0.500001 0.499999 -0.866026 90 80.0005)" stroke="#242D38"/>
<line y1="-0.5" x2="152.735" y2="-0.5" transform="matrix(-0.866025 -0.500001 0.499999 -0.866026 90 92.0005)" stroke="#242D38"/>
<line y1="-0.5" x2="152.735" y2="-0.5" transform="matrix(-0.866025 -0.500001 0.499999 -0.866026 90 104)" stroke="#242D38"/>
<line y1="-0.5" x2="152.735" y2="-0.5" transform="matrix(-0.866025 -0.500001 0.499999 -0.866026 90 116)" stroke="#242D38"/>
<line y1="-0.5" x2="152.735" y2="-0.5" transform="matrix(-0.866025 -0.500001 0.499999 -0.866026 90 128)" stroke="#242D38"/>
<line y1="-0.5" x2="152.735" y2="-0.5" transform="matrix(-0.866025 -0.500001 0.499999 -0.866026 90 140)" stroke="#242D38"/>
<line y1="-0.5" x2="152.735" y2="-0.5" transform="matrix(-0.866025 -0.500001 0.499999 -0.866026 90 152)" stroke="#242D38"/>
<line y1="-0.5" x2="152.735" y2="-0.5" transform="matrix(-0.866025 -0.500001 0.499999 -0.866026 90 164)" stroke="#242D38"/>
<line y1="-0.5" x2="152.735" y2="-0.5" transform="matrix(-0.866025 -0.500001 0.499999 -0.866026 90 176)" stroke="#242D38"/>
<line y1="-0.5" x2="152.735" y2="-0.5" transform="matrix(-0.866025 -0.500001 0.499999 -0.866026 90 188)" stroke="#242D38"/>
<line y1="-0.5" x2="152.735" y2="-0.5" transform="matrix(-0.866025 -0.500001 0.499999 -0.866026 90 200)" stroke="#242D38"/>
<line y1="-0.5" x2="152.735" y2="-0.5" transform="matrix(-0.866025 -0.500001 0.499999 -0.866026 90 212)" stroke="#242D38"/>
<line y1="-0.5" x2="152.735" y2="-0.5" transform="matrix(-0.866025 -0.500001 0.499999 -0.866026 90 224)" stroke="#242D38"/>
<line y1="-0.5" x2="152.735" y2="-0.5" transform="matrix(-0.866025 -0.500001 0.499999 -0.866026 90 236)" stroke="#242D38"/>
<line y1="-0.5" x2="152.735" y2="-0.5" transform="matrix(-0.866025 -0.500001 0.499999 -0.866026 90 248)" stroke="#242D38"/>
<line y1="-0.5" x2="152.735" y2="-0.5" transform="matrix(-0.866025 -0.500001 0.499999 -0.866026 90 260)" stroke="#242D38"/>
<line y1="-0.5" x2="152.735" y2="-0.5" transform="matrix(-0.866025 -0.500001 0.499999 -0.866026 90 272)" stroke="#242D38"/>
<line y1="-0.5" x2="152.735" y2="-0.5" transform="matrix(-0.866025 -0.500001 0.499999 -0.866026 90 284)" stroke="#242D38"/>
<line y1="-0.5" x2="152.735" y2="-0.5" transform="matrix(-0.866025 -0.500001 0.499999 -0.866026 90 296)" stroke="#242D38"/>
<line y1="-0.5" x2="152.735" y2="-0.5" transform="matrix(-0.866025 -0.500001 0.499999 -0.866026 90 308)" stroke="#242D38"/>
<line y1="-0.5" x2="152.735" y2="-0.5" transform="matrix(-0.866025 -0.500001 0.499999 -0.866026 90 320)" stroke="#242D38"/>
<line y1="-0.5" x2="152.735" y2="-0.5" transform="matrix(-0.866025 -0.500001 0.499999 -0.866026 90 332)" stroke="#242D38"/>
<line y1="-0.5" x2="152.735" y2="-0.5" transform="matrix(-0.866025 -0.500001 0.499999 -0.866026 90 344)" stroke="#242D38"/>
<line y1="-0.5" x2="152.735" y2="-0.5" transform="matrix(-0.866025 -0.500001 0.499999 -0.866026 90 356)" stroke="#242D38"/>
<line y1="-0.5" x2="152.735" y2="-0.5" transform="matrix(-0.866025 -0.500001 0.499999 -0.866026 90 368)" stroke="#242D38"/>
</g>
<defs>
<clipPath id="clip0_2104_48191">
<rect width="300" height="48" fill="white" transform="translate(48) rotate(90)"/>
</clipPath>
</defs>
</svg>
