<svg width="312" height="48" viewBox="0 0 312 48" fill="none" xmlns="http://www.w3.org/2000/svg">
<g clip-path="url(#clip0_2108_18450)">
<line y1="-0.5" x2="152.735" y2="-0.5" transform="matrix(-0.500001 0.866025 -0.866026 -0.499999 2 -42)" stroke="#242D38"/>
<line y1="-0.5" x2="152.735" y2="-0.5" transform="matrix(-0.500001 0.866025 -0.866026 -0.499999 14 -42)" stroke="#242D38"/>
<line y1="-0.5" x2="152.735" y2="-0.5" transform="matrix(-0.500001 0.866025 -0.866026 -0.499999 26.0005 -42)" stroke="#242D38"/>
<line y1="-0.5" x2="152.735" y2="-0.5" transform="matrix(-0.500001 0.866025 -0.866026 -0.499999 38 -42)" stroke="#242D38"/>
<line y1="-0.5" x2="152.735" y2="-0.5" transform="matrix(-0.500001 0.866025 -0.866026 -0.499999 50.0005 -42)" stroke="#242D38"/>
<line y1="-0.5" x2="152.735" y2="-0.5" transform="matrix(-0.500001 0.866025 -0.866026 -0.499999 62 -42)" stroke="#242D38"/>
<line y1="-0.5" x2="152.735" y2="-0.5" transform="matrix(-0.500001 0.866025 -0.866026 -0.499999 74.0005 -42)" stroke="#242D38"/>
<line y1="-0.5" x2="152.735" y2="-0.5" transform="matrix(-0.500001 0.866025 -0.866026 -0.499999 86.0005 -42)" stroke="#242D38"/>
<line y1="-0.5" x2="152.735" y2="-0.5" transform="matrix(-0.500001 0.866025 -0.866026 -0.499999 98.0005 -42)" stroke="#242D38"/>
<line y1="-0.5" x2="152.735" y2="-0.5" transform="matrix(-0.500001 0.866025 -0.866026 -0.499999 110 -42)" stroke="#242D38"/>
<line y1="-0.5" x2="152.735" y2="-0.5" transform="matrix(-0.500001 0.866025 -0.866026 -0.499999 122 -42)" stroke="#242D38"/>
<line y1="-0.5" x2="152.735" y2="-0.5" transform="matrix(-0.500001 0.866025 -0.866026 -0.499999 134 -42)" stroke="#242D38"/>
<line y1="-0.5" x2="152.735" y2="-0.5" transform="matrix(-0.500001 0.866025 -0.866026 -0.499999 146 -42)" stroke="#242D38"/>
<line y1="-0.5" x2="152.735" y2="-0.5" transform="matrix(-0.500001 0.866025 -0.866026 -0.499999 158 -42)" stroke="#242D38"/>
<line y1="-0.5" x2="152.735" y2="-0.5" transform="matrix(-0.500001 0.866025 -0.866026 -0.499999 170 -42)" stroke="#242D38"/>
<line y1="-0.5" x2="152.735" y2="-0.5" transform="matrix(-0.500001 0.866025 -0.866026 -0.499999 182 -42)" stroke="#242D38"/>
<line y1="-0.5" x2="152.735" y2="-0.5" transform="matrix(-0.500001 0.866025 -0.866026 -0.499999 194 -42)" stroke="#242D38"/>
<line y1="-0.5" x2="152.735" y2="-0.5" transform="matrix(-0.500001 0.866025 -0.866026 -0.499999 206 -42)" stroke="#242D38"/>
<line y1="-0.5" x2="152.735" y2="-0.5" transform="matrix(-0.500001 0.866025 -0.866026 -0.499999 218 -42)" stroke="#242D38"/>
<line y1="-0.5" x2="152.735" y2="-0.5" transform="matrix(-0.500001 0.866025 -0.866026 -0.499999 230 -42)" stroke="#242D38"/>
<line y1="-0.5" x2="152.735" y2="-0.5" transform="matrix(-0.500001 0.866025 -0.866026 -0.499999 242 -42)" stroke="#242D38"/>
<line y1="-0.5" x2="152.735" y2="-0.5" transform="matrix(-0.500001 0.866025 -0.866026 -0.499999 254 -42)" stroke="#242D38"/>
<line y1="-0.5" x2="152.735" y2="-0.5" transform="matrix(-0.500001 0.866025 -0.866026 -0.499999 266 -42)" stroke="#242D38"/>
<line y1="-0.5" x2="152.735" y2="-0.5" transform="matrix(-0.500001 0.866025 -0.866026 -0.499999 278 -42)" stroke="#242D38"/>
<line y1="-0.5" x2="152.735" y2="-0.5" transform="matrix(-0.500001 0.866025 -0.866026 -0.499999 290 -42)" stroke="#242D38"/>
<line y1="-0.5" x2="152.735" y2="-0.5" transform="matrix(-0.500001 0.866025 -0.866026 -0.499999 302 -42)" stroke="#242D38"/>
<line y1="-0.5" x2="152.735" y2="-0.5" transform="matrix(-0.500001 0.866025 -0.866026 -0.499999 314 -42)" stroke="#242D38"/>
<line y1="-0.5" x2="152.735" y2="-0.5" transform="matrix(-0.500001 0.866025 -0.866026 -0.499999 326 -42)" stroke="#242D38"/>
<line y1="-0.5" x2="152.735" y2="-0.5" transform="matrix(-0.500001 0.866025 -0.866026 -0.499999 338 -42)" stroke="#242D38"/>
<line y1="-0.5" x2="152.735" y2="-0.5" transform="matrix(-0.500001 0.866025 -0.866026 -0.499999 350 -42)" stroke="#242D38"/>
<line y1="-0.5" x2="152.735" y2="-0.5" transform="matrix(-0.500001 0.866025 -0.866026 -0.499999 362 -42)" stroke="#242D38"/>
<line y1="-0.5" x2="152.735" y2="-0.5" transform="matrix(-0.500001 0.866025 -0.866026 -0.499999 374 -42)" stroke="#242D38"/>
<line y1="-0.5" x2="152.735" y2="-0.5" transform="matrix(-0.500001 0.866025 -0.866026 -0.499999 386 -42)" stroke="#242D38"/>
</g>
<defs>
<clipPath id="clip0_2108_18450">
<rect width="312" height="48" fill="white"/>
</clipPath>
</defs>
</svg>
