<svg width="65" height="64" viewBox="0 0 65 64" fill="none" xmlns="http://www.w3.org/2000/svg">
<g clip-path="url(#clip0_2112_30777)">
<path d="M63.3333 3H1.33334V61H63.3333V3Z" stroke="#00A19C" stroke-width="2" stroke-miterlimit="10"/>
<path d="M1.33334 11H63.3333" stroke="#00A19C" stroke-width="2" stroke-miterlimit="10"/>
<path d="M4.33334 7H6.33334" stroke="#00A19C" stroke-width="2" stroke-miterlimit="10"/>
<path d="M8.33334 7H10.3333" stroke="#00A19C" stroke-width="2" stroke-miterlimit="10"/>
<path d="M12.3333 7H14.3333" stroke="#00A19C" stroke-width="2" stroke-miterlimit="10"/>
<path d="M17.3333 3V11" stroke="#00A19C" stroke-width="2" stroke-miterlimit="10"/>
<path d="M20.3333 7H60.3333" stroke="#00A19C" stroke-width="2" stroke-miterlimit="10"/>
<path d="M18.3333 48L32.3333 24L46.3333 48H18.3333Z" stroke="#00A19C" stroke-width="2" stroke-linejoin="round"/>
<path d="M32.3333 32V41" stroke="#00A19C" stroke-width="2" stroke-linejoin="round"/>
<path d="M32.3333 43V45" stroke="#00A19C" stroke-width="2" stroke-linejoin="round"/>
<path d="M7.33334 18H9.33334" stroke="#00A19C" stroke-width="2" stroke-linejoin="round"/>
<path d="M15.3333 18H17.3333" stroke="#00A19C" stroke-width="2" stroke-linejoin="round"/>
<path d="M19.3333 18H21.3333" stroke="#00A19C" stroke-width="2" stroke-linejoin="round"/>
<path d="M23.3333 18H25.3333" stroke="#00A19C" stroke-width="2" stroke-linejoin="round"/>
<path d="M27.3333 18H29.3333" stroke="#00A19C" stroke-width="2" stroke-linejoin="round"/>
<path d="M31.3333 18H33.3333" stroke="#00A19C" stroke-width="2" stroke-linejoin="round"/>
<path d="M35.3333 18H37.3333" stroke="#00A19C" stroke-width="2" stroke-linejoin="round"/>
<path d="M39.3333 18H41.3333" stroke="#00A19C" stroke-width="2" stroke-linejoin="round"/>
<path d="M43.3333 18H45.3333" stroke="#00A19C" stroke-width="2" stroke-linejoin="round"/>
<path d="M47.3333 18H49.3333" stroke="#00A19C" stroke-width="2" stroke-linejoin="round"/>
<path d="M51.3333 18H53.3333" stroke="#00A19C" stroke-width="2" stroke-linejoin="round"/>
<path d="M11.3333 18H13.3333" stroke="#00A19C" stroke-width="2" stroke-linejoin="round"/>
<path d="M55.3333 18H57.3333" stroke="#00A19C" stroke-width="2" stroke-linejoin="round"/>
<path d="M7.33334 54H9.33334" stroke="#00A19C" stroke-width="2" stroke-linejoin="round"/>
<path d="M15.3333 54H17.3333" stroke="#00A19C" stroke-width="2" stroke-linejoin="round"/>
<path d="M11.3333 54H13.3333" stroke="#00A19C" stroke-width="2" stroke-linejoin="round"/>
<path d="M51.3333 54H53.3333" stroke="#00A19C" stroke-width="2" stroke-linejoin="round"/>
<path d="M19.3333 54H21.3333" stroke="#00A19C" stroke-width="2" stroke-linejoin="round"/>
<path d="M23.3333 54H25.3333" stroke="#00A19C" stroke-width="2" stroke-linejoin="round"/>
<path d="M27.3333 54H29.3333" stroke="#00A19C" stroke-width="2" stroke-linejoin="round"/>
<path d="M31.3333 54H33.3333" stroke="#00A19C" stroke-width="2" stroke-linejoin="round"/>
<path d="M35.3333 54H37.3333" stroke="#00A19C" stroke-width="2" stroke-linejoin="round"/>
<path d="M39.3333 54H41.3333" stroke="#00A19C" stroke-width="2" stroke-linejoin="round"/>
<path d="M43.3333 54H45.3333" stroke="#00A19C" stroke-width="2" stroke-linejoin="round"/>
<path d="M47.3333 54H49.3333" stroke="#00A19C" stroke-width="2" stroke-linejoin="round"/>
<path d="M55.3333 54H57.3333" stroke="#00A19C" stroke-width="2" stroke-linejoin="round"/>
<path d="M56.3333 25V27" stroke="#00A19C" stroke-width="2" stroke-linejoin="round"/>
<path d="M56.3333 29V31" stroke="#00A19C" stroke-width="2" stroke-linejoin="round"/>
<path d="M56.3333 33V35" stroke="#00A19C" stroke-width="2" stroke-linejoin="round"/>
<path d="M56.3333 37V39" stroke="#00A19C" stroke-width="2" stroke-linejoin="round"/>
<path d="M56.3333 41V43" stroke="#00A19C" stroke-width="2" stroke-linejoin="round"/>
<path d="M56.3333 45V47" stroke="#00A19C" stroke-width="2" stroke-linejoin="round"/>
<path d="M56.3333 49V51" stroke="#00A19C" stroke-width="2" stroke-linejoin="round"/>
<path d="M56.3333 21V23" stroke="#00A19C" stroke-width="2" stroke-linejoin="round"/>
<path d="M8.33334 25V27" stroke="#00A19C" stroke-width="2" stroke-linejoin="round"/>
<path d="M8.33334 21V23" stroke="#00A19C" stroke-width="2" stroke-linejoin="round"/>
<path d="M8.33334 29V31" stroke="#00A19C" stroke-width="2" stroke-linejoin="round"/>
<path d="M8.33334 33V35" stroke="#00A19C" stroke-width="2" stroke-linejoin="round"/>
<path d="M8.33334 37V39" stroke="#00A19C" stroke-width="2" stroke-linejoin="round"/>
<path d="M8.33334 41V43" stroke="#00A19C" stroke-width="2" stroke-linejoin="round"/>
<path d="M8.33334 45V47" stroke="#00A19C" stroke-width="2" stroke-linejoin="round"/>
<path d="M8.33334 49V51" stroke="#00A19C" stroke-width="2" stroke-linejoin="round"/>
</g>
<defs>
<clipPath id="clip0_2112_30777">
<rect width="64" height="64" fill="white" transform="translate(0.333344)"/>
</clipPath>
</defs>
</svg>
