<svg width="64" height="64" viewBox="0 0 64 64" fill="none" xmlns="http://www.w3.org/2000/svg">
<g clip-path="url(#clip0_2112_30843)">
<path d="M9 63C13.4183 63 17 59.4183 17 55C17 50.5817 13.4183 47 9 47C4.58172 47 1 50.5817 1 55C1 59.4183 4.58172 63 9 63Z" stroke="#00A19C" stroke-width="2" stroke-linejoin="round"/>
<path d="M9 40C13.4183 40 17 36.4183 17 32C17 27.5817 13.4183 24 9 24C4.58172 24 1 27.5817 1 32C1 36.4183 4.58172 40 9 40Z" stroke="#00A19C" stroke-width="2" stroke-linejoin="round"/>
<path d="M32 28C36.4183 28 40 24.4183 40 20C40 15.5817 36.4183 12 32 12C27.5817 12 24 15.5817 24 20C24 24.4183 27.5817 28 32 28Z" stroke="#00A19C" stroke-width="2" stroke-linejoin="round"/>
<path d="M55 40C59.4183 40 63 36.4183 63 32C63 27.5817 59.4183 24 55 24C50.5817 24 47 27.5817 47 32C47 36.4183 50.5817 40 55 40Z" stroke="#00A19C" stroke-width="2" stroke-linejoin="round"/>
<path d="M32 52C36.4183 52 40 48.4183 40 44C40 39.5817 36.4183 36 32 36C27.5817 36 24 39.5817 24 44C24 48.4183 27.5817 52 32 52Z" stroke="#00A19C" stroke-width="2" stroke-linejoin="round"/>
<path d="M9 17C13.4183 17 17 13.4183 17 9C17 4.58172 13.4183 1 9 1C4.58172 1 1 4.58172 1 9C1 13.4183 4.58172 17 9 17Z" stroke="#00A19C" stroke-width="2" stroke-linejoin="round"/>
<path d="M32 44L9 32L32 20" stroke="#00A19C" stroke-width="2" stroke-linejoin="round"/>
<path d="M32 44L9 9L32 20L55 32L32 44ZM32 44L9 55L32 20" stroke="#00A19C" stroke-width="2" stroke-linejoin="round"/>
</g>
<defs>
<clipPath id="clip0_2112_30843">
<rect width="64" height="64" fill="white"/>
</clipPath>
</defs>
</svg>
