<svg width="65" height="64" viewBox="0 0 65 64" fill="none" xmlns="http://www.w3.org/2000/svg">
<path d="M20.6667 31C28.951 31 35.6667 24.2843 35.6667 16C35.6667 7.71573 28.951 1 20.6667 1C12.3825 1 5.66675 7.71573 5.66675 16C5.66675 24.2843 12.3825 31 20.6667 31Z" stroke="#00A19C" stroke-width="2" stroke-miterlimit="10"/>
<path d="M24.6667 31V51C24.6667 53.21 22.8767 55 20.6667 55C18.4567 55 16.6667 53.21 16.6667 51V31" stroke="#00A19C" stroke-width="2" stroke-miterlimit="10"/>
<path d="M20.6667 40V42" stroke="#00A19C" stroke-width="2" stroke-miterlimit="10"/>
<path d="M20.6667 44V46" stroke="#00A19C" stroke-width="2" stroke-miterlimit="10"/>
<path d="M20.6667 48V50" stroke="#00A19C" stroke-width="2" stroke-miterlimit="10"/>
<path d="M36.6667 7H59.6667V54L50.6667 63H20.6667V58" stroke="#00A19C" stroke-width="2" stroke-miterlimit="10"/>
<path d="M50.6667 63V54H59.6667" stroke="#00A19C" stroke-width="2" stroke-miterlimit="10"/>
<path d="M27.6667 16V23H13.6667V9H24.6667" stroke="#00A19C" stroke-width="2" stroke-miterlimit="10"/>
<path d="M27.6667 11L20.6667 18L17.6667 15" stroke="#00A19C" stroke-width="2" stroke-miterlimit="10"/>
<path d="M32.6667 34H28.6667V38H32.6667V34Z" stroke="#00A19C" stroke-width="2" stroke-miterlimit="10"/>
<path d="M32.6667 42H28.6667V46H32.6667V42Z" stroke="#00A19C" stroke-width="2" stroke-miterlimit="10"/>
<path d="M32.6667 50H28.6667V54H32.6667V50Z" stroke="#00A19C" stroke-width="2" stroke-miterlimit="10"/>
<path d="M54.6667 34H35.6667" stroke="#00A19C" stroke-width="2" stroke-miterlimit="10"/>
<path d="M54.6667 38H35.6667" stroke="#00A19C" stroke-width="2" stroke-miterlimit="10"/>
<path d="M54.6667 42H35.6667" stroke="#00A19C" stroke-width="2" stroke-miterlimit="10"/>
<path d="M54.6667 46H35.6667" stroke="#00A19C" stroke-width="2" stroke-miterlimit="10"/>
<path d="M45.6667 54H35.6667" stroke="#00A19C" stroke-width="2" stroke-miterlimit="10"/>
<path d="M54.6667 50H35.6667" stroke="#00A19C" stroke-width="2" stroke-miterlimit="10"/>
<path d="M38.6667 18H53.6667V28H35.6667" stroke="#00A19C" stroke-width="2" stroke-miterlimit="10"/>
<path d="M54.6667 14H52.6667" stroke="#00A19C" stroke-width="2" stroke-miterlimit="10"/>
<path d="M50.6667 14H48.6667" stroke="#00A19C" stroke-width="2" stroke-miterlimit="10"/>
<path d="M46.6667 14H44.6667" stroke="#00A19C" stroke-width="2" stroke-miterlimit="10"/>
</svg>
