<svg width="65" height="64" viewBox="0 0 65 64" fill="none" xmlns="http://www.w3.org/2000/svg">
<g clip-path="url(#clip0_2112_30799)">
<path d="M29.6667 28C29.6667 26.34 31.0067 25 32.6667 25C34.3267 25 35.6667 26.34 35.6667 28" stroke="#00A19C" stroke-width="2" stroke-linejoin="round"/>
<path d="M32.6667 21C36.5367 21 39.6667 24.13 39.6667 28" stroke="#00A19C" stroke-width="2" stroke-linejoin="round"/>
<path d="M25.6667 28.0001C25.6667 26.0901 26.4267 24.3601 27.6667 23.1001" stroke="#00A19C" stroke-width="2" stroke-linejoin="round"/>
<path d="M21.6667 28C21.6667 21.92 26.5867 17 32.6667 17C38.7467 17 43.6667 21.92 43.6667 28" stroke="#00A19C" stroke-width="2" stroke-linejoin="round"/>
<path d="M42.6667 16.8198C45.7367 19.5698 47.6667 23.5598 47.6667 27.9998" stroke="#00A19C" stroke-width="2" stroke-linejoin="round"/>
<path d="M17.6667 28C17.6667 19.72 24.3867 13 32.6667 13" stroke="#00A19C" stroke-width="2" stroke-linejoin="round"/>
<path d="M26.6667 9.97C28.5567 9.34 30.5667 9 32.6667 9C43.1567 9 51.6667 17.51 51.6667 28" stroke="#00A19C" stroke-width="2" stroke-linejoin="round"/>
<path d="M13.6667 28C13.6667 22.97 15.6167 18.4 18.8067 15" stroke="#00A19C" stroke-width="2" stroke-linejoin="round"/>
<path d="M53.8367 19C55.0167 21.76 55.6667 24.81 55.6667 28" stroke="#00A19C" stroke-width="2" stroke-linejoin="round"/>
<path d="M10.7468 21C13.7068 11.72 22.3968 5 32.6668 5C40.5468 5 47.4968 8.96 51.6468 15" stroke="#00A19C" stroke-width="2" stroke-linejoin="round"/>
<path d="M0.666748 33H64.6667" stroke="#00A19C" stroke-width="2" stroke-linejoin="round"/>
<path d="M9.66675 44V50" stroke="#00A19C" stroke-width="2" stroke-linejoin="round"/>
<path d="M9.66675 38V42" stroke="#00A19C" stroke-width="2" stroke-linejoin="round"/>
<path d="M17.6667 42V48" stroke="#00A19C" stroke-width="2" stroke-linejoin="round"/>
<path d="M17.6667 50V56" stroke="#00A19C" stroke-width="2" stroke-linejoin="round"/>
<path d="M17.6667 36V38" stroke="#00A19C" stroke-width="2" stroke-linejoin="round"/>
<path d="M13.6667 48V50" stroke="#00A19C" stroke-width="2" stroke-linejoin="round"/>
<path d="M13.6667 40V46" stroke="#00A19C" stroke-width="2" stroke-linejoin="round"/>
<path d="M13.6667 33V38" stroke="#00A19C" stroke-width="2" stroke-linejoin="round"/>
<path d="M13.6667 52V58" stroke="#00A19C" stroke-width="2" stroke-linejoin="round"/>
<path d="M9.66675 52V54" stroke="#00A19C" stroke-width="2" stroke-linejoin="round"/>
<path d="M25.6667 52V54" stroke="#00A19C" stroke-width="2" stroke-linejoin="round"/>
<path d="M21.6667 56V58" stroke="#00A19C" stroke-width="2" stroke-linejoin="round"/>
<path d="M25.6667 36V40" stroke="#00A19C" stroke-width="2" stroke-linejoin="round"/>
<path d="M25.6667 42V48" stroke="#00A19C" stroke-width="2" stroke-linejoin="round"/>
<path d="M21.6667 40V44" stroke="#00A19C" stroke-width="2" stroke-linejoin="round"/>
<path d="M21.6667 33V38" stroke="#00A19C" stroke-width="2" stroke-linejoin="round"/>
<path d="M21.6667 46V54" stroke="#00A19C" stroke-width="2" stroke-linejoin="round"/>
<path d="M43.6667 42V44" stroke="#00A19C" stroke-width="2" stroke-linejoin="round"/>
<path d="M43.6667 52V54" stroke="#00A19C" stroke-width="2" stroke-linejoin="round"/>
<path d="M43.6667 33V40" stroke="#00A19C" stroke-width="2" stroke-linejoin="round"/>
<path d="M43.6667 46V50" stroke="#00A19C" stroke-width="2" stroke-linejoin="round"/>
<path d="M35.6667 56V58" stroke="#00A19C" stroke-width="2" stroke-linejoin="round"/>
<path d="M39.6667 48V50" stroke="#00A19C" stroke-width="2" stroke-linejoin="round"/>
<path d="M39.6667 38V46" stroke="#00A19C" stroke-width="2" stroke-linejoin="round"/>
<path d="M39.6667 52V58" stroke="#00A19C" stroke-width="2" stroke-linejoin="round"/>
<path d="M51.6667 54V58" stroke="#00A19C" stroke-width="2" stroke-linejoin="round"/>
<path d="M51.6667 36V44" stroke="#00A19C" stroke-width="2" stroke-linejoin="round"/>
<path d="M51.6667 46V52" stroke="#00A19C" stroke-width="2" stroke-linejoin="round"/>
<path d="M47.6667 36V44" stroke="#00A19C" stroke-width="2" stroke-linejoin="round"/>
<path d="M47.6667 48V54" stroke="#00A19C" stroke-width="2" stroke-linejoin="round"/>
<path d="M55.6667 33V40" stroke="#00A19C" stroke-width="2" stroke-linejoin="round"/>
<path d="M55.6667 48V50" stroke="#00A19C" stroke-width="2" stroke-linejoin="round"/>
<path d="M55.6667 54V56" stroke="#00A19C" stroke-width="2" stroke-linejoin="round"/>
<path d="M55.6667 42V46" stroke="#00A19C" stroke-width="2" stroke-linejoin="round"/>
<path d="M35.6667 46V48" stroke="#00A19C" stroke-width="2" stroke-linejoin="round"/>
<path d="M35.6667 36V44" stroke="#00A19C" stroke-width="2" stroke-linejoin="round"/>
<path d="M35.6667 50V54" stroke="#00A19C" stroke-width="2" stroke-linejoin="round"/>
<path d="M29.6667 48V50" stroke="#00A19C" stroke-width="2" stroke-linejoin="round"/>
<path d="M29.6667 44V46" stroke="#00A19C" stroke-width="2" stroke-linejoin="round"/>
<path d="M29.6667 33V42" stroke="#00A19C" stroke-width="2" stroke-linejoin="round"/>
<path d="M29.6667 52V56" stroke="#00A19C" stroke-width="2" stroke-linejoin="round"/>
<path d="M55.6667 28V33" stroke="#00A19C" stroke-width="2" stroke-linejoin="round"/>
<path d="M51.6667 28V33" stroke="#00A19C" stroke-width="2" stroke-linejoin="round"/>
<path d="M43.6667 28V30" stroke="#00A19C" stroke-width="2" stroke-linejoin="round"/>
<path d="M35.6667 28V30" stroke="#00A19C" stroke-width="2" stroke-linejoin="round"/>
<path d="M29.6667 28V33" stroke="#00A19C" stroke-width="2" stroke-linejoin="round"/>
<path d="M25.6667 28V33" stroke="#00A19C" stroke-width="2" stroke-linejoin="round"/>
<path d="M21.6667 28V30" stroke="#00A19C" stroke-width="2" stroke-linejoin="round"/>
<path d="M9.66675 28V36" stroke="#00A19C" stroke-width="2" stroke-linejoin="round"/>
<path d="M17.6667 28V33" stroke="#00A19C" stroke-width="2" stroke-linejoin="round"/>
<path d="M39.6667 28V33" stroke="#00A19C" stroke-width="2" stroke-linejoin="round"/>
<path d="M13.6667 28V30" stroke="#00A19C" stroke-width="2" stroke-linejoin="round"/>
<path d="M39.6667 33V36" stroke="#00A19C" stroke-width="2" stroke-linejoin="round"/>
<path d="M63.6667 54V63H54.6667" stroke="#00A19C" stroke-width="2" stroke-linejoin="round"/>
<path d="M10.6667 63H1.66675V54" stroke="#00A19C" stroke-width="2" stroke-linejoin="round"/>
<path d="M10.6667 1H1.66675V10" stroke="#00A19C" stroke-width="2" stroke-linejoin="round"/>
<path d="M54.6667 1H63.6667V10" stroke="#00A19C" stroke-width="2" stroke-linejoin="round"/>
<path d="M4.66675 5H6.66675" stroke="#00A19C" stroke-width="2" stroke-linejoin="round"/>
<path d="M58.6667 5H60.6667" stroke="#00A19C" stroke-width="2" stroke-linejoin="round"/>
<path d="M4.66675 59H6.66675" stroke="#00A19C" stroke-width="2" stroke-linejoin="round"/>
<path d="M58.6667 59H60.6667" stroke="#00A19C" stroke-width="2" stroke-linejoin="round"/>
</g>
<defs>
<clipPath id="clip0_2112_30799">
<rect width="64" height="64" fill="white" transform="translate(0.666748)"/>
</clipPath>
</defs>
</svg>
