<svg width="116" height="18" viewBox="0 0 116 18" fill="none" xmlns="http://www.w3.org/2000/svg">
<g clip-path="url(#clip0_2225_23735)">
<line y1="-0.182103" x2="55.6271" y2="-0.182103" transform="matrix(0.500001 0.866025 0.866026 -0.499999 113.177 -14.959)" stroke="#242D38" stroke-width="0.364206"/>
<line y1="-0.182103" x2="55.6271" y2="-0.182103" transform="matrix(0.500001 0.866025 0.866026 -0.499999 108.806 -14.959)" stroke="#242D38" stroke-width="0.364206"/>
<line y1="-0.182103" x2="55.6271" y2="-0.182103" transform="matrix(0.500001 0.866025 0.866026 -0.499999 104.436 -14.959)" stroke="#242D38" stroke-width="0.364206"/>
<line y1="-0.182103" x2="55.6271" y2="-0.182103" transform="matrix(0.500001 0.866025 0.866026 -0.499999 100.065 -14.959)" stroke="#242D38" stroke-width="0.364206"/>
<line y1="-0.182103" x2="55.6271" y2="-0.182103" transform="matrix(0.500001 0.866025 0.866026 -0.499999 95.6949 -14.959)" stroke="#242D38" stroke-width="0.364206"/>
<line y1="-0.182103" x2="55.6271" y2="-0.182103" transform="matrix(0.500001 0.866025 0.866026 -0.499999 91.3246 -14.959)" stroke="#242D38" stroke-width="0.364206"/>
<line y1="-0.182103" x2="55.6271" y2="-0.182103" transform="matrix(0.500001 0.866025 0.866026 -0.499999 86.9539 -14.959)" stroke="#242D38" stroke-width="0.364206"/>
<line y1="-0.182103" x2="55.6271" y2="-0.182103" transform="matrix(0.500001 0.866025 0.866026 -0.499999 82.5835 -14.959)" stroke="#242D38" stroke-width="0.364206"/>
<line y1="-0.182103" x2="55.6271" y2="-0.182103" transform="matrix(0.500001 0.866025 0.866026 -0.499999 78.213 -14.959)" stroke="#242D38" stroke-width="0.364206"/>
<line y1="-0.182103" x2="55.6271" y2="-0.182103" transform="matrix(0.500001 0.866025 0.866026 -0.499999 73.8425 -14.959)" stroke="#242D38" stroke-width="0.364206"/>
<line y1="-0.182103" x2="55.6271" y2="-0.182103" transform="matrix(0.500001 0.866025 0.866026 -0.499999 69.4721 -14.959)" stroke="#242D38" stroke-width="0.364206"/>
<line y1="-0.182103" x2="55.6271" y2="-0.182103" transform="matrix(0.500001 0.866025 0.866026 -0.499999 65.1018 -14.959)" stroke="#242D38" stroke-width="0.364206"/>
<line y1="-0.182103" x2="55.6271" y2="-0.182103" transform="matrix(0.500001 0.866025 0.866026 -0.499999 60.7311 -14.959)" stroke="#242D38" stroke-width="0.364206"/>
<line y1="-0.182103" x2="55.6271" y2="-0.182103" transform="matrix(0.500001 0.866025 0.866026 -0.499999 56.3607 -14.959)" stroke="#242D38" stroke-width="0.364206"/>
<line y1="-0.182103" x2="55.6271" y2="-0.182103" transform="matrix(0.500001 0.866025 0.866026 -0.499999 51.9902 -14.959)" stroke="#242D38" stroke-width="0.364206"/>
<line y1="-0.182103" x2="55.6271" y2="-0.182103" transform="matrix(0.500001 0.866025 0.866026 -0.499999 47.6198 -14.959)" stroke="#242D38" stroke-width="0.364206"/>
<line y1="-0.182103" x2="55.6271" y2="-0.182103" transform="matrix(0.500001 0.866025 0.866026 -0.499999 43.2493 -14.959)" stroke="#242D38" stroke-width="0.364206"/>
<line y1="-0.182103" x2="55.6271" y2="-0.182103" transform="matrix(0.500001 0.866025 0.866026 -0.499999 38.8788 -14.959)" stroke="#242D38" stroke-width="0.364206"/>
<line y1="-0.182103" x2="55.6271" y2="-0.182103" transform="matrix(0.500001 0.866025 0.866026 -0.499999 34.5084 -14.959)" stroke="#242D38" stroke-width="0.364206"/>
<line y1="-0.182103" x2="55.6271" y2="-0.182103" transform="matrix(0.500001 0.866025 0.866026 -0.499999 30.1379 -14.959)" stroke="#242D38" stroke-width="0.364206"/>
<line y1="-0.182103" x2="55.6271" y2="-0.182103" transform="matrix(0.500001 0.866025 0.866026 -0.499999 25.7675 -14.959)" stroke="#242D38" stroke-width="0.364206"/>
<line y1="-0.182103" x2="55.6271" y2="-0.182103" transform="matrix(0.500001 0.866025 0.866026 -0.499999 21.397 -14.959)" stroke="#242D38" stroke-width="0.364206"/>
<line y1="-0.182103" x2="55.6271" y2="-0.182103" transform="matrix(0.500001 0.866025 0.866026 -0.499999 17.0266 -14.959)" stroke="#242D38" stroke-width="0.364206"/>
<line y1="-0.182103" x2="55.6271" y2="-0.182103" transform="matrix(0.500001 0.866025 0.866026 -0.499999 12.6561 -14.959)" stroke="#242D38" stroke-width="0.364206"/>
<line y1="-0.182103" x2="55.6271" y2="-0.182103" transform="matrix(0.500001 0.866025 0.866026 -0.499999 8.28543 -14.959)" stroke="#242D38" stroke-width="0.364206"/>
<line y1="-0.182103" x2="55.6271" y2="-0.182103" transform="matrix(0.500001 0.866025 0.866026 -0.499999 3.91495 -14.959)" stroke="#242D38" stroke-width="0.364206"/>
<line y1="-0.182103" x2="55.6271" y2="-0.182103" transform="matrix(0.500001 0.866025 0.866026 -0.499999 -0.455505 -14.959)" stroke="#242D38" stroke-width="0.364206"/>
<line y1="-0.182103" x2="55.6271" y2="-0.182103" transform="matrix(0.500001 0.866025 0.866026 -0.499999 -4.82599 -14.959)" stroke="#242D38" stroke-width="0.364206"/>
<line y1="-0.182103" x2="55.6271" y2="-0.182103" transform="matrix(0.500001 0.866025 0.866026 -0.499999 -9.19641 -14.959)" stroke="#242D38" stroke-width="0.364206"/>
<line y1="-0.182103" x2="55.6271" y2="-0.182103" transform="matrix(0.500001 0.866025 0.866026 -0.499999 -13.5669 -14.959)" stroke="#242D38" stroke-width="0.364206"/>
<line y1="-0.182103" x2="55.6271" y2="-0.182103" transform="matrix(0.500001 0.866025 0.866026 -0.499999 -17.9373 -14.959)" stroke="#242D38" stroke-width="0.364206"/>
<line y1="-0.182103" x2="55.6271" y2="-0.182103" transform="matrix(0.500001 0.866025 0.866026 -0.499999 -22.3078 -14.959)" stroke="#242D38" stroke-width="0.364206"/>
<line y1="-0.182103" x2="55.6271" y2="-0.182103" transform="matrix(0.500001 0.866025 0.866026 -0.499999 -26.6783 -14.959)" stroke="#242D38" stroke-width="0.364206"/>
</g>
<defs>
<clipPath id="clip0_2225_23735">
<rect width="115.089" height="17.4819" fill="white" transform="matrix(-1 0 0 1 115.089 0.078125)"/>
</clipPath>
</defs>
</svg>
