<svg width="48" height="472" viewBox="0 0 48 472" fill="none" xmlns="http://www.w3.org/2000/svg">
<g clip-path="url(#clip0_2108_20611)">
<line y1="-0.5" x2="152.735" y2="-0.5" transform="matrix(-0.866025 0.500001 0.499999 0.866026 90 462.068)" stroke="#C3E86C"/>
<line y1="-0.5" x2="152.735" y2="-0.5" transform="matrix(-0.866025 0.500001 0.499999 0.866026 90 450.068)" stroke="#C3E86C"/>
<line y1="-0.5" x2="152.735" y2="-0.5" transform="matrix(-0.866025 0.500001 0.499999 0.866026 90 438.068)" stroke="#C3E86C"/>
<line y1="-0.5" x2="152.735" y2="-0.5" transform="matrix(-0.866025 0.500001 0.499999 0.866026 90 426.068)" stroke="#C3E86C"/>
<line y1="-0.5" x2="152.735" y2="-0.5" transform="matrix(-0.866025 0.500001 0.499999 0.866026 90 414.068)" stroke="#C3E86C"/>
<line y1="-0.5" x2="152.735" y2="-0.5" transform="matrix(-0.866025 0.500001 0.499999 0.866026 90 402.068)" stroke="#C3E86C"/>
<line y1="-0.5" x2="152.735" y2="-0.5" transform="matrix(-0.866025 0.500001 0.499999 0.866026 90 390.068)" stroke="#C3E86C"/>
<line y1="-0.5" x2="152.735" y2="-0.5" transform="matrix(-0.866025 0.500001 0.499999 0.866026 90 378.068)" stroke="#C3E86C"/>
<line y1="-0.5" x2="152.735" y2="-0.5" transform="matrix(-0.866025 0.500001 0.499999 0.866026 90 366.067)" stroke="#C3E86C"/>
<line y1="-0.5" x2="152.735" y2="-0.5" transform="matrix(-0.866025 0.500001 0.499999 0.866026 90 354.068)" stroke="#C3E86C"/>
<line y1="-0.5" x2="152.735" y2="-0.5" transform="matrix(-0.866025 0.500001 0.499999 0.866026 90 342.067)" stroke="#C3E86C"/>
<line y1="-0.5" x2="152.735" y2="-0.5" transform="matrix(-0.866025 0.500001 0.499999 0.866026 90 330.068)" stroke="#C3E86C"/>
<line y1="-0.5" x2="152.735" y2="-0.5" transform="matrix(-0.866025 0.500001 0.499999 0.866026 90 318.067)" stroke="#C3E86C"/>
<line y1="-0.5" x2="152.735" y2="-0.5" transform="matrix(-0.866025 0.500001 0.499999 0.866026 90 306.067)" stroke="#C3E86C"/>
<line y1="-0.5" x2="152.735" y2="-0.5" transform="matrix(-0.866025 0.500001 0.499999 0.866026 90 294.068)" stroke="#C3E86C"/>
<line y1="-0.5" x2="152.735" y2="-0.5" transform="matrix(-0.866025 0.500001 0.499999 0.866026 90 282.068)" stroke="#C3E86C"/>
<line y1="-0.5" x2="152.735" y2="-0.5" transform="matrix(-0.866025 0.500001 0.499999 0.866026 90 270.068)" stroke="#C3E86C"/>
<line y1="-0.5" x2="152.735" y2="-0.5" transform="matrix(-0.866025 0.500001 0.499999 0.866026 90 258.068)" stroke="#C3E86C"/>
<line y1="-0.5" x2="152.735" y2="-0.5" transform="matrix(-0.866025 0.500001 0.499999 0.866026 90 246.068)" stroke="#C3E86C"/>
<line y1="-0.5" x2="152.735" y2="-0.5" transform="matrix(-0.866025 0.500001 0.499999 0.866026 90 234.068)" stroke="#C3E86C"/>
<line y1="-0.5" x2="152.735" y2="-0.5" transform="matrix(-0.866025 0.500001 0.499999 0.866026 90 222.068)" stroke="#C3E86C"/>
<line y1="-0.5" x2="152.735" y2="-0.5" transform="matrix(-0.866025 0.500001 0.499999 0.866026 90 210.068)" stroke="#C3E86C"/>
<line y1="-0.5" x2="152.735" y2="-0.5" transform="matrix(-0.866025 0.500001 0.499999 0.866026 90 198.068)" stroke="#C3E86C"/>
<line y1="-0.5" x2="152.735" y2="-0.5" transform="matrix(-0.866025 0.500001 0.499999 0.866026 90 186.068)" stroke="#C3E86C"/>
<line y1="-0.5" x2="152.735" y2="-0.5" transform="matrix(-0.866025 0.500001 0.499999 0.866026 90 174.068)" stroke="#C3E86C"/>
<line y1="-0.5" x2="152.735" y2="-0.5" transform="matrix(-0.866025 0.500001 0.499999 0.866026 90 162.068)" stroke="#C3E86C"/>
<line y1="-0.5" x2="152.735" y2="-0.5" transform="matrix(-0.866025 0.500001 0.499999 0.866026 90 150.068)" stroke="#C3E86C"/>
<line y1="-0.5" x2="152.735" y2="-0.5" transform="matrix(-0.866025 0.500001 0.499999 0.866026 90 138.068)" stroke="#C3E86C"/>
<line y1="-0.5" x2="152.735" y2="-0.5" transform="matrix(-0.866025 0.500001 0.499999 0.866026 90 126.068)" stroke="#C3E86C"/>
<line y1="-0.5" x2="152.735" y2="-0.5" transform="matrix(-0.866025 0.500001 0.499999 0.866026 90 114.068)" stroke="#C3E86C"/>
<line y1="-0.5" x2="152.735" y2="-0.5" transform="matrix(-0.866025 0.500001 0.499999 0.866026 90 102.067)" stroke="#C3E86C"/>
<line y1="-0.5" x2="152.735" y2="-0.5" transform="matrix(-0.866025 0.500001 0.499999 0.866026 90 90.0674)" stroke="#C3E86C"/>
<line y1="-0.5" x2="152.735" y2="-0.5" transform="matrix(-0.866025 0.500001 0.499999 0.866026 90 78.0674)" stroke="#C3E86C"/>
<line y1="-0.5" x2="152.735" y2="-0.5" transform="matrix(-0.866025 0.500001 0.499999 0.866026 90 66.0674)" stroke="#C3E86C"/>
<line y1="-0.5" x2="152.735" y2="-0.5" transform="matrix(-0.866025 0.500001 0.499999 0.866026 90 54.0679)" stroke="#C3E86C"/>
<line y1="-0.5" x2="152.735" y2="-0.5" transform="matrix(-0.866025 0.500001 0.499999 0.866026 90 42.0679)" stroke="#C3E86C"/>
<line y1="-0.5" x2="152.735" y2="-0.5" transform="matrix(-0.866025 0.500001 0.499999 0.866026 90 30.0679)" stroke="#C3E86C"/>
<line y1="-0.5" x2="152.735" y2="-0.5" transform="matrix(-0.866025 0.500001 0.499999 0.866026 90 18.0679)" stroke="#C3E86C"/>
<line y1="-0.5" x2="152.735" y2="-0.5" transform="matrix(-0.866025 0.500001 0.499999 0.866026 90 6.06787)" stroke="#C3E86C"/>
<line y1="-0.5" x2="152.735" y2="-0.5" transform="matrix(-0.866025 0.500001 0.499999 0.866026 90 -5.93213)" stroke="#C3E86C"/>
<line y1="-0.5" x2="152.735" y2="-0.5" transform="matrix(-0.866025 0.500001 0.499999 0.866026 90 -17.9321)" stroke="#C3E86C"/>
<line y1="-0.5" x2="152.735" y2="-0.5" transform="matrix(-0.866025 0.500001 0.499999 0.866026 90 -29.9321)" stroke="#C3E86C"/>
<line y1="-0.5" x2="152.735" y2="-0.5" transform="matrix(-0.866025 0.500001 0.499999 0.866026 90 -41.9321)" stroke="#C3E86C"/>
<line y1="-0.5" x2="152.735" y2="-0.5" transform="matrix(-0.866025 0.500001 0.499999 0.866026 90 -53.9326)" stroke="#C3E86C"/>
<line y1="-0.5" x2="152.735" y2="-0.5" transform="matrix(-0.866025 0.500001 0.499999 0.866026 90 -65.9326)" stroke="#C3E86C"/>
</g>
<defs>
<clipPath id="clip0_2108_20611">
<rect width="470.136" height="48" fill="white" transform="matrix(3.84921e-08 -1 -1 -4.96384e-08 48 471.068)"/>
</clipPath>
</defs>
</svg>
