<svg width="840" height="228" viewBox="0 0 840 228" fill="none" xmlns="http://www.w3.org/2000/svg">
<path d="M801.734 0.926758L763.492 66.9142L801.734 133.073L840 66.9142L801.734 0.926758Z" fill="#002554"/>
<path opacity="0.3" d="M801.734 0.926758L763.492 66.9142L801.734 133.073L840 66.9142L801.734 0.926758Z" fill="white"/>
<path d="M166.841 0.926758L128.599 66.9142L166.841 133.073H801.734L763.492 66.9142L801.734 0.926758H166.841Z" fill="#002554"/>
<path d="M38.2419 0.926758L0 66.9142L38.2419 133.073H166.865L128.598 66.9142L166.865 0.926758H38.2419Z" fill="#C3E86C"/>
<path opacity="0.2" d="M763.663 67.0121H0L38.3887 0.926758H801.832L763.663 67.0121Z" fill="white"/>
<circle cx="48" cy="184.073" r="8" fill="#C3E86C"/>
<path d="M65.092 179.077H69.796C70.748 179.077 71.49 179.315 72.022 179.777C72.554 180.253 72.82 180.883 72.834 181.695C72.834 182.311 72.694 182.843 72.414 183.291C72.134 183.753 71.7 184.061 71.098 184.229V184.257C71.378 184.313 71.616 184.411 71.798 184.537C71.98 184.677 72.12 184.831 72.232 185.013C72.344 185.195 72.414 185.391 72.47 185.615C72.526 185.839 72.568 186.077 72.596 186.315C72.61 186.567 72.624 186.805 72.638 187.057C72.638 187.309 72.666 187.561 72.708 187.799C72.736 188.051 72.792 188.275 72.862 188.499C72.932 188.723 73.044 188.905 73.184 189.073H71.7C71.602 188.975 71.532 188.835 71.504 188.653C71.476 188.485 71.448 188.289 71.448 188.065C71.434 187.841 71.42 187.603 71.42 187.351C71.406 187.099 71.378 186.861 71.336 186.609C71.294 186.371 71.252 186.147 71.196 185.923C71.14 185.699 71.042 185.517 70.93 185.349C70.804 185.181 70.65 185.055 70.454 184.957C70.258 184.859 69.992 184.803 69.67 184.803H66.422V189.073H65.092V179.077ZM69.194 183.683C69.502 183.683 69.796 183.669 70.076 183.613C70.356 183.571 70.594 183.487 70.804 183.347C71.014 183.207 71.182 183.025 71.308 182.801C71.434 182.577 71.504 182.269 71.504 181.905C71.504 181.401 71.364 180.995 71.084 180.673C70.804 180.365 70.342 180.197 69.726 180.197H66.422V183.683H69.194ZM79.506 184.761C79.478 184.481 79.422 184.215 79.31 183.963C79.198 183.711 79.058 183.501 78.876 183.319C78.694 183.137 78.484 182.997 78.232 182.885C77.98 182.773 77.714 182.731 77.42 182.717C77.112 182.717 76.832 182.773 76.58 182.885C76.328 182.997 76.118 183.137 75.95 183.319C75.768 183.515 75.628 183.725 75.53 183.977C75.418 184.229 75.362 184.481 75.348 184.761H79.506ZM80.654 186.777C80.486 187.589 80.136 188.205 79.604 188.611C79.058 189.031 78.372 189.227 77.56 189.227C76.972 189.227 76.468 189.143 76.048 188.947C75.628 188.765 75.264 188.499 74.984 188.163C74.69 187.827 74.466 187.435 74.326 186.959C74.186 186.497 74.102 185.993 74.088 185.433C74.088 184.887 74.172 184.383 74.34 183.921C74.508 183.473 74.732 183.067 75.04 182.731C75.348 182.395 75.698 182.143 76.118 181.947C76.538 181.765 76.986 181.681 77.49 181.667C78.134 181.667 78.666 181.807 79.086 182.073C79.506 182.339 79.856 182.675 80.108 183.081C80.36 183.501 80.542 183.949 80.64 184.425C80.738 184.915 80.78 185.377 80.766 185.811H75.348C75.334 186.133 75.376 186.441 75.46 186.721C75.544 187.001 75.67 187.253 75.866 187.477C76.048 187.701 76.286 187.869 76.58 187.995C76.86 188.135 77.21 188.191 77.602 188.191C78.106 188.191 78.512 188.079 78.834 187.841C79.156 187.617 79.366 187.253 79.478 186.777H80.654ZM81.9995 181.835H83.1195V182.983H83.1475C83.6375 182.115 84.4215 181.667 85.4995 181.667C85.9755 181.667 86.3675 181.737 86.6895 181.863C86.9975 182.003 87.2635 182.185 87.4595 182.409C87.6415 182.647 87.7815 182.927 87.8655 183.249C87.9495 183.571 87.9775 183.921 87.9915 184.313V189.073H86.8015V184.173C86.8015 183.725 86.6615 183.375 86.4095 183.109C86.1435 182.857 85.7795 182.731 85.3315 182.717C84.9675 182.717 84.6455 182.773 84.3795 182.885C84.1135 182.997 83.8895 183.165 83.7215 183.361C83.5395 183.571 83.3995 183.809 83.3155 184.089C83.2315 184.369 83.1895 184.663 83.1895 184.985V189.073H81.9995V181.835ZM90.5068 186.791C90.5068 187.057 90.5768 187.281 90.6888 187.463C90.8008 187.645 90.9408 187.785 91.1228 187.897C91.3048 188.009 91.5148 188.079 91.7388 188.121C91.9628 188.177 92.2008 188.191 92.4528 188.191C92.6348 188.191 92.8308 188.177 93.0408 188.149C93.2368 188.121 93.4328 188.079 93.6008 187.995C93.7688 187.925 93.9228 187.813 94.0348 187.673C94.1468 187.533 94.2028 187.337 94.2028 187.113C94.2028 186.805 94.0768 186.581 93.8528 186.413C93.6148 186.259 93.3208 186.133 92.9708 186.035C92.6208 185.937 92.2428 185.853 91.8368 185.769C91.4168 185.685 91.0388 185.573 90.6888 185.433C90.3388 185.293 90.0448 185.083 89.8208 184.817C89.5828 184.565 89.4708 184.201 89.4708 183.725C89.4708 183.361 89.5408 183.053 89.7088 182.787C89.8768 182.535 90.0868 182.325 90.3388 182.157C90.5908 181.989 90.8848 181.877 91.2068 181.793C91.5288 181.709 91.8508 181.667 92.1728 181.667C92.5788 181.667 92.9568 181.709 93.3068 181.779C93.6428 181.849 93.9508 181.975 94.2168 182.143C94.4828 182.311 94.6928 182.549 94.8608 182.843C95.0148 183.137 95.1128 183.501 95.1408 183.935H93.9508C93.9228 183.711 93.8668 183.515 93.7688 183.361C93.6568 183.207 93.5308 183.081 93.3768 182.983C93.2088 182.899 93.0408 182.829 92.8448 182.787C92.6488 182.745 92.4668 182.717 92.2708 182.717C92.0888 182.717 91.9068 182.731 91.7248 182.759C91.5428 182.787 91.3748 182.843 91.2348 182.913C91.0808 182.983 90.9548 183.081 90.8708 183.193C90.7728 183.305 90.7308 183.459 90.7308 183.641C90.7308 183.851 90.8008 184.019 90.9408 184.159C91.0808 184.299 91.2768 184.411 91.5008 184.495C91.7248 184.579 91.9768 184.663 92.2568 184.719C92.5368 184.775 92.8168 184.845 93.0968 184.901C93.3908 184.971 93.6848 185.055 93.9648 185.139C94.2448 185.237 94.4968 185.363 94.7208 185.517C94.9448 185.671 95.1128 185.867 95.2528 186.091C95.3928 186.329 95.4488 186.623 95.4628 186.959C95.4628 187.407 95.3648 187.771 95.1828 188.051C95.0008 188.345 94.7628 188.583 94.4688 188.751C94.1748 188.933 93.8388 189.059 93.4748 189.129C93.1108 189.199 92.7468 189.227 92.3828 189.227C91.9768 189.227 91.5988 189.185 91.2348 189.101C90.8708 189.017 90.5488 188.891 90.2688 188.695C89.9888 188.499 89.7648 188.247 89.5968 187.939C89.4288 187.631 89.3308 187.239 89.3168 186.791H90.5068ZM101.805 184.761C101.777 184.481 101.721 184.215 101.609 183.963C101.497 183.711 101.357 183.501 101.175 183.319C100.993 183.137 100.783 182.997 100.531 182.885C100.279 182.773 100.013 182.731 99.7188 182.717C99.4108 182.717 99.1308 182.773 98.8788 182.885C98.6268 182.997 98.4168 183.137 98.2488 183.319C98.0668 183.515 97.9268 183.725 97.8288 183.977C97.7168 184.229 97.6608 184.481 97.6468 184.761H101.805ZM102.953 186.777C102.785 187.589 102.435 188.205 101.903 188.611C101.357 189.031 100.671 189.227 99.8588 189.227C99.2708 189.227 98.7668 189.143 98.3468 188.947C97.9268 188.765 97.5628 188.499 97.2828 188.163C96.9888 187.827 96.7648 187.435 96.6248 186.959C96.4848 186.497 96.4008 185.993 96.3868 185.433C96.3868 184.887 96.4708 184.383 96.6388 183.921C96.8068 183.473 97.0308 183.067 97.3388 182.731C97.6468 182.395 97.9968 182.143 98.4168 181.947C98.8368 181.765 99.2848 181.681 99.7888 181.667C100.433 181.667 100.965 181.807 101.385 182.073C101.805 182.339 102.155 182.675 102.407 183.081C102.659 183.501 102.841 183.949 102.939 184.425C103.037 184.915 103.079 185.377 103.065 185.811H97.6468C97.6328 186.133 97.6748 186.441 97.7588 186.721C97.8428 187.001 97.9688 187.253 98.1648 187.477C98.3468 187.701 98.5848 187.869 98.8788 187.995C99.1588 188.135 99.5088 188.191 99.9008 188.191C100.405 188.191 100.811 188.079 101.133 187.841C101.455 187.617 101.665 187.253 101.777 186.777H102.953ZM105.558 180.533H104.368V179.077H105.558V180.533ZM104.368 181.835H105.558V189.073H104.368V181.835ZM113.646 188.457C113.646 189.647 113.366 190.529 112.834 191.117C112.288 191.705 111.434 191.999 110.286 191.999C109.95 191.999 109.6 191.971 109.25 191.887C108.9 191.817 108.578 191.691 108.298 191.523C108.018 191.355 107.78 191.145 107.598 190.865C107.402 190.599 107.304 190.263 107.29 189.871H108.48C108.48 190.095 108.55 190.277 108.676 190.417C108.802 190.571 108.956 190.697 109.138 190.781C109.32 190.879 109.516 190.949 109.74 190.991C109.95 191.033 110.16 191.047 110.356 191.047C110.748 191.047 111.07 190.991 111.35 190.851C111.616 190.711 111.84 190.529 112.022 190.291C112.19 190.053 112.316 189.759 112.4 189.423C112.484 189.087 112.512 188.723 112.526 188.317V187.841H112.498C112.288 188.289 111.98 188.625 111.56 188.835C111.14 189.045 110.706 189.143 110.244 189.143C109.698 189.143 109.222 189.045 108.83 188.849C108.424 188.653 108.088 188.401 107.822 188.065C107.542 187.729 107.346 187.351 107.206 186.903C107.066 186.455 107.01 185.993 107.01 185.489C107.01 185.069 107.066 184.621 107.178 184.173C107.29 183.725 107.472 183.305 107.738 182.941C107.99 182.577 108.34 182.269 108.774 182.031C109.194 181.793 109.726 181.667 110.356 181.667C110.804 181.667 111.224 181.779 111.616 181.975C111.994 182.171 112.288 182.479 112.512 182.871H112.526V181.835H113.646V188.457ZM110.314 188.107C110.706 188.107 111.028 188.037 111.308 187.869C111.588 187.701 111.812 187.491 111.98 187.225C112.134 186.959 112.26 186.651 112.344 186.315C112.428 185.979 112.456 185.643 112.47 185.307C112.47 184.999 112.428 184.677 112.358 184.369C112.274 184.061 112.162 183.795 111.994 183.543C111.826 183.291 111.616 183.095 111.364 182.941C111.098 182.801 110.776 182.731 110.412 182.717C110.02 182.717 109.698 182.801 109.432 182.941C109.152 183.081 108.928 183.277 108.76 183.515C108.592 183.767 108.466 184.047 108.382 184.355C108.298 184.677 108.27 185.013 108.27 185.349C108.27 185.685 108.298 186.007 108.368 186.329C108.424 186.665 108.536 186.959 108.704 187.225C108.858 187.491 109.068 187.701 109.334 187.869C109.586 188.037 109.922 188.107 110.314 188.107ZM115.441 181.835H116.561V182.983H116.589C117.079 182.115 117.863 181.667 118.941 181.667C119.417 181.667 119.809 181.737 120.131 181.863C120.439 182.003 120.705 182.185 120.901 182.409C121.083 182.647 121.223 182.927 121.307 183.249C121.391 183.571 121.419 183.921 121.433 184.313V189.073H120.243V184.173C120.243 183.725 120.103 183.375 119.851 183.109C119.585 182.857 119.221 182.731 118.773 182.717C118.409 182.717 118.087 182.773 117.821 182.885C117.555 182.997 117.331 183.165 117.163 183.361C116.981 183.571 116.841 183.809 116.757 184.089C116.673 184.369 116.631 184.663 116.631 184.985V189.073H115.441V181.835ZM128.246 184.761C128.218 184.481 128.162 184.215 128.05 183.963C127.938 183.711 127.798 183.501 127.616 183.319C127.434 183.137 127.224 182.997 126.972 182.885C126.72 182.773 126.454 182.731 126.16 182.717C125.852 182.717 125.572 182.773 125.32 182.885C125.068 182.997 124.858 183.137 124.69 183.319C124.508 183.515 124.368 183.725 124.27 183.977C124.158 184.229 124.102 184.481 124.088 184.761H128.246ZM129.394 186.777C129.226 187.589 128.876 188.205 128.344 188.611C127.798 189.031 127.112 189.227 126.3 189.227C125.712 189.227 125.208 189.143 124.788 188.947C124.368 188.765 124.004 188.499 123.724 188.163C123.43 187.827 123.206 187.435 123.066 186.959C122.926 186.497 122.842 185.993 122.828 185.433C122.828 184.887 122.912 184.383 123.08 183.921C123.248 183.473 123.472 183.067 123.78 182.731C124.088 182.395 124.438 182.143 124.858 181.947C125.278 181.765 125.726 181.681 126.23 181.667C126.874 181.667 127.406 181.807 127.826 182.073C128.246 182.339 128.596 182.675 128.848 183.081C129.1 183.501 129.282 183.949 129.38 184.425C129.478 184.915 129.52 185.377 129.506 185.811H124.088C124.074 186.133 124.116 186.441 124.2 186.721C124.284 187.001 124.41 187.253 124.606 187.477C124.788 187.701 125.026 187.869 125.32 187.995C125.6 188.135 125.95 188.191 126.342 188.191C126.846 188.191 127.252 188.079 127.574 187.841C127.896 187.617 128.106 187.253 128.218 186.777H129.394ZM130.74 181.835H131.86V182.899H131.888C132.42 182.087 133.204 181.667 134.226 181.667C134.674 181.667 135.08 181.765 135.444 181.947C135.808 182.143 136.06 182.451 136.214 182.899C136.452 182.507 136.774 182.213 137.166 181.989C137.558 181.779 137.992 181.681 138.482 181.667C138.846 181.667 139.168 181.709 139.462 181.793C139.756 181.877 140.008 181.989 140.218 182.157C140.428 182.325 140.596 182.549 140.708 182.815C140.82 183.081 140.876 183.403 140.89 183.767V189.073H139.7V184.327C139.7 184.103 139.672 183.893 139.644 183.697C139.602 183.501 139.532 183.333 139.434 183.193C139.322 183.053 139.182 182.927 139 182.843C138.818 182.759 138.58 182.717 138.3 182.717C137.712 182.717 137.25 182.885 136.914 183.221C136.578 183.557 136.41 184.005 136.41 184.565V189.073H135.22V184.327C135.22 184.103 135.192 183.879 135.15 183.683C135.108 183.487 135.038 183.319 134.94 183.179C134.828 183.039 134.688 182.927 134.52 182.843C134.352 182.759 134.128 182.731 133.862 182.717C133.512 182.717 133.218 182.787 132.966 182.927C132.714 183.067 132.518 183.235 132.364 183.431C132.21 183.627 132.098 183.837 132.028 184.047C131.958 184.257 131.93 184.425 131.93 184.565V189.073H130.74V181.835ZM147.701 184.761C147.673 184.481 147.617 184.215 147.505 183.963C147.393 183.711 147.253 183.501 147.071 183.319C146.889 183.137 146.679 182.997 146.427 182.885C146.175 182.773 145.909 182.731 145.615 182.717C145.307 182.717 145.027 182.773 144.775 182.885C144.523 182.997 144.313 183.137 144.145 183.319C143.963 183.515 143.823 183.725 143.725 183.977C143.613 184.229 143.557 184.481 143.543 184.761H147.701ZM148.849 186.777C148.681 187.589 148.331 188.205 147.799 188.611C147.253 189.031 146.567 189.227 145.755 189.227C145.167 189.227 144.663 189.143 144.243 188.947C143.823 188.765 143.459 188.499 143.179 188.163C142.885 187.827 142.661 187.435 142.521 186.959C142.381 186.497 142.297 185.993 142.283 185.433C142.283 184.887 142.367 184.383 142.535 183.921C142.703 183.473 142.927 183.067 143.235 182.731C143.543 182.395 143.893 182.143 144.313 181.947C144.733 181.765 145.181 181.681 145.685 181.667C146.329 181.667 146.861 181.807 147.281 182.073C147.701 182.339 148.051 182.675 148.303 183.081C148.555 183.501 148.737 183.949 148.835 184.425C148.933 184.915 148.975 185.377 148.961 185.811H143.543C143.529 186.133 143.571 186.441 143.655 186.721C143.739 187.001 143.865 187.253 144.061 187.477C144.243 187.701 144.481 187.869 144.775 187.995C145.055 188.135 145.405 188.191 145.797 188.191C146.301 188.191 146.707 188.079 147.029 187.841C147.351 187.617 147.561 187.253 147.673 186.777H148.849ZM150.195 181.835H151.315V182.983H151.343C151.833 182.115 152.617 181.667 153.695 181.667C154.171 181.667 154.563 181.737 154.885 181.863C155.193 182.003 155.459 182.185 155.655 182.409C155.837 182.647 155.977 182.927 156.061 183.249C156.145 183.571 156.173 183.921 156.187 184.313V189.073H154.997V184.173C154.997 183.725 154.857 183.375 154.605 183.109C154.339 182.857 153.975 182.731 153.527 182.717C153.163 182.717 152.841 182.773 152.575 182.885C152.309 182.997 152.085 183.165 151.917 183.361C151.735 183.571 151.595 183.809 151.511 184.089C151.427 184.369 151.385 184.663 151.385 184.985V189.073H150.195V181.835ZM159.626 181.835H161.068V182.885H159.626V187.379C159.626 187.519 159.626 187.631 159.654 187.715C159.682 187.799 159.724 187.869 159.794 187.911C159.85 187.967 159.948 187.995 160.06 188.009C160.172 188.023 160.326 188.023 160.522 188.023H161.068V189.073H160.158C159.85 189.073 159.584 189.059 159.36 189.017C159.136 188.975 158.968 188.891 158.828 188.779C158.688 188.667 158.59 188.513 158.534 188.303C158.464 188.107 158.436 187.827 158.436 187.491V182.885H157.204V181.835H158.436V179.665H159.626V181.835ZM163.118 186.791C163.118 187.057 163.188 187.281 163.3 187.463C163.412 187.645 163.552 187.785 163.734 187.897C163.916 188.009 164.126 188.079 164.35 188.121C164.574 188.177 164.812 188.191 165.064 188.191C165.246 188.191 165.442 188.177 165.652 188.149C165.848 188.121 166.044 188.079 166.212 187.995C166.38 187.925 166.534 187.813 166.646 187.673C166.758 187.533 166.814 187.337 166.814 187.113C166.814 186.805 166.688 186.581 166.464 186.413C166.226 186.259 165.932 186.133 165.582 186.035C165.232 185.937 164.854 185.853 164.448 185.769C164.028 185.685 163.65 185.573 163.3 185.433C162.95 185.293 162.656 185.083 162.432 184.817C162.194 184.565 162.082 184.201 162.082 183.725C162.082 183.361 162.152 183.053 162.32 182.787C162.488 182.535 162.698 182.325 162.95 182.157C163.202 181.989 163.496 181.877 163.818 181.793C164.14 181.709 164.462 181.667 164.784 181.667C165.19 181.667 165.568 181.709 165.918 181.779C166.254 181.849 166.562 181.975 166.828 182.143C167.094 182.311 167.304 182.549 167.472 182.843C167.626 183.137 167.724 183.501 167.752 183.935H166.562C166.534 183.711 166.478 183.515 166.38 183.361C166.268 183.207 166.142 183.081 165.988 182.983C165.82 182.899 165.652 182.829 165.456 182.787C165.26 182.745 165.078 182.717 164.882 182.717C164.7 182.717 164.518 182.731 164.336 182.759C164.154 182.787 163.986 182.843 163.846 182.913C163.692 182.983 163.566 183.081 163.482 183.193C163.384 183.305 163.342 183.459 163.342 183.641C163.342 183.851 163.412 184.019 163.552 184.159C163.692 184.299 163.888 184.411 164.112 184.495C164.336 184.579 164.588 184.663 164.868 184.719C165.148 184.775 165.428 184.845 165.708 184.901C166.002 184.971 166.296 185.055 166.576 185.139C166.856 185.237 167.108 185.363 167.332 185.517C167.556 185.671 167.724 185.867 167.864 186.091C168.004 186.329 168.06 186.623 168.074 186.959C168.074 187.407 167.976 187.771 167.794 188.051C167.612 188.345 167.374 188.583 167.08 188.751C166.786 188.933 166.45 189.059 166.086 189.129C165.722 189.199 165.358 189.227 164.994 189.227C164.588 189.227 164.21 189.185 163.846 189.101C163.482 189.017 163.16 188.891 162.88 188.695C162.6 188.499 162.376 188.247 162.208 187.939C162.04 187.631 161.942 187.239 161.928 186.791H163.118ZM179.531 188.457C179.531 189.647 179.251 190.529 178.719 191.117C178.173 191.705 177.319 191.999 176.171 191.999C175.835 191.999 175.485 191.971 175.135 191.887C174.785 191.817 174.463 191.691 174.183 191.523C173.903 191.355 173.665 191.145 173.483 190.865C173.287 190.599 173.189 190.263 173.175 189.871H174.365C174.365 190.095 174.435 190.277 174.561 190.417C174.687 190.571 174.841 190.697 175.023 190.781C175.205 190.879 175.401 190.949 175.625 190.991C175.835 191.033 176.045 191.047 176.241 191.047C176.633 191.047 176.955 190.991 177.235 190.851C177.501 190.711 177.725 190.529 177.907 190.291C178.075 190.053 178.201 189.759 178.285 189.423C178.369 189.087 178.397 188.723 178.411 188.317V187.841H178.383C178.173 188.289 177.865 188.625 177.445 188.835C177.025 189.045 176.591 189.143 176.129 189.143C175.583 189.143 175.107 189.045 174.715 188.849C174.309 188.653 173.973 188.401 173.707 188.065C173.427 187.729 173.231 187.351 173.091 186.903C172.951 186.455 172.895 185.993 172.895 185.489C172.895 185.069 172.951 184.621 173.063 184.173C173.175 183.725 173.357 183.305 173.623 182.941C173.875 182.577 174.225 182.269 174.659 182.031C175.079 181.793 175.611 181.667 176.241 181.667C176.689 181.667 177.109 181.779 177.501 181.975C177.879 182.171 178.173 182.479 178.397 182.871H178.411V181.835H179.531V188.457ZM176.199 188.107C176.591 188.107 176.913 188.037 177.193 187.869C177.473 187.701 177.697 187.491 177.865 187.225C178.019 186.959 178.145 186.651 178.229 186.315C178.313 185.979 178.341 185.643 178.355 185.307C178.355 184.999 178.313 184.677 178.243 184.369C178.159 184.061 178.047 183.795 177.879 183.543C177.711 183.291 177.501 183.095 177.249 182.941C176.983 182.801 176.661 182.731 176.297 182.717C175.905 182.717 175.583 182.801 175.317 182.941C175.037 183.081 174.813 183.277 174.645 183.515C174.477 183.767 174.351 184.047 174.267 184.355C174.183 184.677 174.155 185.013 174.155 185.349C174.155 185.685 174.183 186.007 174.253 186.329C174.309 186.665 174.421 186.959 174.589 187.225C174.743 187.491 174.953 187.701 175.219 187.869C175.471 188.037 175.807 188.107 176.199 188.107ZM184.546 178.839H186.072L184.238 180.841H183.342L184.546 178.839ZM186.352 184.761C186.324 184.481 186.268 184.215 186.156 183.963C186.044 183.711 185.904 183.501 185.722 183.319C185.54 183.137 185.33 182.997 185.078 182.885C184.826 182.773 184.56 182.731 184.266 182.717C183.958 182.717 183.678 182.773 183.426 182.885C183.174 182.997 182.964 183.137 182.796 183.319C182.614 183.515 182.474 183.725 182.376 183.977C182.264 184.229 182.208 184.481 182.194 184.761H186.352ZM187.5 186.777C187.332 187.589 186.982 188.205 186.45 188.611C185.904 189.031 185.218 189.227 184.406 189.227C183.818 189.227 183.314 189.143 182.894 188.947C182.474 188.765 182.11 188.499 181.83 188.163C181.536 187.827 181.312 187.435 181.172 186.959C181.032 186.497 180.948 185.993 180.934 185.433C180.934 184.887 181.018 184.383 181.186 183.921C181.354 183.473 181.578 183.067 181.886 182.731C182.194 182.395 182.544 182.143 182.964 181.947C183.384 181.765 183.832 181.681 184.336 181.667C184.98 181.667 185.512 181.807 185.932 182.073C186.352 182.339 186.702 182.675 186.954 183.081C187.206 183.501 187.388 183.949 187.486 184.425C187.584 184.915 187.626 185.377 187.612 185.811H182.194C182.18 186.133 182.222 186.441 182.306 186.721C182.39 187.001 182.516 187.253 182.712 187.477C182.894 187.701 183.132 187.869 183.426 187.995C183.706 188.135 184.056 188.191 184.448 188.191C184.952 188.191 185.358 188.079 185.68 187.841C186.002 187.617 186.212 187.253 186.324 186.777H187.5ZM188.845 181.835H189.965V182.983H189.993C190.483 182.115 191.267 181.667 192.345 181.667C192.821 181.667 193.213 181.737 193.535 181.863C193.843 182.003 194.109 182.185 194.305 182.409C194.487 182.647 194.627 182.927 194.711 183.249C194.795 183.571 194.823 183.921 194.837 184.313V189.073H193.647V184.173C193.647 183.725 193.507 183.375 193.255 183.109C192.989 182.857 192.625 182.731 192.177 182.717C191.813 182.717 191.491 182.773 191.225 182.885C190.959 182.997 190.735 183.165 190.567 183.361C190.385 183.571 190.245 183.809 190.161 184.089C190.077 184.369 190.035 184.663 190.035 184.985V189.073H188.845V181.835ZM199.845 178.839H201.371L199.537 180.841H198.641L199.845 178.839ZM201.651 184.761C201.623 184.481 201.567 184.215 201.455 183.963C201.343 183.711 201.203 183.501 201.021 183.319C200.839 183.137 200.629 182.997 200.377 182.885C200.125 182.773 199.859 182.731 199.565 182.717C199.257 182.717 198.977 182.773 198.725 182.885C198.473 182.997 198.263 183.137 198.095 183.319C197.913 183.515 197.773 183.725 197.675 183.977C197.563 184.229 197.507 184.481 197.493 184.761H201.651ZM202.799 186.777C202.631 187.589 202.281 188.205 201.749 188.611C201.203 189.031 200.517 189.227 199.705 189.227C199.117 189.227 198.613 189.143 198.193 188.947C197.773 188.765 197.409 188.499 197.129 188.163C196.835 187.827 196.611 187.435 196.471 186.959C196.331 186.497 196.247 185.993 196.233 185.433C196.233 184.887 196.317 184.383 196.485 183.921C196.653 183.473 196.877 183.067 197.185 182.731C197.493 182.395 197.843 182.143 198.263 181.947C198.683 181.765 199.131 181.681 199.635 181.667C200.279 181.667 200.811 181.807 201.231 182.073C201.651 182.339 202.001 182.675 202.253 183.081C202.505 183.501 202.687 183.949 202.785 184.425C202.883 184.915 202.925 185.377 202.911 185.811H197.493C197.479 186.133 197.521 186.441 197.605 186.721C197.689 187.001 197.815 187.253 198.011 187.477C198.193 187.701 198.431 187.869 198.725 187.995C199.005 188.135 199.355 188.191 199.747 188.191C200.251 188.191 200.657 188.079 200.979 187.841C201.301 187.617 201.511 187.253 201.623 186.777H202.799ZM204.102 181.835H205.222V183.361H205.25C205.53 182.773 205.894 182.339 206.314 182.059C206.734 181.779 207.266 181.653 207.91 181.667V182.927C207.434 182.927 207.028 182.997 206.692 183.123C206.356 183.263 206.076 183.445 205.88 183.697C205.67 183.949 205.516 184.257 205.432 184.621C205.334 184.985 205.292 185.391 205.292 185.853V189.073H204.102V181.835ZM215.218 189.045C215.008 189.171 214.728 189.227 214.364 189.227C214.056 189.227 213.804 189.143 213.622 188.975C213.44 188.807 213.356 188.513 213.356 188.121C213.02 188.513 212.642 188.807 212.208 188.975C211.774 189.143 211.312 189.227 210.808 189.227C210.472 189.227 210.164 189.199 209.884 189.129C209.59 189.059 209.338 188.947 209.114 188.779C208.89 188.611 208.722 188.401 208.596 188.149C208.47 187.897 208.414 187.575 208.414 187.211C208.414 186.805 208.484 186.469 208.624 186.203C208.764 185.951 208.946 185.741 209.17 185.573C209.394 185.405 209.66 185.279 209.954 185.195C210.248 185.111 210.556 185.041 210.864 184.985C211.186 184.929 211.494 184.873 211.788 184.845C212.082 184.817 212.348 184.761 212.572 184.705C212.796 184.649 212.964 184.551 213.104 184.439C213.23 184.327 213.3 184.145 213.3 183.921C213.3 183.669 213.244 183.459 213.146 183.291C213.048 183.137 212.922 183.011 212.768 182.927C212.614 182.843 212.446 182.787 212.25 182.759C212.054 182.731 211.872 182.717 211.69 182.717C211.186 182.717 210.766 182.815 210.43 183.011C210.094 183.207 209.912 183.557 209.884 184.089H208.694C208.708 183.641 208.806 183.263 208.974 182.955C209.142 182.647 209.366 182.409 209.646 182.213C209.926 182.017 210.248 181.891 210.612 181.793C210.976 181.709 211.354 181.667 211.76 181.667C212.082 181.667 212.404 181.695 212.726 181.737C213.048 181.793 213.342 181.891 213.608 182.031C213.86 182.171 214.07 182.381 214.238 182.633C214.392 182.899 214.476 183.235 214.476 183.655V187.379C214.476 187.659 214.49 187.869 214.518 187.995C214.546 188.135 214.658 188.191 214.854 188.191C214.952 188.191 215.078 188.177 215.218 188.121V189.045ZM213.286 185.335C213.132 185.447 212.936 185.531 212.698 185.587C212.446 185.643 212.194 185.685 211.928 185.713C211.662 185.741 211.396 185.783 211.13 185.825C210.85 185.867 210.612 185.937 210.402 186.021C210.178 186.119 210.01 186.259 209.87 186.427C209.73 186.595 209.674 186.833 209.674 187.127C209.674 187.323 209.702 187.491 209.786 187.631C209.87 187.771 209.968 187.869 210.094 187.953C210.22 188.037 210.374 188.107 210.542 188.135C210.71 188.177 210.892 188.191 211.074 188.191C211.466 188.191 211.802 188.149 212.082 188.037C212.362 187.925 212.586 187.799 212.768 187.631C212.936 187.463 213.062 187.295 213.16 187.099C213.244 186.903 213.286 186.721 213.286 186.553V185.335ZM222.318 189.073H221.198V187.925H221.17C220.918 188.373 220.596 188.709 220.204 188.919C219.812 189.129 219.35 189.227 218.818 189.227C218.342 189.227 217.936 189.171 217.628 189.045C217.306 188.919 217.054 188.737 216.858 188.499C216.662 188.275 216.522 187.995 216.438 187.673C216.354 187.351 216.326 186.987 216.326 186.595V181.835H217.516V186.735C217.516 187.183 217.642 187.547 217.908 187.799C218.16 188.065 218.524 188.191 218.986 188.191C219.35 188.191 219.658 188.135 219.924 188.023C220.19 187.911 220.414 187.757 220.596 187.547C220.764 187.351 220.904 187.113 220.988 186.833C221.072 186.553 221.128 186.259 221.128 185.923V181.835H222.318V189.073ZM226.051 185.265L223.531 181.835H225.057L226.793 184.369L228.599 181.835H230.027L227.535 185.167L230.335 189.073H228.809L226.793 186.077L224.777 189.073H223.335L226.051 185.265Z" fill="#727372"/>
<path d="M294.78 189.389V188.143C294.146 187.993 293.609 187.709 293.17 187.289C292.732 186.869 292.41 186.355 292.204 185.749L293.73 185.189C293.922 185.623 294.188 185.98 294.528 186.26C294.874 186.535 295.266 186.673 295.704 186.673C296.152 186.673 296.512 186.558 296.782 186.33C297.053 186.096 297.188 185.763 297.188 185.329C297.188 185.016 297.1 184.755 296.922 184.545C296.745 184.335 296.512 184.155 296.222 184.006C295.938 183.856 295.63 183.719 295.298 183.593C294.976 183.471 294.654 183.336 294.332 183.187C294.01 183.033 293.716 182.848 293.45 182.634C293.184 182.414 292.97 182.146 292.806 181.829C292.648 181.507 292.568 181.115 292.568 180.653C292.568 180.065 292.757 179.54 293.135 179.078C293.518 178.611 294.066 178.315 294.78 178.189V177.069H296.404V178.203C296.964 178.329 297.419 178.571 297.769 178.931C298.119 179.285 298.364 179.701 298.504 180.177L297.006 180.681C296.894 180.405 296.712 180.17 296.46 179.974C296.208 179.773 295.882 179.673 295.48 179.673C295.102 179.673 294.804 179.759 294.584 179.932C294.37 180.104 294.262 180.345 294.262 180.653C294.262 180.9 294.342 181.108 294.5 181.276C294.659 181.444 294.871 181.591 295.137 181.717C295.403 181.843 295.695 181.964 296.012 182.081C296.344 182.202 296.677 182.344 297.013 182.508C297.354 182.666 297.664 182.867 297.944 183.11C298.229 183.348 298.458 183.646 298.63 184.006C298.808 184.365 298.896 184.801 298.896 185.315C298.896 185.851 298.787 186.32 298.567 186.722C298.348 187.118 298.049 187.44 297.671 187.688C297.298 187.93 296.876 188.091 296.404 188.171V189.389H294.78ZM300.887 188.073C300.887 187.368 300.974 186.75 301.146 186.218C301.319 185.681 301.555 185.212 301.853 184.811C302.157 184.405 302.502 184.048 302.889 183.74C303.281 183.432 303.692 183.154 304.121 182.907C304.397 182.748 304.653 182.578 304.891 182.396C305.129 182.214 305.321 182.011 305.465 181.787C305.615 181.558 305.689 181.297 305.689 181.003C305.689 180.597 305.563 180.275 305.311 180.037C305.059 179.794 304.719 179.673 304.289 179.673C303.837 179.673 303.461 179.782 303.162 180.002C302.868 180.221 302.647 180.517 302.497 180.891L301.013 180.219C301.177 179.799 301.417 179.43 301.734 179.113C302.052 178.795 302.425 178.548 302.854 178.371C303.288 178.193 303.757 178.105 304.261 178.105C304.915 178.105 305.472 178.231 305.934 178.483C306.401 178.73 306.756 179.071 306.998 179.505C307.246 179.934 307.369 180.419 307.369 180.961C307.369 181.558 307.257 182.055 307.033 182.452C306.809 182.844 306.506 183.184 306.123 183.474C305.741 183.763 305.311 184.045 304.835 184.321C304.495 184.517 304.187 184.724 303.911 184.944C303.636 185.163 303.405 185.401 303.218 185.658C303.032 185.91 302.903 186.183 302.833 186.477H307.453V188.073H300.887ZM320.129 188.073C320.129 186.953 320.234 185.9 320.444 184.916C320.654 183.931 320.985 182.986 321.438 182.081C321.895 181.171 322.495 180.27 323.237 179.379L323.671 179.841H318.099V178.273H324.763V179.687C324.189 180.317 323.708 181.005 323.321 181.752C322.938 182.494 322.635 183.25 322.411 184.02C322.187 184.785 322.026 185.518 321.928 186.218C321.83 186.913 321.781 187.531 321.781 188.073H320.129ZM329.736 188.241C329.251 188.241 328.814 188.189 328.427 188.087C328.044 187.984 327.711 187.856 327.426 187.702C327.146 187.543 326.917 187.382 326.74 187.219L327.65 185.931C327.902 186.117 328.187 186.288 328.504 186.442C328.821 186.596 329.232 186.673 329.736 186.673C330.123 186.673 330.464 186.598 330.758 186.449C331.052 186.295 331.281 186.08 331.444 185.805C331.612 185.525 331.696 185.198 331.696 184.825C331.696 184.498 331.638 184.211 331.521 183.964C331.404 183.716 331.232 183.523 331.003 183.383C330.779 183.243 330.506 183.173 330.184 183.173C329.815 183.173 329.503 183.245 329.246 183.39C328.989 183.53 328.765 183.705 328.574 183.915L327.048 183.243L327.44 178.273H332.788V179.855H328.952L328.728 182.039C328.938 181.903 329.174 181.796 329.435 181.717C329.696 181.633 329.983 181.591 330.296 181.591C330.959 181.591 331.519 181.735 331.976 182.025C332.433 182.314 332.781 182.704 333.019 183.194C333.257 183.679 333.376 184.218 333.376 184.811C333.376 185.315 333.287 185.777 333.11 186.197C332.933 186.617 332.681 186.978 332.354 187.282C332.032 187.585 331.649 187.821 331.206 187.989C330.763 188.157 330.273 188.241 329.736 188.241ZM338.685 188.241C337.999 188.241 337.427 188.094 336.97 187.8C336.513 187.501 336.151 187.107 335.885 186.617C335.619 186.122 335.428 185.576 335.311 184.979C335.199 184.381 335.143 183.779 335.143 183.173C335.143 182.706 335.176 182.235 335.241 181.759C335.311 181.278 335.425 180.821 335.584 180.387C335.747 179.953 335.964 179.563 336.235 179.218C336.506 178.872 336.842 178.602 337.243 178.406C337.649 178.205 338.13 178.105 338.685 178.105C339.376 178.105 339.95 178.252 340.407 178.546C340.864 178.84 341.226 179.234 341.492 179.729C341.763 180.219 341.954 180.762 342.066 181.36C342.183 181.957 342.241 182.561 342.241 183.173C342.241 183.639 342.206 184.113 342.136 184.594C342.066 185.07 341.949 185.525 341.786 185.959C341.627 186.393 341.41 186.782 341.135 187.128C340.864 187.473 340.526 187.746 340.12 187.947C339.719 188.143 339.24 188.241 338.685 188.241ZM338.685 186.673C339.058 186.673 339.366 186.572 339.609 186.372C339.852 186.166 340.041 185.893 340.176 185.553C340.316 185.212 340.414 184.836 340.47 184.426C340.531 184.01 340.561 183.593 340.561 183.173C340.561 182.739 340.531 182.314 340.47 181.899C340.409 181.483 340.309 181.108 340.169 180.772C340.029 180.436 339.838 180.17 339.595 179.974C339.352 179.773 339.049 179.673 338.685 179.673C338.316 179.673 338.008 179.775 337.761 179.981C337.518 180.181 337.327 180.452 337.187 180.793C337.052 181.133 336.954 181.511 336.893 181.927C336.837 182.337 336.809 182.753 336.809 183.173C336.809 183.607 336.837 184.031 336.893 184.447C336.954 184.862 337.054 185.238 337.194 185.574C337.334 185.91 337.525 186.178 337.768 186.379C338.011 186.575 338.316 186.673 338.685 186.673ZM338.685 184.167C338.405 184.167 338.172 184.071 337.985 183.88C337.798 183.688 337.705 183.453 337.705 183.173C337.705 182.897 337.798 182.666 337.985 182.48C338.172 182.288 338.405 182.193 338.685 182.193C338.965 182.193 339.201 182.288 339.392 182.48C339.583 182.666 339.679 182.897 339.679 183.173C339.679 183.453 339.583 183.688 339.392 183.88C339.201 184.071 338.965 184.167 338.685 184.167Z" fill="#242D38"/>
<circle cx="48" cy="214.073" r="8" fill="#002554"/>
<path d="M65.092 209.077H69.796C70.748 209.077 71.49 209.315 72.022 209.777C72.554 210.253 72.82 210.883 72.834 211.695C72.834 212.311 72.694 212.843 72.414 213.291C72.134 213.753 71.7 214.061 71.098 214.229V214.257C71.378 214.313 71.616 214.411 71.798 214.537C71.98 214.677 72.12 214.831 72.232 215.013C72.344 215.195 72.414 215.391 72.47 215.615C72.526 215.839 72.568 216.077 72.596 216.315C72.61 216.567 72.624 216.805 72.638 217.057C72.638 217.309 72.666 217.561 72.708 217.799C72.736 218.051 72.792 218.275 72.862 218.499C72.932 218.723 73.044 218.905 73.184 219.073H71.7C71.602 218.975 71.532 218.835 71.504 218.653C71.476 218.485 71.448 218.289 71.448 218.065C71.434 217.841 71.42 217.603 71.42 217.351C71.406 217.099 71.378 216.861 71.336 216.609C71.294 216.371 71.252 216.147 71.196 215.923C71.14 215.699 71.042 215.517 70.93 215.349C70.804 215.181 70.65 215.055 70.454 214.957C70.258 214.859 69.992 214.803 69.67 214.803H66.422V219.073H65.092V209.077ZM69.194 213.683C69.502 213.683 69.796 213.669 70.076 213.613C70.356 213.571 70.594 213.487 70.804 213.347C71.014 213.207 71.182 213.025 71.308 212.801C71.434 212.577 71.504 212.269 71.504 211.905C71.504 211.401 71.364 210.995 71.084 210.673C70.804 210.365 70.342 210.197 69.726 210.197H66.422V213.683H69.194ZM79.506 214.761C79.478 214.481 79.422 214.215 79.31 213.963C79.198 213.711 79.058 213.501 78.876 213.319C78.694 213.137 78.484 212.997 78.232 212.885C77.98 212.773 77.714 212.731 77.42 212.717C77.112 212.717 76.832 212.773 76.58 212.885C76.328 212.997 76.118 213.137 75.95 213.319C75.768 213.515 75.628 213.725 75.53 213.977C75.418 214.229 75.362 214.481 75.348 214.761H79.506ZM80.654 216.777C80.486 217.589 80.136 218.205 79.604 218.611C79.058 219.031 78.372 219.227 77.56 219.227C76.972 219.227 76.468 219.143 76.048 218.947C75.628 218.765 75.264 218.499 74.984 218.163C74.69 217.827 74.466 217.435 74.326 216.959C74.186 216.497 74.102 215.993 74.088 215.433C74.088 214.887 74.172 214.383 74.34 213.921C74.508 213.473 74.732 213.067 75.04 212.731C75.348 212.395 75.698 212.143 76.118 211.947C76.538 211.765 76.986 211.681 77.49 211.667C78.134 211.667 78.666 211.807 79.086 212.073C79.506 212.339 79.856 212.675 80.108 213.081C80.36 213.501 80.542 213.949 80.64 214.425C80.738 214.915 80.78 215.377 80.766 215.811H75.348C75.334 216.133 75.376 216.441 75.46 216.721C75.544 217.001 75.67 217.253 75.866 217.477C76.048 217.701 76.286 217.869 76.58 217.995C76.86 218.135 77.21 218.191 77.602 218.191C78.106 218.191 78.512 218.079 78.834 217.841C79.156 217.617 79.366 217.253 79.478 216.777H80.654ZM81.9995 211.835H83.1195V212.983H83.1475C83.6375 212.115 84.4215 211.667 85.4995 211.667C85.9755 211.667 86.3675 211.737 86.6895 211.863C86.9975 212.003 87.2635 212.185 87.4595 212.409C87.6415 212.647 87.7815 212.927 87.8655 213.249C87.9495 213.571 87.9775 213.921 87.9915 214.313V219.073H86.8015V214.173C86.8015 213.725 86.6615 213.375 86.4095 213.109C86.1435 212.857 85.7795 212.731 85.3315 212.717C84.9675 212.717 84.6455 212.773 84.3795 212.885C84.1135 212.997 83.8895 213.165 83.7215 213.361C83.5395 213.571 83.3995 213.809 83.3155 214.089C83.2315 214.369 83.1895 214.663 83.1895 214.985V219.073H81.9995V211.835ZM90.5068 216.791C90.5068 217.057 90.5768 217.281 90.6888 217.463C90.8008 217.645 90.9408 217.785 91.1228 217.897C91.3048 218.009 91.5148 218.079 91.7388 218.121C91.9628 218.177 92.2008 218.191 92.4528 218.191C92.6348 218.191 92.8308 218.177 93.0408 218.149C93.2368 218.121 93.4328 218.079 93.6008 217.995C93.7688 217.925 93.9228 217.813 94.0348 217.673C94.1468 217.533 94.2028 217.337 94.2028 217.113C94.2028 216.805 94.0768 216.581 93.8528 216.413C93.6148 216.259 93.3208 216.133 92.9708 216.035C92.6208 215.937 92.2428 215.853 91.8368 215.769C91.4168 215.685 91.0388 215.573 90.6888 215.433C90.3388 215.293 90.0448 215.083 89.8208 214.817C89.5828 214.565 89.4708 214.201 89.4708 213.725C89.4708 213.361 89.5408 213.053 89.7088 212.787C89.8768 212.535 90.0868 212.325 90.3388 212.157C90.5908 211.989 90.8848 211.877 91.2068 211.793C91.5288 211.709 91.8508 211.667 92.1728 211.667C92.5788 211.667 92.9568 211.709 93.3068 211.779C93.6428 211.849 93.9508 211.975 94.2168 212.143C94.4828 212.311 94.6928 212.549 94.8608 212.843C95.0148 213.137 95.1128 213.501 95.1408 213.935H93.9508C93.9228 213.711 93.8668 213.515 93.7688 213.361C93.6568 213.207 93.5308 213.081 93.3768 212.983C93.2088 212.899 93.0408 212.829 92.8448 212.787C92.6488 212.745 92.4668 212.717 92.2708 212.717C92.0888 212.717 91.9068 212.731 91.7248 212.759C91.5428 212.787 91.3748 212.843 91.2348 212.913C91.0808 212.983 90.9548 213.081 90.8708 213.193C90.7728 213.305 90.7308 213.459 90.7308 213.641C90.7308 213.851 90.8008 214.019 90.9408 214.159C91.0808 214.299 91.2768 214.411 91.5008 214.495C91.7248 214.579 91.9768 214.663 92.2568 214.719C92.5368 214.775 92.8168 214.845 93.0968 214.901C93.3908 214.971 93.6848 215.055 93.9648 215.139C94.2448 215.237 94.4968 215.363 94.7208 215.517C94.9448 215.671 95.1128 215.867 95.2528 216.091C95.3928 216.329 95.4488 216.623 95.4628 216.959C95.4628 217.407 95.3648 217.771 95.1828 218.051C95.0008 218.345 94.7628 218.583 94.4688 218.751C94.1748 218.933 93.8388 219.059 93.4748 219.129C93.1108 219.199 92.7468 219.227 92.3828 219.227C91.9768 219.227 91.5988 219.185 91.2348 219.101C90.8708 219.017 90.5488 218.891 90.2688 218.695C89.9888 218.499 89.7648 218.247 89.5968 217.939C89.4288 217.631 89.3308 217.239 89.3168 216.791H90.5068ZM101.805 214.761C101.777 214.481 101.721 214.215 101.609 213.963C101.497 213.711 101.357 213.501 101.175 213.319C100.993 213.137 100.783 212.997 100.531 212.885C100.279 212.773 100.013 212.731 99.7188 212.717C99.4108 212.717 99.1308 212.773 98.8788 212.885C98.6268 212.997 98.4168 213.137 98.2488 213.319C98.0668 213.515 97.9268 213.725 97.8288 213.977C97.7168 214.229 97.6608 214.481 97.6468 214.761H101.805ZM102.953 216.777C102.785 217.589 102.435 218.205 101.903 218.611C101.357 219.031 100.671 219.227 99.8588 219.227C99.2708 219.227 98.7668 219.143 98.3468 218.947C97.9268 218.765 97.5628 218.499 97.2828 218.163C96.9888 217.827 96.7648 217.435 96.6248 216.959C96.4848 216.497 96.4008 215.993 96.3868 215.433C96.3868 214.887 96.4708 214.383 96.6388 213.921C96.8068 213.473 97.0308 213.067 97.3388 212.731C97.6468 212.395 97.9968 212.143 98.4168 211.947C98.8368 211.765 99.2848 211.681 99.7888 211.667C100.433 211.667 100.965 211.807 101.385 212.073C101.805 212.339 102.155 212.675 102.407 213.081C102.659 213.501 102.841 213.949 102.939 214.425C103.037 214.915 103.079 215.377 103.065 215.811H97.6468C97.6328 216.133 97.6748 216.441 97.7588 216.721C97.8428 217.001 97.9688 217.253 98.1648 217.477C98.3468 217.701 98.5848 217.869 98.8788 217.995C99.1588 218.135 99.5088 218.191 99.9008 218.191C100.405 218.191 100.811 218.079 101.133 217.841C101.455 217.617 101.665 217.253 101.777 216.777H102.953ZM105.558 210.533H104.368V209.077H105.558V210.533ZM104.368 211.835H105.558V219.073H104.368V211.835ZM113.646 218.457C113.646 219.647 113.366 220.529 112.834 221.117C112.288 221.705 111.434 221.999 110.286 221.999C109.95 221.999 109.6 221.971 109.25 221.887C108.9 221.817 108.578 221.691 108.298 221.523C108.018 221.355 107.78 221.145 107.598 220.865C107.402 220.599 107.304 220.263 107.29 219.871H108.48C108.48 220.095 108.55 220.277 108.676 220.417C108.802 220.571 108.956 220.697 109.138 220.781C109.32 220.879 109.516 220.949 109.74 220.991C109.95 221.033 110.16 221.047 110.356 221.047C110.748 221.047 111.07 220.991 111.35 220.851C111.616 220.711 111.84 220.529 112.022 220.291C112.19 220.053 112.316 219.759 112.4 219.423C112.484 219.087 112.512 218.723 112.526 218.317V217.841H112.498C112.288 218.289 111.98 218.625 111.56 218.835C111.14 219.045 110.706 219.143 110.244 219.143C109.698 219.143 109.222 219.045 108.83 218.849C108.424 218.653 108.088 218.401 107.822 218.065C107.542 217.729 107.346 217.351 107.206 216.903C107.066 216.455 107.01 215.993 107.01 215.489C107.01 215.069 107.066 214.621 107.178 214.173C107.29 213.725 107.472 213.305 107.738 212.941C107.99 212.577 108.34 212.269 108.774 212.031C109.194 211.793 109.726 211.667 110.356 211.667C110.804 211.667 111.224 211.779 111.616 211.975C111.994 212.171 112.288 212.479 112.512 212.871H112.526V211.835H113.646V218.457ZM110.314 218.107C110.706 218.107 111.028 218.037 111.308 217.869C111.588 217.701 111.812 217.491 111.98 217.225C112.134 216.959 112.26 216.651 112.344 216.315C112.428 215.979 112.456 215.643 112.47 215.307C112.47 214.999 112.428 214.677 112.358 214.369C112.274 214.061 112.162 213.795 111.994 213.543C111.826 213.291 111.616 213.095 111.364 212.941C111.098 212.801 110.776 212.731 110.412 212.717C110.02 212.717 109.698 212.801 109.432 212.941C109.152 213.081 108.928 213.277 108.76 213.515C108.592 213.767 108.466 214.047 108.382 214.355C108.298 214.677 108.27 215.013 108.27 215.349C108.27 215.685 108.298 216.007 108.368 216.329C108.424 216.665 108.536 216.959 108.704 217.225C108.858 217.491 109.068 217.701 109.334 217.869C109.586 218.037 109.922 218.107 110.314 218.107ZM115.441 211.835H116.561V212.983H116.589C117.079 212.115 117.863 211.667 118.941 211.667C119.417 211.667 119.809 211.737 120.131 211.863C120.439 212.003 120.705 212.185 120.901 212.409C121.083 212.647 121.223 212.927 121.307 213.249C121.391 213.571 121.419 213.921 121.433 214.313V219.073H120.243V214.173C120.243 213.725 120.103 213.375 119.851 213.109C119.585 212.857 119.221 212.731 118.773 212.717C118.409 212.717 118.087 212.773 117.821 212.885C117.555 212.997 117.331 213.165 117.163 213.361C116.981 213.571 116.841 213.809 116.757 214.089C116.673 214.369 116.631 214.663 116.631 214.985V219.073H115.441V211.835ZM128.246 214.761C128.218 214.481 128.162 214.215 128.05 213.963C127.938 213.711 127.798 213.501 127.616 213.319C127.434 213.137 127.224 212.997 126.972 212.885C126.72 212.773 126.454 212.731 126.16 212.717C125.852 212.717 125.572 212.773 125.32 212.885C125.068 212.997 124.858 213.137 124.69 213.319C124.508 213.515 124.368 213.725 124.27 213.977C124.158 214.229 124.102 214.481 124.088 214.761H128.246ZM129.394 216.777C129.226 217.589 128.876 218.205 128.344 218.611C127.798 219.031 127.112 219.227 126.3 219.227C125.712 219.227 125.208 219.143 124.788 218.947C124.368 218.765 124.004 218.499 123.724 218.163C123.43 217.827 123.206 217.435 123.066 216.959C122.926 216.497 122.842 215.993 122.828 215.433C122.828 214.887 122.912 214.383 123.08 213.921C123.248 213.473 123.472 213.067 123.78 212.731C124.088 212.395 124.438 212.143 124.858 211.947C125.278 211.765 125.726 211.681 126.23 211.667C126.874 211.667 127.406 211.807 127.826 212.073C128.246 212.339 128.596 212.675 128.848 213.081C129.1 213.501 129.282 213.949 129.38 214.425C129.478 214.915 129.52 215.377 129.506 215.811H124.088C124.074 216.133 124.116 216.441 124.2 216.721C124.284 217.001 124.41 217.253 124.606 217.477C124.788 217.701 125.026 217.869 125.32 217.995C125.6 218.135 125.95 218.191 126.342 218.191C126.846 218.191 127.252 218.079 127.574 217.841C127.896 217.617 128.106 217.253 128.218 216.777H129.394ZM130.74 211.835H131.86V212.899H131.888C132.42 212.087 133.204 211.667 134.226 211.667C134.674 211.667 135.08 211.765 135.444 211.947C135.808 212.143 136.06 212.451 136.214 212.899C136.452 212.507 136.774 212.213 137.166 211.989C137.558 211.779 137.992 211.681 138.482 211.667C138.846 211.667 139.168 211.709 139.462 211.793C139.756 211.877 140.008 211.989 140.218 212.157C140.428 212.325 140.596 212.549 140.708 212.815C140.82 213.081 140.876 213.403 140.89 213.767V219.073H139.7V214.327C139.7 214.103 139.672 213.893 139.644 213.697C139.602 213.501 139.532 213.333 139.434 213.193C139.322 213.053 139.182 212.927 139 212.843C138.818 212.759 138.58 212.717 138.3 212.717C137.712 212.717 137.25 212.885 136.914 213.221C136.578 213.557 136.41 214.005 136.41 214.565V219.073H135.22V214.327C135.22 214.103 135.192 213.879 135.15 213.683C135.108 213.487 135.038 213.319 134.94 213.179C134.828 213.039 134.688 212.927 134.52 212.843C134.352 212.759 134.128 212.731 133.862 212.717C133.512 212.717 133.218 212.787 132.966 212.927C132.714 213.067 132.518 213.235 132.364 213.431C132.21 213.627 132.098 213.837 132.028 214.047C131.958 214.257 131.93 214.425 131.93 214.565V219.073H130.74V211.835ZM147.701 214.761C147.673 214.481 147.617 214.215 147.505 213.963C147.393 213.711 147.253 213.501 147.071 213.319C146.889 213.137 146.679 212.997 146.427 212.885C146.175 212.773 145.909 212.731 145.615 212.717C145.307 212.717 145.027 212.773 144.775 212.885C144.523 212.997 144.313 213.137 144.145 213.319C143.963 213.515 143.823 213.725 143.725 213.977C143.613 214.229 143.557 214.481 143.543 214.761H147.701ZM148.849 216.777C148.681 217.589 148.331 218.205 147.799 218.611C147.253 219.031 146.567 219.227 145.755 219.227C145.167 219.227 144.663 219.143 144.243 218.947C143.823 218.765 143.459 218.499 143.179 218.163C142.885 217.827 142.661 217.435 142.521 216.959C142.381 216.497 142.297 215.993 142.283 215.433C142.283 214.887 142.367 214.383 142.535 213.921C142.703 213.473 142.927 213.067 143.235 212.731C143.543 212.395 143.893 212.143 144.313 211.947C144.733 211.765 145.181 211.681 145.685 211.667C146.329 211.667 146.861 211.807 147.281 212.073C147.701 212.339 148.051 212.675 148.303 213.081C148.555 213.501 148.737 213.949 148.835 214.425C148.933 214.915 148.975 215.377 148.961 215.811H143.543C143.529 216.133 143.571 216.441 143.655 216.721C143.739 217.001 143.865 217.253 144.061 217.477C144.243 217.701 144.481 217.869 144.775 217.995C145.055 218.135 145.405 218.191 145.797 218.191C146.301 218.191 146.707 218.079 147.029 217.841C147.351 217.617 147.561 217.253 147.673 216.777H148.849ZM150.195 211.835H151.315V212.983H151.343C151.833 212.115 152.617 211.667 153.695 211.667C154.171 211.667 154.563 211.737 154.885 211.863C155.193 212.003 155.459 212.185 155.655 212.409C155.837 212.647 155.977 212.927 156.061 213.249C156.145 213.571 156.173 213.921 156.187 214.313V219.073H154.997V214.173C154.997 213.725 154.857 213.375 154.605 213.109C154.339 212.857 153.975 212.731 153.527 212.717C153.163 212.717 152.841 212.773 152.575 212.885C152.309 212.997 152.085 213.165 151.917 213.361C151.735 213.571 151.595 213.809 151.511 214.089C151.427 214.369 151.385 214.663 151.385 214.985V219.073H150.195V211.835ZM159.626 211.835H161.068V212.885H159.626V217.379C159.626 217.519 159.626 217.631 159.654 217.715C159.682 217.799 159.724 217.869 159.794 217.911C159.85 217.967 159.948 217.995 160.06 218.009C160.172 218.023 160.326 218.023 160.522 218.023H161.068V219.073H160.158C159.85 219.073 159.584 219.059 159.36 219.017C159.136 218.975 158.968 218.891 158.828 218.779C158.688 218.667 158.59 218.513 158.534 218.303C158.464 218.107 158.436 217.827 158.436 217.491V212.885H157.204V211.835H158.436V209.665H159.626V211.835ZM163.118 216.791C163.118 217.057 163.188 217.281 163.3 217.463C163.412 217.645 163.552 217.785 163.734 217.897C163.916 218.009 164.126 218.079 164.35 218.121C164.574 218.177 164.812 218.191 165.064 218.191C165.246 218.191 165.442 218.177 165.652 218.149C165.848 218.121 166.044 218.079 166.212 217.995C166.38 217.925 166.534 217.813 166.646 217.673C166.758 217.533 166.814 217.337 166.814 217.113C166.814 216.805 166.688 216.581 166.464 216.413C166.226 216.259 165.932 216.133 165.582 216.035C165.232 215.937 164.854 215.853 164.448 215.769C164.028 215.685 163.65 215.573 163.3 215.433C162.95 215.293 162.656 215.083 162.432 214.817C162.194 214.565 162.082 214.201 162.082 213.725C162.082 213.361 162.152 213.053 162.32 212.787C162.488 212.535 162.698 212.325 162.95 212.157C163.202 211.989 163.496 211.877 163.818 211.793C164.14 211.709 164.462 211.667 164.784 211.667C165.19 211.667 165.568 211.709 165.918 211.779C166.254 211.849 166.562 211.975 166.828 212.143C167.094 212.311 167.304 212.549 167.472 212.843C167.626 213.137 167.724 213.501 167.752 213.935H166.562C166.534 213.711 166.478 213.515 166.38 213.361C166.268 213.207 166.142 213.081 165.988 212.983C165.82 212.899 165.652 212.829 165.456 212.787C165.26 212.745 165.078 212.717 164.882 212.717C164.7 212.717 164.518 212.731 164.336 212.759C164.154 212.787 163.986 212.843 163.846 212.913C163.692 212.983 163.566 213.081 163.482 213.193C163.384 213.305 163.342 213.459 163.342 213.641C163.342 213.851 163.412 214.019 163.552 214.159C163.692 214.299 163.888 214.411 164.112 214.495C164.336 214.579 164.588 214.663 164.868 214.719C165.148 214.775 165.428 214.845 165.708 214.901C166.002 214.971 166.296 215.055 166.576 215.139C166.856 215.237 167.108 215.363 167.332 215.517C167.556 215.671 167.724 215.867 167.864 216.091C168.004 216.329 168.06 216.623 168.074 216.959C168.074 217.407 167.976 217.771 167.794 218.051C167.612 218.345 167.374 218.583 167.08 218.751C166.786 218.933 166.45 219.059 166.086 219.129C165.722 219.199 165.358 219.227 164.994 219.227C164.588 219.227 164.21 219.185 163.846 219.101C163.482 219.017 163.16 218.891 162.88 218.695C162.6 218.499 162.376 218.247 162.208 217.939C162.04 217.631 161.942 217.239 161.928 216.791H163.118ZM173.329 211.835H174.519V212.815H174.547C174.743 212.423 175.051 212.129 175.471 211.947C175.891 211.765 176.353 211.667 176.857 211.667C177.417 211.667 177.893 211.779 178.313 211.975C178.733 212.185 179.069 212.465 179.349 212.815C179.629 213.165 179.839 213.571 179.979 214.019C180.119 214.481 180.189 214.971 180.189 215.475C180.189 215.993 180.119 216.483 179.979 216.931C179.839 217.393 179.643 217.799 179.363 218.135C179.083 218.471 178.747 218.737 178.327 218.933C177.907 219.129 177.431 219.227 176.885 219.227C176.703 219.227 176.507 219.213 176.283 219.171C176.059 219.143 175.849 219.073 175.639 218.989C175.415 218.905 175.219 218.793 175.023 218.653C174.827 218.513 174.673 218.331 174.547 218.107H174.519V221.831H173.329V211.835ZM178.929 215.391C178.929 215.055 178.873 214.733 178.789 214.411C178.705 214.089 178.565 213.795 178.383 213.543C178.201 213.305 177.963 213.095 177.683 212.941C177.403 212.801 177.067 212.731 176.689 212.717C176.283 212.717 175.947 212.801 175.667 212.955C175.387 213.123 175.149 213.333 174.981 213.585C174.799 213.837 174.673 214.131 174.589 214.453C174.505 214.789 174.477 215.111 174.477 215.447C174.477 215.811 174.519 216.147 174.603 216.483C174.687 216.819 174.813 217.099 174.995 217.351C175.177 217.603 175.415 217.813 175.709 217.967C175.989 218.121 176.339 218.191 176.759 218.191C177.165 218.191 177.501 218.121 177.781 217.953C178.061 217.799 178.271 217.589 178.453 217.323C178.621 217.071 178.733 216.763 178.817 216.427C178.887 216.091 178.929 215.755 178.929 215.391ZM186.611 214.761C186.583 214.481 186.527 214.215 186.415 213.963C186.303 213.711 186.163 213.501 185.981 213.319C185.799 213.137 185.589 212.997 185.337 212.885C185.085 212.773 184.819 212.731 184.525 212.717C184.217 212.717 183.937 212.773 183.685 212.885C183.433 212.997 183.223 213.137 183.055 213.319C182.873 213.515 182.733 213.725 182.635 213.977C182.523 214.229 182.467 214.481 182.453 214.761H186.611ZM187.759 216.777C187.591 217.589 187.241 218.205 186.709 218.611C186.163 219.031 185.477 219.227 184.665 219.227C184.077 219.227 183.573 219.143 183.153 218.947C182.733 218.765 182.369 218.499 182.089 218.163C181.795 217.827 181.571 217.435 181.431 216.959C181.291 216.497 181.207 215.993 181.193 215.433C181.193 214.887 181.277 214.383 181.445 213.921C181.613 213.473 181.837 213.067 182.145 212.731C182.453 212.395 182.803 212.143 183.223 211.947C183.643 211.765 184.091 211.681 184.595 211.667C185.239 211.667 185.771 211.807 186.191 212.073C186.611 212.339 186.961 212.675 187.213 213.081C187.465 213.501 187.647 213.949 187.745 214.425C187.843 214.915 187.885 215.377 187.871 215.811H182.453C182.439 216.133 182.481 216.441 182.565 216.721C182.649 217.001 182.775 217.253 182.971 217.477C183.153 217.701 183.391 217.869 183.685 217.995C183.965 218.135 184.315 218.191 184.707 218.191C185.211 218.191 185.617 218.079 185.939 217.841C186.261 217.617 186.471 217.253 186.583 216.777H187.759ZM189.063 211.835H190.183V213.361H190.211C190.491 212.773 190.855 212.339 191.275 212.059C191.695 211.779 192.227 211.653 192.871 211.667V212.927C192.395 212.927 191.989 212.997 191.653 213.123C191.317 213.263 191.037 213.445 190.841 213.697C190.631 213.949 190.477 214.257 190.393 214.621C190.295 214.985 190.253 215.391 190.253 215.853V219.073H189.063V211.835ZM194.495 216.791C194.495 217.057 194.565 217.281 194.677 217.463C194.789 217.645 194.929 217.785 195.111 217.897C195.293 218.009 195.503 218.079 195.727 218.121C195.951 218.177 196.189 218.191 196.441 218.191C196.623 218.191 196.819 218.177 197.029 218.149C197.225 218.121 197.421 218.079 197.589 217.995C197.757 217.925 197.911 217.813 198.023 217.673C198.135 217.533 198.191 217.337 198.191 217.113C198.191 216.805 198.065 216.581 197.841 216.413C197.603 216.259 197.309 216.133 196.959 216.035C196.609 215.937 196.231 215.853 195.825 215.769C195.405 215.685 195.027 215.573 194.677 215.433C194.327 215.293 194.033 215.083 193.809 214.817C193.571 214.565 193.459 214.201 193.459 213.725C193.459 213.361 193.529 213.053 193.697 212.787C193.865 212.535 194.075 212.325 194.327 212.157C194.579 211.989 194.873 211.877 195.195 211.793C195.517 211.709 195.839 211.667 196.161 211.667C196.567 211.667 196.945 211.709 197.295 211.779C197.631 211.849 197.939 211.975 198.205 212.143C198.471 212.311 198.681 212.549 198.849 212.843C199.003 213.137 199.101 213.501 199.129 213.935H197.939C197.911 213.711 197.855 213.515 197.757 213.361C197.645 213.207 197.519 213.081 197.365 212.983C197.197 212.899 197.029 212.829 196.833 212.787C196.637 212.745 196.455 212.717 196.259 212.717C196.077 212.717 195.895 212.731 195.713 212.759C195.531 212.787 195.363 212.843 195.223 212.913C195.069 212.983 194.943 213.081 194.859 213.193C194.761 213.305 194.719 213.459 194.719 213.641C194.719 213.851 194.789 214.019 194.929 214.159C195.069 214.299 195.265 214.411 195.489 214.495C195.713 214.579 195.965 214.663 196.245 214.719C196.525 214.775 196.805 214.845 197.085 214.901C197.379 214.971 197.673 215.055 197.953 215.139C198.233 215.237 198.485 215.363 198.709 215.517C198.933 215.671 199.101 215.867 199.241 216.091C199.381 216.329 199.437 216.623 199.451 216.959C199.451 217.407 199.353 217.771 199.171 218.051C198.989 218.345 198.751 218.583 198.457 218.751C198.163 218.933 197.827 219.059 197.463 219.129C197.099 219.199 196.735 219.227 196.371 219.227C195.965 219.227 195.587 219.185 195.223 219.101C194.859 219.017 194.537 218.891 194.257 218.695C193.977 218.499 193.753 218.247 193.585 217.939C193.417 217.631 193.319 217.239 193.305 216.791H194.495ZM201.635 215.461C201.635 215.909 201.691 216.301 201.803 216.637C201.915 216.973 202.083 217.267 202.293 217.491C202.489 217.715 202.727 217.897 203.007 218.009C203.287 218.135 203.581 218.191 203.889 218.191C204.197 218.191 204.477 218.135 204.757 218.009C205.037 217.897 205.275 217.715 205.485 217.491C205.681 217.267 205.849 216.973 205.961 216.637C206.073 216.301 206.143 215.909 206.143 215.461C206.143 215.027 206.073 214.635 205.961 214.299C205.849 213.963 205.681 213.669 205.485 213.431C205.275 213.207 205.037 213.025 204.757 212.899C204.477 212.787 204.197 212.731 203.889 212.717C203.581 212.717 203.287 212.787 203.007 212.899C202.727 213.025 202.489 213.207 202.293 213.431C202.083 213.669 201.915 213.963 201.803 214.299C201.691 214.635 201.635 215.027 201.635 215.461ZM200.375 215.461C200.375 214.929 200.445 214.439 200.599 213.977C200.739 213.515 200.963 213.109 201.271 212.773C201.565 212.437 201.929 212.157 202.377 211.961C202.811 211.765 203.315 211.667 203.889 211.667C204.463 211.667 204.967 211.765 205.401 211.961C205.835 212.157 206.199 212.437 206.507 212.773C206.801 213.109 207.025 213.515 207.179 213.977C207.319 214.439 207.403 214.929 207.403 215.461C207.403 215.993 207.319 216.497 207.179 216.945C207.025 217.407 206.801 217.813 206.507 218.149C206.199 218.485 205.835 218.751 205.401 218.947C204.967 219.143 204.463 219.227 203.889 219.227C203.315 219.227 202.811 219.143 202.377 218.947C201.929 218.751 201.565 218.485 201.271 218.149C200.963 217.813 200.739 217.407 200.599 216.945C200.445 216.497 200.375 215.993 200.375 215.461ZM208.806 211.835H209.926V212.983H209.954C210.444 212.115 211.228 211.667 212.306 211.667C212.782 211.667 213.174 211.737 213.496 211.863C213.804 212.003 214.07 212.185 214.266 212.409C214.448 212.647 214.588 212.927 214.672 213.249C214.756 213.571 214.784 213.921 214.798 214.313V219.073H213.608V214.173C213.608 213.725 213.468 213.375 213.216 213.109C212.95 212.857 212.586 212.731 212.138 212.717C211.774 212.717 211.452 212.773 211.186 212.885C210.92 212.997 210.696 213.165 210.528 213.361C210.346 213.571 210.206 213.809 210.122 214.089C210.038 214.369 209.996 214.663 209.996 214.985V219.073H208.806V211.835ZM216.585 211.835H217.705V212.983H217.733C218.223 212.115 219.007 211.667 220.085 211.667C220.561 211.667 220.953 211.737 221.275 211.863C221.583 212.003 221.849 212.185 222.045 212.409C222.227 212.647 222.367 212.927 222.451 213.249C222.535 213.571 222.563 213.921 222.577 214.313V219.073H221.387V214.173C221.387 213.725 221.247 213.375 220.995 213.109C220.729 212.857 220.365 212.731 219.917 212.717C219.553 212.717 219.231 212.773 218.965 212.885C218.699 212.997 218.475 213.165 218.307 213.361C218.125 213.571 217.985 213.809 217.901 214.089C217.817 214.369 217.775 214.663 217.775 214.985V219.073H216.585V211.835ZM229.391 214.761C229.363 214.481 229.307 214.215 229.195 213.963C229.083 213.711 228.943 213.501 228.761 213.319C228.579 213.137 228.369 212.997 228.117 212.885C227.865 212.773 227.599 212.731 227.305 212.717C226.997 212.717 226.717 212.773 226.465 212.885C226.213 212.997 226.003 213.137 225.835 213.319C225.653 213.515 225.513 213.725 225.415 213.977C225.303 214.229 225.247 214.481 225.233 214.761H229.391ZM230.539 216.777C230.371 217.589 230.021 218.205 229.489 218.611C228.943 219.031 228.257 219.227 227.445 219.227C226.857 219.227 226.353 219.143 225.933 218.947C225.513 218.765 225.149 218.499 224.869 218.163C224.575 217.827 224.351 217.435 224.211 216.959C224.071 216.497 223.987 215.993 223.973 215.433C223.973 214.887 224.057 214.383 224.225 213.921C224.393 213.473 224.617 213.067 224.925 212.731C225.233 212.395 225.583 212.143 226.003 211.947C226.423 211.765 226.871 211.681 227.375 211.667C228.019 211.667 228.551 211.807 228.971 212.073C229.391 212.339 229.741 212.675 229.993 213.081C230.245 213.501 230.427 213.949 230.525 214.425C230.623 214.915 230.665 215.377 230.651 215.811H225.233C225.219 216.133 225.261 216.441 225.345 216.721C225.429 217.001 225.555 217.253 225.751 217.477C225.933 217.701 226.171 217.869 226.465 217.995C226.745 218.135 227.095 218.191 227.487 218.191C227.991 218.191 228.397 218.079 228.719 217.841C229.041 217.617 229.251 217.253 229.363 216.777H230.539ZM231.954 209.077H233.144V219.073H231.954V209.077ZM235.716 216.791C235.716 217.057 235.786 217.281 235.898 217.463C236.01 217.645 236.15 217.785 236.332 217.897C236.514 218.009 236.724 218.079 236.948 218.121C237.172 218.177 237.41 218.191 237.662 218.191C237.844 218.191 238.04 218.177 238.25 218.149C238.446 218.121 238.642 218.079 238.81 217.995C238.978 217.925 239.132 217.813 239.244 217.673C239.356 217.533 239.412 217.337 239.412 217.113C239.412 216.805 239.286 216.581 239.062 216.413C238.824 216.259 238.53 216.133 238.18 216.035C237.83 215.937 237.452 215.853 237.046 215.769C236.626 215.685 236.248 215.573 235.898 215.433C235.548 215.293 235.254 215.083 235.03 214.817C234.792 214.565 234.68 214.201 234.68 213.725C234.68 213.361 234.75 213.053 234.918 212.787C235.086 212.535 235.296 212.325 235.548 212.157C235.8 211.989 236.094 211.877 236.416 211.793C236.738 211.709 237.06 211.667 237.382 211.667C237.788 211.667 238.166 211.709 238.516 211.779C238.852 211.849 239.16 211.975 239.426 212.143C239.692 212.311 239.902 212.549 240.07 212.843C240.224 213.137 240.322 213.501 240.35 213.935H239.16C239.132 213.711 239.076 213.515 238.978 213.361C238.866 213.207 238.74 213.081 238.586 212.983C238.418 212.899 238.25 212.829 238.054 212.787C237.858 212.745 237.676 212.717 237.48 212.717C237.298 212.717 237.116 212.731 236.934 212.759C236.752 212.787 236.584 212.843 236.444 212.913C236.29 212.983 236.164 213.081 236.08 213.193C235.982 213.305 235.94 213.459 235.94 213.641C235.94 213.851 236.01 214.019 236.15 214.159C236.29 214.299 236.486 214.411 236.71 214.495C236.934 214.579 237.186 214.663 237.466 214.719C237.746 214.775 238.026 214.845 238.306 214.901C238.6 214.971 238.894 215.055 239.174 215.139C239.454 215.237 239.706 215.363 239.93 215.517C240.154 215.671 240.322 215.867 240.462 216.091C240.602 216.329 240.658 216.623 240.672 216.959C240.672 217.407 240.574 217.771 240.392 218.051C240.21 218.345 239.972 218.583 239.678 218.751C239.384 218.933 239.048 219.059 238.684 219.129C238.32 219.199 237.956 219.227 237.592 219.227C237.186 219.227 236.808 219.185 236.444 219.101C236.08 219.017 235.758 218.891 235.478 218.695C235.198 218.499 234.974 218.247 234.806 217.939C234.638 217.631 234.54 217.239 234.526 216.791H235.716Z" fill="#727372"/>
<path d="M287.153 219.389V218.143C286.519 217.993 285.982 217.709 285.543 217.289C285.105 216.869 284.783 216.355 284.577 215.749L286.103 215.189C286.295 215.623 286.561 215.98 286.901 216.26C287.247 216.535 287.639 216.673 288.077 216.673C288.525 216.673 288.885 216.558 289.155 216.33C289.426 216.096 289.561 215.763 289.561 215.329C289.561 215.016 289.473 214.755 289.295 214.545C289.118 214.335 288.885 214.155 288.595 214.006C288.311 213.856 288.003 213.719 287.671 213.593C287.349 213.471 287.027 213.336 286.705 213.187C286.383 213.033 286.089 212.848 285.823 212.634C285.557 212.414 285.343 212.146 285.179 211.829C285.021 211.507 284.941 211.115 284.941 210.653C284.941 210.065 285.13 209.54 285.508 209.078C285.891 208.611 286.439 208.315 287.153 208.189V207.069H288.777V208.203C289.337 208.329 289.792 208.571 290.142 208.931C290.492 209.285 290.737 209.701 290.877 210.177L289.379 210.681C289.267 210.405 289.085 210.17 288.833 209.974C288.581 209.773 288.255 209.673 287.853 209.673C287.475 209.673 287.177 209.759 286.957 209.932C286.743 210.104 286.635 210.345 286.635 210.653C286.635 210.9 286.715 211.108 286.873 211.276C287.032 211.444 287.244 211.591 287.51 211.717C287.776 211.843 288.068 211.964 288.385 212.081C288.717 212.202 289.05 212.344 289.386 212.508C289.727 212.666 290.037 212.867 290.317 213.11C290.602 213.348 290.831 213.646 291.003 214.006C291.181 214.365 291.269 214.801 291.269 215.315C291.269 215.851 291.16 216.32 290.94 216.722C290.721 217.118 290.422 217.44 290.044 217.688C289.671 217.93 289.249 218.091 288.777 218.171V219.389H287.153ZM295.738 218.073V210.387L293.61 210.961V209.393L297.404 208.259V218.073H295.738ZM293.302 218.073V216.477H299.798V218.073H293.302ZM303.315 218.241V216.701C303.824 216.645 304.312 216.507 304.778 216.288C305.245 216.064 305.651 215.746 305.996 215.336C306.346 214.92 306.596 214.395 306.745 213.761C306.559 213.947 306.309 214.101 305.996 214.223C305.688 214.344 305.331 214.405 304.925 214.405C304.309 214.405 303.759 214.276 303.273 214.02C302.793 213.758 302.412 213.394 302.132 212.928C301.857 212.461 301.719 211.913 301.719 211.283C301.719 210.648 301.869 210.093 302.167 209.617C302.466 209.141 302.877 208.77 303.399 208.504C303.922 208.238 304.519 208.105 305.191 208.105C305.98 208.105 306.626 208.27 307.13 208.602C307.639 208.933 308.015 209.386 308.257 209.96C308.5 210.529 308.621 211.175 308.621 211.899C308.621 212.781 308.509 213.595 308.285 214.342C308.061 215.084 307.728 215.735 307.284 216.295C306.841 216.855 306.288 217.303 305.625 217.639C304.963 217.975 304.193 218.175 303.315 218.241ZM305.163 212.865C305.527 212.865 305.845 212.799 306.115 212.669C306.386 212.538 306.596 212.351 306.745 212.109C306.895 211.866 306.969 211.577 306.969 211.241C306.969 210.928 306.892 210.653 306.738 210.415C306.589 210.172 306.379 209.983 306.108 209.848C305.842 209.712 305.532 209.645 305.177 209.645C304.809 209.645 304.489 209.712 304.218 209.848C303.948 209.983 303.738 210.172 303.588 210.415C303.444 210.653 303.371 210.928 303.371 211.241C303.371 211.745 303.532 212.141 303.854 212.431C304.176 212.72 304.613 212.865 305.163 212.865ZM322.459 218.241C321.68 218.241 321.026 218.075 320.499 217.744C319.976 217.408 319.582 216.955 319.316 216.386C319.05 215.816 318.917 215.175 318.917 214.461C318.917 213.691 319.031 212.96 319.26 212.27C319.489 211.574 319.834 210.944 320.296 210.38C320.763 209.81 321.348 209.33 322.053 208.938C322.758 208.546 323.584 208.268 324.531 208.105V209.645C324.027 209.743 323.535 209.915 323.054 210.163C322.578 210.41 322.158 210.73 321.794 211.122C321.43 211.509 321.166 211.964 321.003 212.487C321.194 212.309 321.435 212.165 321.724 212.053C322.018 211.941 322.356 211.885 322.739 211.885C323.36 211.885 323.91 212.022 324.391 212.298C324.876 212.573 325.257 212.951 325.532 213.432C325.807 213.908 325.945 214.447 325.945 215.049C325.945 215.674 325.793 216.227 325.49 216.708C325.191 217.188 324.778 217.564 324.251 217.835C323.728 218.105 323.131 218.241 322.459 218.241ZM322.459 216.673C322.814 216.673 323.129 216.607 323.404 216.477C323.679 216.346 323.896 216.162 324.055 215.924C324.214 215.686 324.293 215.403 324.293 215.077C324.293 214.577 324.123 214.181 323.782 213.887C323.441 213.588 323 213.439 322.459 213.439C322.1 213.439 321.78 213.509 321.5 213.649C321.225 213.784 321.008 213.975 320.849 214.223C320.69 214.465 320.611 214.75 320.611 215.077C320.611 215.403 320.69 215.686 320.849 215.924C321.012 216.162 321.232 216.346 321.507 216.477C321.787 216.607 322.104 216.673 322.459 216.673ZM331.058 218.241C330.493 218.241 329.992 218.145 329.553 217.954C329.119 217.762 328.748 217.494 328.44 217.149C328.132 216.803 327.889 216.402 327.712 215.945L329.21 215.329C329.434 215.805 329.705 216.148 330.022 216.358C330.344 216.568 330.703 216.673 331.1 216.673C331.408 216.673 331.686 216.619 331.933 216.512C332.18 216.4 332.376 216.239 332.521 216.029C332.666 215.814 332.738 215.553 332.738 215.245C332.738 214.825 332.6 214.475 332.325 214.195C332.054 213.915 331.632 213.775 331.058 213.775H330.176V212.193H331.016C331.431 212.193 331.763 212.078 332.01 211.85C332.262 211.621 332.388 211.315 332.388 210.933C332.388 210.559 332.269 210.256 332.031 210.023C331.793 209.789 331.473 209.673 331.072 209.673C330.806 209.673 330.575 209.722 330.379 209.82C330.183 209.918 330.015 210.046 329.875 210.205C329.735 210.363 329.616 210.536 329.518 210.723L328.02 210.149C328.188 209.757 328.414 209.407 328.699 209.099C328.988 208.791 329.331 208.548 329.728 208.371C330.125 208.193 330.573 208.105 331.072 208.105C331.655 208.105 332.171 208.221 332.619 208.455C333.067 208.683 333.417 208.998 333.669 209.4C333.926 209.801 334.054 210.256 334.054 210.765C334.054 211.227 333.947 211.64 333.732 212.004C333.517 212.368 333.223 212.659 332.85 212.879C333.298 213.051 333.671 213.341 333.97 213.747C334.269 214.153 334.418 214.647 334.418 215.231C334.418 215.856 334.273 216.395 333.984 216.848C333.699 217.296 333.303 217.641 332.794 217.884C332.29 218.122 331.711 218.241 331.058 218.241ZM338.873 218.073V210.387L336.745 210.961V209.393L340.539 208.259V218.073H338.873ZM336.437 218.073V216.477H342.933V218.073H336.437Z" fill="#242D38"/>
<path d="M735.568 193.073V179.585H730.768V176.273H743.836V179.585H739.024V193.073H735.568ZM751.549 193.361C750.205 193.361 749.061 193.109 748.117 192.605C747.173 192.093 746.409 191.417 745.825 190.577C745.249 189.729 744.825 188.793 744.553 187.769C744.289 186.745 744.157 185.713 744.157 184.673C744.157 183.633 744.289 182.601 744.553 181.577C744.825 180.553 745.249 179.621 745.825 178.781C746.409 177.933 747.173 177.257 748.117 176.753C749.061 176.241 750.205 175.985 751.549 175.985C752.909 175.985 754.057 176.241 754.993 176.753C755.929 177.257 756.685 177.933 757.261 178.781C757.845 179.621 758.269 180.553 758.533 181.577C758.797 182.601 758.929 183.633 758.929 184.673C758.929 185.713 758.797 186.745 758.533 187.769C758.269 188.793 757.845 189.729 757.261 190.577C756.685 191.417 755.929 192.093 754.993 192.605C754.057 193.109 752.909 193.361 751.549 193.361ZM751.549 190.025C752.253 190.025 752.845 189.861 753.325 189.533C753.813 189.205 754.205 188.773 754.501 188.237C754.797 187.693 755.013 187.109 755.149 186.485C755.285 185.861 755.353 185.257 755.353 184.673C755.353 184.049 755.289 183.421 755.161 182.789C755.033 182.157 754.821 181.577 754.525 181.049C754.237 180.521 753.849 180.097 753.361 179.777C752.873 179.457 752.269 179.297 751.549 179.297C750.829 179.297 750.225 179.465 749.737 179.801C749.249 180.129 748.857 180.561 748.561 181.097C748.265 181.633 748.053 182.217 747.925 182.849C747.797 183.481 747.733 184.089 747.733 184.673C747.733 185.289 747.797 185.913 747.925 186.545C748.061 187.169 748.277 187.745 748.573 188.273C748.877 188.801 749.273 189.225 749.761 189.545C750.249 189.865 750.845 190.025 751.549 190.025ZM764.059 193.073V179.585H759.259V176.273H772.327V179.585H767.515V193.073H764.059ZM769.96 193.073L776.512 176.273H779.8L786.364 193.073H782.608L781.324 189.701H774.976L773.716 193.073H769.96ZM776.128 186.521H780.16L778.636 182.597C778.588 182.477 778.532 182.341 778.468 182.189C778.404 182.029 778.344 181.869 778.288 181.709C778.232 181.549 778.184 181.405 778.144 181.277C778.104 181.405 778.056 181.549 778 181.709C777.944 181.869 777.884 182.029 777.82 182.189C777.756 182.341 777.7 182.477 777.652 182.597L776.128 186.521ZM787.447 193.073V176.273H790.903V189.737H798.979V193.073H787.447Z" fill="#337975"/>
<path d="M710.67 224.141V222.183C709.672 221.948 708.829 221.501 708.14 220.841C707.45 220.181 706.944 219.374 706.622 218.421L709.02 217.541C709.32 218.223 709.738 218.784 710.274 219.224C710.816 219.656 711.432 219.873 712.122 219.873C712.826 219.873 713.39 219.693 713.816 219.334C714.241 218.967 714.454 218.443 714.454 217.761C714.454 217.269 714.314 216.859 714.036 216.529C713.757 216.199 713.39 215.916 712.936 215.682C712.488 215.447 712.004 215.231 711.484 215.033C710.978 214.842 710.472 214.629 709.966 214.395C709.46 214.153 708.998 213.863 708.58 213.526C708.162 213.181 707.824 212.759 707.568 212.261C707.318 211.755 707.194 211.139 707.194 210.413C707.194 209.489 707.491 208.664 708.085 207.938C708.686 207.204 709.548 206.739 710.67 206.541V204.781H713.222V206.563C714.102 206.761 714.817 207.142 715.367 207.707C715.917 208.264 716.302 208.917 716.522 209.665L714.168 210.457C713.992 210.024 713.706 209.654 713.31 209.346C712.914 209.03 712.4 208.873 711.77 208.873C711.176 208.873 710.706 209.008 710.362 209.28C710.024 209.551 709.856 209.929 709.856 210.413C709.856 210.801 709.98 211.128 710.23 211.392C710.479 211.656 710.813 211.887 711.231 212.085C711.649 212.283 712.107 212.473 712.606 212.657C713.126 212.847 713.651 213.071 714.179 213.328C714.714 213.577 715.202 213.892 715.642 214.274C716.089 214.648 716.448 215.117 716.72 215.682C716.998 216.246 717.138 216.932 717.138 217.739C717.138 218.582 716.965 219.319 716.621 219.95C716.276 220.573 715.807 221.079 715.213 221.468C714.626 221.849 713.962 222.102 713.222 222.227V224.141H710.67ZM720.266 222.073C720.266 220.965 720.402 219.994 720.673 219.158C720.944 218.314 721.315 217.577 721.784 216.947C722.261 216.309 722.803 215.748 723.412 215.264C724.028 214.78 724.673 214.343 725.348 213.955C725.781 213.705 726.184 213.438 726.558 213.152C726.932 212.866 727.233 212.547 727.46 212.195C727.695 211.835 727.812 211.425 727.812 210.963C727.812 210.325 727.614 209.819 727.218 209.445C726.822 209.063 726.287 208.873 725.612 208.873C724.901 208.873 724.31 209.045 723.841 209.39C723.379 209.734 723.031 210.2 722.796 210.787L720.464 209.731C720.721 209.071 721.098 208.491 721.597 207.993C722.096 207.494 722.682 207.105 723.357 206.827C724.039 206.548 724.776 206.409 725.568 206.409C726.595 206.409 727.471 206.607 728.197 207.003C728.93 207.391 729.488 207.927 729.869 208.609C730.258 209.283 730.452 210.046 730.452 210.897C730.452 211.835 730.276 212.616 729.924 213.24C729.572 213.856 729.095 214.391 728.494 214.846C727.893 215.3 727.218 215.744 726.47 216.177C725.935 216.485 725.451 216.811 725.018 217.156C724.585 217.5 724.222 217.874 723.929 218.278C723.636 218.674 723.434 219.103 723.324 219.565H730.584V222.073H720.266ZM733.823 222.073C733.823 220.965 733.958 219.994 734.23 219.158C734.501 218.314 734.871 217.577 735.341 216.947C735.817 216.309 736.36 215.748 736.969 215.264C737.585 214.78 738.23 214.343 738.905 213.955C739.337 213.705 739.741 213.438 740.115 213.152C740.489 212.866 740.789 212.547 741.017 212.195C741.251 211.835 741.369 211.425 741.369 210.963C741.369 210.325 741.171 209.819 740.775 209.445C740.379 209.063 739.843 208.873 739.169 208.873C738.457 208.873 737.867 209.045 737.398 209.39C736.936 209.734 736.587 210.2 736.353 210.787L734.021 209.731C734.277 209.071 734.655 208.491 735.154 207.993C735.652 207.494 736.239 207.105 736.914 206.827C737.596 206.548 738.333 206.409 739.125 206.409C740.151 206.409 741.028 206.607 741.754 207.003C742.487 207.391 743.044 207.927 743.426 208.609C743.814 209.283 744.009 210.046 744.009 210.897C744.009 211.835 743.833 212.616 743.481 213.24C743.129 213.856 742.652 214.391 742.051 214.846C741.449 215.3 740.775 215.744 740.027 216.177C739.491 216.485 739.007 216.811 738.575 217.156C738.142 217.5 737.779 217.874 737.486 218.278C737.192 218.674 736.991 219.103 736.881 219.565H744.141V222.073H733.823ZM766.106 222.337C765.219 222.337 764.43 222.186 763.741 221.886C763.059 221.585 762.476 221.163 761.992 220.621C761.508 220.078 761.127 219.447 760.848 218.729L763.202 217.761C763.554 218.509 763.979 219.048 764.478 219.378C764.984 219.708 765.549 219.873 766.172 219.873C766.656 219.873 767.092 219.788 767.481 219.62C767.87 219.444 768.178 219.191 768.405 218.861C768.632 218.523 768.746 218.113 768.746 217.629C768.746 216.969 768.53 216.419 768.097 215.979C767.672 215.539 767.008 215.319 766.106 215.319H764.72V212.833H766.04C766.693 212.833 767.213 212.653 767.602 212.294C767.998 211.934 768.196 211.454 768.196 210.853C768.196 210.266 768.009 209.789 767.635 209.423C767.261 209.056 766.759 208.873 766.128 208.873C765.71 208.873 765.347 208.95 765.039 209.104C764.731 209.258 764.467 209.459 764.247 209.709C764.027 209.958 763.84 210.229 763.686 210.523L761.332 209.621C761.596 209.005 761.952 208.455 762.399 207.971C762.854 207.487 763.393 207.105 764.016 206.827C764.639 206.548 765.343 206.409 766.128 206.409C767.045 206.409 767.855 206.592 768.559 206.959C769.263 207.318 769.813 207.813 770.209 208.444C770.612 209.074 770.814 209.789 770.814 210.589C770.814 211.315 770.645 211.964 770.308 212.536C769.971 213.108 769.509 213.566 768.922 213.911C769.626 214.182 770.213 214.637 770.682 215.275C771.151 215.913 771.386 216.69 771.386 217.607C771.386 218.589 771.159 219.436 770.704 220.148C770.257 220.852 769.633 221.394 768.834 221.776C768.042 222.15 767.133 222.337 766.106 222.337ZM779.641 222.337C778.519 222.337 777.54 222.131 776.704 221.721C775.875 221.31 775.23 220.742 774.768 220.016C774.306 219.29 774.075 218.45 774.075 217.497C774.075 216.595 774.324 215.81 774.823 215.143C775.321 214.468 775.989 213.962 776.825 213.625C776.253 213.346 775.758 212.939 775.34 212.404C774.922 211.861 774.713 211.212 774.713 210.457C774.713 209.679 774.914 208.986 775.318 208.378C775.721 207.769 776.289 207.289 777.023 206.937C777.763 206.585 778.636 206.409 779.641 206.409C780.653 206.409 781.529 206.585 782.27 206.937C783.018 207.289 783.593 207.769 783.997 208.378C784.407 208.986 784.613 209.679 784.613 210.457C784.613 211.205 784.4 211.85 783.975 212.393C783.557 212.935 783.051 213.339 782.457 213.603C783.285 213.94 783.956 214.45 784.47 215.132C784.99 215.814 785.251 216.602 785.251 217.497C785.251 218.45 785.02 219.29 784.558 220.016C784.096 220.742 783.443 221.31 782.6 221.721C781.764 222.131 780.777 222.337 779.641 222.337ZM779.641 219.983C780.499 219.983 781.206 219.748 781.764 219.279C782.328 218.802 782.611 218.179 782.611 217.409C782.611 216.925 782.482 216.492 782.226 216.111C781.976 215.722 781.628 215.418 781.181 215.198C780.733 214.97 780.22 214.857 779.641 214.857C779.054 214.857 778.537 214.97 778.09 215.198C777.65 215.418 777.305 215.722 777.056 216.111C776.814 216.492 776.693 216.925 776.693 217.409C776.693 218.179 776.968 218.802 777.518 219.279C778.068 219.748 778.775 219.983 779.641 219.983ZM779.641 212.547C780.359 212.547 780.935 212.367 781.368 212.008C781.8 211.641 782.017 211.19 782.017 210.655C782.017 210.083 781.793 209.621 781.346 209.269C780.906 208.917 780.337 208.741 779.641 208.741C778.937 208.741 778.372 208.917 777.947 209.269C777.521 209.621 777.309 210.083 777.309 210.655C777.309 211.19 777.518 211.641 777.936 212.008C778.361 212.367 778.929 212.547 779.641 212.547ZM791.943 222.073V209.995L788.599 210.897V208.433L794.561 206.651V222.073H791.943ZM788.115 222.073V219.565H798.323V222.073H788.115Z" fill="#337975"/>
</svg>
