<svg width="840" height="228" viewBox="0 0 840 228" fill="none" xmlns="http://www.w3.org/2000/svg">
<path d="M801.734 0.926758L763.492 66.9142L801.734 133.073L840 66.9142L801.734 0.926758Z" fill="#002554"/>
<path opacity="0.3" d="M801.734 0.926758L763.492 66.9142L801.734 133.073L840 66.9142L801.734 0.926758Z" fill="white"/>
<path d="M166.841 0.926758L128.599 66.9142L166.841 133.073H801.734L763.492 66.9142L801.734 0.926758H166.841Z" fill="#002554"/>
<path d="M38.2419 0.926758L0 66.9142L38.2419 133.073H166.865L128.598 66.9142L166.865 0.926758H38.2419Z" fill="#C3E86C"/>
<path opacity="0.2" d="M763.663 67.0121H0L38.3887 0.926758H801.832L763.663 67.0121Z" fill="white"/>
<circle cx="48" cy="184.073" r="8" fill="#C3E86C"/>
<path d="M72.568 187.827L72.918 189.073H73.758V183.809H69.376V184.929H72.568C72.5867 185.386 72.526 185.815 72.386 186.217C72.246 186.609 72.036 186.954 71.756 187.253C71.4853 187.542 71.1493 187.771 70.748 187.939C70.3467 188.107 69.8847 188.191 69.362 188.191C68.802 188.191 68.3073 188.083 67.878 187.869C67.458 187.645 67.1033 187.351 66.814 186.987C66.5247 186.613 66.3053 186.189 66.156 185.713C66.0067 185.227 65.932 184.723 65.932 184.201C65.932 183.669 65.9973 183.151 66.128 182.647C66.2587 182.133 66.4593 181.681 66.73 181.289C67.01 180.887 67.3647 180.565 67.794 180.323C68.2327 180.08 68.7553 179.959 69.362 179.959C69.7353 179.959 70.0853 180.005 70.412 180.099C70.748 180.183 71.0467 180.313 71.308 180.491C71.5693 180.668 71.7887 180.897 71.966 181.177C72.1433 181.447 72.2647 181.774 72.33 182.157H73.66C73.5667 181.569 73.3893 181.069 73.128 180.659C72.876 180.239 72.5587 179.893 72.176 179.623C71.8027 179.352 71.3733 179.156 70.888 179.035C70.412 178.904 69.9033 178.839 69.362 178.839C68.5687 178.839 67.8733 178.988 67.276 179.287C66.688 179.576 66.1933 179.968 65.792 180.463C65.4 180.957 65.1013 181.536 64.896 182.199C64.7 182.852 64.602 183.543 64.602 184.271C64.602 184.924 64.7093 185.554 64.924 186.161C65.1387 186.767 65.4513 187.304 65.862 187.771C66.2727 188.237 66.772 188.611 67.36 188.891C67.948 189.161 68.6153 189.297 69.362 189.297C69.95 189.297 70.5333 189.185 71.112 188.961C71.6907 188.727 72.176 188.349 72.568 187.827ZM80.545 184.761H76.387C76.4057 184.481 76.4664 184.219 76.569 183.977C76.6717 183.725 76.8117 183.505 76.989 183.319C77.1664 183.132 77.3764 182.987 77.619 182.885C77.871 182.773 78.151 182.717 78.459 182.717C78.7577 182.717 79.0284 182.773 79.271 182.885C79.523 182.987 79.7377 183.132 79.915 183.319C80.1017 183.496 80.2464 183.711 80.349 183.963C80.461 184.215 80.5264 184.481 80.545 184.761ZM81.693 186.777H80.517C80.4144 187.253 80.1997 187.607 79.873 187.841C79.5557 188.074 79.145 188.191 78.641 188.191C78.249 188.191 77.9084 188.125 77.619 187.995C77.3297 187.864 77.0917 187.691 76.905 187.477C76.7184 187.253 76.583 187.001 76.499 186.721C76.415 186.431 76.3777 186.128 76.387 185.811H81.805C81.8237 185.372 81.7817 184.91 81.679 184.425C81.5857 183.939 81.4084 183.491 81.147 183.081C80.895 182.67 80.5544 182.334 80.125 182.073C79.705 181.802 79.173 181.667 78.529 181.667C78.0344 181.667 77.577 181.76 77.157 181.947C76.7464 182.133 76.387 182.395 76.079 182.731C75.7804 183.067 75.547 183.463 75.379 183.921C75.211 184.378 75.127 184.882 75.127 185.433C75.1457 185.983 75.225 186.492 75.365 186.959C75.5144 187.425 75.7337 187.827 76.023 188.163C76.3124 188.499 76.667 188.76 77.087 188.947C77.5164 189.133 78.0204 189.227 78.599 189.227C79.4204 189.227 80.1017 189.021 80.643 188.611C81.1844 188.2 81.5344 187.589 81.693 186.777ZM83.0386 181.835V189.073H84.2286V184.985C84.2286 184.658 84.2706 184.359 84.3546 184.089C84.4479 183.809 84.5832 183.566 84.7606 183.361C84.9379 183.155 85.1572 182.997 85.4186 182.885C85.6892 182.773 86.0066 182.717 86.3706 182.717C86.8279 182.717 87.1872 182.847 87.4486 183.109C87.7099 183.37 87.8406 183.725 87.8406 184.173V189.073H89.0306V184.313C89.0306 183.921 88.9886 183.566 88.9046 183.249C88.8299 182.922 88.6946 182.642 88.4986 182.409C88.3026 182.175 88.0459 181.993 87.7286 181.863C87.4112 181.732 87.0146 181.667 86.5386 181.667C85.4652 181.667 84.6812 182.105 84.1866 182.983H84.1586V181.835H83.0386ZM95.8439 184.761H91.6859C91.7045 184.481 91.7652 184.219 91.8679 183.977C91.9705 183.725 92.1105 183.505 92.2879 183.319C92.4652 183.132 92.6752 182.987 92.9179 182.885C93.1699 182.773 93.4499 182.717 93.7579 182.717C94.0565 182.717 94.3272 182.773 94.5699 182.885C94.8219 182.987 95.0365 183.132 95.2139 183.319C95.4005 183.496 95.5452 183.711 95.6479 183.963C95.7599 184.215 95.8252 184.481 95.8439 184.761ZM96.9919 186.777H95.8159C95.7132 187.253 95.4985 187.607 95.1719 187.841C94.8545 188.074 94.4439 188.191 93.9399 188.191C93.5479 188.191 93.2072 188.125 92.9179 187.995C92.6285 187.864 92.3905 187.691 92.2039 187.477C92.0172 187.253 91.8819 187.001 91.7979 186.721C91.7139 186.431 91.6765 186.128 91.6859 185.811H97.1039C97.1225 185.372 97.0805 184.91 96.9779 184.425C96.8845 183.939 96.7072 183.491 96.4459 183.081C96.1939 182.67 95.8532 182.334 95.4239 182.073C95.0039 181.802 94.4719 181.667 93.8279 181.667C93.3332 181.667 92.8759 181.76 92.4559 181.947C92.0452 182.133 91.6859 182.395 91.3779 182.731C91.0792 183.067 90.8459 183.463 90.6779 183.921C90.5099 184.378 90.4259 184.882 90.4259 185.433C90.4445 185.983 90.5239 186.492 90.6639 186.959C90.8132 187.425 91.0325 187.827 91.3219 188.163C91.6112 188.499 91.9659 188.76 92.3859 188.947C92.8152 189.133 93.3192 189.227 93.8979 189.227C94.7192 189.227 95.4005 189.021 95.9419 188.611C96.4832 188.2 96.8332 187.589 96.9919 186.777ZM98.2954 181.835V189.073H99.4854V185.853C99.4854 185.386 99.5321 184.975 99.6254 184.621C99.7187 184.257 99.8681 183.949 100.073 183.697C100.279 183.445 100.549 183.253 100.885 183.123C101.221 182.992 101.627 182.927 102.103 182.927V181.667C101.459 181.648 100.927 181.779 100.507 182.059C100.087 182.339 99.7327 182.773 99.4434 183.361H99.4154V181.835H98.2954ZM109.412 189.045C109.206 189.166 108.922 189.227 108.558 189.227C108.25 189.227 108.002 189.143 107.816 188.975C107.638 188.797 107.55 188.513 107.55 188.121C107.223 188.513 106.84 188.797 106.402 188.975C105.972 189.143 105.506 189.227 105.002 189.227C104.675 189.227 104.362 189.189 104.064 189.115C103.774 189.04 103.522 188.923 103.308 188.765C103.093 188.606 102.92 188.401 102.79 188.149C102.668 187.887 102.608 187.575 102.608 187.211C102.608 186.8 102.678 186.464 102.818 186.203C102.958 185.941 103.14 185.731 103.364 185.573C103.597 185.405 103.858 185.279 104.148 185.195C104.446 185.111 104.75 185.041 105.058 184.985C105.384 184.919 105.692 184.873 105.982 184.845C106.28 184.807 106.542 184.761 106.766 184.705C106.99 184.639 107.167 184.551 107.298 184.439C107.428 184.317 107.494 184.145 107.494 183.921C107.494 183.659 107.442 183.449 107.34 183.291C107.246 183.132 107.12 183.011 106.962 182.927C106.812 182.843 106.64 182.787 106.444 182.759C106.257 182.731 106.07 182.717 105.884 182.717C105.38 182.717 104.96 182.815 104.624 183.011C104.288 183.197 104.106 183.557 104.078 184.089H102.888C102.906 183.641 103 183.263 103.168 182.955C103.336 182.647 103.56 182.399 103.84 182.213C104.12 182.017 104.437 181.877 104.792 181.793C105.156 181.709 105.543 181.667 105.954 181.667C106.28 181.667 106.602 181.69 106.92 181.737C107.246 181.783 107.54 181.881 107.802 182.031C108.063 182.171 108.273 182.371 108.432 182.633C108.59 182.894 108.67 183.235 108.67 183.655V187.379C108.67 187.659 108.684 187.864 108.712 187.995C108.749 188.125 108.861 188.191 109.048 188.191C109.15 188.191 109.272 188.167 109.412 188.121V189.045ZM107.48 185.335C107.33 185.447 107.134 185.531 106.892 185.587C106.649 185.633 106.392 185.675 106.122 185.713C105.86 185.741 105.594 185.778 105.324 185.825C105.053 185.862 104.81 185.927 104.596 186.021C104.381 186.114 104.204 186.249 104.064 186.427C103.933 186.595 103.868 186.828 103.868 187.127C103.868 187.323 103.905 187.491 103.98 187.631C104.064 187.761 104.166 187.869 104.288 187.953C104.418 188.037 104.568 188.097 104.736 188.135C104.904 188.172 105.081 188.191 105.268 188.191C105.66 188.191 105.996 188.139 106.276 188.037C106.556 187.925 106.784 187.789 106.962 187.631C107.139 187.463 107.27 187.285 107.354 187.099C107.438 186.903 107.48 186.721 107.48 186.553V185.335ZM110.589 179.077V189.073H111.779V179.077H110.589ZM117.771 179.077V189.073H119.101V179.077H117.771ZM121.142 181.835V189.073H122.332V184.985C122.332 184.658 122.374 184.359 122.458 184.089C122.551 183.809 122.687 183.566 122.864 183.361C123.041 183.155 123.261 182.997 123.522 182.885C123.793 182.773 124.11 182.717 124.474 182.717C124.931 182.717 125.291 182.847 125.552 183.109C125.813 183.37 125.944 183.725 125.944 184.173V189.073H127.134V184.313C127.134 183.921 127.092 183.566 127.008 183.249C126.933 182.922 126.798 182.642 126.602 182.409C126.406 182.175 126.149 181.993 125.832 181.863C125.515 181.732 125.118 181.667 124.642 181.667C123.569 181.667 122.785 182.105 122.29 182.983H122.262V181.835H121.142ZM129.411 182.885V189.073H130.601V182.885H132.001V181.835H130.601V180.827C130.601 180.509 130.681 180.295 130.839 180.183C130.998 180.071 131.222 180.015 131.511 180.015C131.614 180.015 131.726 180.024 131.847 180.043C131.969 180.052 132.081 180.075 132.183 180.113V179.077C132.071 179.039 131.941 179.011 131.791 178.993C131.651 178.974 131.525 178.965 131.413 178.965C130.76 178.965 130.261 179.119 129.915 179.427C129.579 179.725 129.411 180.169 129.411 180.757V181.835H128.193V182.885H129.411ZM133.932 185.461C133.932 185.022 133.988 184.635 134.1 184.299C134.221 183.953 134.385 183.664 134.59 183.431C134.795 183.197 135.033 183.02 135.304 182.899C135.584 182.777 135.878 182.717 136.186 182.717C136.494 182.717 136.783 182.777 137.054 182.899C137.334 183.02 137.577 183.197 137.782 183.431C137.987 183.664 138.146 183.953 138.258 184.299C138.379 184.635 138.44 185.022 138.44 185.461C138.44 185.899 138.379 186.291 138.258 186.637C138.146 186.973 137.987 187.257 137.782 187.491C137.577 187.715 137.334 187.887 137.054 188.009C136.783 188.13 136.494 188.191 136.186 188.191C135.878 188.191 135.584 188.13 135.304 188.009C135.033 187.887 134.795 187.715 134.59 187.491C134.385 187.257 134.221 186.973 134.1 186.637C133.988 186.291 133.932 185.899 133.932 185.461ZM132.672 185.461C132.672 185.993 132.747 186.487 132.896 186.945C133.045 187.402 133.269 187.803 133.568 188.149C133.867 188.485 134.235 188.751 134.674 188.947C135.113 189.133 135.617 189.227 136.186 189.227C136.765 189.227 137.269 189.133 137.698 188.947C138.137 188.751 138.505 188.485 138.804 188.149C139.103 187.803 139.327 187.402 139.476 186.945C139.625 186.487 139.7 185.993 139.7 185.461C139.7 184.929 139.625 184.434 139.476 183.977C139.327 183.51 139.103 183.109 138.804 182.773C138.505 182.427 138.137 182.157 137.698 181.961C137.269 181.765 136.765 181.667 136.186 181.667C135.617 181.667 135.113 181.765 134.674 181.961C134.235 182.157 133.867 182.427 133.568 182.773C133.269 183.109 133.045 183.51 132.896 183.977C132.747 184.434 132.672 184.929 132.672 185.461ZM141.061 181.835V189.073H142.251V185.853C142.251 185.386 142.298 184.975 142.391 184.621C142.484 184.257 142.634 183.949 142.839 183.697C143.044 183.445 143.315 183.253 143.651 183.123C143.987 182.992 144.393 182.927 144.869 182.927V181.667C144.225 181.648 143.693 181.779 143.273 182.059C142.853 182.339 142.498 182.773 142.209 183.361H142.181V181.835H141.061ZM145.765 181.835V189.073H146.955V184.565C146.955 184.425 146.988 184.252 147.053 184.047C147.128 183.832 147.24 183.627 147.389 183.431C147.548 183.235 147.748 183.067 147.991 182.927C148.243 182.787 148.542 182.717 148.887 182.717C149.158 182.717 149.377 182.759 149.545 182.843C149.722 182.917 149.862 183.029 149.965 183.179C150.068 183.319 150.138 183.487 150.175 183.683C150.222 183.879 150.245 184.093 150.245 184.327V189.073H151.435V184.565C151.435 184.005 151.603 183.557 151.939 183.221C152.275 182.885 152.737 182.717 153.325 182.717C153.614 182.717 153.848 182.759 154.025 182.843C154.212 182.927 154.356 183.043 154.459 183.193C154.562 183.333 154.632 183.501 154.669 183.697C154.706 183.893 154.725 184.103 154.725 184.327V189.073H155.915V183.767C155.915 183.393 155.854 183.076 155.733 182.815C155.621 182.544 155.458 182.325 155.243 182.157C155.038 181.989 154.786 181.867 154.487 181.793C154.198 181.709 153.871 181.667 153.507 181.667C153.031 181.667 152.592 181.774 152.191 181.989C151.799 182.203 151.482 182.507 151.239 182.899C151.09 182.451 150.833 182.133 150.469 181.947C150.105 181.76 149.699 181.667 149.251 181.667C148.234 181.667 147.454 182.077 146.913 182.899H146.885V181.835H145.765ZM164.113 189.045C163.907 189.166 163.623 189.227 163.259 189.227C162.951 189.227 162.703 189.143 162.517 188.975C162.339 188.797 162.251 188.513 162.251 188.121C161.924 188.513 161.541 188.797 161.103 188.975C160.673 189.143 160.207 189.227 159.703 189.227C159.376 189.227 159.063 189.189 158.765 189.115C158.475 189.04 158.223 188.923 158.009 188.765C157.794 188.606 157.621 188.401 157.491 188.149C157.369 187.887 157.309 187.575 157.309 187.211C157.309 186.8 157.379 186.464 157.519 186.203C157.659 185.941 157.841 185.731 158.065 185.573C158.298 185.405 158.559 185.279 158.849 185.195C159.147 185.111 159.451 185.041 159.759 184.985C160.085 184.919 160.393 184.873 160.683 184.845C160.981 184.807 161.243 184.761 161.467 184.705C161.691 184.639 161.868 184.551 161.999 184.439C162.129 184.317 162.195 184.145 162.195 183.921C162.195 183.659 162.143 183.449 162.041 183.291C161.947 183.132 161.821 183.011 161.663 182.927C161.513 182.843 161.341 182.787 161.145 182.759C160.958 182.731 160.771 182.717 160.585 182.717C160.081 182.717 159.661 182.815 159.325 183.011C158.989 183.197 158.807 183.557 158.779 184.089H157.589C157.607 183.641 157.701 183.263 157.869 182.955C158.037 182.647 158.261 182.399 158.541 182.213C158.821 182.017 159.138 181.877 159.493 181.793C159.857 181.709 160.244 181.667 160.655 181.667C160.981 181.667 161.303 181.69 161.621 181.737C161.947 181.783 162.241 181.881 162.503 182.031C162.764 182.171 162.974 182.371 163.133 182.633C163.291 182.894 163.371 183.235 163.371 183.655V187.379C163.371 187.659 163.385 187.864 163.413 187.995C163.45 188.125 163.562 188.191 163.749 188.191C163.851 188.191 163.973 188.167 164.113 188.121V189.045ZM162.181 185.335C162.031 185.447 161.835 185.531 161.593 185.587C161.35 185.633 161.093 185.675 160.823 185.713C160.561 185.741 160.295 185.778 160.025 185.825C159.754 185.862 159.511 185.927 159.297 186.021C159.082 186.114 158.905 186.249 158.765 186.427C158.634 186.595 158.569 186.828 158.569 187.127C158.569 187.323 158.606 187.491 158.681 187.631C158.765 187.761 158.867 187.869 158.989 187.953C159.119 188.037 159.269 188.097 159.437 188.135C159.605 188.172 159.782 188.191 159.969 188.191C160.361 188.191 160.697 188.139 160.977 188.037C161.257 187.925 161.485 187.789 161.663 187.631C161.84 187.463 161.971 187.285 162.055 187.099C162.139 186.903 162.181 186.721 162.181 186.553V185.335ZM166.872 181.835V179.665H165.682V181.835H164.45V182.885H165.682V187.491C165.682 187.827 165.715 188.097 165.78 188.303C165.846 188.508 165.944 188.667 166.074 188.779C166.214 188.891 166.392 188.97 166.606 189.017C166.83 189.054 167.096 189.073 167.404 189.073H168.314V188.023H167.768C167.582 188.023 167.428 188.018 167.306 188.009C167.194 187.99 167.106 187.957 167.04 187.911C166.975 187.864 166.928 187.799 166.9 187.715C166.882 187.631 166.872 187.519 166.872 187.379V182.885H168.314V181.835H166.872ZM170.896 180.533V179.077H169.706V180.533H170.896ZM169.706 181.835V189.073H170.896V181.835H169.706ZM173.608 185.461C173.608 185.022 173.664 184.635 173.776 184.299C173.897 183.953 174.06 183.664 174.266 183.431C174.471 183.197 174.709 183.02 174.98 182.899C175.26 182.777 175.554 182.717 175.862 182.717C176.17 182.717 176.459 182.777 176.73 182.899C177.01 183.02 177.252 183.197 177.458 183.431C177.663 183.664 177.822 183.953 177.934 184.299C178.055 184.635 178.116 185.022 178.116 185.461C178.116 185.899 178.055 186.291 177.934 186.637C177.822 186.973 177.663 187.257 177.458 187.491C177.252 187.715 177.01 187.887 176.73 188.009C176.459 188.13 176.17 188.191 175.862 188.191C175.554 188.191 175.26 188.13 174.98 188.009C174.709 187.887 174.471 187.715 174.266 187.491C174.06 187.257 173.897 186.973 173.776 186.637C173.664 186.291 173.608 185.899 173.608 185.461ZM172.348 185.461C172.348 185.993 172.422 186.487 172.572 186.945C172.721 187.402 172.945 187.803 173.244 188.149C173.542 188.485 173.911 188.751 174.35 188.947C174.788 189.133 175.292 189.227 175.862 189.227C176.44 189.227 176.944 189.133 177.374 188.947C177.812 188.751 178.181 188.485 178.48 188.149C178.778 187.803 179.002 187.402 179.152 186.945C179.301 186.487 179.376 185.993 179.376 185.461C179.376 184.929 179.301 184.434 179.152 183.977C179.002 183.51 178.778 183.109 178.48 182.773C178.181 182.427 177.812 182.157 177.374 181.961C176.944 181.765 176.44 181.667 175.862 181.667C175.292 181.667 174.788 181.765 174.35 181.961C173.911 182.157 173.542 182.427 173.244 182.773C172.945 183.109 172.721 183.51 172.572 183.977C172.422 184.434 172.348 184.929 172.348 185.461ZM180.779 181.835V189.073H181.969V184.985C181.969 184.658 182.011 184.359 182.095 184.089C182.188 183.809 182.323 183.566 182.501 183.361C182.678 183.155 182.897 182.997 183.159 182.885C183.429 182.773 183.747 182.717 184.111 182.717C184.568 182.717 184.927 182.847 185.189 183.109C185.45 183.37 185.581 183.725 185.581 184.173V189.073H186.771V184.313C186.771 183.921 186.729 183.566 186.645 183.249C186.57 182.922 186.435 182.642 186.239 182.409C186.043 182.175 185.786 181.993 185.469 181.863C185.151 181.732 184.755 181.667 184.279 181.667C183.205 181.667 182.421 182.105 181.927 182.983H181.899V181.835H180.779Z" fill="#727372"/>
<path d="M247.78 189.389V188.143C247.146 187.993 246.609 187.709 246.17 187.289C245.732 186.869 245.41 186.355 245.204 185.749L246.73 185.189C246.922 185.623 247.188 185.98 247.528 186.26C247.874 186.535 248.266 186.673 248.704 186.673C249.152 186.673 249.512 186.558 249.782 186.33C250.053 186.096 250.188 185.763 250.188 185.329C250.188 185.016 250.1 184.755 249.922 184.545C249.745 184.335 249.512 184.155 249.222 184.006C248.938 183.856 248.63 183.719 248.298 183.593C247.976 183.471 247.654 183.336 247.332 183.187C247.01 183.033 246.716 182.848 246.45 182.634C246.184 182.414 245.97 182.146 245.806 181.829C245.648 181.507 245.568 181.115 245.568 180.653C245.568 180.065 245.757 179.54 246.135 179.078C246.518 178.611 247.066 178.315 247.78 178.189V177.069H249.404V178.203C249.964 178.329 250.419 178.571 250.769 178.931C251.119 179.285 251.364 179.701 251.504 180.177L250.006 180.681C249.894 180.405 249.712 180.17 249.46 179.974C249.208 179.773 248.882 179.673 248.48 179.673C248.102 179.673 247.804 179.759 247.584 179.932C247.37 180.104 247.262 180.345 247.262 180.653C247.262 180.9 247.342 181.108 247.5 181.276C247.659 181.444 247.871 181.591 248.137 181.717C248.403 181.843 248.695 181.964 249.012 182.081C249.344 182.202 249.677 182.344 250.013 182.508C250.354 182.666 250.664 182.867 250.944 183.11C251.229 183.348 251.458 183.646 251.63 184.006C251.808 184.365 251.896 184.801 251.896 185.315C251.896 185.851 251.787 186.32 251.567 186.722C251.348 187.118 251.049 187.44 250.671 187.688C250.298 187.93 249.876 188.091 249.404 188.171V189.389H247.78ZM253.887 188.073C253.887 187.368 253.974 186.75 254.146 186.218C254.319 185.681 254.555 185.212 254.853 184.811C255.157 184.405 255.502 184.048 255.889 183.74C256.281 183.432 256.692 183.154 257.121 182.907C257.397 182.748 257.653 182.578 257.891 182.396C258.129 182.214 258.321 182.011 258.465 181.787C258.615 181.558 258.689 181.297 258.689 181.003C258.689 180.597 258.563 180.275 258.311 180.037C258.059 179.794 257.719 179.673 257.289 179.673C256.837 179.673 256.461 179.782 256.162 180.002C255.868 180.221 255.647 180.517 255.497 180.891L254.013 180.219C254.177 179.799 254.417 179.43 254.734 179.113C255.052 178.795 255.425 178.548 255.854 178.371C256.288 178.193 256.757 178.105 257.261 178.105C257.915 178.105 258.472 178.231 258.934 178.483C259.401 178.73 259.756 179.071 259.998 179.505C260.246 179.934 260.369 180.419 260.369 180.961C260.369 181.558 260.257 182.055 260.033 182.452C259.809 182.844 259.506 183.184 259.123 183.474C258.741 183.763 258.311 184.045 257.835 184.321C257.495 184.517 257.187 184.724 256.911 184.944C256.636 185.163 256.405 185.401 256.218 185.658C256.032 185.91 255.903 186.183 255.833 186.477H260.453V188.073H253.887ZM265.356 190.677L264.642 190.215C264.81 190.037 264.992 189.774 265.188 189.424C265.389 189.074 265.51 188.675 265.552 188.227C265.31 188.171 265.111 188.056 264.957 187.884C264.803 187.711 264.726 187.485 264.726 187.205C264.726 186.859 264.836 186.586 265.055 186.386C265.279 186.185 265.534 186.085 265.818 186.085C266.136 186.085 266.406 186.197 266.63 186.421C266.854 186.645 266.966 186.985 266.966 187.443C266.966 187.942 266.88 188.406 266.707 188.836C266.539 189.265 266.332 189.638 266.084 189.956C265.837 190.273 265.594 190.513 265.356 190.677ZM273.129 188.073C273.129 186.953 273.234 185.9 273.444 184.916C273.654 183.931 273.985 182.986 274.438 182.081C274.895 181.171 275.495 180.27 276.237 179.379L276.671 179.841H271.099V178.273H277.763V179.687C277.189 180.317 276.708 181.005 276.321 181.752C275.938 182.494 275.635 183.25 275.411 184.02C275.187 184.785 275.026 185.518 274.928 186.218C274.83 186.913 274.781 187.531 274.781 188.073H273.129ZM282.736 188.241C282.251 188.241 281.814 188.189 281.427 188.087C281.044 187.984 280.711 187.856 280.426 187.702C280.146 187.543 279.917 187.382 279.74 187.219L280.65 185.931C280.902 186.117 281.187 186.288 281.504 186.442C281.821 186.596 282.232 186.673 282.736 186.673C283.123 186.673 283.464 186.598 283.758 186.449C284.052 186.295 284.281 186.08 284.444 185.805C284.612 185.525 284.696 185.198 284.696 184.825C284.696 184.498 284.638 184.211 284.521 183.964C284.404 183.716 284.232 183.523 284.003 183.383C283.779 183.243 283.506 183.173 283.184 183.173C282.815 183.173 282.503 183.245 282.246 183.39C281.989 183.53 281.765 183.705 281.574 183.915L280.048 183.243L280.44 178.273H285.788V179.855H281.952L281.728 182.039C281.938 181.903 282.174 181.796 282.435 181.717C282.696 181.633 282.983 181.591 283.296 181.591C283.959 181.591 284.519 181.735 284.976 182.025C285.433 182.314 285.781 182.704 286.019 183.194C286.257 183.679 286.376 184.218 286.376 184.811C286.376 185.315 286.287 185.777 286.11 186.197C285.933 186.617 285.681 186.978 285.354 187.282C285.032 187.585 284.649 187.821 284.206 187.989C283.763 188.157 283.273 188.241 282.736 188.241ZM291.685 188.241C290.999 188.241 290.427 188.094 289.97 187.8C289.513 187.501 289.151 187.107 288.885 186.617C288.619 186.122 288.428 185.576 288.311 184.979C288.199 184.381 288.143 183.779 288.143 183.173C288.143 182.706 288.176 182.235 288.241 181.759C288.311 181.278 288.425 180.821 288.584 180.387C288.747 179.953 288.964 179.563 289.235 179.218C289.506 178.872 289.842 178.602 290.243 178.406C290.649 178.205 291.13 178.105 291.685 178.105C292.376 178.105 292.95 178.252 293.407 178.546C293.864 178.84 294.226 179.234 294.492 179.729C294.763 180.219 294.954 180.762 295.066 181.36C295.183 181.957 295.241 182.561 295.241 183.173C295.241 183.639 295.206 184.113 295.136 184.594C295.066 185.07 294.949 185.525 294.786 185.959C294.627 186.393 294.41 186.782 294.135 187.128C293.864 187.473 293.526 187.746 293.12 187.947C292.719 188.143 292.24 188.241 291.685 188.241ZM291.685 186.673C292.058 186.673 292.366 186.572 292.609 186.372C292.852 186.166 293.041 185.893 293.176 185.553C293.316 185.212 293.414 184.836 293.47 184.426C293.531 184.01 293.561 183.593 293.561 183.173C293.561 182.739 293.531 182.314 293.47 181.899C293.409 181.483 293.309 181.108 293.169 180.772C293.029 180.436 292.838 180.17 292.595 179.974C292.352 179.773 292.049 179.673 291.685 179.673C291.316 179.673 291.008 179.775 290.761 179.981C290.518 180.181 290.327 180.452 290.187 180.793C290.052 181.133 289.954 181.511 289.893 181.927C289.837 182.337 289.809 182.753 289.809 183.173C289.809 183.607 289.837 184.031 289.893 184.447C289.954 184.862 290.054 185.238 290.194 185.574C290.334 185.91 290.525 186.178 290.768 186.379C291.011 186.575 291.316 186.673 291.685 186.673ZM291.685 184.167C291.405 184.167 291.172 184.071 290.985 183.88C290.798 183.688 290.705 183.453 290.705 183.173C290.705 182.897 290.798 182.666 290.985 182.48C291.172 182.288 291.405 182.193 291.685 182.193C291.965 182.193 292.201 182.288 292.392 182.48C292.583 182.666 292.679 182.897 292.679 183.173C292.679 183.453 292.583 183.688 292.392 183.88C292.201 184.071 291.965 184.167 291.685 184.167Z" fill="#242D38"/>
<circle cx="48" cy="214.073" r="8" fill="#002554"/>
<path d="M66.422 213.865V210.197H69.026C69.782 210.197 70.3327 210.355 70.678 210.673C71.0327 210.981 71.21 211.433 71.21 212.031C71.21 212.628 71.0327 213.085 70.678 213.403C70.3327 213.72 69.782 213.874 69.026 213.865H66.422ZM65.092 209.077V219.073H66.422V214.985H69.474C70.482 214.994 71.2427 214.737 71.756 214.215C72.2787 213.692 72.54 212.964 72.54 212.031C72.54 211.097 72.2787 210.374 71.756 209.861C71.2427 209.338 70.482 209.077 69.474 209.077H65.092ZM79.0001 214.761H74.8421C74.8608 214.481 74.9215 214.219 75.0241 213.977C75.1268 213.725 75.2668 213.505 75.4441 213.319C75.6215 213.132 75.8315 212.987 76.0741 212.885C76.3261 212.773 76.6061 212.717 76.9141 212.717C77.2128 212.717 77.4835 212.773 77.7261 212.885C77.9781 212.987 78.1928 213.132 78.3701 213.319C78.5568 213.496 78.7015 213.711 78.8041 213.963C78.9161 214.215 78.9815 214.481 79.0001 214.761ZM80.1481 216.777H78.9721C78.8695 217.253 78.6548 217.607 78.3281 217.841C78.0108 218.074 77.6001 218.191 77.0961 218.191C76.7041 218.191 76.3635 218.125 76.0741 217.995C75.7848 217.864 75.5468 217.691 75.3601 217.477C75.1735 217.253 75.0381 217.001 74.9541 216.721C74.8701 216.431 74.8328 216.128 74.8421 215.811H80.2601C80.2788 215.372 80.2368 214.91 80.1341 214.425C80.0408 213.939 79.8635 213.491 79.6021 213.081C79.3501 212.67 79.0095 212.334 78.5801 212.073C78.1601 211.802 77.6281 211.667 76.9841 211.667C76.4895 211.667 76.0321 211.76 75.6121 211.947C75.2015 212.133 74.8421 212.395 74.5341 212.731C74.2355 213.067 74.0021 213.463 73.8341 213.921C73.6661 214.378 73.5821 214.882 73.5821 215.433C73.6008 215.983 73.6801 216.492 73.8201 216.959C73.9695 217.425 74.1888 217.827 74.4781 218.163C74.7675 218.499 75.1221 218.76 75.5421 218.947C75.9715 219.133 76.4755 219.227 77.0541 219.227C77.8755 219.227 78.5568 219.021 79.0981 218.611C79.6395 218.2 79.9895 217.589 80.1481 216.777ZM81.4517 211.835V219.073H82.6417V215.853C82.6417 215.386 82.6883 214.975 82.7817 214.621C82.875 214.257 83.0243 213.949 83.2297 213.697C83.435 213.445 83.7057 213.253 84.0417 213.123C84.3777 212.992 84.7837 212.927 85.2597 212.927V211.667C84.6157 211.648 84.0837 211.779 83.6637 212.059C83.2437 212.339 82.889 212.773 82.5997 213.361H82.5717V211.835H81.4517ZM86.8838 216.791H85.6938C85.7124 217.239 85.8058 217.621 85.9738 217.939C86.1418 218.247 86.3658 218.499 86.6458 218.695C86.9258 218.881 87.2478 219.017 87.6118 219.101C87.9758 219.185 88.3584 219.227 88.7598 219.227C89.1238 219.227 89.4878 219.189 89.8518 219.115C90.2251 219.049 90.5564 218.928 90.8458 218.751C91.1444 218.573 91.3824 218.34 91.5598 218.051C91.7464 217.761 91.8398 217.397 91.8398 216.959C91.8398 216.613 91.7698 216.324 91.6298 216.091C91.4991 215.857 91.3218 215.666 91.0978 215.517C90.8831 215.358 90.6311 215.232 90.3418 215.139C90.0618 215.045 89.7724 214.966 89.4738 214.901C89.1938 214.835 88.9138 214.775 88.6338 214.719C88.3538 214.653 88.1018 214.579 87.8778 214.495C87.6538 214.401 87.4671 214.289 87.3178 214.159C87.1778 214.019 87.1078 213.846 87.1078 213.641C87.1078 213.454 87.1544 213.305 87.2478 213.193C87.3411 213.071 87.4624 212.978 87.6118 212.913C87.7611 212.838 87.9244 212.787 88.1018 212.759C88.2884 212.731 88.4704 212.717 88.6478 212.717C88.8438 212.717 89.0351 212.74 89.2218 212.787C89.4178 212.824 89.5951 212.889 89.7538 212.983C89.9124 213.076 90.0431 213.202 90.1458 213.361C90.2484 213.51 90.3091 213.701 90.3278 213.935H91.5178C91.4898 213.496 91.3964 213.132 91.2378 212.843C91.0791 212.544 90.8644 212.311 90.5938 212.143C90.3324 211.965 90.0291 211.844 89.6838 211.779C89.3384 211.704 88.9604 211.667 88.5498 211.667C88.2324 211.667 87.9104 211.709 87.5838 211.793C87.2664 211.867 86.9771 211.989 86.7158 212.157C86.4638 212.315 86.2538 212.525 86.0858 212.787C85.9271 213.048 85.8478 213.361 85.8478 213.725C85.8478 214.191 85.9644 214.555 86.1978 214.817C86.4311 215.078 86.7204 215.283 87.0658 215.433C87.4204 215.573 87.8031 215.685 88.2138 215.769C88.6244 215.843 89.0024 215.932 89.3478 216.035C89.7024 216.128 89.9964 216.254 90.2298 216.413C90.4631 216.571 90.5798 216.805 90.5798 217.113C90.5798 217.337 90.5238 217.523 90.4118 217.673C90.2998 217.813 90.1551 217.92 89.9778 217.995C89.8098 218.069 89.6231 218.121 89.4178 218.149C89.2124 218.177 89.0164 218.191 88.8298 218.191C88.5871 218.191 88.3491 218.167 88.1158 218.121C87.8918 218.074 87.6864 217.999 87.4998 217.897C87.3224 217.785 87.1778 217.64 87.0658 217.463C86.9538 217.276 86.8931 217.052 86.8838 216.791ZM94.0238 215.461C94.0238 215.022 94.0798 214.635 94.1918 214.299C94.3131 213.953 94.4764 213.664 94.6818 213.431C94.8871 213.197 95.1251 213.02 95.3958 212.899C95.6758 212.777 95.9698 212.717 96.2778 212.717C96.5858 212.717 96.8751 212.777 97.1458 212.899C97.4258 213.02 97.6684 213.197 97.8738 213.431C98.0791 213.664 98.2378 213.953 98.3498 214.299C98.4711 214.635 98.5318 215.022 98.5318 215.461C98.5318 215.899 98.4711 216.291 98.3498 216.637C98.2378 216.973 98.0791 217.257 97.8738 217.491C97.6684 217.715 97.4258 217.887 97.1458 218.009C96.8751 218.13 96.5858 218.191 96.2778 218.191C95.9698 218.191 95.6758 218.13 95.3958 218.009C95.1251 217.887 94.8871 217.715 94.6818 217.491C94.4764 217.257 94.3131 216.973 94.1918 216.637C94.0798 216.291 94.0238 215.899 94.0238 215.461ZM92.7638 215.461C92.7638 215.993 92.8384 216.487 92.9878 216.945C93.1371 217.402 93.3611 217.803 93.6598 218.149C93.9584 218.485 94.3271 218.751 94.7658 218.947C95.2044 219.133 95.7084 219.227 96.2778 219.227C96.8564 219.227 97.3604 219.133 97.7898 218.947C98.2284 218.751 98.5971 218.485 98.8958 218.149C99.1944 217.803 99.4184 217.402 99.5678 216.945C99.7171 216.487 99.7918 215.993 99.7918 215.461C99.7918 214.929 99.7171 214.434 99.5678 213.977C99.4184 213.51 99.1944 213.109 98.8958 212.773C98.5971 212.427 98.2284 212.157 97.7898 211.961C97.3604 211.765 96.8564 211.667 96.2778 211.667C95.7084 211.667 95.2044 211.765 94.7658 211.961C94.3271 212.157 93.9584 212.427 93.6598 212.773C93.3611 213.109 93.1371 213.51 92.9878 213.977C92.8384 214.434 92.7638 214.929 92.7638 215.461ZM101.195 211.835V219.073H102.385V214.985C102.385 214.658 102.427 214.359 102.511 214.089C102.604 213.809 102.739 213.566 102.917 213.361C103.094 213.155 103.313 212.997 103.575 212.885C103.845 212.773 104.163 212.717 104.527 212.717C104.984 212.717 105.343 212.847 105.605 213.109C105.866 213.37 105.997 213.725 105.997 214.173V219.073H107.187V214.313C107.187 213.921 107.145 213.566 107.061 213.249C106.986 212.922 106.851 212.642 106.655 212.409C106.459 212.175 106.202 211.993 105.885 211.863C105.567 211.732 105.171 211.667 104.695 211.667C103.621 211.667 102.837 212.105 102.343 212.983H102.315V211.835H101.195ZM115.386 219.045C115.181 219.166 114.896 219.227 114.532 219.227C114.224 219.227 113.977 219.143 113.79 218.975C113.613 218.797 113.524 218.513 113.524 218.121C113.197 218.513 112.815 218.797 112.376 218.975C111.947 219.143 111.48 219.227 110.976 219.227C110.649 219.227 110.337 219.189 110.038 219.115C109.749 219.04 109.497 218.923 109.282 218.765C109.067 218.606 108.895 218.401 108.764 218.149C108.643 217.887 108.582 217.575 108.582 217.211C108.582 216.8 108.652 216.464 108.792 216.203C108.932 215.941 109.114 215.731 109.338 215.573C109.571 215.405 109.833 215.279 110.122 215.195C110.421 215.111 110.724 215.041 111.032 214.985C111.359 214.919 111.667 214.873 111.956 214.845C112.255 214.807 112.516 214.761 112.74 214.705C112.964 214.639 113.141 214.551 113.272 214.439C113.403 214.317 113.468 214.145 113.468 213.921C113.468 213.659 113.417 213.449 113.314 213.291C113.221 213.132 113.095 213.011 112.936 212.927C112.787 212.843 112.614 212.787 112.418 212.759C112.231 212.731 112.045 212.717 111.858 212.717C111.354 212.717 110.934 212.815 110.598 213.011C110.262 213.197 110.08 213.557 110.052 214.089H108.862C108.881 213.641 108.974 213.263 109.142 212.955C109.31 212.647 109.534 212.399 109.814 212.213C110.094 212.017 110.411 211.877 110.766 211.793C111.13 211.709 111.517 211.667 111.928 211.667C112.255 211.667 112.577 211.69 112.894 211.737C113.221 211.783 113.515 211.881 113.776 212.031C114.037 212.171 114.247 212.371 114.406 212.633C114.565 212.894 114.644 213.235 114.644 213.655V217.379C114.644 217.659 114.658 217.864 114.686 217.995C114.723 218.125 114.835 218.191 115.022 218.191C115.125 218.191 115.246 218.167 115.386 218.121V219.045ZM113.454 215.335C113.305 215.447 113.109 215.531 112.866 215.587C112.623 215.633 112.367 215.675 112.096 215.713C111.835 215.741 111.569 215.778 111.298 215.825C111.027 215.862 110.785 215.927 110.57 216.021C110.355 216.114 110.178 216.249 110.038 216.427C109.907 216.595 109.842 216.828 109.842 217.127C109.842 217.323 109.879 217.491 109.954 217.631C110.038 217.761 110.141 217.869 110.262 217.953C110.393 218.037 110.542 218.097 110.71 218.135C110.878 218.172 111.055 218.191 111.242 218.191C111.634 218.191 111.97 218.139 112.25 218.037C112.53 217.925 112.759 217.789 112.936 217.631C113.113 217.463 113.244 217.285 113.328 217.099C113.412 216.903 113.454 216.721 113.454 216.553V215.335ZM116.564 209.077V219.073H117.754V209.077H116.564ZM123.746 209.077V219.073H125.076V209.077H123.746ZM127.117 211.835V219.073H128.307V214.985C128.307 214.658 128.349 214.359 128.433 214.089C128.526 213.809 128.661 213.566 128.839 213.361C129.016 213.155 129.235 212.997 129.497 212.885C129.767 212.773 130.085 212.717 130.449 212.717C130.906 212.717 131.265 212.847 131.527 213.109C131.788 213.37 131.919 213.725 131.919 214.173V219.073H133.109V214.313C133.109 213.921 133.067 213.566 132.983 213.249C132.908 212.922 132.773 212.642 132.577 212.409C132.381 212.175 132.124 211.993 131.807 211.863C131.489 211.732 131.093 211.667 130.617 211.667C129.543 211.667 128.759 212.105 128.265 212.983H128.237V211.835H127.117ZM135.386 212.885V219.073H136.576V212.885H137.976V211.835H136.576V210.827C136.576 210.509 136.655 210.295 136.814 210.183C136.973 210.071 137.197 210.015 137.486 210.015C137.589 210.015 137.701 210.024 137.822 210.043C137.943 210.052 138.055 210.075 138.158 210.113V209.077C138.046 209.039 137.915 209.011 137.766 208.993C137.626 208.974 137.5 208.965 137.388 208.965C136.735 208.965 136.235 209.119 135.89 209.427C135.554 209.725 135.386 210.169 135.386 210.757V211.835H134.168V212.885H135.386ZM139.907 215.461C139.907 215.022 139.963 214.635 140.075 214.299C140.196 213.953 140.359 213.664 140.565 213.431C140.77 213.197 141.008 213.02 141.279 212.899C141.559 212.777 141.853 212.717 142.161 212.717C142.469 212.717 142.758 212.777 143.029 212.899C143.309 213.02 143.551 213.197 143.757 213.431C143.962 213.664 144.121 213.953 144.233 214.299C144.354 214.635 144.415 215.022 144.415 215.461C144.415 215.899 144.354 216.291 144.233 216.637C144.121 216.973 143.962 217.257 143.757 217.491C143.551 217.715 143.309 217.887 143.029 218.009C142.758 218.13 142.469 218.191 142.161 218.191C141.853 218.191 141.559 218.13 141.279 218.009C141.008 217.887 140.77 217.715 140.565 217.491C140.359 217.257 140.196 216.973 140.075 216.637C139.963 216.291 139.907 215.899 139.907 215.461ZM138.647 215.461C138.647 215.993 138.721 216.487 138.871 216.945C139.02 217.402 139.244 217.803 139.543 218.149C139.841 218.485 140.21 218.751 140.649 218.947C141.087 219.133 141.591 219.227 142.161 219.227C142.739 219.227 143.243 219.133 143.673 218.947C144.111 218.751 144.48 218.485 144.779 218.149C145.077 217.803 145.301 217.402 145.451 216.945C145.6 216.487 145.675 215.993 145.675 215.461C145.675 214.929 145.6 214.434 145.451 213.977C145.301 213.51 145.077 213.109 144.779 212.773C144.48 212.427 144.111 212.157 143.673 211.961C143.243 211.765 142.739 211.667 142.161 211.667C141.591 211.667 141.087 211.765 140.649 211.961C140.21 212.157 139.841 212.427 139.543 212.773C139.244 213.109 139.02 213.51 138.871 213.977C138.721 214.434 138.647 214.929 138.647 215.461ZM147.036 211.835V219.073H148.226V215.853C148.226 215.386 148.272 214.975 148.366 214.621C148.459 214.257 148.608 213.949 148.814 213.697C149.019 213.445 149.29 213.253 149.626 213.123C149.962 212.992 150.368 212.927 150.844 212.927V211.667C150.2 211.648 149.668 211.779 149.248 212.059C148.828 212.339 148.473 212.773 148.184 213.361H148.156V211.835H147.036ZM151.74 211.835V219.073H152.93V214.565C152.93 214.425 152.962 214.252 153.028 214.047C153.102 213.832 153.214 213.627 153.364 213.431C153.522 213.235 153.723 213.067 153.966 212.927C154.218 212.787 154.516 212.717 154.862 212.717C155.132 212.717 155.352 212.759 155.52 212.843C155.697 212.917 155.837 213.029 155.94 213.179C156.042 213.319 156.112 213.487 156.15 213.683C156.196 213.879 156.22 214.093 156.22 214.327V219.073H157.41V214.565C157.41 214.005 157.578 213.557 157.914 213.221C158.25 212.885 158.712 212.717 159.3 212.717C159.589 212.717 159.822 212.759 160 212.843C160.186 212.927 160.331 213.043 160.434 213.193C160.536 213.333 160.606 213.501 160.644 213.697C160.681 213.893 160.7 214.103 160.7 214.327V219.073H161.89V213.767C161.89 213.393 161.829 213.076 161.708 212.815C161.596 212.544 161.432 212.325 161.218 212.157C161.012 211.989 160.76 211.867 160.462 211.793C160.172 211.709 159.846 211.667 159.482 211.667C159.006 211.667 158.567 211.774 158.166 211.989C157.774 212.203 157.456 212.507 157.214 212.899C157.064 212.451 156.808 212.133 156.444 211.947C156.08 211.76 155.674 211.667 155.226 211.667C154.208 211.667 153.429 212.077 152.888 212.899H152.86V211.835H151.74ZM170.087 219.045C169.882 219.166 169.597 219.227 169.233 219.227C168.925 219.227 168.678 219.143 168.491 218.975C168.314 218.797 168.225 218.513 168.225 218.121C167.899 218.513 167.516 218.797 167.077 218.975C166.648 219.143 166.181 219.227 165.677 219.227C165.351 219.227 165.038 219.189 164.739 219.115C164.45 219.04 164.198 218.923 163.983 218.765C163.769 218.606 163.596 218.401 163.465 218.149C163.344 217.887 163.283 217.575 163.283 217.211C163.283 216.8 163.353 216.464 163.493 216.203C163.633 215.941 163.815 215.731 164.039 215.573C164.273 215.405 164.534 215.279 164.823 215.195C165.122 215.111 165.425 215.041 165.733 214.985C166.06 214.919 166.368 214.873 166.657 214.845C166.956 214.807 167.217 214.761 167.441 214.705C167.665 214.639 167.843 214.551 167.973 214.439C168.104 214.317 168.169 214.145 168.169 213.921C168.169 213.659 168.118 213.449 168.015 213.291C167.922 213.132 167.796 213.011 167.637 212.927C167.488 212.843 167.315 212.787 167.119 212.759C166.933 212.731 166.746 212.717 166.559 212.717C166.055 212.717 165.635 212.815 165.299 213.011C164.963 213.197 164.781 213.557 164.753 214.089H163.563C163.582 213.641 163.675 213.263 163.843 212.955C164.011 212.647 164.235 212.399 164.515 212.213C164.795 212.017 165.113 211.877 165.467 211.793C165.831 211.709 166.219 211.667 166.629 211.667C166.956 211.667 167.278 211.69 167.595 211.737C167.922 211.783 168.216 211.881 168.477 212.031C168.739 212.171 168.949 212.371 169.107 212.633C169.266 212.894 169.345 213.235 169.345 213.655V217.379C169.345 217.659 169.359 217.864 169.387 217.995C169.425 218.125 169.537 218.191 169.723 218.191C169.826 218.191 169.947 218.167 170.087 218.121V219.045ZM168.155 215.335C168.006 215.447 167.81 215.531 167.567 215.587C167.325 215.633 167.068 215.675 166.797 215.713C166.536 215.741 166.27 215.778 165.999 215.825C165.729 215.862 165.486 215.927 165.271 216.021C165.057 216.114 164.879 216.249 164.739 216.427C164.609 216.595 164.543 216.828 164.543 217.127C164.543 217.323 164.581 217.491 164.655 217.631C164.739 217.761 164.842 217.869 164.963 217.953C165.094 218.037 165.243 218.097 165.411 218.135C165.579 218.172 165.757 218.191 165.943 218.191C166.335 218.191 166.671 218.139 166.951 218.037C167.231 217.925 167.46 217.789 167.637 217.631C167.815 217.463 167.945 217.285 168.029 217.099C168.113 216.903 168.155 216.721 168.155 216.553V215.335ZM172.847 211.835V209.665H171.657V211.835H170.425V212.885H171.657V217.491C171.657 217.827 171.689 218.097 171.755 218.303C171.82 218.508 171.918 218.667 172.049 218.779C172.189 218.891 172.366 218.97 172.581 219.017C172.805 219.054 173.071 219.073 173.379 219.073H174.289V218.023H173.743C173.556 218.023 173.402 218.018 173.281 218.009C173.169 217.99 173.08 217.957 173.015 217.911C172.949 217.864 172.903 217.799 172.875 217.715C172.856 217.631 172.847 217.519 172.847 217.379V212.885H174.289V211.835H172.847ZM176.871 210.533V209.077H175.681V210.533H176.871ZM175.681 211.835V219.073H176.871V211.835H175.681ZM179.582 215.461C179.582 215.022 179.638 214.635 179.75 214.299C179.872 213.953 180.035 213.664 180.24 213.431C180.446 213.197 180.684 213.02 180.954 212.899C181.234 212.777 181.528 212.717 181.836 212.717C182.144 212.717 182.434 212.777 182.704 212.899C182.984 213.02 183.227 213.197 183.432 213.431C183.638 213.664 183.796 213.953 183.908 214.299C184.03 214.635 184.09 215.022 184.09 215.461C184.09 215.899 184.03 216.291 183.908 216.637C183.796 216.973 183.638 217.257 183.432 217.491C183.227 217.715 182.984 217.887 182.704 218.009C182.434 218.13 182.144 218.191 181.836 218.191C181.528 218.191 181.234 218.13 180.954 218.009C180.684 217.887 180.446 217.715 180.24 217.491C180.035 217.257 179.872 216.973 179.75 216.637C179.638 216.291 179.582 215.899 179.582 215.461ZM178.322 215.461C178.322 215.993 178.397 216.487 178.546 216.945C178.696 217.402 178.92 217.803 179.218 218.149C179.517 218.485 179.886 218.751 180.324 218.947C180.763 219.133 181.267 219.227 181.836 219.227C182.415 219.227 182.919 219.133 183.348 218.947C183.787 218.751 184.156 218.485 184.454 218.149C184.753 217.803 184.977 217.402 185.126 216.945C185.276 216.487 185.35 215.993 185.35 215.461C185.35 214.929 185.276 214.434 185.126 213.977C184.977 213.51 184.753 213.109 184.454 212.773C184.156 212.427 183.787 212.157 183.348 211.961C182.919 211.765 182.415 211.667 181.836 211.667C181.267 211.667 180.763 211.765 180.324 211.961C179.886 212.157 179.517 212.427 179.218 212.773C178.92 213.109 178.696 213.51 178.546 213.977C178.397 214.434 178.322 214.929 178.322 215.461ZM186.753 211.835V219.073H187.943V214.985C187.943 214.658 187.985 214.359 188.069 214.089C188.163 213.809 188.298 213.566 188.475 213.361C188.653 213.155 188.872 212.997 189.133 212.885C189.404 212.773 189.721 212.717 190.085 212.717C190.543 212.717 190.902 212.847 191.163 213.109C191.425 213.37 191.555 213.725 191.555 214.173V219.073H192.745V214.313C192.745 213.921 192.703 213.566 192.619 213.249C192.545 212.922 192.409 212.642 192.213 212.409C192.017 212.175 191.761 211.993 191.443 211.863C191.126 211.732 190.729 211.667 190.253 211.667C189.18 211.667 188.396 212.105 187.901 212.983H187.873V211.835H186.753Z" fill="#727372"/>
<path d="M239.153 219.389V218.143C238.519 217.993 237.982 217.709 237.543 217.289C237.105 216.869 236.783 216.355 236.577 215.749L238.103 215.189C238.295 215.623 238.561 215.98 238.901 216.26C239.247 216.535 239.639 216.673 240.077 216.673C240.525 216.673 240.885 216.558 241.155 216.33C241.426 216.096 241.561 215.763 241.561 215.329C241.561 215.016 241.473 214.755 241.295 214.545C241.118 214.335 240.885 214.155 240.595 214.006C240.311 213.856 240.003 213.719 239.671 213.593C239.349 213.471 239.027 213.336 238.705 213.187C238.383 213.033 238.089 212.848 237.823 212.634C237.557 212.414 237.343 212.146 237.179 211.829C237.021 211.507 236.941 211.115 236.941 210.653C236.941 210.065 237.13 209.54 237.508 209.078C237.891 208.611 238.439 208.315 239.153 208.189V207.069H240.777V208.203C241.337 208.329 241.792 208.571 242.142 208.931C242.492 209.285 242.737 209.701 242.877 210.177L241.379 210.681C241.267 210.405 241.085 210.17 240.833 209.974C240.581 209.773 240.255 209.673 239.853 209.673C239.475 209.673 239.177 209.759 238.957 209.932C238.743 210.104 238.635 210.345 238.635 210.653C238.635 210.9 238.715 211.108 238.873 211.276C239.032 211.444 239.244 211.591 239.51 211.717C239.776 211.843 240.068 211.964 240.385 212.081C240.717 212.202 241.05 212.344 241.386 212.508C241.727 212.666 242.037 212.867 242.317 213.11C242.602 213.348 242.831 213.646 243.003 214.006C243.181 214.365 243.269 214.801 243.269 215.315C243.269 215.851 243.16 216.32 242.94 216.722C242.721 217.118 242.422 217.44 242.044 217.688C241.671 217.93 241.249 218.091 240.777 218.171V219.389H239.153ZM247.738 218.073V210.387L245.61 210.961V209.393L249.404 208.259V218.073H247.738ZM245.302 218.073V216.477H251.798V218.073H245.302ZM255.315 218.241V216.701C255.824 216.645 256.312 216.507 256.778 216.288C257.245 216.064 257.651 215.746 257.996 215.336C258.346 214.92 258.596 214.395 258.745 213.761C258.559 213.947 258.309 214.101 257.996 214.223C257.688 214.344 257.331 214.405 256.925 214.405C256.309 214.405 255.759 214.276 255.273 214.02C254.793 213.758 254.412 213.394 254.132 212.928C253.857 212.461 253.719 211.913 253.719 211.283C253.719 210.648 253.869 210.093 254.167 209.617C254.466 209.141 254.877 208.77 255.399 208.504C255.922 208.238 256.519 208.105 257.191 208.105C257.98 208.105 258.626 208.27 259.13 208.602C259.639 208.933 260.015 209.386 260.257 209.96C260.5 210.529 260.621 211.175 260.621 211.899C260.621 212.781 260.509 213.595 260.285 214.342C260.061 215.084 259.728 215.735 259.284 216.295C258.841 216.855 258.288 217.303 257.625 217.639C256.963 217.975 256.193 218.175 255.315 218.241ZM257.163 212.865C257.527 212.865 257.845 212.799 258.115 212.669C258.386 212.538 258.596 212.351 258.745 212.109C258.895 211.866 258.969 211.577 258.969 211.241C258.969 210.928 258.892 210.653 258.738 210.415C258.589 210.172 258.379 209.983 258.108 209.848C257.842 209.712 257.532 209.645 257.177 209.645C256.809 209.645 256.489 209.712 256.218 209.848C255.948 209.983 255.738 210.172 255.588 210.415C255.444 210.653 255.371 210.928 255.371 211.241C255.371 211.745 255.532 212.141 255.854 212.431C256.176 212.72 256.613 212.865 257.163 212.865ZM265.356 220.677L264.642 220.215C264.81 220.037 264.992 219.774 265.188 219.424C265.389 219.074 265.51 218.675 265.552 218.227C265.31 218.171 265.111 218.056 264.957 217.884C264.803 217.711 264.726 217.485 264.726 217.205C264.726 216.859 264.836 216.586 265.055 216.386C265.279 216.185 265.534 216.085 265.818 216.085C266.136 216.085 266.406 216.197 266.63 216.421C266.854 216.645 266.966 216.985 266.966 217.443C266.966 217.942 266.88 218.406 266.707 218.836C266.539 219.265 266.332 219.638 266.084 219.956C265.837 220.273 265.594 220.513 265.356 220.677ZM274.459 218.241C273.68 218.241 273.026 218.075 272.499 217.744C271.976 217.408 271.582 216.955 271.316 216.386C271.05 215.816 270.917 215.175 270.917 214.461C270.917 213.691 271.031 212.96 271.26 212.27C271.489 211.574 271.834 210.944 272.296 210.38C272.763 209.81 273.348 209.33 274.053 208.938C274.758 208.546 275.584 208.268 276.531 208.105V209.645C276.027 209.743 275.535 209.915 275.054 210.163C274.578 210.41 274.158 210.73 273.794 211.122C273.43 211.509 273.166 211.964 273.003 212.487C273.194 212.309 273.435 212.165 273.724 212.053C274.018 211.941 274.356 211.885 274.739 211.885C275.36 211.885 275.91 212.022 276.391 212.298C276.876 212.573 277.257 212.951 277.532 213.432C277.807 213.908 277.945 214.447 277.945 215.049C277.945 215.674 277.793 216.227 277.49 216.708C277.191 217.188 276.778 217.564 276.251 217.835C275.728 218.105 275.131 218.241 274.459 218.241ZM274.459 216.673C274.814 216.673 275.129 216.607 275.404 216.477C275.679 216.346 275.896 216.162 276.055 215.924C276.214 215.686 276.293 215.403 276.293 215.077C276.293 214.577 276.123 214.181 275.782 213.887C275.441 213.588 275 213.439 274.459 213.439C274.1 213.439 273.78 213.509 273.5 213.649C273.225 213.784 273.008 213.975 272.849 214.223C272.69 214.465 272.611 214.75 272.611 215.077C272.611 215.403 272.69 215.686 272.849 215.924C273.012 216.162 273.232 216.346 273.507 216.477C273.787 216.607 274.104 216.673 274.459 216.673ZM283.058 218.241C282.493 218.241 281.992 218.145 281.553 217.954C281.119 217.762 280.748 217.494 280.44 217.149C280.132 216.803 279.889 216.402 279.712 215.945L281.21 215.329C281.434 215.805 281.705 216.148 282.022 216.358C282.344 216.568 282.703 216.673 283.1 216.673C283.408 216.673 283.686 216.619 283.933 216.512C284.18 216.4 284.376 216.239 284.521 216.029C284.666 215.814 284.738 215.553 284.738 215.245C284.738 214.825 284.6 214.475 284.325 214.195C284.054 213.915 283.632 213.775 283.058 213.775H282.176V212.193H283.016C283.431 212.193 283.763 212.078 284.01 211.85C284.262 211.621 284.388 211.315 284.388 210.933C284.388 210.559 284.269 210.256 284.031 210.023C283.793 209.789 283.473 209.673 283.072 209.673C282.806 209.673 282.575 209.722 282.379 209.82C282.183 209.918 282.015 210.046 281.875 210.205C281.735 210.363 281.616 210.536 281.518 210.723L280.02 210.149C280.188 209.757 280.414 209.407 280.699 209.099C280.988 208.791 281.331 208.548 281.728 208.371C282.125 208.193 282.573 208.105 283.072 208.105C283.655 208.105 284.171 208.221 284.619 208.455C285.067 208.683 285.417 208.998 285.669 209.4C285.926 209.801 286.054 210.256 286.054 210.765C286.054 211.227 285.947 211.64 285.732 212.004C285.517 212.368 285.223 212.659 284.85 212.879C285.298 213.051 285.671 213.341 285.97 213.747C286.269 214.153 286.418 214.647 286.418 215.231C286.418 215.856 286.273 216.395 285.984 216.848C285.699 217.296 285.303 217.641 284.794 217.884C284.29 218.122 283.711 218.241 283.058 218.241ZM290.873 218.073V210.387L288.745 210.961V209.393L292.539 208.259V218.073H290.873ZM288.437 218.073V216.477H294.933V218.073H288.437Z" fill="#242D38"/>
<path d="M735.568 193.073V179.585H730.768V176.273H743.836V179.585H739.024V193.073H735.568ZM751.549 193.361C750.205 193.361 749.061 193.109 748.117 192.605C747.173 192.093 746.409 191.417 745.825 190.577C745.249 189.729 744.825 188.793 744.553 187.769C744.289 186.745 744.157 185.713 744.157 184.673C744.157 183.633 744.289 182.601 744.553 181.577C744.825 180.553 745.249 179.621 745.825 178.781C746.409 177.933 747.173 177.257 748.117 176.753C749.061 176.241 750.205 175.985 751.549 175.985C752.909 175.985 754.057 176.241 754.993 176.753C755.929 177.257 756.685 177.933 757.261 178.781C757.845 179.621 758.269 180.553 758.533 181.577C758.797 182.601 758.929 183.633 758.929 184.673C758.929 185.713 758.797 186.745 758.533 187.769C758.269 188.793 757.845 189.729 757.261 190.577C756.685 191.417 755.929 192.093 754.993 192.605C754.057 193.109 752.909 193.361 751.549 193.361ZM751.549 190.025C752.253 190.025 752.845 189.861 753.325 189.533C753.813 189.205 754.205 188.773 754.501 188.237C754.797 187.693 755.013 187.109 755.149 186.485C755.285 185.861 755.353 185.257 755.353 184.673C755.353 184.049 755.289 183.421 755.161 182.789C755.033 182.157 754.821 181.577 754.525 181.049C754.237 180.521 753.849 180.097 753.361 179.777C752.873 179.457 752.269 179.297 751.549 179.297C750.829 179.297 750.225 179.465 749.737 179.801C749.249 180.129 748.857 180.561 748.561 181.097C748.265 181.633 748.053 182.217 747.925 182.849C747.797 183.481 747.733 184.089 747.733 184.673C747.733 185.289 747.797 185.913 747.925 186.545C748.061 187.169 748.277 187.745 748.573 188.273C748.877 188.801 749.273 189.225 749.761 189.545C750.249 189.865 750.845 190.025 751.549 190.025ZM764.059 193.073V179.585H759.259V176.273H772.327V179.585H767.515V193.073H764.059ZM769.96 193.073L776.512 176.273H779.8L786.364 193.073H782.608L781.324 189.701H774.976L773.716 193.073H769.96ZM776.128 186.521H780.16L778.636 182.597C778.588 182.477 778.532 182.341 778.468 182.189C778.404 182.029 778.344 181.869 778.288 181.709C778.232 181.549 778.184 181.405 778.144 181.277C778.104 181.405 778.056 181.549 778 181.709C777.944 181.869 777.884 182.029 777.82 182.189C777.756 182.341 777.7 182.477 777.652 182.597L776.128 186.521ZM787.447 193.073V176.273H790.903V189.737H798.979V193.073H787.447Z" fill="#337975"/>
<path d="M710.67 224.141V222.183C709.672 221.948 708.829 221.501 708.14 220.841C707.45 220.181 706.944 219.374 706.622 218.421L709.02 217.541C709.32 218.223 709.738 218.784 710.274 219.224C710.816 219.656 711.432 219.873 712.122 219.873C712.826 219.873 713.39 219.693 713.816 219.334C714.241 218.967 714.454 218.443 714.454 217.761C714.454 217.269 714.314 216.859 714.036 216.529C713.757 216.199 713.39 215.916 712.936 215.682C712.488 215.447 712.004 215.231 711.484 215.033C710.978 214.842 710.472 214.629 709.966 214.395C709.46 214.153 708.998 213.863 708.58 213.526C708.162 213.181 707.824 212.759 707.568 212.261C707.318 211.755 707.194 211.139 707.194 210.413C707.194 209.489 707.491 208.664 708.085 207.938C708.686 207.204 709.548 206.739 710.67 206.541V204.781H713.222V206.563C714.102 206.761 714.817 207.142 715.367 207.707C715.917 208.264 716.302 208.917 716.522 209.665L714.168 210.457C713.992 210.024 713.706 209.654 713.31 209.346C712.914 209.03 712.4 208.873 711.77 208.873C711.176 208.873 710.706 209.008 710.362 209.28C710.024 209.551 709.856 209.929 709.856 210.413C709.856 210.801 709.98 211.128 710.23 211.392C710.479 211.656 710.813 211.887 711.231 212.085C711.649 212.283 712.107 212.473 712.606 212.657C713.126 212.847 713.651 213.071 714.179 213.328C714.714 213.577 715.202 213.892 715.642 214.274C716.089 214.648 716.448 215.117 716.72 215.682C716.998 216.246 717.138 216.932 717.138 217.739C717.138 218.582 716.965 219.319 716.621 219.95C716.276 220.573 715.807 221.079 715.213 221.468C714.626 221.849 713.962 222.102 713.222 222.227V224.141H710.67ZM720.266 222.073C720.266 220.965 720.402 219.994 720.673 219.158C720.944 218.314 721.315 217.577 721.784 216.947C722.261 216.309 722.803 215.748 723.412 215.264C724.028 214.78 724.673 214.343 725.348 213.955C725.781 213.705 726.184 213.438 726.558 213.152C726.932 212.866 727.233 212.547 727.46 212.195C727.695 211.835 727.812 211.425 727.812 210.963C727.812 210.325 727.614 209.819 727.218 209.445C726.822 209.063 726.287 208.873 725.612 208.873C724.901 208.873 724.31 209.045 723.841 209.39C723.379 209.734 723.031 210.2 722.796 210.787L720.464 209.731C720.721 209.071 721.098 208.491 721.597 207.993C722.096 207.494 722.682 207.105 723.357 206.827C724.039 206.548 724.776 206.409 725.568 206.409C726.595 206.409 727.471 206.607 728.197 207.003C728.93 207.391 729.488 207.927 729.869 208.609C730.258 209.283 730.452 210.046 730.452 210.897C730.452 211.835 730.276 212.616 729.924 213.24C729.572 213.856 729.095 214.391 728.494 214.846C727.893 215.3 727.218 215.744 726.47 216.177C725.935 216.485 725.451 216.811 725.018 217.156C724.585 217.5 724.222 217.874 723.929 218.278C723.636 218.674 723.434 219.103 723.324 219.565H730.584V222.073H720.266ZM733.823 222.073C733.823 220.965 733.958 219.994 734.23 219.158C734.501 218.314 734.871 217.577 735.341 216.947C735.817 216.309 736.36 215.748 736.969 215.264C737.585 214.78 738.23 214.343 738.905 213.955C739.337 213.705 739.741 213.438 740.115 213.152C740.489 212.866 740.789 212.547 741.017 212.195C741.251 211.835 741.369 211.425 741.369 210.963C741.369 210.325 741.171 209.819 740.775 209.445C740.379 209.063 739.843 208.873 739.169 208.873C738.457 208.873 737.867 209.045 737.398 209.39C736.936 209.734 736.587 210.2 736.353 210.787L734.021 209.731C734.277 209.071 734.655 208.491 735.154 207.993C735.652 207.494 736.239 207.105 736.914 206.827C737.596 206.548 738.333 206.409 739.125 206.409C740.151 206.409 741.028 206.607 741.754 207.003C742.487 207.391 743.044 207.927 743.426 208.609C743.814 209.283 744.009 210.046 744.009 210.897C744.009 211.835 743.833 212.616 743.481 213.24C743.129 213.856 742.652 214.391 742.051 214.846C741.449 215.3 740.775 215.744 740.027 216.177C739.491 216.485 739.007 216.811 738.575 217.156C738.142 217.5 737.779 217.874 737.486 218.278C737.192 218.674 736.991 219.103 736.881 219.565H744.141V222.073H733.823ZM751.845 226.165L750.723 225.439C750.987 225.16 751.273 224.746 751.581 224.196C751.897 223.646 752.087 223.019 752.153 222.315C751.772 222.227 751.46 222.047 751.218 221.776C750.976 221.504 750.855 221.149 750.855 220.709C750.855 220.166 751.028 219.737 751.372 219.422C751.724 219.106 752.124 218.949 752.571 218.949C753.07 218.949 753.495 219.125 753.847 219.477C754.199 219.829 754.375 220.364 754.375 221.083C754.375 221.867 754.24 222.597 753.968 223.272C753.704 223.946 753.378 224.533 752.989 225.032C752.601 225.53 752.219 225.908 751.845 226.165ZM766.106 222.337C765.219 222.337 764.43 222.186 763.741 221.886C763.059 221.585 762.476 221.163 761.992 220.621C761.508 220.078 761.127 219.447 760.848 218.729L763.202 217.761C763.554 218.509 763.979 219.048 764.478 219.378C764.984 219.708 765.549 219.873 766.172 219.873C766.656 219.873 767.092 219.788 767.481 219.62C767.87 219.444 768.178 219.191 768.405 218.861C768.632 218.523 768.746 218.113 768.746 217.629C768.746 216.969 768.53 216.419 768.097 215.979C767.672 215.539 767.008 215.319 766.106 215.319H764.72V212.833H766.04C766.693 212.833 767.213 212.653 767.602 212.294C767.998 211.934 768.196 211.454 768.196 210.853C768.196 210.266 768.009 209.789 767.635 209.423C767.261 209.056 766.759 208.873 766.128 208.873C765.71 208.873 765.347 208.95 765.039 209.104C764.731 209.258 764.467 209.459 764.247 209.709C764.027 209.958 763.84 210.229 763.686 210.523L761.332 209.621C761.596 209.005 761.952 208.455 762.399 207.971C762.854 207.487 763.393 207.105 764.016 206.827C764.639 206.548 765.343 206.409 766.128 206.409C767.045 206.409 767.855 206.592 768.559 206.959C769.263 207.318 769.813 207.813 770.209 208.444C770.612 209.074 770.814 209.789 770.814 210.589C770.814 211.315 770.645 211.964 770.308 212.536C769.971 213.108 769.509 213.566 768.922 213.911C769.626 214.182 770.213 214.637 770.682 215.275C771.151 215.913 771.386 216.69 771.386 217.607C771.386 218.589 771.159 219.436 770.704 220.148C770.257 220.852 769.633 221.394 768.834 221.776C768.042 222.15 767.133 222.337 766.106 222.337ZM779.641 222.337C778.519 222.337 777.54 222.131 776.704 221.721C775.875 221.31 775.23 220.742 774.768 220.016C774.306 219.29 774.075 218.45 774.075 217.497C774.075 216.595 774.324 215.81 774.823 215.143C775.321 214.468 775.989 213.962 776.825 213.625C776.253 213.346 775.758 212.939 775.34 212.404C774.922 211.861 774.713 211.212 774.713 210.457C774.713 209.679 774.914 208.986 775.318 208.378C775.721 207.769 776.289 207.289 777.023 206.937C777.763 206.585 778.636 206.409 779.641 206.409C780.653 206.409 781.529 206.585 782.27 206.937C783.018 207.289 783.593 207.769 783.997 208.378C784.407 208.986 784.613 209.679 784.613 210.457C784.613 211.205 784.4 211.85 783.975 212.393C783.557 212.935 783.051 213.339 782.457 213.603C783.285 213.94 783.956 214.45 784.47 215.132C784.99 215.814 785.251 216.602 785.251 217.497C785.251 218.45 785.02 219.29 784.558 220.016C784.096 220.742 783.443 221.31 782.6 221.721C781.764 222.131 780.777 222.337 779.641 222.337ZM779.641 219.983C780.499 219.983 781.206 219.748 781.764 219.279C782.328 218.802 782.611 218.179 782.611 217.409C782.611 216.925 782.482 216.492 782.226 216.111C781.976 215.722 781.628 215.418 781.181 215.198C780.733 214.97 780.22 214.857 779.641 214.857C779.054 214.857 778.537 214.97 778.09 215.198C777.65 215.418 777.305 215.722 777.056 216.111C776.814 216.492 776.693 216.925 776.693 217.409C776.693 218.179 776.968 218.802 777.518 219.279C778.068 219.748 778.775 219.983 779.641 219.983ZM779.641 212.547C780.359 212.547 780.935 212.367 781.368 212.008C781.8 211.641 782.017 211.19 782.017 210.655C782.017 210.083 781.793 209.621 781.346 209.269C780.906 208.917 780.337 208.741 779.641 208.741C778.937 208.741 778.372 208.917 777.947 209.269C777.521 209.621 777.309 210.083 777.309 210.655C777.309 211.19 777.518 211.641 777.936 212.008C778.361 212.367 778.929 212.547 779.641 212.547ZM791.943 222.073V209.995L788.599 210.897V208.433L794.561 206.651V222.073H791.943ZM788.115 222.073V219.565H798.323V222.073H788.115Z" fill="#337975"/>
</svg>
