<svg width="65" height="64" viewBox="0 0 65 64" fill="none" xmlns="http://www.w3.org/2000/svg">
<path d="M14.2002 40V63" stroke="#00A19C" stroke-width="2" stroke-linejoin="round"/>
<path d="M14.2002 16V18" stroke="#00A19C" stroke-width="2" stroke-linejoin="round"/>
<path d="M8.2002 42V63" stroke="#00A19C" stroke-width="2" stroke-linejoin="round"/>
<path d="M20.2002 37V63" stroke="#00A19C" stroke-width="2" stroke-linejoin="round"/>
<path d="M14.2002 9C16.4093 9 18.2002 7.20914 18.2002 5C18.2002 2.79086 16.4093 1 14.2002 1C11.9911 1 10.2002 2.79086 10.2002 5C10.2002 7.20914 11.9911 9 14.2002 9Z" stroke="#00A19C" stroke-width="2" stroke-linejoin="round"/>
<path d="M8.2002 33H18.2002" stroke="#00A19C" stroke-width="2" stroke-linejoin="round"/>
<path d="M32.2002 40V63" stroke="#00A19C" stroke-width="2" stroke-linejoin="round"/>
<path d="M32.2002 16V18" stroke="#00A19C" stroke-width="2" stroke-linejoin="round"/>
<path d="M32.2002 20V22" stroke="#00A19C" stroke-width="2" stroke-linejoin="round"/>
<path d="M38.2002 37V63" stroke="#00A19C" stroke-width="2" stroke-linejoin="round"/>
<path d="M26.2002 37V63" stroke="#00A19C" stroke-width="2" stroke-linejoin="round"/>
<path d="M32.2002 9C34.4093 9 36.2002 7.20914 36.2002 5C36.2002 2.79086 34.4093 1 32.2002 1C29.9911 1 28.2002 2.79086 28.2002 5C28.2002 7.20914 29.9911 9 32.2002 9Z" stroke="#00A19C" stroke-width="2" stroke-linejoin="round"/>
<path d="M39.2002 33H25.2002" stroke="#00A19C" stroke-width="2" stroke-linejoin="round"/>
<path d="M8.2002 37H21.2002V21C21.2002 19.34 22.5402 18 24.2002 18" stroke="#00A19C" stroke-width="2" stroke-linejoin="round"/>
<path d="M50.2002 40V63" stroke="#00A19C" stroke-width="2" stroke-linejoin="round"/>
<path d="M50.2002 16V18" stroke="#00A19C" stroke-width="2" stroke-linejoin="round"/>
<path d="M56.2002 42V63" stroke="#00A19C" stroke-width="2" stroke-linejoin="round"/>
<path d="M44.2002 37V63" stroke="#00A19C" stroke-width="2" stroke-linejoin="round"/>
<path d="M50.2002 9C52.4093 9 54.2002 7.20914 54.2002 5C54.2002 2.79086 52.4093 1 50.2002 1C47.9911 1 46.2002 2.79086 46.2002 5C46.2002 7.20914 47.9911 9 50.2002 9Z" stroke="#00A19C" stroke-width="2" stroke-linejoin="round"/>
<path d="M56.2002 33H46.2002" stroke="#00A19C" stroke-width="2" stroke-linejoin="round"/>
<path d="M56.2002 21V39H61.2002V17C61.2002 14.79 59.4102 13 57.2002 13H7.2002C4.9902 13 3.2002 14.79 3.2002 17V39H8.2002V21" stroke="#00A19C" stroke-width="2" stroke-linejoin="round"/>
<path d="M56.2002 37H43.2002V21C43.2002 19.34 41.8602 18 40.2002 18" stroke="#00A19C" stroke-width="2" stroke-linejoin="round"/>
<path d="M21.2002 22H22.2002C23.8602 22 25.2002 23.34 25.2002 25V37H39.2002V25C39.2002 23.34 40.5402 22 42.2002 22H43.2002" stroke="#00A19C" stroke-width="2" stroke-linejoin="round"/>
<path d="M2.2002 63H62.2002" stroke="#00A19C" stroke-width="2" stroke-linejoin="round"/>
</svg>
