<svg width="65" height="64" viewBox="0 0 65 64" fill="none" xmlns="http://www.w3.org/2000/svg">
<g clip-path="url(#clip0_2250_9226)">
<path d="M43.6001 23L63.6001 57V58" stroke="#00A19C" stroke-width="2" stroke-linejoin="round"/>
<path d="M1.6001 59V58L21.6001 23" stroke="#00A19C" stroke-width="2" stroke-linejoin="round"/>
<path d="M39.6001 52H59.6001" stroke="#00A19C" stroke-width="2" stroke-linejoin="round"/>
<path d="M5.6001 52H25.6001" stroke="#00A19C" stroke-width="2" stroke-linejoin="round"/>
<path d="M39.6001 46H56.6001" stroke="#00A19C" stroke-width="2" stroke-linejoin="round"/>
<path d="M8.6001 46H25.6001" stroke="#00A19C" stroke-width="2" stroke-linejoin="round"/>
<path d="M39.6001 40H53.6001" stroke="#00A19C" stroke-width="2" stroke-linejoin="round"/>
<path d="M11.6001 40H25.6001" stroke="#00A19C" stroke-width="2" stroke-linejoin="round"/>
<path d="M39.6001 34H49.6001" stroke="#00A19C" stroke-width="2" stroke-linejoin="round"/>
<path d="M15.6001 34H25.6001" stroke="#00A19C" stroke-width="2" stroke-linejoin="round"/>
<path d="M39.6001 28H46.6001" stroke="#00A19C" stroke-width="2" stroke-linejoin="round"/>
<path d="M18.6001 28H25.6001" stroke="#00A19C" stroke-width="2" stroke-linejoin="round"/>
<path d="M36.6001 59V20H41.6001L32.6001 4L23.6001 20H28.6001V59" stroke="#00A19C" stroke-width="2" stroke-linejoin="round"/>
<path d="M31.6001 54H33.6001" stroke="#00A19C" stroke-width="2" stroke-linejoin="round"/>
<path d="M31.6001 58H33.6001" stroke="#00A19C" stroke-width="2" stroke-linejoin="round"/>
<path d="M31.6001 50H33.6001" stroke="#00A19C" stroke-width="2" stroke-linejoin="round"/>
<path d="M31.6001 46H33.6001" stroke="#00A19C" stroke-width="2" stroke-linejoin="round"/>
<path d="M31.6001 42H33.6001" stroke="#00A19C" stroke-width="2" stroke-linejoin="round"/>
<path d="M31.6001 38H33.6001" stroke="#00A19C" stroke-width="2" stroke-linejoin="round"/>
<path d="M31.6001 34H33.6001" stroke="#00A19C" stroke-width="2" stroke-linejoin="round"/>
<path d="M31.6001 26H33.6001" stroke="#00A19C" stroke-width="2" stroke-linejoin="round"/>
<path d="M31.6001 22H33.6001" stroke="#00A19C" stroke-width="2" stroke-linejoin="round"/>
<path d="M31.6001 30H33.6001" stroke="#00A19C" stroke-width="2" stroke-linejoin="round"/>
</g>
<defs>
<clipPath id="clip0_2250_9226">
<rect width="64" height="64" fill="white" transform="translate(0.600098)"/>
</clipPath>
</defs>
</svg>
