<svg width="277" height="96" viewBox="0 0 277 96" fill="none" xmlns="http://www.w3.org/2000/svg">
<path d="M42.7581 60.4979L39.3205 60.4516L41.9679 46.7059C41.9679 46.7059 40.9009 46.4338 40.0905 45.3047C39.2888 44.1901 38.6457 42.7773 39.0235 40.9187C39.7935 37.1175 42.9081 37.1551 42.9081 37.1551L42.7783 28.3947L14.049 28.3484L14.0057 30.7657H20.9674V93.6232H13.7462V96H50.0861V93.6232L42.7581 93.6347V60.4951V60.4979ZM44.3558 28.3339L44.3962 37.158C44.3962 37.158 48.7999 38.1337 47.9347 43.3853C47.9347 43.3853 47.4445 46.1848 44.9643 46.648L47.9174 60.524H44.1828V69.0355C44.1828 69.0355 49.2584 69.7679 55.2973 67.0929C59.5654 65.2024 65.1515 62.1279 67.4558 54.0478C67.4558 54.0478 73.6215 29.8104 44.3558 28.331V28.3339ZM32.8635 26.345C40.3905 26.345 46.4928 20.4478 46.4928 13.1725C46.4928 5.89723 40.3905 0 32.8606 0C25.3308 0 19.2313 5.89723 19.2313 13.1725C19.2313 20.4478 25.3337 26.345 32.8606 26.345H32.8635Z" fill="white"/>
<path d="M85.311 66H83.2903V51.5665H85.311V66ZM94.9411 66H92.9617V59.34C92.9617 57.5461 92.6111 56.8244 91.6214 56.8244C91.0028 56.8244 90.4049 57.175 90.0131 57.8142V66H88.0337V55.1749H90.0131V55.9172C90.4461 55.3605 91.1884 54.9481 92.1163 54.9481C94.1988 54.9481 94.9411 56.2883 94.9411 59.0101V66ZM101.591 52.8861C101.344 52.8037 101.055 52.7624 100.767 52.7624C99.7974 52.7624 99.5088 53.113 99.5088 53.9171V55.1749H101.282V57.0306H99.5088V66H97.5293V57.0306H96.4365V55.1749H97.5293V53.6491C97.5293 51.8758 98.5603 51.0304 99.9624 51.0304C100.643 51.0304 101.138 51.0923 101.591 51.2366V52.8861ZM110.176 60.5565C110.176 64.3505 108.609 66.2268 106.217 66.2268C103.97 66.2268 102.382 64.4329 102.382 60.639C102.382 56.845 103.887 54.9481 106.3 54.9481C108.588 54.9481 110.176 56.7832 110.176 60.5565ZM108.176 60.5978C108.176 58.1441 107.496 56.845 106.258 56.845C105.021 56.845 104.382 58.1234 104.382 60.5978C104.382 63.0721 105.042 64.3298 106.279 64.3298C107.516 64.3298 108.176 62.8453 108.176 60.5978ZM117.538 55.3192L117.064 57.2987C116.672 57.0719 116.301 56.9688 115.682 56.9688C115.126 56.9688 114.59 57.1543 114.136 57.8142V66H112.157V55.1749H114.136V55.9172C114.569 55.3605 115.249 54.9481 116.054 54.9481C116.734 54.9481 117.208 55.113 117.538 55.3192ZM130.506 66H128.527V59.34C128.527 57.5461 128.383 56.8244 127.393 56.8244C126.774 56.8244 126.176 57.175 125.785 57.8142V66H123.805V59.34C123.805 57.5461 123.661 56.8244 122.671 56.8244C122.053 56.8244 121.455 57.175 121.063 57.8142V66H119.083V55.1749H121.063V55.9172C121.496 55.3605 122.156 54.9481 123.084 54.9481C124.156 54.9481 124.816 55.3192 125.269 56.1028C126.032 55.2367 126.836 54.9481 127.805 54.9481C129.97 54.9481 130.506 56.3502 130.506 59.2163V66ZM139.415 66H137.435V65.2577C136.879 65.8969 136.178 66.2268 135.208 66.2268C133.621 66.2268 132.26 65.0309 132.26 62.5978C132.26 60.2472 133.724 59.0513 135.786 59.0513C136.446 59.0513 137.002 59.1956 137.435 59.4018V58.3503C137.435 57.2987 137.085 56.8038 136.033 56.8038C135.353 56.8038 134.734 56.9894 133.909 57.4842L133.064 55.979C134.054 55.3192 135.188 54.9481 136.178 54.9481C138.508 54.9481 139.415 55.7728 139.415 58.1853V66ZM137.435 63.4226V61.2576C136.961 60.9689 136.549 60.8452 135.806 60.8452C134.879 60.8452 134.239 61.3813 134.239 62.5566C134.239 63.835 134.755 64.4329 135.6 64.4329C136.446 64.4329 137.064 64.0618 137.435 63.4226ZM146.252 63.8968L146.025 65.7319C145.551 66.0412 144.994 66.2268 144.252 66.2268C142.809 66.2268 142.169 65.2165 142.169 63.4638V57.0306H140.994V55.1749H142.169V52.0201L144.149 50.9686V55.1749H146.231V57.0306H144.149V63.2783C144.149 64.0412 144.438 64.3505 144.974 64.3505C145.489 64.3505 145.963 64.1443 146.252 63.8968ZM150.63 52.2676C150.63 52.9274 150.073 53.4841 149.414 53.4841C148.733 53.4841 148.177 52.9274 148.177 52.2676C148.177 51.5871 148.733 51.0304 149.414 51.0304C150.073 51.0304 150.63 51.5871 150.63 52.2676ZM150.403 66H148.424V55.1749H150.403V66ZM160.274 60.5565C160.274 64.3505 158.707 66.2268 156.315 66.2268C154.068 66.2268 152.48 64.4329 152.48 60.639C152.48 56.845 153.986 54.9481 156.398 54.9481C158.687 54.9481 160.274 56.7832 160.274 60.5565ZM158.274 60.5978C158.274 58.1441 157.594 56.845 156.357 56.845C155.12 56.845 154.48 58.1234 154.48 60.5978C154.48 63.0721 155.14 64.3298 156.377 64.3298C157.615 64.3298 158.274 62.8453 158.274 60.5978ZM169.162 66H167.183V59.34C167.183 57.5461 166.832 56.8244 165.843 56.8244C165.224 56.8244 164.626 57.175 164.234 57.8142V66H162.255V55.1749H164.234V55.9172C164.667 55.3605 165.41 54.9481 166.338 54.9481C168.42 54.9481 169.162 56.2883 169.162 59.0101V66ZM182.607 66H180.627V65.2577C180.07 65.8969 179.369 66.2268 178.4 66.2268C176.813 66.2268 175.452 65.0309 175.452 62.5978C175.452 60.2472 176.916 59.0513 178.978 59.0513C179.637 59.0513 180.194 59.1956 180.627 59.4018V58.3503C180.627 57.2987 180.277 56.8038 179.225 56.8038C178.545 56.8038 177.926 56.9894 177.101 57.4842L176.256 55.979C177.246 55.3192 178.38 54.9481 179.369 54.9481C181.699 54.9481 182.607 55.7728 182.607 58.1853V66ZM180.627 63.4226V61.2576C180.153 60.9689 179.74 60.8452 178.998 60.8452C178.07 60.8452 177.431 61.3813 177.431 62.5566C177.431 63.835 177.947 64.4329 178.792 64.4329C179.637 64.4329 180.256 64.0618 180.627 63.4226ZM191.836 66H189.856V59.34C189.856 57.5461 189.506 56.8244 188.516 56.8244C187.897 56.8244 187.299 57.175 186.908 57.8142V66H184.928V55.1749H186.908V55.9172C187.341 55.3605 188.083 54.9481 189.011 54.9481C191.093 54.9481 191.836 56.2883 191.836 59.0101V66ZM201.017 66H199.038V65.2783C198.522 65.835 197.986 66.2268 197.017 66.2268C195.058 66.2268 193.759 64.7835 193.759 60.474C193.759 56.8657 195.017 54.9481 197.161 54.9481C197.924 54.9481 198.502 55.1955 199.038 55.7522V51.9995L201.017 50.9686V66ZM199.038 63.3814V57.7729C198.605 57.1131 197.945 56.8038 197.326 56.8038C196.295 56.8038 195.759 57.8142 195.759 60.3709C195.759 63.1958 196.295 64.3711 197.429 64.3711C198.089 64.3711 198.687 63.9587 199.038 63.3814ZM216.048 55.7728C216.048 58.7008 214.068 60.1235 211.883 60.1235H210.192V66H208.171V51.5665H211.986C214.027 51.5665 216.048 52.783 216.048 55.7728ZM213.965 55.8347C213.965 54.2058 212.996 53.546 211.842 53.546H210.192V58.1647H211.903C213.079 58.1647 213.965 57.4018 213.965 55.8347ZM223.131 55.3192L222.657 57.2987C222.265 57.0719 221.894 56.9688 221.276 56.9688C220.719 56.9688 220.183 57.1543 219.729 57.8142V66H217.75V55.1749H219.729V55.9172C220.162 55.3605 220.843 54.9481 221.647 54.9481C222.327 54.9481 222.802 55.113 223.131 55.3192ZM226.986 52.2676C226.986 52.9274 226.429 53.4841 225.769 53.4841C225.089 53.4841 224.532 52.9274 224.532 52.2676C224.532 51.5871 225.089 51.0304 225.769 51.0304C226.429 51.0304 226.986 51.5871 226.986 52.2676ZM226.759 66H224.78V55.1749H226.759V66ZM236.197 55.1749L233.496 66H231.207L228.486 55.1749H230.506L231.826 61.0101C231.991 61.7112 232.3 63.2164 232.383 63.7319C232.465 63.2164 232.774 61.67 232.919 60.9689L234.176 55.1749H236.197ZM244.142 66H242.163V65.2577C241.606 65.8969 240.905 66.2268 239.936 66.2268C238.348 66.2268 236.987 65.0309 236.987 62.5978C236.987 60.2472 238.451 59.0513 240.513 59.0513C241.173 59.0513 241.73 59.1956 242.163 59.4018V58.3503C242.163 57.2987 241.812 56.8038 240.761 56.8038C240.08 56.8038 239.462 56.9894 238.637 57.4842L237.791 55.979C238.781 55.3192 239.915 54.9481 240.905 54.9481C243.235 54.9481 244.142 55.7728 244.142 58.1853V66ZM242.163 63.4226V61.2576C241.688 60.9689 241.276 60.8452 240.534 60.8452C239.606 60.8452 238.967 61.3813 238.967 62.5566C238.967 63.835 239.482 64.4329 240.328 64.4329C241.173 64.4329 241.792 64.0618 242.163 63.4226ZM253.021 64.3092C252.299 65.4433 251.433 66.2268 249.866 66.2268C247.618 66.2268 246.093 64.4329 246.093 60.639C246.093 56.845 247.536 54.9481 249.948 54.9481C251.515 54.9481 252.381 55.7935 253 56.845L251.577 58.0822C251.021 57.1956 250.588 56.845 249.887 56.845C248.629 56.845 248.093 58.2265 248.093 60.5978C248.093 62.8865 248.649 64.3298 249.948 64.3298C250.608 64.3298 251.062 63.9793 251.598 63.1339L253.021 64.3092ZM262.14 55.1749L257.872 69.8146H255.934L257.109 66L254.099 55.1749H256.202L257.459 60.3091C257.666 61.1339 257.996 62.7009 258.099 63.2576C258.202 62.7009 258.552 61.1132 258.758 60.2885L260.037 55.1749H262.14ZM90.7544 86.5772C90.3008 88.7422 89.2905 90.2268 86.9193 90.2268C83.8057 90.2268 82.6717 86.9071 82.6717 82.8039C82.6717 78.6182 83.9295 75.3397 86.9811 75.3397C89.3936 75.3397 90.3833 76.8037 90.7338 78.8656L88.6925 79.3811C88.4245 78.0821 88.0327 77.381 86.9193 77.381C85.1666 77.381 84.7542 80.2265 84.7542 82.7626C84.7542 85.4225 85.311 88.1855 87.0636 88.1855C88.0327 88.1855 88.4863 87.5257 88.8781 85.9792L90.7544 86.5772ZM99.9872 84.5565C99.9872 88.3505 98.4201 90.2268 96.0283 90.2268C93.7808 90.2268 92.1931 88.4329 92.1931 84.639C92.1931 80.845 93.6983 78.9481 96.1108 78.9481C98.3995 78.9481 99.9872 80.7832 99.9872 84.5565ZM97.9871 84.5978C97.9871 82.1441 97.3067 80.845 96.0695 80.845C94.8324 80.845 94.1932 82.1234 94.1932 84.5978C94.1932 87.0721 94.853 88.3298 96.0902 88.3298C97.3273 88.3298 97.9871 86.8453 97.9871 84.5978ZM113.391 90H111.411V83.34C111.411 81.5461 111.267 80.8244 110.277 80.8244C109.659 80.8244 109.061 81.175 108.669 81.8142V90H106.69V83.34C106.69 81.5461 106.545 80.8244 105.556 80.8244C104.937 80.8244 104.339 81.175 103.947 81.8142V90H101.968V79.1749H103.947V79.9172C104.38 79.3605 105.04 78.9481 105.968 78.9481C107.04 78.9481 107.7 79.3192 108.154 80.1028C108.916 79.2367 109.721 78.9481 110.69 78.9481C112.855 78.9481 113.391 80.3502 113.391 83.2163V90ZM127.103 90H125.124V83.34C125.124 81.5461 124.98 80.8244 123.99 80.8244C123.371 80.8244 122.773 81.175 122.382 81.8142V90H120.402V83.34C120.402 81.5461 120.258 80.8244 119.268 80.8244C118.65 80.8244 118.052 81.175 117.66 81.8142V90H115.68V79.1749H117.66V79.9172C118.093 79.3605 118.753 78.9481 119.681 78.9481C120.753 78.9481 121.413 79.3192 121.866 80.1028C122.629 79.2367 123.433 78.9481 124.402 78.9481C126.567 78.9481 127.103 80.3502 127.103 83.2163V90ZM131.702 76.2676C131.702 76.9274 131.146 77.4841 130.486 77.4841C129.805 77.4841 129.249 76.9274 129.249 76.2676C129.249 75.5871 129.805 75.0304 130.486 75.0304C131.146 75.0304 131.702 75.5871 131.702 76.2676ZM131.476 90H129.496V79.1749H131.476V90ZM139.986 87.0308C139.986 89.0928 138.728 90.2268 136.625 90.2268C135.47 90.2268 134.254 89.7732 133.305 89.0721L134.068 87.4226C135.058 88.0412 135.862 88.3505 136.584 88.3505C137.47 88.3505 138.006 87.8762 138.006 87.1752C138.006 86.4122 137.429 86.0205 135.924 85.1545C134.583 84.3709 133.676 83.6699 133.676 81.9585C133.676 80.0821 134.81 78.9481 136.769 78.9481C137.862 78.9481 138.913 79.3398 139.718 79.9584L138.913 81.6286C138.212 81.1337 137.408 80.8244 136.728 80.8244C135.986 80.8244 135.656 81.2368 135.656 81.7729C135.656 82.4327 135.965 82.7626 137.429 83.608C139.058 84.5565 139.986 85.2576 139.986 87.0308ZM144.247 76.2676C144.247 76.9274 143.69 77.4841 143.031 77.4841C142.35 77.4841 141.793 76.9274 141.793 76.2676C141.793 75.5871 142.35 75.0304 143.031 75.0304C143.69 75.0304 144.247 75.5871 144.247 76.2676ZM144.02 90H142.041V79.1749H144.02V90ZM153.891 84.5565C153.891 88.3505 152.324 90.2268 149.932 90.2268C147.685 90.2268 146.097 88.4329 146.097 84.639C146.097 80.845 147.602 78.9481 150.015 78.9481C152.304 78.9481 153.891 80.7832 153.891 84.5565ZM151.891 84.5978C151.891 82.1441 151.211 80.845 149.974 80.845C148.736 80.845 148.097 82.1234 148.097 84.5978C148.097 87.0721 148.757 88.3298 149.994 88.3298C151.231 88.3298 151.891 86.8453 151.891 84.5978ZM162.779 90H160.8V83.34C160.8 81.5461 160.449 80.8244 159.46 80.8244C158.841 80.8244 158.243 81.175 157.851 81.8142V90H155.872V79.1749H157.851V79.9172C158.284 79.3605 159.027 78.9481 159.954 78.9481C162.037 78.9481 162.779 80.2883 162.779 83.0101V90ZM172.373 84.5565C172.373 84.7421 172.373 85.0514 172.353 85.2576H166.682C166.806 87.402 167.569 88.3298 168.724 88.3298C169.631 88.3298 170.064 88.103 170.682 87.5257L171.899 88.7835C171.157 89.6082 170.064 90.2268 168.682 90.2268C166.105 90.2268 164.703 88.0412 164.703 84.639C164.703 80.845 166.27 78.9481 168.559 78.9481C170.724 78.9481 172.373 80.7832 172.373 84.5565ZM170.353 83.5462C170.291 81.9379 169.631 80.8038 168.517 80.8038C167.507 80.8038 166.868 81.6904 166.703 83.5462H170.353ZM179.738 79.3192L179.264 81.2987C178.872 81.0719 178.501 80.9688 177.883 80.9688C177.326 80.9688 176.79 81.1543 176.336 81.8142V90H174.357V79.1749H176.336V79.9172C176.769 79.3605 177.45 78.9481 178.254 78.9481C178.934 78.9481 179.408 79.113 179.738 79.3192ZM193.237 84.5565C193.237 88.3505 191.67 90.2268 189.278 90.2268C187.031 90.2268 185.443 88.4329 185.443 84.639C185.443 80.845 186.948 78.9481 189.361 78.9481C191.649 78.9481 193.237 80.7832 193.237 84.5565ZM191.237 84.5978C191.237 82.1441 190.557 80.845 189.319 80.845C188.082 80.845 187.443 82.1234 187.443 84.5978C187.443 87.0721 188.103 88.3298 189.34 88.3298C190.577 88.3298 191.237 86.8453 191.237 84.5978ZM199.573 76.8861C199.326 76.8037 199.037 76.7624 198.748 76.7624C197.779 76.7624 197.491 77.113 197.491 77.9171V79.1749H199.264V81.0306H197.491V90H195.511V81.0306H194.418V79.1749H195.511V77.6491C195.511 75.8758 196.542 75.0304 197.944 75.0304C198.625 75.0304 199.119 75.0923 199.573 75.2366V76.8861ZM214.022 82.7626C214.022 86.9483 212.682 90.2268 209.63 90.2268C206.578 90.2268 205.3 86.9896 205.3 82.8039C205.3 78.6182 206.599 75.3397 209.651 75.3397C212.702 75.3397 214.022 78.5769 214.022 82.7626ZM211.96 82.8039C211.96 80.1234 211.362 77.3604 209.609 77.3604C207.857 77.3604 207.362 80.0821 207.362 82.7626C207.362 85.4431 207.939 88.2061 209.692 88.2061C211.444 88.2061 211.96 85.4844 211.96 82.8039ZM223.026 90H221.047V83.34C221.047 81.5461 220.696 80.8244 219.707 80.8244C219.088 80.8244 218.49 81.175 218.098 81.8142V90H216.119V79.1749H218.098V79.9172C218.531 79.3605 219.274 78.9481 220.201 78.9481C222.284 78.9481 223.026 80.2883 223.026 83.0101V90ZM229.837 87.8968L229.61 89.7319C229.136 90.0412 228.579 90.2268 227.836 90.2268C226.393 90.2268 225.754 89.2165 225.754 87.4638V81.0306H224.579V79.1749H225.754V76.0201L227.733 74.9686V79.1749H229.816V81.0306H227.733V87.2783C227.733 88.0412 228.022 88.3505 228.558 88.3505C229.074 88.3505 229.548 88.1443 229.837 87.8968ZM238.323 90H236.343V89.2577C235.787 89.8969 235.086 90.2268 234.117 90.2268C232.529 90.2268 231.168 89.0309 231.168 86.5978C231.168 84.2472 232.632 83.0513 234.694 83.0513C235.354 83.0513 235.91 83.1956 236.343 83.4018V82.3503C236.343 81.2987 235.993 80.8038 234.941 80.8038C234.261 80.8038 233.642 80.9894 232.818 81.4842L231.972 79.979C232.962 79.3192 234.096 78.9481 235.086 78.9481C237.416 78.9481 238.323 79.7728 238.323 82.1853V90ZM236.343 87.4226V85.2576C235.869 84.9689 235.457 84.8452 234.714 84.8452C233.787 84.8452 233.147 85.3813 233.147 86.5566C233.147 87.835 233.663 88.4329 234.508 88.4329C235.354 88.4329 235.972 88.0618 236.343 87.4226ZM246.026 79.3192L245.552 81.2987C245.16 81.0719 244.789 80.9688 244.17 80.9688C243.614 80.9688 243.078 81.1543 242.624 81.8142V90H240.644V79.1749H242.624V79.9172C243.057 79.3605 243.737 78.9481 244.541 78.9481C245.222 78.9481 245.696 79.113 246.026 79.3192ZM249.881 76.2676C249.881 76.9274 249.324 77.4841 248.664 77.4841C247.984 77.4841 247.427 76.9274 247.427 76.2676C247.427 75.5871 247.984 75.0304 248.664 75.0304C249.324 75.0304 249.881 75.5871 249.881 76.2676ZM249.654 90H247.674V79.1749H249.654V90ZM259.525 84.5565C259.525 88.3505 257.958 90.2268 255.566 90.2268C253.318 90.2268 251.731 88.4329 251.731 84.639C251.731 80.845 253.236 78.9481 255.648 78.9481C257.937 78.9481 259.525 80.7832 259.525 84.5565ZM257.525 84.5978C257.525 82.1441 256.844 80.845 255.607 80.845C254.37 80.845 253.731 82.1234 253.731 84.5978C253.731 87.0721 254.391 88.3298 255.628 88.3298C256.865 88.3298 257.525 86.8453 257.525 84.5978Z" fill="white"/>
</svg>
