<svg width="128" height="48" viewBox="0 0 128 48" fill="none" xmlns="http://www.w3.org/2000/svg">
<g clip-path="url(#clip0_2353_13585)">
<line y1="-0.5" x2="152.735" y2="-0.5" transform="matrix(-0.500001 0.866025 -0.866026 -0.499999 6.00024 -42)" stroke="#242D38"/>
<line y1="-0.5" x2="152.735" y2="-0.5" transform="matrix(-0.500001 0.866025 -0.866026 -0.499999 18.0002 -42)" stroke="#242D38"/>
<line y1="-0.5" x2="152.735" y2="-0.5" transform="matrix(-0.500001 0.866025 -0.866026 -0.499999 30.0002 -42)" stroke="#242D38"/>
<line y1="-0.5" x2="152.735" y2="-0.5" transform="matrix(-0.500001 0.866025 -0.866026 -0.499999 41.9997 -42)" stroke="#242D38"/>
<line y1="-0.5" x2="152.735" y2="-0.5" transform="matrix(-0.500001 0.866025 -0.866026 -0.499999 54.0001 -42)" stroke="#242D38"/>
<line y1="-0.5" x2="152.735" y2="-0.5" transform="matrix(-0.500001 0.866025 -0.866026 -0.499999 66.0001 -42)" stroke="#242D38"/>
<line y1="-0.5" x2="152.735" y2="-0.5" transform="matrix(-0.500001 0.866025 -0.866026 -0.499999 78.0001 -42)" stroke="#242D38"/>
<line y1="-0.5" x2="152.735" y2="-0.5" transform="matrix(-0.500001 0.866025 -0.866026 -0.499999 90.0001 -42)" stroke="#242D38"/>
<line y1="-0.5" x2="152.735" y2="-0.5" transform="matrix(-0.500001 0.866025 -0.866026 -0.499999 102 -42)" stroke="#242D38"/>
<line y1="-0.5" x2="152.735" y2="-0.5" transform="matrix(-0.500001 0.866025 -0.866026 -0.499999 114 -42)" stroke="#242D38"/>
<line y1="-0.5" x2="152.735" y2="-0.5" transform="matrix(-0.500001 0.866025 -0.866026 -0.499999 126 -42)" stroke="#242D38"/>
<line y1="-0.5" x2="152.735" y2="-0.5" transform="matrix(-0.500001 0.866025 -0.866026 -0.499999 138 -42)" stroke="#242D38"/>
<line y1="-0.5" x2="152.735" y2="-0.5" transform="matrix(-0.500001 0.866025 -0.866026 -0.499999 150 -42)" stroke="#242D38"/>
<line y1="-0.5" x2="152.735" y2="-0.5" transform="matrix(-0.500001 0.866025 -0.866026 -0.499999 162 -42)" stroke="#242D38"/>
<line y1="-0.5" x2="152.735" y2="-0.5" transform="matrix(-0.500001 0.866025 -0.866026 -0.499999 174 -42)" stroke="#242D38"/>
<line y1="-0.5" x2="152.735" y2="-0.5" transform="matrix(-0.500001 0.866025 -0.866026 -0.499999 186 -42)" stroke="#242D38"/>
<line y1="-0.5" x2="152.735" y2="-0.5" transform="matrix(-0.500001 0.866025 -0.866026 -0.499999 198 -42)" stroke="#242D38"/>
</g>
<defs>
<clipPath id="clip0_2353_13585">
<rect width="128" height="48" fill="white"/>
</clipPath>
</defs>
</svg>
