<svg width="40" height="112" viewBox="0 0 40 112" fill="none" xmlns="http://www.w3.org/2000/svg">
<g clip-path="url(#clip0_2112_33735)">
<line y1="-0.5" x2="152.735" y2="-0.5" transform="matrix(0.866025 0.500001 -0.499999 0.866026 -46 102)" stroke="#242D38"/>
<line y1="-0.5" x2="152.735" y2="-0.5" transform="matrix(0.866025 0.500001 -0.499999 0.866026 -46 89.9998)" stroke="#242D38"/>
<line y1="-0.5" x2="152.735" y2="-0.5" transform="matrix(0.866025 0.500001 -0.499999 0.866026 -46 78.0002)" stroke="#242D38"/>
<line y1="-0.5" x2="152.735" y2="-0.5" transform="matrix(0.866025 0.500001 -0.499999 0.866026 -46 65.9998)" stroke="#242D38"/>
<line y1="-0.5" x2="152.735" y2="-0.5" transform="matrix(0.866025 0.500001 -0.499999 0.866026 -46 53.9998)" stroke="#242D38"/>
<line y1="-0.5" x2="152.735" y2="-0.5" transform="matrix(0.866025 0.500001 -0.499999 0.866026 -46 42)" stroke="#242D38"/>
<line y1="-0.5" x2="152.735" y2="-0.5" transform="matrix(0.866025 0.500001 -0.499999 0.866026 -46 30)" stroke="#242D38"/>
<line y1="-0.5" x2="152.735" y2="-0.5" transform="matrix(0.866025 0.500001 -0.499999 0.866026 -46 18)" stroke="#242D38"/>
<line y1="-0.5" x2="152.735" y2="-0.5" transform="matrix(0.866025 0.500001 -0.499999 0.866026 -46 6)" stroke="#242D38"/>
<line y1="-0.5" x2="152.735" y2="-0.5" transform="matrix(0.866025 0.500001 -0.499999 0.866026 -46 -6)" stroke="#242D38"/>
<line y1="-0.5" x2="152.735" y2="-0.5" transform="matrix(0.866025 0.500001 -0.499999 0.866026 -46 -18)" stroke="#242D38"/>
<line y1="-0.5" x2="152.735" y2="-0.5" transform="matrix(0.866025 0.500001 -0.499999 0.866026 -46 -30)" stroke="#242D38"/>
<line y1="-0.5" x2="152.735" y2="-0.5" transform="matrix(0.866025 0.500001 -0.499999 0.866026 -46 -42)" stroke="#242D38"/>
<line y1="-0.5" x2="152.735" y2="-0.5" transform="matrix(0.866025 0.500001 -0.499999 0.866026 -46 -53.9998)" stroke="#242D38"/>
<line y1="-0.5" x2="152.735" y2="-0.5" transform="matrix(0.866025 0.500001 -0.499999 0.866026 -46 -65.9998)" stroke="#242D38"/>
</g>
<defs>
<clipPath id="clip0_2112_33735">
<rect width="112" height="40" fill="white" transform="matrix(0 -1 1 0 0 112)"/>
</clipPath>
</defs>
</svg>
