<svg width="1280" height="48" viewBox="0 0 1280 48" fill="none" xmlns="http://www.w3.org/2000/svg">
<g clip-path="url(#clip0_2108_20864)">
<line y1="-0.5" x2="152.735" y2="-0.5" transform="matrix(-0.500001 0.866025 -0.866026 -0.499999 6.00024 -42)" stroke="#242D38"/>
<line y1="-0.5" x2="152.735" y2="-0.5" transform="matrix(-0.500001 0.866025 -0.866026 -0.499999 17.9998 -42)" stroke="#242D38"/>
<line y1="-0.5" x2="152.735" y2="-0.5" transform="matrix(-0.500001 0.866025 -0.866026 -0.499999 29.9998 -42)" stroke="#242D38"/>
<line y1="-0.5" x2="152.735" y2="-0.5" transform="matrix(-0.500001 0.866025 -0.866026 -0.499999 42.0002 -42)" stroke="#242D38"/>
<line y1="-0.5" x2="152.735" y2="-0.5" transform="matrix(-0.500001 0.866025 -0.866026 -0.499999 53.9998 -42)" stroke="#242D38"/>
<line y1="-0.5" x2="152.735" y2="-0.5" transform="matrix(-0.500001 0.866025 -0.866026 -0.499999 66 -42)" stroke="#242D38"/>
<line y1="-0.5" x2="152.735" y2="-0.5" transform="matrix(-0.500001 0.866025 -0.866026 -0.499999 77.9995 -42)" stroke="#242D38"/>
<line y1="-0.5" x2="152.735" y2="-0.5" transform="matrix(-0.500001 0.866025 -0.866026 -0.499999 90 -42)" stroke="#242D38"/>
<line y1="-0.5" x2="152.735" y2="-0.5" transform="matrix(-0.500001 0.866025 -0.866026 -0.499999 102 -42)" stroke="#242D38"/>
<line y1="-0.5" x2="152.735" y2="-0.5" transform="matrix(-0.500001 0.866025 -0.866026 -0.499999 114 -42)" stroke="#242D38"/>
<line y1="-0.5" x2="152.735" y2="-0.5" transform="matrix(-0.500001 0.866025 -0.866026 -0.499999 126 -42)" stroke="#242D38"/>
<line y1="-0.5" x2="152.735" y2="-0.5" transform="matrix(-0.500001 0.866025 -0.866026 -0.499999 138 -42)" stroke="#242D38"/>
<line y1="-0.5" x2="152.735" y2="-0.5" transform="matrix(-0.500001 0.866025 -0.866026 -0.499999 150 -42)" stroke="#242D38"/>
<line y1="-0.5" x2="152.735" y2="-0.5" transform="matrix(-0.500001 0.866025 -0.866026 -0.499999 162 -42)" stroke="#242D38"/>
<line y1="-0.5" x2="152.735" y2="-0.5" transform="matrix(-0.500001 0.866025 -0.866026 -0.499999 174 -42)" stroke="#242D38"/>
<line y1="-0.5" x2="152.735" y2="-0.5" transform="matrix(-0.500001 0.866025 -0.866026 -0.499999 186 -42)" stroke="#242D38"/>
<line y1="-0.5" x2="152.735" y2="-0.5" transform="matrix(-0.500001 0.866025 -0.866026 -0.499999 198 -42)" stroke="#242D38"/>
<line y1="-0.5" x2="152.735" y2="-0.5" transform="matrix(-0.500001 0.866025 -0.866026 -0.499999 210 -42)" stroke="#242D38"/>
<line y1="-0.5" x2="152.735" y2="-0.5" transform="matrix(-0.500001 0.866025 -0.866026 -0.499999 222 -42)" stroke="#242D38"/>
<line y1="-0.5" x2="152.735" y2="-0.5" transform="matrix(-0.500001 0.866025 -0.866026 -0.499999 234 -42)" stroke="#242D38"/>
<line y1="-0.5" x2="152.735" y2="-0.5" transform="matrix(-0.500001 0.866025 -0.866026 -0.499999 246 -42)" stroke="#242D38"/>
<line y1="-0.5" x2="152.735" y2="-0.5" transform="matrix(-0.500001 0.866025 -0.866026 -0.499999 258 -42)" stroke="#242D38"/>
<line y1="-0.5" x2="152.735" y2="-0.5" transform="matrix(-0.500001 0.866025 -0.866026 -0.499999 270 -42)" stroke="#242D38"/>
<line y1="-0.5" x2="152.735" y2="-0.5" transform="matrix(-0.500001 0.866025 -0.866026 -0.499999 282 -42)" stroke="#242D38"/>
<line y1="-0.5" x2="152.735" y2="-0.5" transform="matrix(-0.500001 0.866025 -0.866026 -0.499999 294 -42)" stroke="#242D38"/>
<line y1="-0.5" x2="152.735" y2="-0.5" transform="matrix(-0.500001 0.866025 -0.866026 -0.499999 306 -42)" stroke="#242D38"/>
<line y1="-0.5" x2="152.735" y2="-0.5" transform="matrix(-0.500001 0.866025 -0.866026 -0.499999 318 -42)" stroke="#242D38"/>
<line y1="-0.5" x2="152.735" y2="-0.5" transform="matrix(-0.500001 0.866025 -0.866026 -0.499999 330 -42)" stroke="#242D38"/>
<line y1="-0.5" x2="152.735" y2="-0.5" transform="matrix(-0.500001 0.866025 -0.866026 -0.499999 342 -42)" stroke="#242D38"/>
<line y1="-0.5" x2="152.735" y2="-0.5" transform="matrix(-0.500001 0.866025 -0.866026 -0.499999 354 -42)" stroke="#242D38"/>
<line y1="-0.5" x2="152.735" y2="-0.5" transform="matrix(-0.500001 0.866025 -0.866026 -0.499999 366 -42)" stroke="#242D38"/>
<line y1="-0.5" x2="152.735" y2="-0.5" transform="matrix(-0.500001 0.866025 -0.866026 -0.499999 378 -42)" stroke="#242D38"/>
<line y1="-0.5" x2="152.735" y2="-0.5" transform="matrix(-0.500001 0.866025 -0.866026 -0.499999 390 -42)" stroke="#242D38"/>
<line y1="-0.5" x2="152.735" y2="-0.5" transform="matrix(-0.500001 0.866025 -0.866026 -0.499999 402 -42)" stroke="#242D38"/>
<line y1="-0.5" x2="152.735" y2="-0.5" transform="matrix(-0.500001 0.866025 -0.866026 -0.499999 414 -42)" stroke="#242D38"/>
<line y1="-0.5" x2="152.735" y2="-0.5" transform="matrix(-0.500001 0.866025 -0.866026 -0.499999 426 -42)" stroke="#242D38"/>
<line y1="-0.5" x2="152.735" y2="-0.5" transform="matrix(-0.500001 0.866025 -0.866026 -0.499999 438 -42)" stroke="#242D38"/>
<line y1="-0.5" x2="152.735" y2="-0.5" transform="matrix(-0.500001 0.866025 -0.866026 -0.499999 450 -42)" stroke="#242D38"/>
<line y1="-0.5" x2="152.735" y2="-0.5" transform="matrix(-0.500001 0.866025 -0.866026 -0.499999 462 -42)" stroke="#242D38"/>
<line y1="-0.5" x2="152.735" y2="-0.5" transform="matrix(-0.500001 0.866025 -0.866026 -0.499999 474 -42)" stroke="#242D38"/>
<line y1="-0.5" x2="152.735" y2="-0.5" transform="matrix(-0.500001 0.866025 -0.866026 -0.499999 486 -42)" stroke="#242D38"/>
<line y1="-0.5" x2="152.735" y2="-0.5" transform="matrix(-0.500001 0.866025 -0.866026 -0.499999 498 -42)" stroke="#242D38"/>
<line y1="-0.5" x2="152.735" y2="-0.5" transform="matrix(-0.500001 0.866025 -0.866026 -0.499999 510 -42)" stroke="#242D38"/>
<line y1="-0.5" x2="152.735" y2="-0.5" transform="matrix(-0.500001 0.866025 -0.866026 -0.499999 522 -42)" stroke="#242D38"/>
<line y1="-0.5" x2="152.735" y2="-0.5" transform="matrix(-0.500001 0.866025 -0.866026 -0.499999 534 -42)" stroke="#242D38"/>
<line y1="-0.5" x2="152.735" y2="-0.5" transform="matrix(-0.500001 0.866025 -0.866026 -0.499999 546 -42)" stroke="#242D38"/>
<line y1="-0.5" x2="152.735" y2="-0.5" transform="matrix(-0.500001 0.866025 -0.866026 -0.499999 558 -42)" stroke="#242D38"/>
<line y1="-0.5" x2="152.735" y2="-0.5" transform="matrix(-0.500001 0.866025 -0.866026 -0.499999 570 -42)" stroke="#242D38"/>
<line y1="-0.5" x2="152.735" y2="-0.5" transform="matrix(-0.500001 0.866025 -0.866026 -0.499999 582 -42)" stroke="#242D38"/>
<line y1="-0.5" x2="152.735" y2="-0.5" transform="matrix(-0.500001 0.866025 -0.866026 -0.499999 594 -42)" stroke="#242D38"/>
<line y1="-0.5" x2="152.735" y2="-0.5" transform="matrix(-0.500001 0.866025 -0.866026 -0.499999 606 -42)" stroke="#242D38"/>
<line y1="-0.5" x2="152.735" y2="-0.5" transform="matrix(-0.500001 0.866025 -0.866026 -0.499999 618 -42)" stroke="#242D38"/>
<line y1="-0.5" x2="152.735" y2="-0.5" transform="matrix(-0.500001 0.866025 -0.866026 -0.499999 630 -42)" stroke="#242D38"/>
<line y1="-0.5" x2="152.735" y2="-0.5" transform="matrix(-0.500001 0.866025 -0.866026 -0.499999 642 -42)" stroke="#242D38"/>
<line y1="-0.5" x2="152.735" y2="-0.5" transform="matrix(-0.500001 0.866025 -0.866026 -0.499999 654 -42)" stroke="#242D38"/>
<line y1="-0.5" x2="152.735" y2="-0.5" transform="matrix(-0.500001 0.866025 -0.866026 -0.499999 666 -42)" stroke="#242D38"/>
<line y1="-0.5" x2="152.735" y2="-0.5" transform="matrix(-0.500001 0.866025 -0.866026 -0.499999 678 -42)" stroke="#242D38"/>
<line y1="-0.5" x2="152.735" y2="-0.5" transform="matrix(-0.500001 0.866025 -0.866026 -0.499999 690 -42)" stroke="#242D38"/>
<line y1="-0.5" x2="152.735" y2="-0.5" transform="matrix(-0.500001 0.866025 -0.866026 -0.499999 702 -42)" stroke="#242D38"/>
<line y1="-0.5" x2="152.735" y2="-0.5" transform="matrix(-0.500001 0.866025 -0.866026 -0.499999 714 -42)" stroke="#242D38"/>
<line y1="-0.5" x2="152.735" y2="-0.5" transform="matrix(-0.500001 0.866025 -0.866026 -0.499999 726 -42)" stroke="#242D38"/>
<line y1="-0.5" x2="152.735" y2="-0.5" transform="matrix(-0.500001 0.866025 -0.866026 -0.499999 738 -42)" stroke="#242D38"/>
<line y1="-0.5" x2="152.735" y2="-0.5" transform="matrix(-0.500001 0.866025 -0.866026 -0.499999 750 -42)" stroke="#242D38"/>
<line y1="-0.5" x2="152.735" y2="-0.5" transform="matrix(-0.500001 0.866025 -0.866026 -0.499999 762 -42)" stroke="#242D38"/>
<line y1="-0.5" x2="152.735" y2="-0.5" transform="matrix(-0.500001 0.866025 -0.866026 -0.499999 774 -42)" stroke="#242D38"/>
<line y1="-0.5" x2="152.735" y2="-0.5" transform="matrix(-0.500001 0.866025 -0.866026 -0.499999 786 -42)" stroke="#242D38"/>
<line y1="-0.5" x2="152.735" y2="-0.5" transform="matrix(-0.500001 0.866025 -0.866026 -0.499999 798 -42)" stroke="#242D38"/>
<line y1="-0.5" x2="152.735" y2="-0.5" transform="matrix(-0.500001 0.866025 -0.866026 -0.499999 810 -42)" stroke="#242D38"/>
<line y1="-0.5" x2="152.735" y2="-0.5" transform="matrix(-0.500001 0.866025 -0.866026 -0.499999 822 -42)" stroke="#242D38"/>
<line y1="-0.5" x2="152.735" y2="-0.5" transform="matrix(-0.500001 0.866025 -0.866026 -0.499999 834 -42)" stroke="#242D38"/>
<line y1="-0.5" x2="152.735" y2="-0.5" transform="matrix(-0.500001 0.866025 -0.866026 -0.499999 846 -42)" stroke="#242D38"/>
<line y1="-0.5" x2="152.735" y2="-0.5" transform="matrix(-0.500001 0.866025 -0.866026 -0.499999 858 -42)" stroke="#242D38"/>
<line y1="-0.5" x2="152.735" y2="-0.5" transform="matrix(-0.500001 0.866025 -0.866026 -0.499999 870 -42)" stroke="#242D38"/>
<line y1="-0.5" x2="152.735" y2="-0.5" transform="matrix(-0.500001 0.866025 -0.866026 -0.499999 882 -42)" stroke="#242D38"/>
<line y1="-0.5" x2="152.735" y2="-0.5" transform="matrix(-0.500001 0.866025 -0.866026 -0.499999 894 -42)" stroke="#242D38"/>
<line y1="-0.5" x2="152.735" y2="-0.5" transform="matrix(-0.500001 0.866025 -0.866026 -0.499999 906 -42)" stroke="#242D38"/>
<line y1="-0.5" x2="152.735" y2="-0.5" transform="matrix(-0.500001 0.866025 -0.866026 -0.499999 918 -42)" stroke="#242D38"/>
<line y1="-0.5" x2="152.735" y2="-0.5" transform="matrix(-0.500001 0.866025 -0.866026 -0.499999 930 -42)" stroke="#242D38"/>
<line y1="-0.5" x2="152.735" y2="-0.5" transform="matrix(-0.500001 0.866025 -0.866026 -0.499999 942 -42)" stroke="#242D38"/>
<line y1="-0.5" x2="152.735" y2="-0.5" transform="matrix(-0.500001 0.866025 -0.866026 -0.499999 954 -42)" stroke="#242D38"/>
<line y1="-0.5" x2="152.735" y2="-0.5" transform="matrix(-0.500001 0.866025 -0.866026 -0.499999 966 -42)" stroke="#242D38"/>
<line y1="-0.5" x2="152.735" y2="-0.5" transform="matrix(-0.500001 0.866025 -0.866026 -0.499999 978 -42)" stroke="#242D38"/>
<line y1="-0.5" x2="152.735" y2="-0.5" transform="matrix(-0.500001 0.866025 -0.866026 -0.499999 990 -42)" stroke="#242D38"/>
<line y1="-0.5" x2="152.735" y2="-0.5" transform="matrix(-0.500001 0.866025 -0.866026 -0.499999 1002 -42)" stroke="#242D38"/>
<line y1="-0.5" x2="152.735" y2="-0.5" transform="matrix(-0.500001 0.866025 -0.866026 -0.499999 1014 -42)" stroke="#242D38"/>
<line y1="-0.5" x2="152.735" y2="-0.5" transform="matrix(-0.500001 0.866025 -0.866026 -0.499999 1026 -42)" stroke="#242D38"/>
<line y1="-0.5" x2="152.735" y2="-0.5" transform="matrix(-0.500001 0.866025 -0.866026 -0.499999 1038 -42)" stroke="#242D38"/>
<line y1="-0.5" x2="152.735" y2="-0.5" transform="matrix(-0.500001 0.866025 -0.866026 -0.499999 1050 -42)" stroke="#242D38"/>
<line y1="-0.5" x2="152.735" y2="-0.5" transform="matrix(-0.500001 0.866025 -0.866026 -0.499999 1062 -42)" stroke="#242D38"/>
<line y1="-0.5" x2="152.735" y2="-0.5" transform="matrix(-0.500001 0.866025 -0.866026 -0.499999 1074 -42)" stroke="#242D38"/>
<line y1="-0.5" x2="152.735" y2="-0.5" transform="matrix(-0.500001 0.866025 -0.866026 -0.499999 1086 -42)" stroke="#242D38"/>
<line y1="-0.5" x2="152.735" y2="-0.5" transform="matrix(-0.500001 0.866025 -0.866026 -0.499999 1098 -42)" stroke="#242D38"/>
<line y1="-0.5" x2="152.735" y2="-0.5" transform="matrix(-0.500001 0.866025 -0.866026 -0.499999 1110 -42)" stroke="#242D38"/>
<line y1="-0.5" x2="152.735" y2="-0.5" transform="matrix(-0.500001 0.866025 -0.866026 -0.499999 1122 -42)" stroke="#242D38"/>
<line y1="-0.5" x2="152.735" y2="-0.5" transform="matrix(-0.500001 0.866025 -0.866026 -0.499999 1134 -42)" stroke="#242D38"/>
<line y1="-0.5" x2="152.735" y2="-0.5" transform="matrix(-0.500001 0.866025 -0.866026 -0.499999 1146 -42)" stroke="#242D38"/>
<line y1="-0.5" x2="152.735" y2="-0.5" transform="matrix(-0.500001 0.866025 -0.866026 -0.499999 1158 -42)" stroke="#242D38"/>
<line y1="-0.5" x2="152.735" y2="-0.5" transform="matrix(-0.500001 0.866025 -0.866026 -0.499999 1170 -42)" stroke="#242D38"/>
<line y1="-0.5" x2="152.735" y2="-0.5" transform="matrix(-0.500001 0.866025 -0.866026 -0.499999 1182 -42)" stroke="#242D38"/>
<line y1="-0.5" x2="152.735" y2="-0.5" transform="matrix(-0.500001 0.866025 -0.866026 -0.499999 1194 -42)" stroke="#242D38"/>
<line y1="-0.5" x2="152.735" y2="-0.5" transform="matrix(-0.500001 0.866025 -0.866026 -0.499999 1206 -42)" stroke="#242D38"/>
<line y1="-0.5" x2="152.735" y2="-0.5" transform="matrix(-0.500001 0.866025 -0.866026 -0.499999 1218 -42)" stroke="#242D38"/>
<line y1="-0.5" x2="152.735" y2="-0.5" transform="matrix(-0.500001 0.866025 -0.866026 -0.499999 1230 -42)" stroke="#242D38"/>
<line y1="-0.5" x2="152.735" y2="-0.5" transform="matrix(-0.500001 0.866025 -0.866026 -0.499999 1242 -42)" stroke="#242D38"/>
<line y1="-0.5" x2="152.735" y2="-0.5" transform="matrix(-0.500001 0.866025 -0.866026 -0.499999 1254 -42)" stroke="#242D38"/>
<line y1="-0.5" x2="152.735" y2="-0.5" transform="matrix(-0.500001 0.866025 -0.866026 -0.499999 1266 -42)" stroke="#242D38"/>
<line y1="-0.5" x2="152.735" y2="-0.5" transform="matrix(-0.500001 0.866025 -0.866026 -0.499999 1278 -42)" stroke="#242D38"/>
<line y1="-0.5" x2="152.735" y2="-0.5" transform="matrix(-0.500001 0.866025 -0.866026 -0.499999 1290 -42)" stroke="#242D38"/>
<line y1="-0.5" x2="152.735" y2="-0.5" transform="matrix(-0.500001 0.866025 -0.866026 -0.499999 1302 -42)" stroke="#242D38"/>
<line y1="-0.5" x2="152.735" y2="-0.5" transform="matrix(-0.500001 0.866025 -0.866026 -0.499999 1314 -42)" stroke="#242D38"/>
<line y1="-0.5" x2="152.735" y2="-0.5" transform="matrix(-0.500001 0.866025 -0.866026 -0.499999 1326 -42)" stroke="#242D38"/>
<line y1="-0.5" x2="152.735" y2="-0.5" transform="matrix(-0.500001 0.866025 -0.866026 -0.499999 1338 -42)" stroke="#242D38"/>
<line y1="-0.5" x2="152.735" y2="-0.5" transform="matrix(-0.500001 0.866025 -0.866026 -0.499999 1350 -42)" stroke="#242D38"/>
</g>
<defs>
<clipPath id="clip0_2108_20864">
<rect width="1280" height="48" fill="white"/>
</clipPath>
</defs>
</svg>
