<svg width="375" height="41" viewBox="0 0 375 41" fill="none" xmlns="http://www.w3.org/2000/svg">
<g opacity="0.25" clip-path="url(#clip0_2225_23971)">
<line y1="-0.5" x2="152.735" y2="-0.5" transform="matrix(-0.500001 0.866025 -0.866026 -0.499999 1.36761 -45.063)" stroke="#242D38"/>
<line y1="-0.5" x2="152.735" y2="-0.5" transform="matrix(-0.500001 0.866025 -0.866026 -0.499999 14.0004 -45.063)" stroke="#242D38"/>
<line y1="-0.5" x2="152.735" y2="-0.5" transform="matrix(-0.500001 0.866025 -0.866026 -0.499999 25.9999 -45.063)" stroke="#242D38"/>
<line y1="-0.5" x2="152.735" y2="-0.5" transform="matrix(-0.500001 0.866025 -0.866026 -0.499999 38.0003 -45.063)" stroke="#242D38"/>
<line y1="-0.5" x2="152.735" y2="-0.5" transform="matrix(-0.500001 0.866025 -0.866026 -0.499999 49.9998 -45.063)" stroke="#242D38"/>
<line y1="-0.5" x2="152.735" y2="-0.5" transform="matrix(-0.500001 0.866025 -0.866026 -0.499999 61.9998 -45.063)" stroke="#242D38"/>
<line y1="-0.5" x2="152.735" y2="-0.5" transform="matrix(-0.500001 0.866025 -0.866026 -0.499999 74.0002 -45.063)" stroke="#242D38"/>
<line y1="-0.5" x2="152.735" y2="-0.5" transform="matrix(-0.500001 0.866025 -0.866026 -0.499999 86.0002 -45.063)" stroke="#242D38"/>
<line y1="-0.5" x2="152.735" y2="-0.5" transform="matrix(-0.500001 0.866025 -0.866026 -0.499999 97.9997 -45.063)" stroke="#242D38"/>
<line y1="-0.5" x2="152.735" y2="-0.5" transform="matrix(-0.500001 0.866025 -0.866026 -0.499999 110 -45.063)" stroke="#242D38"/>
<line y1="-0.5" x2="152.735" y2="-0.5" transform="matrix(-0.500001 0.866025 -0.866026 -0.499999 122 -45.063)" stroke="#242D38"/>
<line y1="-0.5" x2="152.735" y2="-0.5" transform="matrix(-0.500001 0.866025 -0.866026 -0.499999 134 -45.063)" stroke="#242D38"/>
<line y1="-0.5" x2="152.735" y2="-0.5" transform="matrix(-0.500001 0.866025 -0.866026 -0.499999 146 -45.063)" stroke="#242D38"/>
<line y1="-0.5" x2="152.735" y2="-0.5" transform="matrix(-0.500001 0.866025 -0.866026 -0.499999 158 -45.063)" stroke="#242D38"/>
<line y1="-0.5" x2="152.735" y2="-0.5" transform="matrix(-0.500001 0.866025 -0.866026 -0.499999 170 -45.063)" stroke="#242D38"/>
<line y1="-0.5" x2="152.735" y2="-0.5" transform="matrix(-0.500001 0.866025 -0.866026 -0.499999 181.999 -45.063)" stroke="#242D38"/>
<line y1="-0.5" x2="152.735" y2="-0.5" transform="matrix(-0.500001 0.866025 -0.866026 -0.499999 193.999 -45.063)" stroke="#242D38"/>
<line y1="-0.5" x2="152.735" y2="-0.5" transform="matrix(-0.500001 0.866025 -0.866026 -0.499999 206 -45.063)" stroke="#242D38"/>
<line y1="-0.5" x2="152.735" y2="-0.5" transform="matrix(-0.500001 0.866025 -0.866026 -0.499999 218 -45.063)" stroke="#242D38"/>
<line y1="-0.5" x2="152.735" y2="-0.5" transform="matrix(-0.500001 0.866025 -0.866026 -0.499999 230 -45.063)" stroke="#242D38"/>
<line y1="-0.5" x2="152.735" y2="-0.5" transform="matrix(-0.500001 0.866025 -0.866026 -0.499999 242 -45.063)" stroke="#242D38"/>
<line y1="-0.5" x2="152.735" y2="-0.5" transform="matrix(-0.500001 0.866025 -0.866026 -0.499999 254 -45.063)" stroke="#242D38"/>
<line y1="-0.5" x2="152.735" y2="-0.5" transform="matrix(-0.500001 0.866025 -0.866026 -0.499999 266 -45.063)" stroke="#242D38"/>
<line y1="-0.5" x2="152.735" y2="-0.5" transform="matrix(-0.500001 0.866025 -0.866026 -0.499999 278 -45.063)" stroke="#242D38"/>
<line y1="-0.5" x2="152.735" y2="-0.5" transform="matrix(-0.500001 0.866025 -0.866026 -0.499999 290 -45.063)" stroke="#242D38"/>
<line y1="-0.5" x2="152.735" y2="-0.5" transform="matrix(-0.500001 0.866025 -0.866026 -0.499999 302 -45.063)" stroke="#242D38"/>
<line y1="-0.5" x2="152.735" y2="-0.5" transform="matrix(-0.500001 0.866025 -0.866026 -0.499999 314 -45.063)" stroke="#242D38"/>
<line y1="-0.5" x2="152.735" y2="-0.5" transform="matrix(-0.500001 0.866025 -0.866026 -0.499999 326 -45.063)" stroke="#242D38"/>
<line y1="-0.5" x2="152.735" y2="-0.5" transform="matrix(-0.500001 0.866025 -0.866026 -0.499999 338 -45.063)" stroke="#242D38"/>
<line y1="-0.5" x2="152.735" y2="-0.5" transform="matrix(-0.500001 0.866025 -0.866026 -0.499999 350 -45.063)" stroke="#242D38"/>
<line y1="-0.5" x2="152.735" y2="-0.5" transform="matrix(-0.500001 0.866025 -0.866026 -0.499999 362 -45.063)" stroke="#242D38"/>
<line y1="-0.5" x2="152.735" y2="-0.5" transform="matrix(-0.500001 0.866025 -0.866026 -0.499999 374 -45.063)" stroke="#242D38"/>
<line y1="-0.5" x2="152.735" y2="-0.5" transform="matrix(-0.500001 0.866025 -0.866026 -0.499999 386 -45.063)" stroke="#242D38"/>
<line y1="-0.5" x2="152.735" y2="-0.5" transform="matrix(-0.500001 0.866025 -0.866026 -0.499999 398 -45.063)" stroke="#242D38"/>
<line y1="-0.5" x2="152.735" y2="-0.5" transform="matrix(-0.500001 0.866025 -0.866026 -0.499999 410 -45.063)" stroke="#242D38"/>
<line y1="-0.5" x2="152.735" y2="-0.5" transform="matrix(-0.500001 0.866025 -0.866026 -0.499999 422 -45.063)" stroke="#242D38"/>
<line y1="-0.5" x2="152.735" y2="-0.5" transform="matrix(-0.500001 0.866025 -0.866026 -0.499999 434 -45.063)" stroke="#242D38"/>
<line y1="-0.5" x2="152.735" y2="-0.5" transform="matrix(-0.500001 0.866025 -0.866026 -0.499999 446 -45.063)" stroke="#242D38"/>
</g>
<defs>
<clipPath id="clip0_2225_23971">
<rect width="1440" height="40" fill="white" transform="translate(0 0.937012)"/>
</clipPath>
</defs>
</svg>
