<svg width="64" height="64" viewBox="0 0 64 64" fill="none" xmlns="http://www.w3.org/2000/svg">
<path d="M13 64V56" stroke="#00A19C" stroke-width="2" stroke-miterlimit="10"/>
<path d="M51 64V56" stroke="#00A19C" stroke-width="2" stroke-miterlimit="10"/>
<path d="M64 41H62" stroke="#00A19C" stroke-width="2" stroke-miterlimit="10"/>
<path d="M56 33H54" stroke="#00A19C" stroke-width="2" stroke-miterlimit="10"/>
<path d="M52 37H50" stroke="#00A19C" stroke-width="2" stroke-miterlimit="10"/>
<path d="M60 37H58" stroke="#00A19C" stroke-width="2" stroke-miterlimit="10"/>
<path d="M64 37H62" stroke="#00A19C" stroke-width="2" stroke-miterlimit="10"/>
<path d="M64 29H62" stroke="#00A19C" stroke-width="2" stroke-miterlimit="10"/>
<path d="M64 25H62" stroke="#00A19C" stroke-width="2" stroke-miterlimit="10"/>
<path d="M56 25H54" stroke="#00A19C" stroke-width="2" stroke-miterlimit="10"/>
<path d="M60 21H58" stroke="#00A19C" stroke-width="2" stroke-miterlimit="10"/>
<path d="M60 17H58" stroke="#00A19C" stroke-width="2" stroke-miterlimit="10"/>
<path d="M56 13H54" stroke="#00A19C" stroke-width="2" stroke-miterlimit="10"/>
<path d="M60 5H58" stroke="#00A19C" stroke-width="2" stroke-miterlimit="10"/>
<path d="M52 9H50" stroke="#00A19C" stroke-width="2" stroke-miterlimit="10"/>
<path d="M64 17H62" stroke="#00A19C" stroke-width="2" stroke-miterlimit="10"/>
<path d="M60 13H58" stroke="#00A19C" stroke-width="2" stroke-miterlimit="10"/>
<path d="M4 29H6" stroke="#00A19C" stroke-width="2" stroke-miterlimit="10"/>
<path d="M8 29H10" stroke="#00A19C" stroke-width="2" stroke-miterlimit="10"/>
<path d="M8 33H10" stroke="#00A19C" stroke-width="2" stroke-miterlimit="10"/>
<path d="M4 37H6" stroke="#00A19C" stroke-width="2" stroke-miterlimit="10"/>
<path d="M0 41H2" stroke="#00A19C" stroke-width="2" stroke-miterlimit="10"/>
<path d="M12 37H14" stroke="#00A19C" stroke-width="2" stroke-miterlimit="10"/>
<path d="M0 33H2" stroke="#00A19C" stroke-width="2" stroke-miterlimit="10"/>
<path d="M0 25H2" stroke="#00A19C" stroke-width="2" stroke-miterlimit="10"/>
<path d="M8 21H10" stroke="#00A19C" stroke-width="2" stroke-miterlimit="10"/>
<path d="M8 17H10" stroke="#00A19C" stroke-width="2" stroke-miterlimit="10"/>
<path d="M0 5H2" stroke="#00A19C" stroke-width="2" stroke-miterlimit="10"/>
<path d="M12 5H14" stroke="#00A19C" stroke-width="2" stroke-miterlimit="10"/>
<path d="M16 1H18" stroke="#00A19C" stroke-width="2" stroke-miterlimit="10"/>
<path d="M4 1H6" stroke="#00A19C" stroke-width="2" stroke-miterlimit="10"/>
<path d="M4 5H6" stroke="#00A19C" stroke-width="2" stroke-miterlimit="10"/>
<path d="M62 9H64" stroke="#00A19C" stroke-width="2" stroke-miterlimit="10"/>
<path d="M58 1H60" stroke="#00A19C" stroke-width="2" stroke-miterlimit="10"/>
<path d="M50 1H52" stroke="#00A19C" stroke-width="2" stroke-miterlimit="10"/>
<path d="M46 1H48" stroke="#00A19C" stroke-width="2" stroke-miterlimit="10"/>
<path d="M4 25H6" stroke="#00A19C" stroke-width="2" stroke-miterlimit="10"/>
<path d="M0 17H2" stroke="#00A19C" stroke-width="2" stroke-miterlimit="10"/>
<path d="M0 13H2" stroke="#00A19C" stroke-width="2" stroke-miterlimit="10"/>
<path d="M12 9H14" stroke="#00A19C" stroke-width="2" stroke-miterlimit="10"/>
<path d="M8 9H10" stroke="#00A19C" stroke-width="2" stroke-miterlimit="10"/>
<path d="M28 29H36" stroke="#00A19C" stroke-width="2" stroke-miterlimit="10"/>
<path d="M41 17H33L30 24V25H35" stroke="#00A19C" stroke-width="2" stroke-miterlimit="10"/>
<path d="M29 17H23" stroke="#00A19C" stroke-width="2" stroke-miterlimit="10"/>
<path d="M35 13H37" stroke="#00A19C" stroke-width="2" stroke-miterlimit="10"/>
<path d="M39 13H41" stroke="#00A19C" stroke-width="2" stroke-miterlimit="10"/>
<path d="M42 38L58 47C58 47 63 49 63 54V64" stroke="#00A19C" stroke-width="2" stroke-miterlimit="10"/>
<path d="M1 64V53C1 48 6 46 6 46L22 38" stroke="#00A19C" stroke-width="2" stroke-miterlimit="10"/>
<path d="M27 41.95C20.61 39.19 16 31.3 16 22C16 10.4 23.16 1 32 1C40.84 1 48 10.4 48 22C48 31.36 43.34 39.29 36.89 42" stroke="#00A19C" stroke-width="2" stroke-miterlimit="10"/>
<path d="M44 22C44 34 32 39 32 39C32 39 20 34 20 22" stroke="#00A19C" stroke-width="2" stroke-miterlimit="10"/>
<path d="M22 39V57" stroke="#00A19C" stroke-width="2" stroke-miterlimit="10"/>
<path d="M22 58C22.5523 58 23 57.5523 23 57C23 56.4477 22.5523 56 22 56C21.4477 56 21 56.4477 21 57C21 57.5523 21.4477 58 22 58Z" stroke="#00A19C" stroke-width="2" stroke-miterlimit="10"/>
<path d="M42 39V57" stroke="#00A19C" stroke-width="2" stroke-miterlimit="10"/>
<path d="M42 58C42.5523 58 43 57.5523 43 57C43 56.4477 42.5523 56 42 56C41.4477 56 41 56.4477 41 57C41 57.5523 41.4477 58 42 58Z" stroke="#00A19C" stroke-width="2" stroke-miterlimit="10"/>
<path d="M32 43V64" stroke="#00A19C" stroke-width="2" stroke-miterlimit="10"/>
</svg>
