<svg width="64" height="65" viewBox="0 0 64 65" fill="none" xmlns="http://www.w3.org/2000/svg">
<path d="M43 23.2295L63 57.2295V58.2295" stroke="#00A19C" stroke-width="2" stroke-linejoin="round"/>
<path d="M1 59.2295V58.2295L21 23.2295" stroke="#00A19C" stroke-width="2" stroke-linejoin="round"/>
<path d="M39 52.2295H59" stroke="#00A19C" stroke-width="2" stroke-linejoin="round"/>
<path d="M5 52.2295H25" stroke="#00A19C" stroke-width="2" stroke-linejoin="round"/>
<path d="M39 46.2295H56" stroke="#00A19C" stroke-width="2" stroke-linejoin="round"/>
<path d="M8 46.2295H25" stroke="#00A19C" stroke-width="2" stroke-linejoin="round"/>
<path d="M39 40.2295H53" stroke="#00A19C" stroke-width="2" stroke-linejoin="round"/>
<path d="M11 40.2295H25" stroke="#00A19C" stroke-width="2" stroke-linejoin="round"/>
<path d="M39 34.2295H49" stroke="#00A19C" stroke-width="2" stroke-linejoin="round"/>
<path d="M15 34.2295H25" stroke="#00A19C" stroke-width="2" stroke-linejoin="round"/>
<path d="M39 28.2295H46" stroke="#00A19C" stroke-width="2" stroke-linejoin="round"/>
<path d="M18 28.2295H25" stroke="#00A19C" stroke-width="2" stroke-linejoin="round"/>
<path d="M36 59.2295V20.2295H41L32 4.22949L23 20.2295H28V59.2295" stroke="#00A19C" stroke-width="2" stroke-linejoin="round"/>
<path d="M31 54.2295H33" stroke="#00A19C" stroke-width="2" stroke-linejoin="round"/>
<path d="M31 58.2295H33" stroke="#00A19C" stroke-width="2" stroke-linejoin="round"/>
<path d="M31 50.2295H33" stroke="#00A19C" stroke-width="2" stroke-linejoin="round"/>
<path d="M31 46.2295H33" stroke="#00A19C" stroke-width="2" stroke-linejoin="round"/>
<path d="M31 42.2295H33" stroke="#00A19C" stroke-width="2" stroke-linejoin="round"/>
<path d="M31 38.2295H33" stroke="#00A19C" stroke-width="2" stroke-linejoin="round"/>
<path d="M31 34.2295H33" stroke="#00A19C" stroke-width="2" stroke-linejoin="round"/>
<path d="M31 26.2295H33" stroke="#00A19C" stroke-width="2" stroke-linejoin="round"/>
<path d="M31 22.2295H33" stroke="#00A19C" stroke-width="2" stroke-linejoin="round"/>
<path d="M31 30.2295H33" stroke="#00A19C" stroke-width="2" stroke-linejoin="round"/>
</svg>
