<svg width="64" height="64" viewBox="0 0 64 64" fill="none" xmlns="http://www.w3.org/2000/svg">
<path d="M57 23H31" stroke="#00A19C" stroke-width="2" stroke-miterlimit="10"/>
<path d="M33 16H55" stroke="#00A19C" stroke-width="2" stroke-miterlimit="10"/>
<path d="M33 30H55" stroke="#00A19C" stroke-width="2" stroke-miterlimit="10"/>
<path d="M44 10V36" stroke="#00A19C" stroke-width="2" stroke-miterlimit="10"/>
<path d="M13 16C16.3137 16 19 13.3137 19 10C19 6.68629 16.3137 4 13 4C9.68629 4 7 6.68629 7 10C7 13.3137 9.68629 16 13 16Z" stroke="#00A19C" stroke-width="2" stroke-miterlimit="10"/>
<path d="M40 4H38" stroke="#00A19C" stroke-width="2" stroke-miterlimit="10"/>
<path d="M36 4H34" stroke="#00A19C" stroke-width="2" stroke-miterlimit="10"/>
<path d="M32 4H30" stroke="#00A19C" stroke-width="2" stroke-miterlimit="10"/>
<path d="M0 60H63V4H42" stroke="#00A19C" stroke-width="2" stroke-miterlimit="10"/>
<path d="M20 16C22.76 16 25 18.24 25 21V57" stroke="#00A19C" stroke-width="2" stroke-miterlimit="10"/>
<path d="M20 54H0" stroke="#00A19C" stroke-width="2" stroke-miterlimit="10"/>
<path d="M20 50H0" stroke="#00A19C" stroke-width="2" stroke-miterlimit="10"/>
<path d="M20 46H0" stroke="#00A19C" stroke-width="2" stroke-miterlimit="10"/>
<path d="M20 42H0" stroke="#00A19C" stroke-width="2" stroke-miterlimit="10"/>
<path d="M44 36C51.1797 36 57 30.1797 57 23C57 15.8203 51.1797 10 44 10C36.8203 10 31 15.8203 31 23C31 30.1797 36.8203 36 44 36Z" stroke="#00A19C" stroke-width="2" stroke-miterlimit="10"/>
<path d="M44 36C47.866 36 51 30.1797 51 23C51 15.8203 47.866 10 44 10C40.134 10 37 15.8203 37 23C37 30.1797 40.134 36 44 36Z" stroke="#00A19C" stroke-width="2" stroke-miterlimit="10"/>
<path d="M13 21V23" stroke="#00A19C" stroke-width="2" stroke-miterlimit="10"/>
<path d="M13 25V27" stroke="#00A19C" stroke-width="2" stroke-miterlimit="10"/>
<path d="M13 16H6C3.24 16 1 18.24 1 21V36H20" stroke="#00A19C" stroke-width="2" stroke-miterlimit="10"/>
<path d="M32 54H34" stroke="#00A19C" stroke-width="2" stroke-miterlimit="10"/>
<path d="M36 54H38" stroke="#00A19C" stroke-width="2" stroke-miterlimit="10"/>
<path d="M34 50H36" stroke="#00A19C" stroke-width="2" stroke-miterlimit="10"/>
<path d="M30 50H32" stroke="#00A19C" stroke-width="2" stroke-miterlimit="10"/>
<path d="M32 46H34" stroke="#00A19C" stroke-width="2" stroke-miterlimit="10"/>
<path d="M42 50H44" stroke="#00A19C" stroke-width="2" stroke-miterlimit="10"/>
<path d="M36 46H38" stroke="#00A19C" stroke-width="2" stroke-miterlimit="10"/>
<path d="M40 46H42" stroke="#00A19C" stroke-width="2" stroke-miterlimit="10"/>
<path d="M44 46H46" stroke="#00A19C" stroke-width="2" stroke-miterlimit="10"/>
<path d="M46 42H48" stroke="#00A19C" stroke-width="2" stroke-miterlimit="10"/>
<path d="M42 42H44" stroke="#00A19C" stroke-width="2" stroke-miterlimit="10"/>
<path d="M46 50H48" stroke="#00A19C" stroke-width="2" stroke-miterlimit="10"/>
<path d="M50 42H52" stroke="#00A19C" stroke-width="2" stroke-miterlimit="10"/>
<path d="M54 42H56" stroke="#00A19C" stroke-width="2" stroke-miterlimit="10"/>
<path d="M52 46H54" stroke="#00A19C" stroke-width="2" stroke-miterlimit="10"/>
<path d="M56 46H58" stroke="#00A19C" stroke-width="2" stroke-miterlimit="10"/>
<path d="M56 54H58" stroke="#00A19C" stroke-width="2" stroke-miterlimit="10"/>
<path d="M50 50H52" stroke="#00A19C" stroke-width="2" stroke-miterlimit="10"/>
<path d="M54 50H56" stroke="#00A19C" stroke-width="2" stroke-miterlimit="10"/>
<path d="M44 54H46" stroke="#00A19C" stroke-width="2" stroke-miterlimit="10"/>
<path d="M48 54H50" stroke="#00A19C" stroke-width="2" stroke-miterlimit="10"/>
<path d="M30 42H32" stroke="#00A19C" stroke-width="2" stroke-miterlimit="10"/>
<path d="M34 42H36" stroke="#00A19C" stroke-width="2" stroke-miterlimit="10"/>
<path d="M38 42H40" stroke="#00A19C" stroke-width="2" stroke-miterlimit="10"/>
</svg>
