<svg width="64" height="64" viewBox="0 0 64 64" fill="none" xmlns="http://www.w3.org/2000/svg">
<path d="M43 52H46" stroke="#00A19C" stroke-width="2" stroke-linejoin="round"/>
<path d="M23 7V1" stroke="#00A19C" stroke-width="2" stroke-linejoin="round"/>
<path d="M2 17H13" stroke="#00A19C" stroke-width="2" stroke-miterlimit="10"/>
<path d="M33 7H29V11H33V7Z" stroke="#00A19C" stroke-width="2" stroke-miterlimit="10"/>
<path d="M33 15H29V19H33V15Z" stroke="#00A19C" stroke-width="2" stroke-miterlimit="10"/>
<path d="M33 23H29V27H33V23Z" stroke="#00A19C" stroke-width="2" stroke-miterlimit="10"/>
<path d="M25 7H21V11H25V7Z" stroke="#00A19C" stroke-width="2" stroke-miterlimit="10"/>
<path d="M25 23H21V27H25V23Z" stroke="#00A19C" stroke-width="2" stroke-miterlimit="10"/>
<path d="M17 7H13V11H17V7Z" stroke="#00A19C" stroke-width="2" stroke-miterlimit="10"/>
<path d="M17 15H13V19H17V15Z" stroke="#00A19C" stroke-width="2" stroke-miterlimit="10"/>
<path d="M17 23H13V27H17V23Z" stroke="#00A19C" stroke-width="2" stroke-miterlimit="10"/>
<path d="M31 27V33H35V37H50" stroke="#00A19C" stroke-width="2" stroke-miterlimit="10"/>
<path d="M50 21H48" stroke="#00A19C" stroke-width="2" stroke-miterlimit="10"/>
<path d="M33 25H39V17H33" stroke="#00A19C" stroke-width="2" stroke-miterlimit="10"/>
<path d="M42 9H44" stroke="#00A19C" stroke-width="2" stroke-miterlimit="10"/>
<path d="M42 13H44" stroke="#00A19C" stroke-width="2" stroke-miterlimit="10"/>
<path d="M46 13H48" stroke="#00A19C" stroke-width="2" stroke-miterlimit="10"/>
<path d="M42 17H44" stroke="#00A19C" stroke-width="2" stroke-miterlimit="10"/>
<path d="M23 27V39H27V64" stroke="#00A19C" stroke-width="2" stroke-miterlimit="10"/>
<path d="M31 7V1" stroke="#00A19C" stroke-width="2" stroke-linejoin="round"/>
<path d="M13 25H7V9H13" stroke="#00A19C" stroke-width="2" stroke-miterlimit="10"/>
<path d="M21 64V49L15 37V27" stroke="#00A19C" stroke-width="2" stroke-linejoin="round"/>
<path d="M31 36V38" stroke="#00A19C" stroke-width="2" stroke-miterlimit="10"/>
<path d="M27 30V32" stroke="#00A19C" stroke-width="2" stroke-miterlimit="10"/>
<path d="M27 34V36" stroke="#00A19C" stroke-width="2" stroke-miterlimit="10"/>
<path d="M31 40V42" stroke="#00A19C" stroke-width="2" stroke-miterlimit="10"/>
<path d="M34 41H36" stroke="#00A19C" stroke-width="2" stroke-miterlimit="10"/>
<path d="M33 9H39V14" stroke="#00A19C" stroke-width="2" stroke-miterlimit="10"/>
<path d="M46 21H39" stroke="#00A19C" stroke-width="2" stroke-miterlimit="10"/>
<path d="M25 15H21V19H25V15Z" stroke="#00A19C" stroke-width="2" stroke-miterlimit="10"/>
<path d="M27 45H31V64" stroke="#00A19C" stroke-width="2" stroke-miterlimit="10"/>
<path d="M18 1H34C45.6 1 55 10.4 55 22L61 35V37H55V46C55 49.31 52.31 52 49 52H43V64" stroke="#00A19C" stroke-width="2" stroke-linejoin="round"/>
</svg>
