<svg width="162" height="56" viewBox="0 0 162 56" fill="none" xmlns="http://www.w3.org/2000/svg">
<path d="M24.8452 35.2905L22.8492 35.2635L24.3864 27.2451C24.3864 27.2451 23.7668 27.0864 23.2963 26.4277C22.8308 25.7776 22.4574 24.9534 22.6768 23.8692C23.1238 21.6519 24.9323 21.6738 24.9323 21.6738L24.8569 16.5636L8.17582 16.5366L8.1507 17.9467H12.1929V54.6135H8V56H29.1V54.6135L24.8452 54.6203V35.2888V35.2905ZM25.7729 16.5281L25.7963 21.6755C25.7963 21.6755 28.3532 22.2446 27.8509 25.3081C27.8509 25.3081 27.5662 26.9411 26.1262 27.2113L27.8408 35.3057H25.6724V40.2707C25.6724 40.2707 28.6195 40.6979 32.1258 39.1375C34.604 38.0347 37.8475 36.2413 39.1854 31.5279C39.1854 31.5279 42.7654 17.3894 25.7729 16.5264V16.5281ZM19.1001 15.3679C23.4705 15.3679 27.0136 11.9279 27.0136 7.68396C27.0136 3.44005 23.4705 0 19.0984 0C14.7264 0 11.1848 3.44005 11.1848 7.68396C11.1848 11.9279 14.728 15.3679 19.0984 15.3679H19.1001Z" fill="#242D38"/>
<path d="M49.576 39H48.4V30.6H49.576V39ZM55.1806 39H54.0286V35.124C54.0286 34.08 53.8246 33.66 53.2486 33.66C52.8886 33.66 52.5406 33.864 52.3126 34.236V39H51.1606V32.7H52.3126V33.132C52.5646 32.808 52.9966 32.568 53.5366 32.568C54.7486 32.568 55.1806 33.348 55.1806 34.932V39ZM59.0508 31.368C58.9068 31.32 58.7388 31.296 58.5708 31.296C58.0068 31.296 57.8388 31.5 57.8388 31.968V32.7H58.8708V33.78H57.8388V39H56.6868V33.78H56.0508V32.7H56.6868V31.812C56.6868 30.78 57.2868 30.288 58.1028 30.288C58.4988 30.288 58.7868 30.324 59.0508 30.408V31.368ZM64.047 35.832C64.047 38.04 63.135 39.132 61.743 39.132C60.435 39.132 59.511 38.088 59.511 35.88C59.511 33.672 60.387 32.568 61.791 32.568C63.123 32.568 64.047 33.636 64.047 35.832ZM62.883 35.856C62.883 34.428 62.487 33.672 61.767 33.672C61.047 33.672 60.675 34.416 60.675 35.856C60.675 37.296 61.059 38.028 61.779 38.028C62.499 38.028 62.883 37.164 62.883 35.856ZM68.3316 32.784L68.0556 33.936C67.8276 33.804 67.6116 33.744 67.2516 33.744C66.9276 33.744 66.6156 33.852 66.3516 34.236V39H65.1996V32.7H66.3516V33.132C66.6036 32.808 66.9996 32.568 67.4676 32.568C67.8636 32.568 68.1396 32.664 68.3316 32.784ZM75.8789 39H74.7269V35.124C74.7269 34.08 74.6429 33.66 74.0669 33.66C73.7069 33.66 73.3589 33.864 73.1309 34.236V39H71.9789V35.124C71.9789 34.08 71.8949 33.66 71.3189 33.66C70.9589 33.66 70.6109 33.864 70.3829 34.236V39H69.2309V32.7H70.3829V33.132C70.6349 32.808 71.0189 32.568 71.5589 32.568C72.1829 32.568 72.5669 32.784 72.8309 33.24C73.2749 32.736 73.7429 32.568 74.3069 32.568C75.5669 32.568 75.8789 33.384 75.8789 35.052V39ZM81.0633 39H79.9113V38.568C79.5873 38.94 79.1793 39.132 78.6153 39.132C77.6913 39.132 76.8993 38.436 76.8993 37.02C76.8993 35.652 77.7513 34.956 78.9513 34.956C79.3353 34.956 79.6593 35.04 79.9113 35.16V34.548C79.9113 33.936 79.7073 33.648 79.0953 33.648C78.6993 33.648 78.3393 33.756 77.8593 34.044L77.3673 33.168C77.9433 32.784 78.6033 32.568 79.1793 32.568C80.5353 32.568 81.0633 33.048 81.0633 34.452V39ZM79.9113 37.5V36.24C79.6353 36.072 79.3953 36 78.9633 36C78.4233 36 78.0513 36.312 78.0513 36.996C78.0513 37.74 78.3513 38.088 78.8433 38.088C79.3353 38.088 79.6953 37.872 79.9113 37.5ZM85.0425 37.776L84.9105 38.844C84.6345 39.024 84.3105 39.132 83.8785 39.132C83.0385 39.132 82.6665 38.544 82.6665 37.524V33.78H81.9825V32.7H82.6665V30.864L83.8185 30.252V32.7H85.0305V33.78H83.8185V37.416C83.8185 37.86 83.9865 38.04 84.2985 38.04C84.5985 38.04 84.8745 37.92 85.0425 37.776ZM87.5905 31.008C87.5905 31.392 87.2665 31.716 86.8825 31.716C86.4865 31.716 86.1625 31.392 86.1625 31.008C86.1625 30.612 86.4865 30.288 86.8825 30.288C87.2665 30.288 87.5905 30.612 87.5905 31.008ZM87.4585 39H86.3065V32.7H87.4585V39ZM93.2032 35.832C93.2032 38.04 92.2912 39.132 90.8992 39.132C89.5912 39.132 88.6672 38.088 88.6672 35.88C88.6672 33.672 89.5432 32.568 90.9472 32.568C92.2792 32.568 93.2032 33.636 93.2032 35.832ZM92.0392 35.856C92.0392 34.428 91.6432 33.672 90.9232 33.672C90.2032 33.672 89.8312 34.416 89.8312 35.856C89.8312 37.296 90.2152 38.028 90.9352 38.028C91.6552 38.028 92.0392 37.164 92.0392 35.856ZM98.3759 39H97.2239V35.124C97.2239 34.08 97.0199 33.66 96.4439 33.66C96.0839 33.66 95.7359 33.864 95.5079 34.236V39H94.3559V32.7H95.5079V33.132C95.7599 32.808 96.1919 32.568 96.7319 32.568C97.9439 32.568 98.3759 33.348 98.3759 34.932V39ZM106.2 39H105.048V38.568C104.724 38.94 104.316 39.132 103.752 39.132C102.828 39.132 102.036 38.436 102.036 37.02C102.036 35.652 102.888 34.956 104.088 34.956C104.472 34.956 104.796 35.04 105.048 35.16V34.548C105.048 33.936 104.844 33.648 104.232 33.648C103.836 33.648 103.476 33.756 102.996 34.044L102.504 33.168C103.08 32.784 103.74 32.568 104.316 32.568C105.672 32.568 106.2 33.048 106.2 34.452V39ZM105.048 37.5V36.24C104.772 36.072 104.532 36 104.1 36C103.56 36 103.188 36.312 103.188 36.996C103.188 37.74 103.488 38.088 103.98 38.088C104.472 38.088 104.832 37.872 105.048 37.5ZM111.571 39H110.419V35.124C110.419 34.08 110.215 33.66 109.639 33.66C109.279 33.66 108.931 33.864 108.703 34.236V39H107.551V32.7H108.703V33.132C108.955 32.808 109.387 32.568 109.927 32.568C111.139 32.568 111.571 33.348 111.571 34.932V39ZM116.915 39H115.763V38.58C115.463 38.904 115.151 39.132 114.587 39.132C113.447 39.132 112.691 38.292 112.691 35.784C112.691 33.684 113.423 32.568 114.671 32.568C115.115 32.568 115.451 32.712 115.763 33.036V30.852L116.915 30.252V39ZM115.763 37.476V34.212C115.511 33.828 115.127 33.648 114.767 33.648C114.167 33.648 113.855 34.236 113.855 35.724C113.855 37.368 114.167 38.052 114.827 38.052C115.211 38.052 115.559 37.812 115.763 37.476ZM125.662 33.048C125.662 34.752 124.51 35.58 123.238 35.58H122.254V39H121.078V30.6H123.298C124.486 30.6 125.662 31.308 125.662 33.048ZM124.45 33.084C124.45 32.136 123.886 31.752 123.214 31.752H122.254V34.44H123.25C123.934 34.44 124.45 33.996 124.45 33.084ZM129.785 32.784L129.509 33.936C129.281 33.804 129.065 33.744 128.705 33.744C128.381 33.744 128.069 33.852 127.805 34.236V39H126.653V32.7H127.805V33.132C128.057 32.808 128.453 32.568 128.921 32.568C129.317 32.568 129.593 32.664 129.785 32.784ZM132.028 31.008C132.028 31.392 131.704 31.716 131.32 31.716C130.924 31.716 130.6 31.392 130.6 31.008C130.6 30.612 130.924 30.288 131.32 30.288C131.704 30.288 132.028 30.612 132.028 31.008ZM131.896 39H130.744V32.7H131.896V39ZM137.389 32.7L135.817 39H134.485L132.901 32.7H134.077L134.845 36.096C134.941 36.504 135.121 37.38 135.169 37.68C135.217 37.38 135.397 36.48 135.481 36.072L136.213 32.7H137.389ZM142.013 39H140.861V38.568C140.537 38.94 140.129 39.132 139.565 39.132C138.641 39.132 137.849 38.436 137.849 37.02C137.849 35.652 138.701 34.956 139.901 34.956C140.285 34.956 140.609 35.04 140.861 35.16V34.548C140.861 33.936 140.657 33.648 140.045 33.648C139.649 33.648 139.289 33.756 138.809 34.044L138.317 33.168C138.893 32.784 139.553 32.568 140.129 32.568C141.485 32.568 142.013 33.048 142.013 34.452V39ZM140.861 37.5V36.24C140.585 36.072 140.345 36 139.913 36C139.373 36 139.001 36.312 139.001 36.996C139.001 37.74 139.301 38.088 139.793 38.088C140.285 38.088 140.645 37.872 140.861 37.5ZM147.18 38.016C146.76 38.676 146.256 39.132 145.344 39.132C144.036 39.132 143.148 38.088 143.148 35.88C143.148 33.672 143.988 32.568 145.392 32.568C146.304 32.568 146.808 33.06 147.168 33.672L146.34 34.392C146.016 33.876 145.764 33.672 145.356 33.672C144.624 33.672 144.312 34.476 144.312 35.856C144.312 37.188 144.636 38.028 145.392 38.028C145.776 38.028 146.04 37.824 146.352 37.332L147.18 38.016ZM152.487 32.7L150.003 41.22H148.875L149.559 39L147.807 32.7H149.031L149.763 35.688C149.883 36.168 150.075 37.08 150.135 37.404C150.195 37.08 150.399 36.156 150.519 35.676L151.263 32.7H152.487ZM52.744 51.008C52.48 52.268 51.892 53.132 50.512 53.132C48.7 53.132 48.04 51.2 48.04 48.812C48.04 46.376 48.772 44.468 50.548 44.468C51.952 44.468 52.528 45.32 52.732 46.52L51.544 46.82C51.388 46.064 51.16 45.656 50.512 45.656C49.492 45.656 49.252 47.312 49.252 48.788C49.252 50.336 49.576 51.944 50.596 51.944C51.16 51.944 51.424 51.56 51.652 50.66L52.744 51.008ZM58.1173 49.832C58.1173 52.04 57.2053 53.132 55.8133 53.132C54.5053 53.132 53.5813 52.088 53.5813 49.88C53.5813 47.672 54.4573 46.568 55.8613 46.568C57.1933 46.568 58.1173 47.636 58.1173 49.832ZM56.9533 49.856C56.9533 48.428 56.5573 47.672 55.8373 47.672C55.1173 47.672 54.7453 48.416 54.7453 49.856C54.7453 51.296 55.1293 52.028 55.8493 52.028C56.5693 52.028 56.9533 51.164 56.9533 49.856ZM65.9179 53H64.7659V49.124C64.7659 48.08 64.6819 47.66 64.1059 47.66C63.7459 47.66 63.3979 47.864 63.1699 48.236V53H62.0179V49.124C62.0179 48.08 61.9339 47.66 61.3579 47.66C60.9979 47.66 60.6499 47.864 60.4219 48.236V53H59.2699V46.7H60.4219V47.132C60.6739 46.808 61.0579 46.568 61.5979 46.568C62.2219 46.568 62.6059 46.784 62.8699 47.24C63.3139 46.736 63.7819 46.568 64.3459 46.568C65.6059 46.568 65.9179 47.384 65.9179 49.052V53ZM73.8984 53H72.7464V49.124C72.7464 48.08 72.6624 47.66 72.0864 47.66C71.7264 47.66 71.3784 47.864 71.1504 48.236V53H69.9984V49.124C69.9984 48.08 69.9144 47.66 69.3384 47.66C68.9784 47.66 68.6304 47.864 68.4024 48.236V53H67.2504V46.7H68.4024V47.132C68.6544 46.808 69.0384 46.568 69.5784 46.568C70.2024 46.568 70.5864 46.784 70.8504 47.24C71.2944 46.736 71.7624 46.568 72.3264 46.568C73.5864 46.568 73.8984 47.384 73.8984 49.052V53ZM76.5749 45.008C76.5749 45.392 76.2509 45.716 75.8669 45.716C75.4709 45.716 75.1469 45.392 75.1469 45.008C75.1469 44.612 75.4709 44.288 75.8669 44.288C76.2509 44.288 76.5749 44.612 76.5749 45.008ZM76.4429 53H75.2909V46.7H76.4429V53ZM81.3956 51.272C81.3956 52.472 80.6636 53.132 79.4396 53.132C78.7676 53.132 78.0596 52.868 77.5076 52.46L77.9516 51.5C78.5276 51.86 78.9956 52.04 79.4156 52.04C79.9316 52.04 80.2436 51.764 80.2436 51.356C80.2436 50.912 79.9076 50.684 79.0316 50.18C78.2516 49.724 77.7236 49.316 77.7236 48.32C77.7236 47.228 78.3836 46.568 79.5236 46.568C80.1596 46.568 80.7716 46.796 81.2396 47.156L80.7716 48.128C80.3636 47.84 79.8956 47.66 79.4996 47.66C79.0676 47.66 78.8756 47.9 78.8756 48.212C78.8756 48.596 79.0556 48.788 79.9076 49.28C80.8556 49.832 81.3956 50.24 81.3956 51.272ZM83.8757 45.008C83.8757 45.392 83.5517 45.716 83.1677 45.716C82.7717 45.716 82.4477 45.392 82.4477 45.008C82.4477 44.612 82.7717 44.288 83.1677 44.288C83.5517 44.288 83.8757 44.612 83.8757 45.008ZM83.7437 53H82.5917V46.7H83.7437V53ZM89.4884 49.832C89.4884 52.04 88.5764 53.132 87.1844 53.132C85.8764 53.132 84.9524 52.088 84.9524 49.88C84.9524 47.672 85.8284 46.568 87.2324 46.568C88.5644 46.568 89.4884 47.636 89.4884 49.832ZM88.3244 49.856C88.3244 48.428 87.9284 47.672 87.2084 47.672C86.4884 47.672 86.1164 48.416 86.1164 49.856C86.1164 51.296 86.5004 52.028 87.2204 52.028C87.9404 52.028 88.3244 51.164 88.3244 49.856ZM94.661 53H93.509V49.124C93.509 48.08 93.305 47.66 92.729 47.66C92.369 47.66 92.021 47.864 91.793 48.236V53H90.641V46.7H91.793V47.132C92.045 46.808 92.477 46.568 93.017 46.568C94.229 46.568 94.661 47.348 94.661 48.932V53ZM100.245 49.832C100.245 49.94 100.245 50.12 100.233 50.24H96.9325C97.0045 51.488 97.4485 52.028 98.1205 52.028C98.6485 52.028 98.9005 51.896 99.2605 51.56L99.9685 52.292C99.5365 52.772 98.9005 53.132 98.0965 53.132C96.5965 53.132 95.7805 51.86 95.7805 49.88C95.7805 47.672 96.6925 46.568 98.0245 46.568C99.2845 46.568 100.245 47.636 100.245 49.832ZM99.0685 49.244C99.0325 48.308 98.6485 47.648 98.0005 47.648C97.4125 47.648 97.0405 48.164 96.9445 49.244H99.0685ZM104.531 46.784L104.255 47.936C104.027 47.804 103.811 47.744 103.451 47.744C103.127 47.744 102.815 47.852 102.551 48.236V53H101.399V46.7H102.551V47.132C102.803 46.808 103.199 46.568 103.667 46.568C104.063 46.568 104.339 46.664 104.531 46.784ZM112.387 49.832C112.387 52.04 111.475 53.132 110.083 53.132C108.775 53.132 107.851 52.088 107.851 49.88C107.851 47.672 108.727 46.568 110.131 46.568C111.463 46.568 112.387 47.636 112.387 49.832ZM111.223 49.856C111.223 48.428 110.827 47.672 110.107 47.672C109.387 47.672 109.015 48.416 109.015 49.856C109.015 51.296 109.399 52.028 110.119 52.028C110.839 52.028 111.223 51.164 111.223 49.856ZM116.074 45.368C115.93 45.32 115.762 45.296 115.594 45.296C115.03 45.296 114.862 45.5 114.862 45.968V46.7H115.894V47.78H114.862V53H113.71V47.78H113.074V46.7H113.71V45.812C113.71 44.78 114.31 44.288 115.126 44.288C115.522 44.288 115.81 44.324 116.074 44.408V45.368ZM124.483 48.788C124.483 51.224 123.703 53.132 121.927 53.132C120.151 53.132 119.407 51.248 119.407 48.812C119.407 46.376 120.163 44.468 121.939 44.468C123.715 44.468 124.483 46.352 124.483 48.788ZM123.283 48.812C123.283 47.252 122.935 45.644 121.915 45.644C120.895 45.644 120.607 47.228 120.607 48.788C120.607 50.348 120.943 51.956 121.963 51.956C122.983 51.956 123.283 50.372 123.283 48.812ZM129.724 53H128.572V49.124C128.572 48.08 128.368 47.66 127.792 47.66C127.432 47.66 127.084 47.864 126.856 48.236V53H125.704V46.7H126.856V47.132C127.108 46.808 127.54 46.568 128.08 46.568C129.292 46.568 129.724 47.348 129.724 48.932V53ZM133.687 51.776L133.555 52.844C133.279 53.024 132.955 53.132 132.523 53.132C131.683 53.132 131.311 52.544 131.311 51.524V47.78H130.627V46.7H131.311V44.864L132.463 44.252V46.7H133.675V47.78H132.463V51.416C132.463 51.86 132.631 52.04 132.943 52.04C133.243 52.04 133.519 51.92 133.687 51.776ZM138.626 53H137.474V52.568C137.15 52.94 136.742 53.132 136.178 53.132C135.254 53.132 134.462 52.436 134.462 51.02C134.462 49.652 135.314 48.956 136.514 48.956C136.898 48.956 137.222 49.04 137.474 49.16V48.548C137.474 47.936 137.27 47.648 136.658 47.648C136.262 47.648 135.902 47.756 135.422 48.044L134.93 47.168C135.506 46.784 136.166 46.568 136.742 46.568C138.098 46.568 138.626 47.048 138.626 48.452V53ZM137.474 51.5V50.24C137.198 50.072 136.958 50 136.526 50C135.986 50 135.614 50.312 135.614 50.996C135.614 51.74 135.914 52.088 136.406 52.088C136.898 52.088 137.258 51.872 137.474 51.5ZM143.109 46.784L142.833 47.936C142.605 47.804 142.389 47.744 142.029 47.744C141.705 47.744 141.393 47.852 141.129 48.236V53H139.977V46.7H141.129V47.132C141.381 46.808 141.777 46.568 142.245 46.568C142.641 46.568 142.917 46.664 143.109 46.784ZM145.352 45.008C145.352 45.392 145.028 45.716 144.644 45.716C144.248 45.716 143.924 45.392 143.924 45.008C143.924 44.612 144.248 44.288 144.644 44.288C145.028 44.288 145.352 44.612 145.352 45.008ZM145.22 53H144.068V46.7H145.22V53ZM150.965 49.832C150.965 52.04 150.053 53.132 148.661 53.132C147.353 53.132 146.429 52.088 146.429 49.88C146.429 47.672 147.305 46.568 148.709 46.568C150.041 46.568 150.965 47.636 150.965 49.832ZM149.801 49.856C149.801 48.428 149.405 47.672 148.685 47.672C147.965 47.672 147.593 48.416 147.593 49.856C147.593 51.296 147.977 52.028 148.697 52.028C149.417 52.028 149.801 51.164 149.801 49.856Z" fill="#242D38"/>
</svg>
