<svg width="560" height="560" viewBox="0 0 560 560" fill="none" xmlns="http://www.w3.org/2000/svg">
<path d="M560 280C560 434.64 434.64 560 280 560C125.36 560 0 434.64 0 280C0 125.36 125.36 0 280 0C434.64 0 560 125.36 560 280ZM98 280C98 380.516 179.484 462 280 462C380.516 462 462 380.516 462 280C462 179.484 380.516 98 280 98C179.484 98 98 179.484 98 280Z" fill="#727372"/>
<path d="M280 0C352.979 8.70262e-07 423.074 28.4929 475.355 79.4099C527.636 130.327 557.973 199.644 559.902 272.597C561.832 345.55 535.202 416.374 485.685 469.983C436.168 523.593 367.677 555.751 294.801 559.609C221.924 563.466 150.421 538.718 95.5211 490.636C40.6213 442.554 6.66351 374.937 0.880496 302.188C-4.90252 229.439 17.9463 157.306 64.5602 101.155C111.174 45.0027 177.869 9.26908 250.44 1.56469L260.786 99.017C213.615 104.025 170.263 127.252 139.964 163.75C109.665 200.249 94.8134 247.135 98.5723 294.422C102.331 341.709 124.404 385.66 160.089 416.913C195.774 448.167 242.251 464.253 289.62 461.746C336.99 459.238 381.509 438.335 413.695 403.489C445.881 368.643 463.191 322.608 461.936 275.188C460.682 227.769 440.964 182.712 406.981 149.616C372.998 116.52 327.436 98 280 98L280 0Z" fill="#C3E86C"/>
<path d="M280 0C339.897 7.14269e-07 398.216 19.2077 446.39 54.8018C494.565 90.3959 530.055 140.5 547.649 197.756C565.242 255.011 564.012 316.399 544.138 372.903C524.264 429.407 486.795 478.049 437.233 511.685C387.671 545.32 328.63 562.175 268.78 559.775C208.931 557.375 151.429 535.846 104.72 498.35C58.0103 460.854 24.556 409.368 9.27069 351.454C-6.01464 293.54 -2.32541 232.25 19.7965 176.588L110.868 212.782C96.4885 248.963 94.0905 288.801 104.026 326.445C113.961 364.089 135.707 397.555 166.068 421.928C196.429 446.3 233.805 460.294 272.707 461.854C311.609 463.414 349.986 452.458 382.202 430.595C414.417 408.732 438.772 377.115 451.69 340.387C464.608 303.659 465.408 263.757 453.972 226.541C442.536 189.325 419.467 156.757 388.154 133.621C356.841 110.485 318.933 98 280 98L280 0Z" fill="#00A19C"/>
<path d="M280 0C338.136 6.93269e-07 394.831 18.0961 442.217 51.7771C489.603 85.4582 525.33 133.054 544.44 187.959C563.55 242.865 565.096 302.358 548.864 358.182C532.631 414.006 499.424 463.393 453.852 499.49C408.279 535.586 352.601 556.603 294.543 559.622C236.485 562.642 178.927 547.515 129.856 516.34C80.7844 485.166 42.6336 439.49 20.6974 385.651C-1.23893 331.812 -5.87284 272.48 7.43866 215.888L102.835 238.327C94.1827 275.112 97.1947 313.678 111.453 348.673C125.712 383.668 150.51 413.358 182.406 433.621C214.302 453.884 251.715 463.717 289.453 461.754C327.19 459.792 363.381 446.131 393.003 422.668C422.626 399.205 444.21 367.104 454.761 330.818C465.313 294.532 464.308 255.862 451.886 220.174C439.464 184.485 416.242 153.548 385.441 131.655C354.64 109.762 317.789 98 280 98L280 0Z" fill="#337975"/>
<path d="M280 0C326.38 5.53074e-07 372.033 11.521 412.859 33.5282C453.686 55.5353 488.406 87.3393 513.901 126.083C539.396 164.827 554.868 209.297 558.926 255.499C562.984 301.701 555.502 348.188 537.152 390.783C518.802 433.378 490.158 470.748 453.793 499.536C417.429 528.323 374.483 547.627 328.814 555.712C283.144 563.798 236.181 560.412 192.144 545.859C148.106 531.307 108.373 506.043 76.514 472.337L147.734 405.019C168.443 426.928 194.269 443.349 222.893 452.809C251.518 462.268 282.044 464.469 311.729 459.213C341.414 453.957 369.329 441.41 392.966 422.698C416.603 403.986 435.221 379.696 447.149 352.009C459.077 324.322 463.94 294.106 461.302 264.074C458.664 234.043 448.607 205.138 432.036 179.954C415.464 154.771 392.896 134.098 366.359 119.793C339.822 105.489 310.147 98 280 98L280 0Z" fill="#002554"/>
</svg>
