<svg width="352" height="48" viewBox="0 0 352 48" fill="none" xmlns="http://www.w3.org/2000/svg">
<g clip-path="url(#clip0_2112_34041)">
<line y1="-0.5" x2="152.735" y2="-0.5" transform="matrix(0.500001 0.866025 0.866026 -0.499999 342 -42)" stroke="#242D38"/>
<line y1="-0.5" x2="152.735" y2="-0.5" transform="matrix(0.500001 0.866025 0.866026 -0.499999 330 -42)" stroke="#242D38"/>
<line y1="-0.5" x2="152.735" y2="-0.5" transform="matrix(0.500001 0.866025 0.866026 -0.499999 318 -42)" stroke="#242D38"/>
<line y1="-0.5" x2="152.735" y2="-0.5" transform="matrix(0.500001 0.866025 0.866026 -0.499999 306 -42)" stroke="#242D38"/>
<line y1="-0.5" x2="152.735" y2="-0.5" transform="matrix(0.500001 0.866025 0.866026 -0.499999 294 -42)" stroke="#242D38"/>
<line y1="-0.5" x2="152.735" y2="-0.5" transform="matrix(0.500001 0.866025 0.866026 -0.499999 282 -42)" stroke="#242D38"/>
<line y1="-0.5" x2="152.735" y2="-0.5" transform="matrix(0.500001 0.866025 0.866026 -0.499999 270 -42)" stroke="#242D38"/>
<line y1="-0.5" x2="152.735" y2="-0.5" transform="matrix(0.500001 0.866025 0.866026 -0.499999 258 -42)" stroke="#242D38"/>
<line y1="-0.5" x2="152.735" y2="-0.5" transform="matrix(0.500001 0.866025 0.866026 -0.499999 246 -42)" stroke="#242D38"/>
<line y1="-0.5" x2="152.735" y2="-0.5" transform="matrix(0.500001 0.866025 0.866026 -0.499999 234 -42)" stroke="#242D38"/>
<line y1="-0.5" x2="152.735" y2="-0.5" transform="matrix(0.500001 0.866025 0.866026 -0.499999 222 -42)" stroke="#242D38"/>
<line y1="-0.5" x2="152.735" y2="-0.5" transform="matrix(0.500001 0.866025 0.866026 -0.499999 210 -42)" stroke="#242D38"/>
<line y1="-0.5" x2="152.735" y2="-0.5" transform="matrix(0.500001 0.866025 0.866026 -0.499999 198 -42)" stroke="#242D38"/>
<line y1="-0.5" x2="152.735" y2="-0.5" transform="matrix(0.500001 0.866025 0.866026 -0.499999 186 -42)" stroke="#242D38"/>
<line y1="-0.5" x2="152.735" y2="-0.5" transform="matrix(0.500001 0.866025 0.866026 -0.499999 174 -42)" stroke="#242D38"/>
<line y1="-0.5" x2="152.735" y2="-0.5" transform="matrix(0.500001 0.866025 0.866026 -0.499999 162 -42)" stroke="#242D38"/>
<line y1="-0.5" x2="152.735" y2="-0.5" transform="matrix(0.500001 0.866025 0.866026 -0.499999 150 -42)" stroke="#242D38"/>
<line y1="-0.5" x2="152.735" y2="-0.5" transform="matrix(0.500001 0.866025 0.866026 -0.499999 138 -42)" stroke="#242D38"/>
<line y1="-0.5" x2="152.735" y2="-0.5" transform="matrix(0.500001 0.866025 0.866026 -0.499999 126 -42)" stroke="#242D38"/>
<line y1="-0.5" x2="152.735" y2="-0.5" transform="matrix(0.500001 0.866025 0.866026 -0.499999 114 -42)" stroke="#242D38"/>
<line y1="-0.5" x2="152.735" y2="-0.5" transform="matrix(0.500001 0.866025 0.866026 -0.499999 102 -42)" stroke="#242D38"/>
<line y1="-0.5" x2="152.735" y2="-0.5" transform="matrix(0.500001 0.866025 0.866026 -0.499999 90.0001 -42)" stroke="#242D38"/>
<line y1="-0.5" x2="152.735" y2="-0.5" transform="matrix(0.500001 0.866025 0.866026 -0.499999 78.0001 -42)" stroke="#242D38"/>
<line y1="-0.5" x2="152.735" y2="-0.5" transform="matrix(0.500001 0.866025 0.866026 -0.499999 66.0002 -42)" stroke="#242D38"/>
<line y1="-0.5" x2="152.735" y2="-0.5" transform="matrix(0.500001 0.866025 0.866026 -0.499999 54.0002 -42)" stroke="#242D38"/>
<line y1="-0.5" x2="152.735" y2="-0.5" transform="matrix(0.500001 0.866025 0.866026 -0.499999 41.9997 -42)" stroke="#242D38"/>
<line y1="-0.5" x2="152.735" y2="-0.5" transform="matrix(0.500001 0.866025 0.866026 -0.499999 29.9997 -42)" stroke="#242D38"/>
<line y1="-0.5" x2="152.735" y2="-0.5" transform="matrix(0.500001 0.866025 0.866026 -0.499999 17.9997 -42)" stroke="#242D38"/>
<line y1="-0.5" x2="152.735" y2="-0.5" transform="matrix(0.500001 0.866025 0.866026 -0.499999 5.99969 -42)" stroke="#242D38"/>
<line y1="-0.5" x2="152.735" y2="-0.5" transform="matrix(0.500001 0.866025 0.866026 -0.499999 -6.00018 -42)" stroke="#242D38"/>
<line y1="-0.5" x2="152.735" y2="-0.5" transform="matrix(0.500001 0.866025 0.866026 -0.499999 -18.0002 -42)" stroke="#242D38"/>
<line y1="-0.5" x2="152.735" y2="-0.5" transform="matrix(0.500001 0.866025 0.866026 -0.499999 -30.0001 -42)" stroke="#242D38"/>
<line y1="-0.5" x2="152.735" y2="-0.5" transform="matrix(0.500001 0.866025 0.866026 -0.499999 -42.0001 -42)" stroke="#242D38"/>
<line y1="-0.5" x2="152.735" y2="-0.5" transform="matrix(0.500001 0.866025 0.866026 -0.499999 -54 -42)" stroke="#242D38"/>
<line y1="-0.5" x2="152.735" y2="-0.5" transform="matrix(0.500001 0.866025 0.866026 -0.499999 -65.9999 -42)" stroke="#242D38"/>
</g>
<defs>
<clipPath id="clip0_2112_34041">
<rect width="352" height="48" fill="white" transform="matrix(-1 0 0 1 352 0)"/>
</clipPath>
</defs>
</svg>
