<svg width="119" height="48" viewBox="0 0 119 48" fill="none" xmlns="http://www.w3.org/2000/svg">
<g clip-path="url(#clip0_2112_34170)">
<line y1="-0.5" x2="152.735" y2="-0.5" transform="matrix(0.500001 0.866025 0.866026 -0.499999 117 -42)" stroke="#242D38"/>
<line y1="-0.5" x2="152.735" y2="-0.5" transform="matrix(0.500001 0.866025 0.866026 -0.499999 105 -42)" stroke="#242D38"/>
<line y1="-0.5" x2="152.735" y2="-0.5" transform="matrix(0.500001 0.866025 0.866026 -0.499999 92.9998 -42)" stroke="#242D38"/>
<line y1="-0.5" x2="152.735" y2="-0.5" transform="matrix(0.500001 0.866025 0.866026 -0.499999 81.0002 -42)" stroke="#242D38"/>
<line y1="-0.5" x2="152.735" y2="-0.5" transform="matrix(0.500001 0.866025 0.866026 -0.499999 68.9998 -42)" stroke="#242D38"/>
<line y1="-0.5" x2="152.735" y2="-0.5" transform="matrix(0.500001 0.866025 0.866026 -0.499999 56.9998 -42)" stroke="#242D38"/>
<line y1="-0.5" x2="152.735" y2="-0.5" transform="matrix(0.500001 0.866025 0.866026 -0.499999 44.9999 -42)" stroke="#242D38"/>
<line y1="-0.5" x2="152.735" y2="-0.5" transform="matrix(0.500001 0.866025 0.866026 -0.499999 32.9999 -42)" stroke="#242D38"/>
<line y1="-0.5" x2="152.735" y2="-0.5" transform="matrix(0.500001 0.866025 0.866026 -0.499999 21 -42)" stroke="#242D38"/>
<line y1="-0.5" x2="152.735" y2="-0.5" transform="matrix(0.500001 0.866025 0.866026 -0.499999 9 -42)" stroke="#242D38"/>
<line y1="-0.5" x2="152.735" y2="-0.5" transform="matrix(0.500001 0.866025 0.866026 -0.499999 -3 -42)" stroke="#242D38"/>
<line y1="-0.5" x2="152.735" y2="-0.5" transform="matrix(0.500001 0.866025 0.866026 -0.499999 -15 -42)" stroke="#242D38"/>
<line y1="-0.5" x2="152.735" y2="-0.5" transform="matrix(0.500001 0.866025 0.866026 -0.499999 -27 -42)" stroke="#242D38"/>
<line y1="-0.5" x2="152.735" y2="-0.5" transform="matrix(0.500001 0.866025 0.866026 -0.499999 -39 -42)" stroke="#242D38"/>
<line y1="-0.5" x2="152.735" y2="-0.5" transform="matrix(0.500001 0.866025 0.866026 -0.499999 -50.9998 -42)" stroke="#242D38"/>
<line y1="-0.5" x2="152.735" y2="-0.5" transform="matrix(0.500001 0.866025 0.866026 -0.499999 -62.9998 -42)" stroke="#242D38"/>
<line y1="-0.5" x2="152.735" y2="-0.5" transform="matrix(0.500001 0.866025 0.866026 -0.499999 -75.0003 -42)" stroke="#242D38"/>
</g>
<defs>
<clipPath id="clip0_2112_34170">
<rect width="119" height="48" fill="white" transform="matrix(-1 0 0 1 119 0)"/>
</clipPath>
</defs>
</svg>
