<svg width="41" height="374" viewBox="0 0 41 374" fill="none" xmlns="http://www.w3.org/2000/svg">
<g clip-path="url(#clip0_2540_11741)">
<line y1="-0.5" x2="152.735" y2="-0.5" transform="matrix(0.866025 0.500001 -0.499999 0.866026 -45.6665 365)" stroke="#C3E86C"/>
<line y1="-0.5" x2="152.735" y2="-0.5" transform="matrix(0.866025 0.500001 -0.499999 0.866026 -45.6665 353)" stroke="#C3E86C"/>
<line y1="-0.5" x2="152.735" y2="-0.5" transform="matrix(0.866025 0.500001 -0.499999 0.866026 -45.6665 341)" stroke="#C3E86C"/>
<line y1="-0.5" x2="152.735" y2="-0.5" transform="matrix(0.866025 0.500001 -0.499999 0.866026 -45.6665 329)" stroke="#C3E86C"/>
<line y1="-0.5" x2="152.735" y2="-0.5" transform="matrix(0.866025 0.500001 -0.499999 0.866026 -45.6665 317)" stroke="#C3E86C"/>
<line y1="-0.5" x2="152.735" y2="-0.5" transform="matrix(0.866025 0.500001 -0.499999 0.866026 -45.6665 305)" stroke="#C3E86C"/>
<line y1="-0.5" x2="152.735" y2="-0.5" transform="matrix(0.866025 0.500001 -0.499999 0.866026 -45.6665 293)" stroke="#C3E86C"/>
<line y1="-0.5" x2="152.735" y2="-0.5" transform="matrix(0.866025 0.500001 -0.499999 0.866026 -45.6665 281)" stroke="#C3E86C"/>
<line y1="-0.5" x2="152.735" y2="-0.5" transform="matrix(0.866025 0.500001 -0.499999 0.866026 -45.6665 269)" stroke="#C3E86C"/>
<line y1="-0.5" x2="152.735" y2="-0.5" transform="matrix(0.866025 0.500001 -0.499999 0.866026 -45.6665 257)" stroke="#C3E86C"/>
<line y1="-0.5" x2="152.735" y2="-0.5" transform="matrix(0.866025 0.500001 -0.499999 0.866026 -45.6665 245)" stroke="#C3E86C"/>
<line y1="-0.5" x2="152.735" y2="-0.5" transform="matrix(0.866025 0.500001 -0.499999 0.866026 -45.6665 233)" stroke="#C3E86C"/>
<line y1="-0.5" x2="152.735" y2="-0.5" transform="matrix(0.866025 0.500001 -0.499999 0.866026 -45.6665 221)" stroke="#C3E86C"/>
<line y1="-0.5" x2="152.735" y2="-0.5" transform="matrix(0.866025 0.500001 -0.499999 0.866026 -45.6665 209)" stroke="#C3E86C"/>
<line y1="-0.5" x2="152.735" y2="-0.5" transform="matrix(0.866025 0.500001 -0.499999 0.866026 -45.6665 197)" stroke="#C3E86C"/>
<line y1="-0.5" x2="152.735" y2="-0.5" transform="matrix(0.866025 0.500001 -0.499999 0.866026 -45.6665 185)" stroke="#C3E86C"/>
<line y1="-0.5" x2="152.735" y2="-0.5" transform="matrix(0.866025 0.500001 -0.499999 0.866026 -45.6665 173)" stroke="#C3E86C"/>
<line y1="-0.5" x2="152.735" y2="-0.5" transform="matrix(0.866025 0.500001 -0.499999 0.866026 -45.6665 161)" stroke="#C3E86C"/>
<line y1="-0.5" x2="152.735" y2="-0.5" transform="matrix(0.866025 0.500001 -0.499999 0.866026 -45.6665 149)" stroke="#C3E86C"/>
<line y1="-0.5" x2="152.735" y2="-0.5" transform="matrix(0.866025 0.500001 -0.499999 0.866026 -45.6665 137)" stroke="#C3E86C"/>
<line y1="-0.5" x2="152.735" y2="-0.5" transform="matrix(0.866025 0.500001 -0.499999 0.866026 -45.6665 125)" stroke="#C3E86C"/>
<line y1="-0.5" x2="152.735" y2="-0.5" transform="matrix(0.866025 0.500001 -0.499999 0.866026 -45.6665 113)" stroke="#C3E86C"/>
<line y1="-0.5" x2="152.735" y2="-0.5" transform="matrix(0.866025 0.500001 -0.499999 0.866026 -45.6665 101)" stroke="#C3E86C"/>
<line y1="-0.5" x2="152.735" y2="-0.5" transform="matrix(0.866025 0.500001 -0.499999 0.866026 -45.6665 89)" stroke="#C3E86C"/>
<line y1="-0.5" x2="152.735" y2="-0.5" transform="matrix(0.866025 0.500001 -0.499999 0.866026 -45.6665 77.0002)" stroke="#C3E86C"/>
<line y1="-0.5" x2="152.735" y2="-0.5" transform="matrix(0.866025 0.500001 -0.499999 0.866026 -45.6665 65.0002)" stroke="#C3E86C"/>
<line y1="-0.5" x2="152.735" y2="-0.5" transform="matrix(0.866025 0.500001 -0.499999 0.866026 -45.6665 52.9998)" stroke="#C3E86C"/>
<line y1="-0.5" x2="152.735" y2="-0.5" transform="matrix(0.866025 0.500001 -0.499999 0.866026 -45.6665 40.9998)" stroke="#C3E86C"/>
<line y1="-0.5" x2="152.735" y2="-0.5" transform="matrix(0.866025 0.500001 -0.499999 0.866026 -45.6665 28.9998)" stroke="#C3E86C"/>
<line y1="-0.5" x2="152.735" y2="-0.5" transform="matrix(0.866025 0.500001 -0.499999 0.866026 -45.6665 16.9998)" stroke="#C3E86C"/>
<line y1="-0.5" x2="152.735" y2="-0.5" transform="matrix(0.866025 0.500001 -0.499999 0.866026 -45.6665 4.99976)" stroke="#C3E86C"/>
<line y1="-0.5" x2="152.735" y2="-0.5" transform="matrix(0.866025 0.500001 -0.499999 0.866026 -45.6665 -7.00024)" stroke="#C3E86C"/>
<line y1="-0.5" x2="152.735" y2="-0.5" transform="matrix(0.866025 0.500001 -0.499999 0.866026 -45.6665 -19)" stroke="#C3E86C"/>
<line y1="-0.5" x2="152.735" y2="-0.5" transform="matrix(0.866025 0.500001 -0.499999 0.866026 -45.6665 -31)" stroke="#C3E86C"/>
<line y1="-0.5" x2="152.735" y2="-0.5" transform="matrix(0.866025 0.500001 -0.499999 0.866026 -45.6665 -43)" stroke="#C3E86C"/>
<line y1="-0.5" x2="152.735" y2="-0.5" transform="matrix(0.866025 0.500001 -0.499999 0.866026 -45.6665 -55)" stroke="#C3E86C"/>
<line y1="-0.5" x2="152.735" y2="-0.5" transform="matrix(0.866025 0.500001 -0.499999 0.866026 -45.6665 -67)" stroke="#C3E86C"/>
</g>
<defs>
<clipPath id="clip0_2540_11741">
<rect width="374" height="40" fill="white" transform="translate(0.333496 374) rotate(-90)"/>
</clipPath>
</defs>
</svg>
