<svg width="8" height="212" viewBox="0 0 8 212" fill="none" xmlns="http://www.w3.org/2000/svg">
<g clip-path="url(#clip0_2101_236283)">
<line y1="-0.5" x2="152.735" y2="-0.5" transform="matrix(0.866025 0.500001 -0.499999 0.866026 -62 212)" stroke="#C3E86C"/>
<line y1="-0.5" x2="152.735" y2="-0.5" transform="matrix(0.866025 0.500001 -0.499999 0.866026 -62 200)" stroke="#C3E86C"/>
<line y1="-0.5" x2="152.735" y2="-0.5" transform="matrix(0.866025 0.500001 -0.499999 0.866026 -62 188)" stroke="#C3E86C"/>
<line y1="-0.5" x2="152.735" y2="-0.5" transform="matrix(0.866025 0.500001 -0.499999 0.866026 -62 176)" stroke="#C3E86C"/>
<line y1="-0.5" x2="152.735" y2="-0.5" transform="matrix(0.866025 0.500001 -0.499999 0.866026 -62 164)" stroke="#C3E86C"/>
<line y1="-0.5" x2="152.735" y2="-0.5" transform="matrix(0.866025 0.500001 -0.499999 0.866026 -62 152)" stroke="#C3E86C"/>
<line y1="-0.5" x2="152.735" y2="-0.5" transform="matrix(0.866025 0.500001 -0.499999 0.866026 -62 140)" stroke="#C3E86C"/>
<line y1="-0.5" x2="152.735" y2="-0.5" transform="matrix(0.866025 0.500001 -0.499999 0.866026 -62 128)" stroke="#C3E86C"/>
<line y1="-0.5" x2="152.735" y2="-0.5" transform="matrix(0.866025 0.500001 -0.499999 0.866026 -62 116)" stroke="#C3E86C"/>
<line y1="-0.5" x2="152.735" y2="-0.5" transform="matrix(0.866025 0.500001 -0.499999 0.866026 -62 104)" stroke="#C3E86C"/>
<line y1="-0.5" x2="152.735" y2="-0.5" transform="matrix(0.866025 0.500001 -0.499999 0.866026 -62 92)" stroke="#C3E86C"/>
<line y1="-0.5" x2="152.735" y2="-0.5" transform="matrix(0.866025 0.500001 -0.499999 0.866026 -62 80)" stroke="#C3E86C"/>
<line y1="-0.5" x2="152.735" y2="-0.5" transform="matrix(0.866025 0.500001 -0.499999 0.866026 -62 68)" stroke="#C3E86C"/>
<line y1="-0.5" x2="152.735" y2="-0.5" transform="matrix(0.866025 0.500001 -0.499999 0.866026 -62 56)" stroke="#C3E86C"/>
<line y1="-0.5" x2="152.735" y2="-0.5" transform="matrix(0.866025 0.500001 -0.499999 0.866026 -62 44)" stroke="#C3E86C"/>
<line y1="-0.5" x2="152.735" y2="-0.5" transform="matrix(0.866025 0.500001 -0.499999 0.866026 -62 32)" stroke="#C3E86C"/>
<line y1="-0.5" x2="152.735" y2="-0.5" transform="matrix(0.866025 0.500001 -0.499999 0.866026 -62 20)" stroke="#C3E86C"/>
<line y1="-0.5" x2="152.735" y2="-0.5" transform="matrix(0.866025 0.500001 -0.499999 0.866026 -62 8)" stroke="#C3E86C"/>
<line y1="-0.5" x2="152.735" y2="-0.5" transform="matrix(0.866025 0.500001 -0.499999 0.866026 -62 -3.99976)" stroke="#C3E86C"/>
<line y1="-0.5" x2="152.735" y2="-0.5" transform="matrix(0.866025 0.500001 -0.499999 0.866026 -62 -15.9998)" stroke="#C3E86C"/>
<line y1="-0.5" x2="152.735" y2="-0.5" transform="matrix(0.866025 0.500001 -0.499999 0.866026 -62 -28.0002)" stroke="#C3E86C"/>
<line y1="-0.5" x2="152.735" y2="-0.5" transform="matrix(0.866025 0.500001 -0.499999 0.866026 -62 -40.0002)" stroke="#C3E86C"/>
<line y1="-0.5" x2="152.735" y2="-0.5" transform="matrix(0.866025 0.500001 -0.499999 0.866026 -62 -52.0002)" stroke="#C3E86C"/>
<line y1="-0.5" x2="152.735" y2="-0.5" transform="matrix(0.866025 0.500001 -0.499999 0.866026 -62 -64.0002)" stroke="#C3E86C"/>
<line y1="-0.5" x2="152.735" y2="-0.5" transform="matrix(0.866025 0.500001 -0.499999 0.866026 -62 -76.0002)" stroke="#C3E86C"/>
</g>
<defs>
<clipPath id="clip0_2101_236283">
<rect width="212" height="8" fill="white" transform="translate(0 212) rotate(-90)"/>
</clipPath>
</defs>
</svg>
