<svg width="20" height="161" viewBox="0 0 20 161" fill="none" xmlns="http://www.w3.org/2000/svg">
<g clip-path="url(#clip0_2227_47958)">
<line y1="-0.5" x2="152.735" y2="-0.5" transform="matrix(0.866025 0.500001 -0.499999 0.866026 -56 150.109)" stroke="#C3E86C"/>
<line y1="-0.5" x2="152.735" y2="-0.5" transform="matrix(0.866025 0.500001 -0.499999 0.866026 -56 138.109)" stroke="#C3E86C"/>
<line y1="-0.5" x2="152.735" y2="-0.5" transform="matrix(0.866025 0.500001 -0.499999 0.866026 -56 126.109)" stroke="#C3E86C"/>
<line y1="-0.5" x2="152.735" y2="-0.5" transform="matrix(0.866025 0.500001 -0.499999 0.866026 -56 114.109)" stroke="#C3E86C"/>
<line y1="-0.5" x2="152.735" y2="-0.5" transform="matrix(0.866025 0.500001 -0.499999 0.866026 -56 102.109)" stroke="#C3E86C"/>
<line y1="-0.5" x2="152.735" y2="-0.5" transform="matrix(0.866025 0.500001 -0.499999 0.866026 -56 90.1094)" stroke="#C3E86C"/>
<line y1="-0.5" x2="152.735" y2="-0.5" transform="matrix(0.866025 0.500001 -0.499999 0.866026 -56 78.1094)" stroke="#C3E86C"/>
<line y1="-0.5" x2="152.735" y2="-0.5" transform="matrix(0.866025 0.500001 -0.499999 0.866026 -56 66.1094)" stroke="#C3E86C"/>
<line y1="-0.5" x2="152.735" y2="-0.5" transform="matrix(0.866025 0.500001 -0.499999 0.866026 -56 54.1094)" stroke="#C3E86C"/>
<line y1="-0.5" x2="152.735" y2="-0.5" transform="matrix(0.866025 0.500001 -0.499999 0.866026 -56 42.1094)" stroke="#C3E86C"/>
<line y1="-0.5" x2="152.735" y2="-0.5" transform="matrix(0.866025 0.500001 -0.499999 0.866026 -56 30.1094)" stroke="#C3E86C"/>
<line y1="-0.5" x2="152.735" y2="-0.5" transform="matrix(0.866025 0.500001 -0.499999 0.866026 -56 18.1094)" stroke="#C3E86C"/>
<line y1="-0.5" x2="152.735" y2="-0.5" transform="matrix(0.866025 0.500001 -0.499999 0.866026 -56 6.10938)" stroke="#C3E86C"/>
<line y1="-0.5" x2="152.735" y2="-0.5" transform="matrix(0.866025 0.500001 -0.499999 0.866026 -56 -5.89062)" stroke="#C3E86C"/>
<line y1="-0.5" x2="152.735" y2="-0.5" transform="matrix(0.866025 0.500001 -0.499999 0.866026 -56 -17.8906)" stroke="#C3E86C"/>
<line y1="-0.5" x2="152.735" y2="-0.5" transform="matrix(0.866025 0.500001 -0.499999 0.866026 -56 -29.8906)" stroke="#C3E86C"/>
<line y1="-0.5" x2="152.735" y2="-0.5" transform="matrix(0.866025 0.500001 -0.499999 0.866026 -56 -41.8906)" stroke="#C3E86C"/>
<line y1="-0.5" x2="152.735" y2="-0.5" transform="matrix(0.866025 0.500001 -0.499999 0.866026 -56 -53.8906)" stroke="#C3E86C"/>
<line y1="-0.5" x2="152.735" y2="-0.5" transform="matrix(0.866025 0.500001 -0.499999 0.866026 -56 -65.8906)" stroke="#C3E86C"/>
</g>
<defs>
<clipPath id="clip0_2227_47958">
<rect width="160" height="20" fill="white" transform="matrix(0 -1 1 0 0 160.109)"/>
</clipPath>
</defs>
</svg>
